<svg xmlns="http://www.w3.org/2000/svg" viewBox="0 0 86 62">

 <g>
  <title>Layer 1</title>
  <g id="a">
   <line id="svg_1" fill="#eef" y2="23.84032" x2="48.00485" y1="57.00032" x1="28.96485" class="cls-2"/>
   <path id="svg_2" fill="#eef" d="m85.34485,59.20032l-34.07,-58.6a1.31,1.31 0 0 0 -1.13,-0.6l-15.11,0a1.3,1.3 0 0 0 -1.13,0.65l-33.7,58.55a1.3,1.3 0 0 0 1.13,2l15.66,0l12.26,-2.85l0,0l0.23,-0.08l0,0a1.32,1.32 0 0 0 0.2,-0.12l0,0a1,1 0 0 0 0.18,-0.17l0,0a1.43,1.43 0 0 0 0.14,-0.2l12.62,-21.95l12.47,21.45a1.27,1.27 0 0 0 0.8,0.61l12.51,3.22l0.09,0l15.72,0a1.3,1.3 0 0 0 1.13,-2l0,0.09zm-42.57,-41.84l3.73,6.48l-4.93,8.59a0.55,0.55 0 0 0 -0.09,0.14l-13.37,23.29l-8.79,2l23.45,-40.5zm14.29,38.15l-13,-22.29l3.89,-6.77l18.11,31.37l-9,-2.31zm12.42,3l-25.58,-44.4a1.28,1.28 0 0 0 -1.13,-0.65l0,0a1.28,1.28 0 0 0 -1.12,0.65l-25.71,44.44l-12.36,0l32.2,-56l13.61,0l32.56,56l-12.47,-0.04z" class="cls-3"/>
  </g>
 </g>
</svg>