<?xml version="1.0" encoding="UTF-8"?>
<svg id="Layer_1" data-name="Layer 1" xmlns="http://www.w3.org/2000/svg" width="158.1" height="232.6" xmlns:xlink="http://www.w3.org/1999/xlink" viewBox="0 0 158.1 232.6">
  <defs>
    <style>
      .cls-1 {
        fill: #834ba5;
      }

      .cls-2 {
        fill: #fa27fd;
      }

      .cls-3 {
        fill: #66faef;
      }

      .cls-4 {
        fill: #aa6bca;
      }

      .cls-5 {
        fill: #bbfa60;
      }

      .cls-6 {
        fill: #4c2547;
      }

      .cls-7 {
        clip-path: url(#clippath);
      }

      .cls-8 {
        fill: #ffd348;
      }

      .cls-9 {
        fill: none;
      }

      .cls-10 {
        fill: #8263a0;
      }

      .cls-11 {
        fill: #fcf44c;
      }

      .cls-12 {
        fill: #7a439a;
      }
    </style>
    <clipPath id="clippath">
      <polygon class="cls-9" points="152 142.1 85 149.1 18.1 142.1 18.1 88.3 85 83.3 152 88.3 152 142.1"/>
    </clipPath>
  </defs>
  <polygon class="cls-1" points="85 0 85.2 71.9 19.8 78.7 85 0"/>
  <polygon class="cls-4" points="150.3 78.7 85 0 85.2 71.9 150.3 78.7"/>
  <polygon class="cls-6" points="19.8 78.7 85 83.8 150.3 78.7 85.2 71.9 19.8 78.7"/>
  <g>
    <polygon class="cls-10" points="150.3 153.9 85 146.8 19.8 153.9 84.9 161.7 150.3 153.9"/>
    <polygon class="cls-12" points="85 232.6 84.9 161.7 150.3 153.9 85 232.6"/>
    <polygon class="cls-6" points="19.8 153.9 85 232.6 84.9 161.7 19.8 153.9"/>
  </g>
  <polygon class="cls-11" points="152 142.1 85 149.1 18.1 142.1 18.1 88.3 85 83.3 152 88.3 152 142.1"/>
  <g class="cls-7">
    <g>
      <path class="cls-8" d="M25.8,142s-.2-47.2,15.3-58.5,8.5-1.3,8.5-1.3c0,0-1.7,85.3-12.5,64.8l-11.4-3v-1.9h0Z"/>
      <path class="cls-2" d="M26.2,143.7s-.2-47.2,15.3-58.5c15.5-11.3,8.5-1.3,8.5-1.3,0,0-1.7,85.3-12.5,64.8l-11.4-3v-1.9h0Z"/>
      <path class="cls-2" d="M74.9,149.2s-1.1-29.4,7-30.5c8.1-1.1,7.6,34.1,7.6,34.1l3.8-1.5s.4-44.9-10.8-41.3c-11.2,3.6-10.6,25.6-10.4,39.6s2.8-.4,2.8-.4h0Z"/>
      <path class="cls-8" d="M89.8,81.2s3.9,21.6,9.8,22.2,5.6-2.1,5.6-2.1c0,0,.3-1.9,2.7-1.7s4.2,2.5,6.1,50.2l3.2,.6,11.6-3.2s4.3-56.8-6.8-63.5-32.4-2.5-32.4-2.5h.2Z"/>
      <path class="cls-2" d="M87,79.6s4.5,21.6,11.6,22.2,6.6-2.1,6.6-2.1c0,0,.4-1.9,3.2-1.7s4.9,2.5,7.2,50.2l3.8,.6,13.6-3.2s5.1-56.8-8-63.5-38.1-2.5-38.1-2.5h.1Z"/>
      <path class="cls-8" d="M145.9,85.7s4.9,3,5.7,30.3,2.3-21.4,2.3-21.4l3.4-11.9-11.4,3Z"/>
      <path class="cls-2" d="M146.7,85.7s4.9,3,5.7,30.3,2.3-21.4,2.3-21.4l3.4-11.9-11.4,3Z"/>
      <path class="cls-8" d="M50.4,146.9s2.1-8.9,5.9-8.3c3.8,.6,6.4,10.2,6.4,10.2l-10.8,.4-1.5-2.3h0Z"/>
      <path class="cls-2" d="M58.6,146.1s-.4-3.6-2.7-4.2-3.8,4.7-3.8,4.7l6.4-.6h0Z"/>
      <path class="cls-8" d="M16.1,118.9s11.4,2.8,18.2-34.3S0,89.5,0,89.5l16.1,29.4Z"/>
      <path class="cls-2" d="M10.2,113.9s9.7,12.5,18.2-12.1c8.5-24.6-3-24.6-3-24.6l-18.6,13.5,3.4,23.3h0Z"/>
      <path class="cls-5" d="M54.6,81s-4.4,30.6-2.7,43.6c1.7,13,3.4-3,3.4-3,0,0-.3-3.3,3.8-2.3s5.9,35.1,5.9,35.1l5.4-1.5s-4.7-44.8,12.7-51.1c17.4-6.3-30.3-63.5-30.3-63.5l1.7,42.8h0Z"/>
      <path class="cls-3" d="M56.5,82.7s-5.5,26.1-3.8,38.3c1.7,12.2,1.9-1.7,1.9-1.7,0,0,.6-3.6,4.5-2.7,4,.9,6.6,33.3,6.6,33.3l4-1.3s-4.5-41.9,12.3-47.7c16.8-5.8-29.4-59.3-29.4-59.3l3.8,41.1h.1Z"/>
      <path class="cls-3" d="M78.1,151.4s-1.9-22.5,4-21.6,3.6,25.4,3.6,25.4l-7.6-3.8h0Z"/>
      <path class="cls-5" d="M131.9,84s6.5,42.2,6.5,48.8,2-1.6,2-1.6c0,0,3.2-9.5,9.3,14.9s6.7-1,6.7-1l-3.2-11.1s-2.8-43.8-8.9-50.4-12.3,.4-12.3,.4h0Z"/>
      <path class="cls-3" d="M132.6,84.8s6.1,39.6,6.1,45.9,1.9-1.5,1.9-1.5c0,0,3-8.9,8.7,14,5.7,22.9,6.3-.9,6.3-.9l-3-10.4s-2.7-41.1-8.3-47.4-11.6,.4-11.6,.4h0Z"/>
      <path class="cls-5" d="M110.9,148.8s-.6-21.6-2.4-23.1-2.4-3-4.1,.9c-1.7,3.9-8.1-2.1-15.2-25.2,0,0-2-4.4-1.3,3.6s7.4,37.1,7.6,42.4,15.4,1.3,15.4,1.3h0Z"/>
      <path class="cls-3" d="M111.2,150.9s-.6-21.6-2.5-23.1-2.5-3-4.2,.9c-1.7,3.9-8.3-2.1-15.5-25.2,0,0-2.1-4.4-1.3,3.6s7.6,37.1,7.8,42.4,15.7,1.3,15.7,1.3h0Z"/>
    </g>
  </g>
</svg>