<svg width="193" height="193" xmlns="http://www.w3.org/2000/svg" xmlns:undefined="http://vectornator.io" data-name="86977684-12db-4850-8f30-233a7c267d11">
 <g>
  <title>Layer 1</title>
  <defs>
   <clipPath id="cut-off-ear">
    <polyline points="193 193, 0 193, 0 200, 120 0, 193 0" fill="none" stroke="black" id="svg_10"/>
   </clipPath>
   <linearGradient id="svg_26" y2="0.49811" x2="0.49821" y1="0.70621" x1="0.69575">
    <stop id="svg_8" stop-color="#8a8a8a" offset="0"/>
    <stop id="svg_7" stop-color="#fff" offset="0.5"/>
    <stop id="svg_6" stop-color="#7b7b7b" offset="1"/>
   </linearGradient>
   <linearGradient y2="0.5" y1="0.5" x2="1" x1="0" id="svg_13">
    <stop stop-color="#0056d4" offset="0"/>
    <stop stop-color="#2effef" offset="1"/>
   </linearGradient>
  </defs>
  <!-- EQUITY -->
  <svg id="svg_19" clip-rule="evenodd" xmlns:xlink="http://www.w3.org/1999/xlink" xmlns:vectornator="http://vectornator.io" xmlns="http://www.w3.org/2000/svg" xml:space="preserve" width="100%" viewBox="0 0 98 98" version="1.1" stroke-miterlimit="10" height="100%">

   <clipPath id="svg_12">
    <rect id="svg_20" y="0" x="0" width="98" height="98"/>
   </clipPath>
   <g  id="svg_11" clip-path="url(#svg_12)">
    <path id="svg_21"  fill-rule="nonzero" fill="url(#svg_13)" d="m-0.01559,48.8958c0,-27.0662 21.94149,-49.00776 49.00779,-49.00776c27.0663,0 49.0078,21.94156 49.0078,49.00776c0,27.0663 -21.9415,49.0078 -49.0078,49.0078c-27.0663,0 -49.00779,-21.9415 -49.00779,-49.0078z"/>
    <path id="svg_22"  fill-rule="nonzero" fill="#000000" d="m49,4.5c-24.5735,-0.00001 -44.5,19.9265 -44.5,44.5c-0.00001,24.5735 19.9265,44.5 44.5,44.5c24.5735,0 44.5,-19.9265 44.5,-44.5c0,-24.5735 -19.9265,-44.5 -44.5,-44.5zm0,14.0625c1.2904,0 2.3438,1.0533 2.3438,2.3437l0,4.7188c5.3697,2.1854 12.8086,2.5 19.5,2.5l6.25,0c1.2904,0 2.3437,1.0533 2.3437,2.3438c0,1.2904 -1.0533,2.3437 -2.3437,2.3437l-4.0313,0l9.3437,24.9375c0.3643,0.9678 0.0617,2.0631 -0.7812,2.6875c-3.1324,2.3519 -6.8788,3.5937 -10.7812,3.5937c-3.9025,0 -7.6073,-1.2522 -10.75,-3.5937c-0.8326,-0.6244 -1.1455,-1.7093 -0.7813,-2.6875l9.3437,-24.9375c-5.8692,-0.0728 -12.1092,-0.4912 -17.3124,-2.1875l0,44.1562l13.2812,0c1.2904,0 2.3438,1.0221 2.3438,2.3126c0,1.2904 -1.0534,2.3437 -2.3438,2.3437l-31.2188,0c-1.2904,0 -2.3437,-1.0533 -2.3437,-2.3437c0,-1.2905 1.0533,-2.3126 2.3437,-2.3126l13.25,0l0,-44.1562c-5.1928,1.6963 -11.4432,2.1147 -17.3124,2.1875l9.3437,24.9375c0.3642,0.9782 0.0513,2.0631 -0.7813,2.6875c-3.1323,2.3519 -6.8788,3.5937 -10.7812,3.5937c-3.9024,0 -7.6072,-1.2522 -10.75,-3.5937c-0.8325,-0.6244 -1.1455,-1.7093 -0.7812,-2.6875l9.3437,-24.9375l-4.0313,0c-1.2904,0 -2.3437,-1.0533 -2.3437,-2.3437c0,-1.2905 1.0533,-2.3438 2.3437,-2.3438l6.25,0c6.6914,0 14.1303,-0.3146 19.5,-2.5l0,-4.7188c0,-1.2904 1.0534,-2.3437 2.3438,-2.3437zm-21.8438,21.6875l-6.5312,17.375c1.9876,1.1343 4.221,1.7188 6.5312,1.7188c2.3103,0 4.5437,-0.5845 6.5313,-1.7188l-6.5313,-17.375zm43.7188,0l-6.5312,17.375c1.9876,1.1343 4.221,1.7188 6.5312,1.7188c2.2998,0 4.502,-0.5845 6.5,-1.7188l-6.5,-17.375z"/>
   </g>
  </svg>
  <!-- USDC -->
  <g clip-path="url(#cut-off-ear)" id="svg_9">
   <svg y="0" x="0" id="svg_15" xmlns="http://www.w3.org/2000/svg" viewBox="0 0 2000 2000">
    <path id="svg_18" d="m1000,2000c554.17,0 1000,-445.83 1000,-1000s-445.83,-1000 -1000,-1000s-1000,445.83 -1000,1000s445.83,1000 1000,1000z" fill="#2775ca"/>
    <path id="svg_17" d="m1275,1158.33c0,-145.83 -87.5,-195.83 -262.5,-216.66c-125,-16.67 -150,-50 -150,-108.34s41.67,-95.83 125,-95.83c75,0 116.67,25 137.5,87.5c4.17,12.5 16.67,20.83 29.17,20.83l66.66,0c16.67,0 29.17,-12.5 29.17,-29.16l0,-4.17c-16.67,-91.67 -91.67,-162.5 -187.5,-170.83l0,-100c0,-16.67 -12.5,-29.17 -33.33,-33.34l-62.5,0c-16.67,0 -29.17,12.5 -33.34,33.34l0,95.83c-125,16.67 -204.16,100 -204.16,204.17c0,137.5 83.33,191.66 258.33,212.5c116.67,20.83 154.17,45.83 154.17,112.5s-58.34,112.5 -137.5,112.5c-108.34,0 -145.84,-45.84 -158.34,-108.34c-4.16,-16.66 -16.66,-25 -29.16,-25l-70.84,0c-16.66,0 -29.16,12.5 -29.16,29.17l0,4.17c16.66,104.16 83.33,179.16 220.83,200l0,100c0,16.66 12.5,29.16 33.33,33.33l62.5,0c16.67,0 29.17,-12.5 33.34,-33.33l0,-100c125,-20.84 208.33,-108.34 208.33,-220.84z" fill="#fff"/>
    <path id="svg_16" d="m787.5,1595.83c-325,-116.66 -491.67,-479.16 -370.83,-800c62.5,-175 200,-308.33 370.83,-370.83c16.67,-8.33 25,-20.83 25,-41.67l0,-58.33c0,-16.67 -8.33,-29.17 -25,-33.33c-4.17,0 -12.5,0 -16.67,4.16c-395.83,125 -612.5,545.84 -487.5,941.67c75,233.33 254.17,412.5 487.5,487.5c16.67,8.33 33.34,0 37.5,-16.67c4.17,-4.16 4.17,-8.33 4.17,-16.66l0,-58.34c0,-12.5 -12.5,-29.16 -25,-37.5zm441.67,-1300c-16.67,-8.33 -33.34,0 -37.5,16.67c-4.17,4.17 -4.17,8.33 -4.17,16.67l0,58.33c0,16.67 12.5,33.33 25,41.67c325,116.66 491.67,479.16 370.83,800c-62.5,175 -200,308.33 -370.83,370.83c-16.67,8.33 -25,20.83 -25,41.67l0,58.33c0,16.67 8.33,29.17 25,33.33c4.17,0 12.5,0 16.67,-4.16c395.83,-125 612.5,-545.84 487.5,-941.67c-75,-237.5 -258.34,-416.67 -487.5,-491.67z" fill="#fff"/>
   </svg>
  </g>
  <!-- Ear -->
  <path transform="rotate(9.92425, 71.4312, 80.9735)" id="svg_3" fill="url(#svg_26)" d="m104.15482,-4.08235c-0.66179,43.71936 -7.35362,86.87057 -20.02881,119.81713c-12.67518,32.94479 -29.01945,49.66722 -45.41847,50.29451"/>
 </g>
</svg>