<svg width="193" height="193" xmlns="http://www.w3.org/2000/svg" xmlns:undefined="http://vectornator.io" data-name="86977684-12db-4850-8f30-233a7c267d11">
 <g>
  <title>Layer 1</title>
  <defs>
   <clipPath id="cut-off-ear">
    <polyline points="193 193, 0 193, 0 200, 120 0, 193 0" fill="none" stroke="black" id="svg_10"/>
   </clipPath>
   <linearGradient id="svg_26" y2="0.49811" x2="0.49821" y1="0.70621" x1="0.69575">
    <stop id="svg_8" stop-color="#8a8a8a" offset="0"/>
    <stop id="svg_7" stop-color="#fff" offset="0.5"/>
    <stop id="svg_6" stop-color="#7b7b7b" offset="1"/>
   </linearGradient>
   <linearGradient y2="0.5" y1="0.5" x2="1" x1="0" id="svg_13">
    <stop stop-color="#0056d4" offset="0"/>
    <stop stop-color="#2effef" offset="1"/>
   </linearGradient>
  </defs>
  <!-- EQUITY -->
  <svg id="svg_19" clip-rule="evenodd" xmlns:xlink="http://www.w3.org/1999/xlink" xmlns:vectornator="http://vectornator.io" xmlns="http://www.w3.org/2000/svg" xml:space="preserve" width="100%" viewBox="0 0 98 98" version="1.1" stroke-miterlimit="10" height="100%">

   <clipPath id="svg_12">
    <rect id="svg_20" y="0" x="0" width="98" height="98"/>
   </clipPath>
   <g  id="svg_11" clip-path="url(#svg_12)">
    <path id="svg_21"  fill-rule="nonzero" fill="url(#svg_13)" d="m-0.01559,48.8958c0,-27.0662 21.94149,-49.00776 49.00779,-49.00776c27.0663,0 49.0078,21.94156 49.0078,49.00776c0,27.0663 -21.9415,49.0078 -49.0078,49.0078c-27.0663,0 -49.00779,-21.9415 -49.00779,-49.0078z"/>
    <path id="svg_22"  fill-rule="nonzero" fill="#000000" d="m49,4.5c-24.5735,-0.00001 -44.5,19.9265 -44.5,44.5c-0.00001,24.5735 19.9265,44.5 44.5,44.5c24.5735,0 44.5,-19.9265 44.5,-44.5c0,-24.5735 -19.9265,-44.5 -44.5,-44.5zm0,14.0625c1.2904,0 2.3438,1.0533 2.3438,2.3437l0,4.7188c5.3697,2.1854 12.8086,2.5 19.5,2.5l6.25,0c1.2904,0 2.3437,1.0533 2.3437,2.3438c0,1.2904 -1.0533,2.3437 -2.3437,2.3437l-4.0313,0l9.3437,24.9375c0.3643,0.9678 0.0617,2.0631 -0.7812,2.6875c-3.1324,2.3519 -6.8788,3.5937 -10.7812,3.5937c-3.9025,0 -7.6073,-1.2522 -10.75,-3.5937c-0.8326,-0.6244 -1.1455,-1.7093 -0.7813,-2.6875l9.3437,-24.9375c-5.8692,-0.0728 -12.1092,-0.4912 -17.3124,-2.1875l0,44.1562l13.2812,0c1.2904,0 2.3438,1.0221 2.3438,2.3126c0,1.2904 -1.0534,2.3437 -2.3438,2.3437l-31.2188,0c-1.2904,0 -2.3437,-1.0533 -2.3437,-2.3437c0,-1.2905 1.0533,-2.3126 2.3437,-2.3126l13.25,0l0,-44.1562c-5.1928,1.6963 -11.4432,2.1147 -17.3124,2.1875l9.3437,24.9375c0.3642,0.9782 0.0513,2.0631 -0.7813,2.6875c-3.1323,2.3519 -6.8788,3.5937 -10.7812,3.5937c-3.9024,0 -7.6072,-1.2522 -10.75,-3.5937c-0.8325,-0.6244 -1.1455,-1.7093 -0.7812,-2.6875l9.3437,-24.9375l-4.0313,0c-1.2904,0 -2.3437,-1.0533 -2.3437,-2.3437c0,-1.2905 1.0533,-2.3438 2.3437,-2.3438l6.25,0c6.6914,0 14.1303,-0.3146 19.5,-2.5l0,-4.7188c0,-1.2904 1.0534,-2.3437 2.3438,-2.3437zm-21.8438,21.6875l-6.5312,17.375c1.9876,1.1343 4.221,1.7188 6.5312,1.7188c2.3103,0 4.5437,-0.5845 6.5313,-1.7188l-6.5313,-17.375zm43.7188,0l-6.5312,17.375c1.9876,1.1343 4.221,1.7188 6.5312,1.7188c2.2998,0 4.502,-0.5845 6.5,-1.7188l-6.5,-17.375z"/>
   </g>
  </svg>
  <!-- USDC -->
  <g clip-path="url(#cut-off-ear)" id="svg_9">
   <svg xmlns="http://www.w3.org/2000/svg" xmlns:xlink="http://www.w3.org/1999/xlink" viewBox="0 0 32 32"><defs><style>.cls-1{fill:#fff;fill-rule:evenodd;}.cls-2{fill:#13b5ec;}.cls-3{mask:url(#mask);}</style><mask id="mask" x="10" y="6" width="93.1" height="20" maskUnits="userSpaceOnUse"><g id="a"><path class="cls-1" d="M10,6h93.1V26H10Z"/></g></mask></defs><title>fa</title><g id="Layer_2" data-name="Layer 2"><g id="Layer_1-2" data-name="Layer 1"><circle class="cls-2" cx="16" cy="16" r="16"/><g class="cls-3"><path class="cls-1" d="M17.2,12.9l3.6-2.1V15Zm3.6,9L16,24.7l-4.8-2.8V17L16,19.8,20.8,17ZM11.2,10.8l3.6,2.1L11.2,15Zm5.4,3.1L20.2,16l-3.6,2.1Zm-1.2,4.2L11.8,16l3.6-2.1Zm4.8-8.3L16,12.2,11.8,9.8,16,7.3ZM10,9.4V22.5l6,3.4,6-3.4V9.4L16,6Z"/></g></g></g></svg>
  </g>
  <!-- Ear -->
  <path transform="rotate(9.92425, 71.4312, 80.9735)" id="svg_3" fill="url(#svg_26)" d="m104.15482,-4.08235c-0.66179,43.71936 -7.35362,86.87057 -20.02881,119.81713c-12.67518,32.94479 -29.01945,49.66722 -45.41847,50.29451"/>
 </g>
</svg>