<svg id="svg" version="1.1" width="512" height="512" xmlns="http://www.w3.org/2000/svg"><path d="M0.000 256.000 L 0.000 512.000 256.000 512.000 L 512.000 512.000 512.000 256.000 L 512.000 0.000 256.000 0.000 L 0.000 0.000 0.000 256.000 M328.472 12.895 C 327.387 13.938,325.375 15.104,324.000 15.488 C 321.877 16.079,322.028 15.801,325.000 13.641 C 329.121 10.647,331.298 10.179,328.472 12.895 M257.245 20.500 C 257.817 23.491,257.858 23.479,255.153 21.133 C 252.504 18.836,252.433 18.000,254.883 18.000 C 256.098 18.000,256.936 18.887,257.245 20.500 M381.000 25.884 C 381.000 27.605,372.961 34.000,370.797 34.000 C 368.300 34.000,368.538 33.693,375.000 28.580 C 379.591 24.947,381.000 24.314,381.000 25.884 M160.638 35.500 C 159.994 37.179,156.397 39.536,153.000 40.504 C 150.907 41.101,151.315 40.377,155.500 36.061 C 159.131 32.316,160.592 31.344,160.835 32.511 C 161.019 33.394,160.930 34.739,160.638 35.500 M364.603 36.731 C 364.421 36.913,362.843 37.472,361.096 37.972 L 357.921 38.883 360.460 35.865 C 361.857 34.205,363.039 32.319,363.086 31.673 C 363.133 31.028,363.568 31.827,364.053 33.450 C 364.537 35.072,364.785 36.548,364.603 36.731 M165.916 41.000 C 165.916 43.319,165.777 43.246,164.000 40.000 C 162.946 38.075,162.084 35.375,162.084 34.000 C 162.084 31.681,162.223 31.754,164.000 35.000 C 165.054 36.925,165.916 39.625,165.916 41.000 M276.042 34.922 C 274.744 37.348,270.154 41.000,268.404 41.000 C 267.039 41.000,274.876 33.070,276.285 33.025 C 276.717 33.011,276.607 33.865,276.042 34.922 M322.851 34.098 C 325.451 35.004,326.870 37.048,325.750 38.273 C 325.613 38.424,326.485 39.604,327.689 40.897 C 331.047 44.501,337.277 57.044,335.340 56.300 C 334.467 55.965,332.708 53.328,331.431 50.440 C 329.712 46.554,328.099 44.622,325.223 43.005 C 322.753 41.617,320.911 39.644,320.169 37.590 C 318.313 32.459,318.279 32.504,322.851 34.098 M236.949 37.817 C 236.152 38.064,233.316 39.081,230.646 40.077 C 225.834 41.871,225.808 41.870,227.565 39.928 C 229.544 37.741,234.728 36.036,236.949 36.841 C 238.215 37.300,238.215 37.424,236.949 37.817 M234.130 50.183 C 236.223 53.122,236.247 53.305,234.449 52.570 C 230.189 50.828,228.855 50.821,226.967 52.530 C 224.555 54.712,224.350 52.922,226.615 49.465 C 228.808 46.119,231.414 46.368,234.130 50.183 M169.264 53.704 C 168.034 53.941,165.784 53.947,164.264 53.718 C 162.744 53.488,163.750 53.294,166.500 53.286 C 169.250 53.279,170.494 53.467,169.264 53.704 M417.628 58.600 C 422.303 60.531,424.740 62.597,426.611 66.214 C 427.843 68.596,427.181 68.305,421.258 63.861 C 411.149 56.274,410.810 55.783,417.628 58.600 M139.210 64.205 C 142.975 64.323,143.121 64.833,140.326 68.103 C 139.079 69.563,138.541 69.496,134.309 67.353 C 131.752 66.059,128.136 65.000,126.272 65.000 C 124.089 65.000,123.121 64.614,123.553 63.915 C 123.985 63.216,126.231 63.054,129.862 63.460 C 132.963 63.806,137.169 64.142,139.210 64.205 M360.000 71.349 C 360.000 71.899,358.875 71.292,357.500 70.000 C 356.125 68.708,355.000 67.201,355.000 66.651 C 355.000 66.101,356.125 66.708,357.500 68.000 C 358.875 69.292,360.000 70.799,360.000 71.349 M338.295 84.133 C 340.288 85.435,342.464 87.513,343.129 88.750 C 344.046 90.456,345.227 91.000,348.014 91.000 C 351.935 91.000,354.327 92.890,355.259 96.724 C 355.791 98.915,355.748 98.910,352.410 96.363 C 349.963 94.497,348.329 93.952,346.533 94.402 C 344.432 94.930,343.633 94.403,341.389 91.012 C 337.903 85.745,333.346 83.017,327.882 82.930 C 324.418 82.874,323.919 82.669,325.500 81.949 C 328.586 80.544,334.292 81.518,338.295 84.133 M173.390 86.750 C 172.689 89.722,171.000 92.194,171.000 90.247 C 171.000 88.953,173.124 84.000,173.680 84.000 C 173.877 84.000,173.746 85.237,173.390 86.750 M334.214 88.209 C 336.405 91.561,337.336 95.000,336.051 95.000 C 335.455 95.000,334.205 93.313,333.273 91.250 C 332.341 89.188,330.886 86.647,330.040 85.604 C 328.595 83.826,328.630 83.777,330.608 84.814 C 331.768 85.422,333.391 86.950,334.214 88.209 M130.014 95.144 C 133.881 96.873,136.898 98.435,136.719 98.615 C 136.050 99.283,126.167 95.633,123.876 93.872 C 120.462 91.246,122.019 91.569,130.014 95.144 M235.000 92.414 C 235.000 92.642,232.733 94.224,229.961 95.929 C 225.665 98.572,224.600 98.856,222.731 97.856 C 220.690 96.764,220.950 96.527,226.520 94.393 C 232.299 92.180,235.000 91.550,235.000 92.414 M361.509 97.750 C 361.811 99.263,362.456 101.741,362.944 103.257 C 363.533 105.086,363.489 105.802,362.814 105.385 C 361.573 104.618,359.000 98.645,359.000 96.532 C 359.000 93.914,360.932 94.852,361.509 97.750 M159.762 109.750 C 160.886 110.768,160.236 111.000,156.258 111.000 L 151.374 111.000 151.129 106.250 L 150.884 101.500 154.633 105.000 C 156.694 106.925,159.003 109.063,159.762 109.750 M162.341 120.449 C 164.365 120.901,165.012 121.527,164.591 122.624 C 164.266 123.471,163.969 126.714,163.930 129.832 L 163.861 135.500 162.340 130.500 C 161.503 127.750,159.674 123.988,158.275 122.140 C 156.066 119.223,155.979 118.848,157.615 119.297 C 158.652 119.581,160.778 120.100,162.341 120.449 M182.989 120.494 C 188.136 123.156,189.000 125.455,189.000 136.500 C 189.000 147.545,188.136 149.844,182.989 152.506 C 181.400 153.328,178.839 153.998,177.300 153.996 C 174.507 153.993,168.158 150.755,166.765 148.624 C 165.475 146.650,165.882 126.544,167.250 124.677 C 169.250 121.948,174.264 119.152,177.300 119.073 C 178.839 119.033,181.400 119.672,182.989 120.494 M172.016 123.680 L 168.532 125.197 172.516 126.583 C 177.608 128.355,180.008 128.313,182.500 126.406 C 184.476 124.894,184.477 124.859,182.559 123.438 C 180.129 121.638,176.516 121.721,172.016 123.680 M270.985 134.309 C 270.974 141.258,270.661 144.023,270.000 143.000 C 268.684 140.963,268.684 122.686,270.000 123.500 C 270.563 123.848,270.993 128.576,270.985 134.309 M97.586 130.513 C 97.077 132.541,91.257 137.590,90.407 136.741 C 90.168 136.501,90.850 135.189,91.924 133.824 C 92.998 132.459,94.191 130.028,94.576 128.421 C 94.961 126.814,95.513 125.086,95.803 124.579 C 96.632 123.129,98.161 128.221,97.586 130.513 M264.518 136.653 C 267.147 140.969,270.181 145.287,271.260 146.250 C 273.202 147.982,273.200 148.000,271.074 148.000 C 269.486 148.000,267.571 145.899,263.714 139.926 L 258.500 131.852 258.211 140.426 C 257.818 152.086,256.000 151.427,256.000 139.625 C 256.000 134.469,255.740 128.731,255.423 126.875 L 254.846 123.500 257.291 126.153 C 258.636 127.612,261.888 132.337,264.518 136.653 M332.525 132.049 C 334.436 135.845,336.041 139.749,336.090 140.725 C 336.140 141.701,336.617 140.983,337.150 139.128 C 337.684 137.274,339.548 133.226,341.294 130.133 L 344.468 124.510 345.176 128.505 C 346.060 133.489,346.171 143.761,345.373 146.739 C 344.184 151.173,342.999 147.721,342.954 139.691 L 342.908 131.500 340.284 137.250 C 338.841 140.412,337.063 143.000,336.333 143.000 C 335.604 143.000,333.768 140.245,332.253 136.878 L 329.500 130.757 329.500 139.128 C 329.500 143.880,329.068 147.605,328.500 147.744 C 327.879 147.896,327.470 143.463,327.421 136.041 C 327.378 129.470,327.726 124.331,328.196 124.621 C 328.666 124.911,330.614 128.254,332.525 132.049 M386.678 126.546 C 385.125 127.911,383.476 128.794,383.013 128.508 C 382.550 128.222,381.943 128.553,381.664 129.244 C 381.386 129.935,381.122 129.553,381.079 128.395 C 381.022 126.868,381.894 126.003,384.250 125.247 C 389.287 123.631,389.725 123.865,386.678 126.546 M184.500 127.176 C 183.950 128.418,182.375 129.699,181.000 130.022 C 178.534 130.602,178.544 130.625,181.750 131.753 C 183.537 132.382,185.000 133.583,185.000 134.423 C 185.000 135.649,184.494 135.758,182.435 134.975 C 179.068 133.695,179.290 133.572,178.787 137.000 C 178.291 140.378,178.769 140.642,181.559 138.532 C 184.062 136.638,185.000 136.634,185.000 138.516 C 185.000 139.350,183.418 140.787,181.485 141.708 C 178.112 143.317,177.791 143.297,173.485 141.205 L 169.000 139.026 169.000 142.858 C 169.000 147.573,171.370 149.972,176.742 150.692 C 179.867 151.111,181.178 150.748,183.363 148.857 C 186.055 146.528,186.083 146.372,185.793 135.709 C 185.570 127.492,185.261 125.456,184.500 127.176 M220.684 126.000 C 223.385 126.000,224.877 126.391,224.500 127.000 C 223.701 128.293,213.705 128.305,212.415 127.015 C 211.768 126.368,211.442 129.855,211.465 137.172 C 211.490 145.217,211.153 148.432,210.250 148.740 C 209.298 149.065,209.000 146.444,209.000 137.750 C 209.000 131.471,209.334 125.999,209.743 125.590 C 210.152 125.182,211.783 125.107,213.368 125.424 C 214.953 125.741,218.245 126.000,220.684 126.000 M288.231 139.229 C 287.961 145.129,287.348 149.715,286.870 149.420 C 286.391 149.124,286.000 144.457,286.000 139.048 C 286.000 128.500,285.747 128.000,280.418 128.000 C 276.233 128.000,277.796 126.130,282.250 125.807 C 288.314 125.369,288.814 126.490,288.231 139.229 M315.690 128.213 C 317.051 129.719,317.495 131.826,317.479 136.713 C 317.461 142.305,317.132 143.475,315.118 145.105 C 312.279 147.405,308.221 147.543,305.223 145.443 C 303.313 144.106,303.000 142.970,303.000 137.378 C 303.000 133.798,303.479 129.973,304.065 128.878 C 306.204 124.883,312.362 124.530,315.690 128.213 M296.500 127.000 C 296.160 127.550,294.585 128.000,293.000 128.000 C 291.415 128.000,289.840 127.550,289.500 127.000 C 289.126 126.395,290.509 126.000,293.000 126.000 C 295.491 126.000,296.874 126.395,296.500 127.000 M169.000 131.606 C 169.000 135.630,169.284 136.104,172.750 137.872 L 176.500 139.786 176.500 136.017 L 176.500 132.248 174.115 134.124 C 171.235 136.390,170.000 136.503,170.000 134.503 C 170.000 133.679,171.312 132.442,172.915 131.753 L 175.829 130.500 172.415 128.876 L 169.000 127.253 169.000 131.606 M241.982 135.250 C 243.718 139.787,245.365 144.850,245.643 146.500 L 246.147 149.500 244.074 147.000 C 242.934 145.625,241.533 143.938,240.961 143.250 C 240.389 142.563,238.787 142.000,237.402 142.000 C 235.976 142.000,235.150 141.566,235.500 141.000 C 235.840 140.450,237.164 140.000,238.442 140.000 C 240.739 140.000,240.749 139.950,239.303 135.753 C 238.498 133.418,237.718 131.385,237.570 131.236 C 237.421 131.088,235.811 134.816,233.992 139.522 C 229.009 152.409,226.934 152.332,231.392 139.425 C 236.791 123.796,237.493 123.519,241.982 135.250 M307.039 130.189 C 304.263 133.168,304.241 140.241,307.000 143.000 C 308.100 144.100,309.450 145.000,310.000 145.000 C 312.577 145.000,315.000 140.882,315.000 136.500 C 315.000 133.333,314.407 131.407,313.000 130.000 C 310.460 127.460,309.555 127.488,307.039 130.189 M383.551 138.238 C 388.911 144.759,389.129 145.193,385.750 142.619 C 383.688 141.048,382.000 140.073,382.000 140.453 C 382.000 142.420,378.660 137.425,377.990 134.456 C 377.561 132.555,377.298 131.000,377.406 131.000 C 377.513 131.000,380.278 134.257,383.551 138.238 M223.000 135.941 C 223.000 137.666,220.967 138.170,216.832 137.472 C 213.948 136.984,213.146 136.521,214.119 135.905 C 215.975 134.730,223.000 134.758,223.000 135.941 M280.353 137.750 C 279.625 140.518,276.704 143.726,274.239 144.464 C 272.171 145.084,272.069 144.944,273.042 142.821 C 273.848 141.062,279.489 136.000,280.642 136.000 C 280.736 136.000,280.606 136.787,280.353 137.750 M394.706 138.286 C 395.369 138.312,395.711 138.659,395.465 139.057 C 395.219 139.455,396.122 140.505,397.473 141.391 C 398.824 142.276,400.430 143.934,401.041 145.076 C 402.032 146.928,401.955 147.036,400.326 146.083 C 397.098 144.194,389.429 136.735,391.500 137.500 C 392.600 137.906,394.043 138.260,394.706 138.286 M408.000 139.889 C 408.000 140.378,407.067 141.841,405.927 143.139 L 403.854 145.500 405.643 142.250 C 407.497 138.880,408.000 138.376,408.000 139.889 M377.826 143.868 C 376.547 145.446,375.327 146.585,375.115 146.399 C 374.445 145.814,377.997 141.000,379.099 141.000 C 379.678 141.000,379.105 142.291,377.826 143.868 M194.000 166.893 C 194.000 167.384,193.288 168.059,192.418 168.393 C 190.352 169.186,97.648 169.186,95.582 168.393 C 94.712 168.059,94.000 167.384,94.000 166.893 C 94.000 166.381,115.327 166.000,144.000 166.000 C 172.673 166.000,194.000 166.381,194.000 166.893 M330.000 166.893 C 330.000 167.384,329.288 168.059,328.418 168.393 C 327.548 168.727,305.809 169.000,280.109 169.000 C 240.572 169.000,233.084 168.774,231.441 167.532 C 229.726 166.234,235.348 166.060,279.750 166.032 C 308.594 166.014,330.000 166.380,330.000 166.893 M466.000 166.893 C 466.000 167.384,465.288 168.059,464.418 168.393 C 462.352 169.186,369.648 169.186,367.582 168.393 C 366.712 168.059,366.000 167.384,366.000 166.893 C 366.000 166.381,387.327 166.000,416.000 166.000 C 444.673 166.000,466.000 166.381,466.000 166.893 M112.000 171.000 C 108.271 172.194,98.762 172.194,99.500 171.000 C 99.840 170.450,103.354 170.045,107.309 170.100 C 112.434 170.171,113.782 170.429,112.000 171.000 M189.500 171.000 C 190.245 172.205,184.203 172.237,178.500 171.057 C 174.886 170.310,175.194 170.219,181.691 170.115 C 185.646 170.052,189.160 170.450,189.500 171.000 M250.000 171.036 C 240.081 172.151,234.797 172.138,235.500 171.000 C 235.857 170.422,240.421 170.064,246.309 170.152 C 256.214 170.301,256.317 170.326,250.000 171.036 M262.750 170.689 C 261.788 170.941,260.212 170.941,259.250 170.689 C 258.288 170.438,259.075 170.232,261.000 170.232 C 262.925 170.232,263.712 170.438,262.750 170.689 M287.750 170.742 C 284.038 170.934,277.962 170.934,274.250 170.742 C 270.538 170.549,273.575 170.392,281.000 170.392 C 288.425 170.392,291.462 170.549,287.750 170.742 M325.565 171.105 C 326.057 171.902,323.218 172.008,315.374 171.486 C 309.393 171.088,304.313 170.591,304.083 170.381 C 303.854 170.172,308.440 170.000,314.274 170.000 C 320.937 170.000,325.136 170.411,325.565 171.105 M386.500 171.038 C 377.393 172.168,370.788 172.151,371.500 171.000 C 371.857 170.423,376.427 170.062,382.309 170.147 C 391.820 170.284,392.099 170.344,386.500 171.038 M415.768 170.715 C 414.265 170.943,411.565 170.947,409.768 170.725 C 407.971 170.502,409.200 170.315,412.500 170.310 C 415.800 170.304,417.271 170.486,415.768 170.715 M461.500 171.000 C 462.260 172.229,454.360 172.229,451.500 171.000 C 450.058 170.380,451.087 170.121,455.191 170.070 C 458.321 170.032,461.160 170.450,461.500 171.000 M62.000 173.861 C 62.000 174.335,60.875 174.508,59.500 174.245 C 58.125 173.982,57.000 173.594,57.000 173.383 C 57.000 173.173,58.125 173.000,59.500 173.000 C 60.875 173.000,62.000 173.388,62.000 173.861 M186.000 174.000 C 186.981 174.634,172.449 174.969,144.000 174.969 C 115.551 174.969,101.019 174.634,102.000 174.000 C 102.906 173.415,119.551 173.031,144.000 173.031 C 168.449 173.031,185.094 173.415,186.000 174.000 M321.851 173.887 C 322.627 174.378,310.700 174.930,293.851 175.181 C 260.495 175.680,235.489 175.114,238.500 173.928 C 241.228 172.854,320.159 172.815,321.851 173.887 M334.371 173.791 C 334.640 174.226,333.316 174.402,331.430 174.182 C 329.543 173.961,328.000 173.605,328.000 173.391 C 328.000 172.638,333.887 173.008,334.371 173.791 M457.668 173.750 C 460.058 174.729,423.633 175.578,395.002 175.212 C 380.348 175.025,373.026 174.594,374.002 173.978 C 375.782 172.852,454.949 172.637,457.668 173.750 M470.371 173.791 C 470.640 174.226,469.316 174.402,467.430 174.182 C 465.543 173.961,464.000 173.605,464.000 173.391 C 464.000 172.638,469.887 173.008,470.371 173.791 M60.000 177.000 C 60.000 177.550,58.848 178.000,57.441 178.000 C 55.990 178.000,55.149 177.567,55.500 177.000 C 55.840 176.450,56.991 176.000,58.059 176.000 C 59.127 176.000,60.000 176.450,60.000 177.000 M196.906 183.000 C 196.871 185.475,196.615 186.938,196.338 186.250 C 196.006 185.428,193.587 185.000,189.279 185.000 L 182.725 185.000 186.500 182.000 C 188.576 180.350,191.451 178.948,192.888 178.884 C 195.002 178.790,195.119 178.669,193.500 178.249 L 191.500 177.730 193.500 177.002 C 196.147 176.037,196.983 177.509,196.906 183.000 M331.689 176.787 C 333.248 177.778,334.192 183.000,332.811 183.000 C 332.078 183.000,332.073 183.382,332.797 184.250 C 333.618 185.236,332.276 185.431,326.452 185.172 L 319.065 184.844 321.542 182.548 C 322.905 181.286,325.928 179.891,328.260 179.449 C 331.970 178.746,332.154 178.596,329.733 178.255 C 328.211 178.040,327.225 177.445,327.542 176.932 C 328.233 175.813,330.058 175.749,331.689 176.787 M447.000 177.306 C 451.125 177.466,437.400 177.717,416.500 177.862 C 390.619 178.042,379.277 178.437,380.935 179.100 C 382.400 179.685,397.196 179.959,418.073 179.786 L 452.775 179.500 450.361 181.913 C 448.876 183.397,446.131 184.616,443.224 185.082 C 437.676 185.970,402.902 185.989,391.832 185.109 C 385.074 184.572,383.803 184.144,381.110 181.500 C 379.430 179.850,378.043 178.191,378.028 177.813 C 378.012 177.436,379.462 176.986,381.250 176.813 C 384.836 176.468,435.107 176.845,447.000 177.306 M469.000 180.606 L 469.000 185.000 461.750 184.985 C 456.700 184.974,454.955 184.675,456.000 184.000 C 456.825 183.467,459.300 182.995,461.500 182.952 C 464.914 182.885,465.170 182.741,463.249 181.968 C 462.011 181.471,460.211 181.346,459.249 181.691 C 458.287 182.036,457.830 181.954,458.234 181.509 C 458.637 181.063,461.112 180.122,463.734 179.417 C 466.355 178.712,467.488 178.105,466.250 178.067 C 463.180 177.975,463.391 176.535,466.501 176.356 C 468.809 176.223,469.000 176.547,469.000 180.606 M163.816 177.748 C 153.540 177.911,136.440 177.911,125.816 177.749 C 115.192 177.587,123.600 177.454,144.500 177.454 C 165.400 177.453,174.092 177.586,163.816 177.748 M268.750 177.745 C 263.938 177.928,256.063 177.928,251.250 177.745 C 246.438 177.561,250.375 177.411,260.000 177.411 C 269.625 177.411,273.563 177.561,268.750 177.745 M308.250 177.746 C 302.613 177.924,293.387 177.924,287.750 177.746 C 282.113 177.568,286.725 177.422,298.000 177.422 C 309.275 177.422,313.887 177.568,308.250 177.746 M58.755 180.250 C 58.529 180.938,56.579 181.774,54.422 182.108 L 50.500 182.716 54.750 182.858 C 61.456 183.082,59.728 185.000,52.820 185.000 L 46.640 185.000 50.000 182.000 C 53.438 178.931,59.595 177.700,58.755 180.250 M61.000 181.700 C 61.000 183.557,60.678 184.078,59.967 183.367 C 59.399 182.799,59.222 181.584,59.574 180.667 C 60.501 178.253,61.000 178.615,61.000 181.700 M179.650 181.190 C 177.107 185.260,174.913 185.511,144.088 185.246 C 114.597 184.992,110.000 184.476,110.000 181.414 C 110.000 180.728,109.550 180.017,109.000 179.833 C 108.450 179.650,124.359 179.500,144.352 179.500 C 178.228 179.500,180.633 179.615,179.650 181.190 M314.533 180.599 C 313.707 181.203,313.260 181.927,313.540 182.206 C 313.819 182.486,313.421 183.236,312.655 183.872 C 311.681 184.680,302.011 185.099,280.551 185.264 C 252.400 185.480,249.735 185.355,248.572 183.766 C 247.873 182.812,247.122 182.174,246.901 182.349 C 246.681 182.524,245.825 181.954,244.999 181.083 C 243.632 179.640,246.715 179.500,279.766 179.500 C 306.365 179.500,315.634 179.793,314.533 180.599 M323.442 182.094 C 323.134 182.592,324.034 183.000,325.441 183.000 C 328.505 183.000,328.753 182.430,326.001 181.711 C 324.902 181.423,323.750 181.596,323.442 182.094 M128.813 182.749 C 137.785 182.914,152.185 182.914,160.813 182.748 C 169.441 182.581,162.100 182.446,144.500 182.446 C 126.900 182.447,119.841 182.583,128.813 182.749 M190.250 182.689 C 191.213 182.941,192.787 182.941,193.750 182.689 C 194.713 182.438,193.925 182.232,192.000 182.232 C 190.075 182.232,189.287 182.438,190.250 182.689 M264.250 182.748 C 272.913 182.915,287.087 182.915,295.750 182.748 C 304.413 182.582,297.325 182.445,280.000 182.445 C 262.675 182.445,255.588 182.582,264.250 182.748 M400.250 182.748 C 408.913 182.915,423.087 182.915,431.750 182.748 C 440.413 182.582,433.325 182.445,416.000 182.445 C 398.675 182.445,391.587 182.582,400.250 182.748 M57.500 186.943 C 60.854 187.636,60.077 187.789,52.691 187.885 C 47.045 187.959,44.104 187.641,44.500 187.000 C 45.234 185.812,51.894 185.783,57.500 186.943 M193.000 187.000 C 194.742 187.558,193.131 187.831,187.691 187.900 C 182.716 187.964,180.106 187.637,180.500 187.000 C 181.220 185.835,189.361 185.835,193.000 187.000 M330.500 186.943 C 333.854 187.636,333.077 187.789,325.691 187.885 C 320.045 187.959,317.104 187.641,317.500 187.000 C 318.234 185.812,324.894 185.783,330.500 186.943 M466.500 187.000 C 468.610 187.537,466.886 187.798,460.691 187.882 C 455.045 187.958,452.104 187.641,452.500 187.000 C 453.205 185.859,462.016 185.859,466.500 187.000 M56.500 191.091 C 52.033 191.856,43.173 191.428,42.083 190.395 C 41.854 190.178,46.129 190.053,51.583 190.118 C 60.515 190.224,61.003 190.320,56.500 191.091 M196.985 196.250 C 196.976 199.688,196.600 203.083,196.148 203.795 C 195.561 204.720,193.068 205.006,187.413 204.795 L 179.500 204.500 179.193 200.250 L 178.885 196.000 187.609 196.000 C 198.745 196.000,198.192 195.173,186.890 194.924 C 181.366 194.802,178.332 194.339,178.331 193.618 C 178.329 192.857,180.994 192.603,186.664 192.823 C 191.949 193.029,195.000 192.768,195.000 192.112 C 195.000 191.504,191.397 190.941,186.250 190.745 L 177.500 190.411 187.250 190.206 L 197.000 190.000 196.985 196.250 M333.349 190.750 C 333.605 191.162,330.819 191.376,327.158 191.224 C 315.558 190.743,314.197 190.325,323.691 190.160 C 328.746 190.072,333.092 190.338,333.349 190.750 M464.784 190.734 C 462.189 190.939,457.689 190.941,454.784 190.738 C 451.878 190.536,454.000 190.368,459.500 190.365 C 465.000 190.363,467.378 190.528,464.784 190.734 M59.902 193.500 C 58.418 194.986,43.370 195.151,42.162 193.695 C 41.404 192.782,43.499 192.500,51.035 192.500 C 57.610 192.500,60.567 192.833,59.902 193.500 M469.340 197.500 C 468.545 205.314,468.958 205.000,459.474 205.000 L 450.885 205.000 451.193 200.750 L 451.500 196.500 459.497 196.203 C 463.895 196.040,467.810 195.590,468.198 195.203 C 468.586 194.817,466.640 194.658,463.873 194.852 C 458.270 195.244,449.999 194.252,450.002 193.189 C 450.003 192.810,454.468 192.500,459.926 192.500 L 469.848 192.500 469.340 197.500 M332.000 194.000 C 331.175 194.533,327.163 194.976,323.083 194.985 C 313.272 195.005,314.339 195.741,324.795 196.164 L 333.089 196.500 332.795 200.500 L 332.500 204.500 324.587 204.795 C 315.488 205.134,315.038 204.803,315.015 197.750 L 315.000 193.000 324.250 193.015 C 330.592 193.026,333.028 193.335,332.000 194.000 M60.000 200.471 L 60.000 205.078 51.250 204.789 L 42.500 204.500 42.202 200.443 L 41.904 196.386 50.952 196.125 L 60.000 195.864 60.000 200.471 M46.500 199.084 C 49.943 200.130,59.027 199.874,58.340 198.750 C 58.088 198.338,54.646 198.039,50.691 198.086 C 44.753 198.157,44.023 198.331,46.500 199.084 M181.000 199.000 C 181.000 200.208,190.689 200.208,193.500 199.000 C 194.873 198.410,193.229 198.119,188.250 198.070 C 184.036 198.029,181.000 198.419,181.000 199.000 M318.277 198.610 C 319.490 199.824,331.000 200.285,331.000 199.120 C 331.000 198.405,328.588 198.000,324.333 198.000 C 320.667 198.000,317.941 198.274,318.277 198.610 M453.500 199.000 C 454.290 200.279,464.021 200.279,466.000 199.000 C 467.044 198.325,465.279 198.026,460.191 198.015 C 455.569 198.006,453.109 198.368,453.500 199.000 M44.500 201.974 C 43.125 202.583,45.097 202.881,50.809 202.930 C 55.379 202.968,58.907 202.658,58.648 202.240 C 57.968 201.139,46.858 200.930,44.500 201.974 M182.000 202.000 C 180.306 202.542,182.080 202.801,187.500 202.801 C 192.920 202.801,194.694 202.542,193.000 202.000 C 191.625 201.560,189.150 201.199,187.500 201.199 C 185.850 201.199,183.375 201.560,182.000 202.000 M320.500 202.003 C 317.215 202.589,317.915 202.742,324.417 202.858 C 328.771 202.936,332.146 202.835,331.917 202.633 C 330.890 201.727,324.137 201.355,320.500 202.003 M452.347 202.250 C 452.091 202.662,455.396 202.961,459.691 202.914 C 466.023 202.844,466.933 202.655,464.500 201.912 C 461.122 200.880,453.058 201.104,452.347 202.250 M56.500 206.594 C 51.815 207.347,45.227 207.442,45.654 206.750 C 45.909 206.338,48.904 206.061,52.309 206.136 C 55.714 206.211,57.600 206.417,56.500 206.594 M191.500 207.030 C 188.975 208.077,180.723 208.256,181.349 207.250 C 181.606 206.838,184.445 206.433,187.658 206.351 C 191.573 206.250,192.840 206.475,191.500 207.030 M329.000 207.000 C 330.716 207.550,329.148 207.795,324.000 207.782 C 318.568 207.769,317.327 207.553,319.500 207.000 C 323.386 206.011,325.912 206.011,329.000 207.000 M465.612 207.181 C 465.890 207.632,463.365 208.000,460.000 208.000 C 455.999 208.000,454.106 207.638,454.528 206.955 C 455.271 205.753,464.850 205.949,465.612 207.181 M60.306 210.385 C 60.535 210.998,60.447 213.525,60.111 216.000 L 59.500 220.500 50.500 221.061 C 45.550 221.370,43.075 221.731,45.000 221.864 C 53.145 222.427,60.529 223.234,60.917 223.603 C 61.146 223.822,56.706 224.000,51.050 224.000 C 40.874 224.000,40.773 223.977,41.370 221.750 C 41.701 220.512,41.978 217.925,41.984 216.000 L 41.995 212.500 50.118 212.830 C 55.044 213.030,58.665 212.735,59.320 212.080 C 60.093 211.307,57.770 211.000,51.141 211.000 C 44.932 211.000,42.096 210.654,42.531 209.951 C 43.416 208.518,59.758 208.918,60.306 210.385 M196.794 216.750 L 197.088 224.000 187.377 224.000 C 182.036 224.000,177.969 223.697,178.339 223.328 C 178.709 222.958,182.834 222.711,187.506 222.779 C 193.519 222.866,196.000 222.552,196.001 221.701 C 196.002 220.821,193.719 220.634,187.455 221.000 L 178.907 221.500 179.204 217.500 L 179.500 213.500 187.750 213.210 C 198.687 212.825,198.432 211.000,187.441 211.000 C 181.775 211.000,179.099 210.649,179.524 209.961 C 179.908 209.339,183.446 209.038,188.333 209.211 L 196.500 209.500 196.794 216.750 M332.000 210.000 C 333.030 210.666,330.698 210.974,324.550 210.985 C 318.126 210.996,315.906 211.306,316.683 212.083 C 317.335 212.735,320.801 213.034,325.385 212.833 L 333.005 212.500 333.002 216.750 L 333.000 221.000 324.500 221.000 C 319.014 221.000,316.000 221.388,316.000 222.094 C 316.000 222.819,317.601 222.979,320.750 222.569 C 323.363 222.228,327.525 222.362,330.000 222.865 C 334.002 223.679,333.420 223.793,324.750 223.890 L 315.000 224.000 315.000 217.167 C 315.000 213.408,315.300 210.033,315.667 209.667 C 316.700 208.633,330.315 208.911,332.000 210.000 M468.500 210.000 C 468.895 210.640,465.764 210.994,459.809 210.985 C 453.429 210.974,450.972 210.664,452.000 210.000 C 453.982 208.719,467.708 208.719,468.500 210.000 M468.798 217.500 L 469.095 221.500 460.298 221.006 L 451.500 220.512 459.814 220.215 C 467.744 219.931,468.114 219.815,467.814 217.709 C 467.527 215.689,466.864 215.475,460.088 215.203 C 454.834 214.992,452.437 215.284,451.853 216.203 C 451.223 217.197,451.027 217.130,451.015 215.917 C 450.989 213.241,452.126 212.916,460.454 213.213 L 468.500 213.500 468.798 217.500 M51.000 214.930 C 44.159 215.450,43.472 215.700,43.177 217.776 C 42.863 219.992,43.065 220.048,50.927 219.905 C 56.169 219.809,59.001 219.362,59.002 218.629 C 59.004 217.861,56.604 217.605,51.502 217.829 C 46.598 218.044,44.000 217.784,44.000 217.079 C 44.000 216.411,46.642 216.000,50.941 216.000 C 54.759 216.000,58.160 215.550,58.500 215.000 C 58.840 214.450,58.979 214.081,58.809 214.180 C 58.639 214.279,55.125 214.617,51.000 214.930 M324.500 215.000 L 317.500 215.647 324.250 215.823 C 333.378 216.062,332.949 217.983,323.750 218.063 C 315.306 218.137,317.281 219.575,326.270 219.897 L 332.040 220.104 331.807 217.052 C 331.679 215.373,331.558 214.079,331.537 214.177 C 331.517 214.274,328.350 214.644,324.500 215.000 M180.667 215.667 C 180.300 216.033,180.000 217.158,180.000 218.167 C 180.000 219.724,180.790 219.985,185.250 219.900 C 194.081 219.733,196.610 218.215,188.250 218.100 C 179.107 217.974,178.733 216.209,187.750 215.742 L 194.500 215.392 187.917 215.196 C 184.296 215.088,181.033 215.300,180.667 215.667 M467.000 217.000 C 467.000 217.571,464.000 218.000,460.000 218.000 C 456.000 218.000,453.000 217.571,453.000 217.000 C 453.000 216.429,456.000 216.000,460.000 216.000 C 464.000 216.000,467.000 216.429,467.000 217.000 M468.917 223.608 C 469.146 223.824,465.096 223.947,459.917 223.882 C 453.968 223.807,451.605 223.509,453.500 223.072 C 456.397 222.404,468.067 222.810,468.917 223.608 M59.000 227.143 C 57.625 227.702,53.237 228.002,49.250 227.810 C 45.263 227.618,42.000 227.807,42.000 228.231 C 42.000 228.654,46.302 229.000,51.559 229.000 C 57.677 229.000,60.896 229.360,60.500 230.000 C 59.738 231.232,44.031 231.306,42.104 230.086 C 41.337 229.600,40.985 228.481,41.323 227.601 C 41.831 226.278,43.634 226.011,51.719 226.063 C 59.362 226.113,60.953 226.349,59.000 227.143 M197.000 233.500 L 197.000 241.000 188.535 241.000 C 181.190 241.000,179.933 240.744,179.035 239.066 C 177.698 236.568,177.739 234.947,179.080 237.250 C 179.916 238.684,181.533 239.000,188.050 239.000 C 192.422 239.000,196.001 238.662,196.002 238.250 C 196.004 237.838,192.404 237.647,188.002 237.826 C 182.755 238.040,180.000 237.782,180.000 237.076 C 180.000 236.404,182.813 236.000,187.500 236.000 C 191.833 236.000,195.000 235.578,195.000 235.000 C 195.000 234.420,191.778 234.000,187.333 234.000 C 177.708 234.000,178.086 233.146,187.820 232.900 C 197.925 232.645,197.916 231.026,187.809 230.882 C 183.239 230.816,179.162 230.816,178.750 230.882 C 177.821 231.028,177.753 227.580,178.667 226.667 C 179.033 226.300,183.308 226.000,188.167 226.000 L 197.000 226.000 197.000 233.500 M333.677 227.601 C 334.641 230.113,332.119 230.968,323.691 230.985 C 319.238 230.993,316.125 231.392,316.446 231.913 C 316.757 232.416,319.596 232.700,322.755 232.546 C 325.915 232.392,329.400 232.624,330.500 233.063 C 331.770 233.568,329.670 233.885,324.750 233.930 C 320.297 233.970,317.000 234.425,317.000 235.000 C 317.000 235.578,320.167 236.000,324.500 236.000 C 328.938 236.000,332.000 236.417,332.000 237.021 C 332.000 237.639,329.020 237.985,324.458 237.897 C 320.310 237.816,316.635 238.032,316.291 238.375 C 315.948 238.719,319.534 239.000,324.260 239.000 C 331.584 239.000,332.928 238.741,333.361 237.250 C 333.655 236.239,333.791 236.556,333.685 238.000 C 333.502 240.468,333.384 240.500,324.500 240.500 L 315.500 240.500 315.206 233.250 L 314.912 226.000 323.988 226.000 C 331.386 226.000,333.176 226.296,333.677 227.601 M469.000 227.099 C 469.000 227.843,466.088 228.086,459.999 227.849 C 455.049 227.657,450.999 227.838,450.999 228.250 C 451.000 228.662,455.077 229.000,460.059 229.000 C 465.844 229.000,468.895 229.361,468.500 230.000 C 467.738 231.232,453.030 231.305,451.104 230.086 C 450.337 229.600,449.985 228.481,450.323 227.601 C 450.823 226.297,452.610 226.000,459.969 226.000 C 465.868 226.000,469.000 226.381,469.000 227.099 M179.653 228.250 C 179.909 228.662,183.440 229.000,187.500 229.000 C 191.560 229.000,195.089 228.662,195.343 228.250 C 195.596 227.838,192.065 227.500,187.496 227.500 C 182.927 227.500,179.398 227.838,179.653 228.250 M323.500 228.000 L 315.500 228.633 324.250 228.817 C 329.539 228.927,333.000 228.604,333.000 228.000 C 333.000 227.450,332.663 227.083,332.250 227.183 C 331.837 227.284,327.900 227.652,323.500 228.000 M469.000 236.039 L 469.000 241.078 460.250 240.789 L 451.500 240.500 451.206 236.500 L 450.912 232.500 457.206 232.576 C 462.360 232.637,465.365 232.250,468.750 231.086 C 468.887 231.039,469.000 233.268,469.000 236.039 M59.801 234.258 C 60.516 234.847,60.966 236.492,60.801 237.914 C 60.507 240.438,60.299 240.507,52.153 240.792 C 43.950 241.079,40.898 240.207,41.079 237.628 C 41.129 236.919,41.345 236.965,41.662 237.750 C 42.013 238.619,44.886 239.000,51.083 239.000 C 58.915 239.000,59.998 238.787,59.985 237.250 C 59.975 236.168,59.689 235.921,59.235 236.603 C 58.307 237.996,43.000 238.508,43.000 237.147 C 43.000 236.606,42.738 235.481,42.418 234.647 C 41.975 233.492,42.749 233.027,45.668 232.698 C 50.798 232.118,58.193 232.935,59.801 234.258 M43.500 235.000 C 43.840 235.550,47.466 236.000,51.559 236.000 C 55.853 236.000,59.000 235.577,59.000 235.000 C 59.000 234.416,55.647 234.000,50.941 234.000 C 45.823 234.000,43.108 234.365,43.500 235.000 M452.500 235.000 C 452.110 235.630,454.470 236.000,458.882 236.000 C 462.732 236.000,466.160 235.550,466.500 235.000 C 466.890 234.370,464.530 234.000,460.118 234.000 C 456.268 234.000,452.840 234.450,452.500 235.000 M452.345 238.250 C 452.090 238.662,455.621 238.933,460.191 238.850 C 468.617 238.698,467.864 238.305,458.154 237.786 C 455.214 237.629,452.600 237.838,452.345 238.250 M61.500 243.000 C 61.149 243.567,57.122 243.918,52.191 243.811 L 43.500 243.622 52.500 243.000 C 57.450 242.658,61.639 242.293,61.809 242.189 C 61.979 242.085,61.840 242.450,61.500 243.000 M197.500 243.000 C 197.153 243.561,193.286 243.918,188.691 243.814 L 180.500 243.627 189.000 243.000 C 193.675 242.655,197.639 242.289,197.809 242.186 C 197.979 242.084,197.840 242.450,197.500 243.000 M329.250 243.732 C 326.913 243.943,323.087 243.943,320.750 243.732 C 318.413 243.522,320.325 243.349,325.000 243.349 C 329.675 243.349,331.587 243.522,329.250 243.732 M465.250 243.732 C 462.913 243.943,459.087 243.943,456.750 243.732 C 454.413 243.522,456.325 243.349,461.000 243.349 C 465.675 243.349,467.587 243.522,465.250 243.732 M60.383 246.017 C 58.459 247.941,53.563 248.691,50.000 247.608 C 46.597 246.574,46.693 246.528,53.500 245.949 C 57.350 245.621,60.703 245.274,60.950 245.177 C 61.197 245.079,60.942 245.458,60.383 246.017 M178.000 246.000 C 178.000 247.007,175.805 247.071,131.338 247.357 C 113.712 247.471,109.388 247.244,110.211 246.250 C 111.531 244.654,178.000 244.409,178.000 246.000 M314.265 246.250 C 314.841 247.754,271.466 248.671,255.697 247.489 C 236.853 246.076,247.558 245.000,280.452 245.000 C 306.197 245.000,313.895 245.285,314.265 246.250 M331.559 246.532 C 329.474 248.108,324.313 248.471,321.332 247.250 C 320.124 246.755,321.713 246.303,326.000 245.923 C 329.575 245.605,332.725 245.282,333.000 245.204 C 333.275 245.127,332.626 245.724,331.559 246.532 M468.280 246.120 C 466.380 248.020,459.493 248.833,457.520 247.391 C 456.001 246.280,456.638 246.052,462.128 245.744 C 465.633 245.547,468.702 245.299,468.950 245.193 C 469.197 245.087,468.896 245.504,468.280 246.120 M195.000 247.000 C 194.175 247.533,192.150 247.969,190.500 247.969 C 188.850 247.969,186.825 247.533,186.000 247.000 C 184.940 246.315,186.261 246.031,190.500 246.031 C 194.739 246.031,196.060 246.315,195.000 247.000 M319.370 252.067 C 321.455 254.200,322.006 255.394,321.253 256.147 C 320.544 256.856,307.556 257.269,282.344 257.382 C 261.530 257.476,243.824 257.884,242.998 258.288 C 240.862 259.334,238.627 255.565,239.934 253.123 C 242.281 248.738,244.705 248.484,281.547 248.776 L 316.422 249.052 319.370 252.067 M182.094 250.050 C 183.173 250.628,183.792 251.528,183.469 252.050 C 183.146 252.573,183.373 253.000,183.972 253.000 C 185.725 253.000,186.291 255.772,184.853 257.312 C 183.889 258.345,182.720 258.493,180.523 257.863 C 176.538 256.720,145.827 256.852,148.500 258.000 C 149.600 258.473,157.614 258.891,166.309 258.930 C 176.189 258.974,181.894 259.362,181.522 259.965 C 180.745 261.221,107.000 261.166,107.000 259.909 C 107.000 259.409,111.612 258.990,117.250 258.978 C 128.066 258.954,145.212 257.992,145.917 257.368 C 146.857 256.537,111.233 257.073,108.224 257.936 C 106.430 258.450,105.193 258.498,105.475 258.041 C 105.757 257.583,105.316 256.952,104.494 256.636 C 102.308 255.797,102.658 254.222,105.646 251.452 L 108.292 249.000 144.212 249.000 C 167.390 249.000,180.828 249.373,182.094 250.050 M126.250 251.749 C 136.563 251.911,153.438 251.911,163.750 251.749 C 174.063 251.586,165.625 251.453,145.000 251.453 C 124.375 251.453,115.938 251.586,126.250 251.749 M262.315 251.749 C 272.664 251.912,289.314 251.911,299.315 251.748 C 309.317 251.585,300.850 251.452,280.500 251.453 C 260.150 251.453,251.967 251.586,262.315 251.749 M104.500 255.000 C 104.092 255.660,117.656 256.000,144.441 256.000 C 170.814 256.000,185.000 255.650,185.000 255.000 C 185.000 253.626,105.349 253.626,104.500 255.000 M240.000 255.000 C 240.000 255.650,254.186 256.000,280.559 256.000 C 307.344 256.000,320.908 255.660,320.500 255.000 C 320.105 254.360,305.490 254.000,279.941 254.000 C 253.980 254.000,240.000 254.350,240.000 255.000 M317.465 260.056 C 316.662 261.356,244.315 261.319,243.511 260.018 C 243.121 259.387,251.615 258.939,267.202 258.768 C 299.738 258.409,318.191 258.882,317.465 260.056 M56.759 262.574 C 56.443 262.890,54.057 263.292,51.457 263.467 C 48.469 263.668,47.239 263.463,48.114 262.908 C 49.625 261.951,57.694 261.639,56.759 262.574 M178.454 262.905 C 180.449 263.685,138.137 265.267,134.500 264.548 C 133.400 264.331,127.100 264.112,120.500 264.061 C 112.358 263.999,108.982 263.658,110.000 263.000 C 111.780 261.850,175.530 261.761,178.454 262.905 M192.914 263.108 C 191.272 263.711,189.447 263.705,187.914 263.092 C 185.884 262.280,186.294 262.129,190.500 262.142 C 194.814 262.156,195.145 262.288,192.914 263.108 M314.500 263.000 C 315.664 263.500,301.459 263.859,280.500 263.859 C 259.541 263.859,245.336 263.500,246.500 263.000 C 247.600 262.527,262.900 262.141,280.500 262.141 C 298.100 262.141,313.400 262.527,314.500 263.000 M330.000 263.000 C 328.032 264.272,323.286 264.272,322.500 263.000 C 322.120 262.386,323.736 262.006,326.691 262.015 C 330.165 262.026,331.083 262.300,330.000 263.000 M465.500 263.000 C 465.160 263.550,463.585 264.000,462.000 264.000 C 460.415 264.000,458.840 263.550,458.500 263.000 C 458.126 262.395,459.509 262.000,462.000 262.000 C 464.491 262.000,465.874 262.395,465.500 263.000 M60.023 267.042 C 60.624 268.166,60.977 270.753,60.808 272.792 L 60.500 276.500 51.014 276.500 C 40.505 276.500,39.118 275.548,42.868 270.913 C 44.504 268.890,46.005 268.405,52.160 267.912 L 59.500 267.323 53.191 267.162 C 45.409 266.962,45.712 265.000,53.524 265.000 C 57.944 265.000,59.129 265.373,60.023 267.042 M196.393 266.582 C 196.727 267.452,197.000 270.169,197.000 272.619 L 197.000 277.075 187.831 276.788 C 182.788 276.629,178.512 276.050,178.328 275.500 C 178.117 274.867,181.301 274.618,186.997 274.821 C 191.949 274.998,196.001 274.773,196.002 274.321 C 196.004 273.869,192.403 273.647,188.000 273.826 C 181.165 274.105,179.899 273.901,179.335 272.432 C 178.279 269.679,181.731 268.019,188.941 267.811 L 195.500 267.622 189.750 267.261 C 182.201 266.787,182.314 265.000,189.893 265.000 C 194.344 265.000,195.935 265.387,196.393 266.582 M333.379 269.691 C 334.829 276.595,334.311 277.000,324.031 277.000 L 315.000 277.000 315.000 274.071 C 315.000 269.149,317.320 267.801,325.150 268.174 C 328.920 268.353,332.003 268.163,332.002 267.750 C 332.001 267.337,329.300 267.000,326.000 267.000 C 322.484 267.000,320.000 266.566,320.000 265.952 C 320.000 265.302,322.371 265.018,326.249 265.202 L 332.498 265.500 333.379 269.691 M468.393 266.582 C 468.727 267.452,469.000 270.152,469.000 272.582 L 469.000 277.000 460.000 277.000 C 448.205 277.000,447.984 275.064,459.750 274.814 L 468.500 274.627 460.079 274.064 C 450.991 273.455,449.201 272.225,453.401 269.473 C 455.235 268.271,457.578 267.912,461.965 268.159 C 465.286 268.347,468.003 268.163,468.002 267.750 C 468.001 267.337,465.300 267.000,462.000 267.000 C 458.667 267.000,456.000 266.556,456.000 266.000 C 456.000 265.446,458.631 265.000,461.893 265.000 C 466.344 265.000,467.935 265.387,468.393 266.582 M45.000 270.956 C 45.000 271.582,47.804 272.000,52.000 272.000 C 62.081 272.000,60.638 273.860,50.250 274.255 L 41.500 274.589 50.820 274.794 C 59.963 274.996,60.133 274.957,59.820 272.750 C 59.526 270.685,58.903 270.476,52.250 270.206 C 47.693 270.022,45.000 270.300,45.000 270.956 M181.000 271.000 C 179.961 271.672,181.898 271.974,187.309 271.985 C 192.264 271.994,194.892 271.635,194.500 271.000 C 193.709 269.720,182.980 269.720,181.000 271.000 M317.000 271.000 C 317.000 271.578,320.167 272.000,324.500 272.000 C 334.668 272.000,334.058 273.835,323.750 274.256 L 315.500 274.593 324.250 274.796 C 332.240 274.982,333.000 274.836,333.000 273.107 C 333.000 272.066,332.288 270.941,331.418 270.607 C 328.790 269.598,317.000 269.920,317.000 271.000 M453.000 271.000 C 451.961 271.672,453.898 271.974,459.309 271.985 C 464.264 271.994,466.892 271.635,466.500 271.000 C 465.709 269.720,454.980 269.720,453.000 271.000 M335.000 279.000 C 335.000 279.614,331.046 279.925,324.750 279.806 L 314.500 279.613 324.500 279.000 C 330.000 278.663,334.613 278.300,334.750 278.194 C 334.887 278.087,335.000 278.450,335.000 279.000 M56.750 279.739 C 53.587 279.937,48.412 279.937,45.250 279.739 C 42.087 279.541,44.675 279.378,51.000 279.378 C 57.325 279.378,59.912 279.541,56.750 279.739 M193.287 279.736 C 190.419 279.937,185.469 279.939,182.287 279.740 C 179.104 279.541,181.450 279.376,187.500 279.374 C 193.550 279.372,196.154 279.535,193.287 279.736 M465.287 279.736 C 462.419 279.937,457.469 279.939,454.287 279.740 C 451.104 279.541,453.450 279.376,459.500 279.374 C 465.550 279.372,468.154 279.535,465.287 279.736 M60.607 283.582 C 60.273 284.452,60.000 285.511,60.000 285.936 C 60.000 286.361,56.524 286.800,52.275 286.912 C 41.908 287.187,41.578 288.000,51.833 288.000 C 57.699 288.000,60.001 288.352,60.002 289.250 C 60.004 290.177,57.811 290.417,51.502 290.177 C 45.912 289.964,43.000 290.221,43.000 290.927 C 43.000 291.606,46.095 292.000,51.441 292.000 C 60.012 292.000,61.489 292.562,60.396 295.410 C 59.903 296.696,58.109 297.000,51.000 297.000 C 44.895 297.000,42.067 296.619,41.732 295.750 C 41.361 294.790,43.480 294.575,50.866 294.824 C 56.155 295.003,60.154 294.821,59.754 294.420 C 59.353 294.020,55.578 293.793,51.365 293.916 C 42.542 294.173,42.038 293.787,42.015 286.750 L 42.000 282.000 51.607 282.000 C 59.956 282.000,61.135 282.207,60.607 283.582 M197.000 288.559 C 197.000 292.626,196.624 294.886,196.011 294.507 C 195.445 294.157,195.277 294.558,195.618 295.448 C 196.126 296.770,195.042 297.000,188.307 297.000 C 180.028 297.000,177.078 295.816,179.146 293.324 C 179.888 292.430,182.806 292.000,188.122 292.000 C 193.067 292.000,196.000 291.600,196.000 290.927 C 196.000 290.221,193.088 289.964,187.498 290.177 L 178.995 290.500 178.998 286.250 L 179.000 282.000 188.000 282.000 L 197.000 282.000 197.000 288.559 M332.888 288.000 L 332.672 294.000 329.086 294.142 L 325.500 294.284 329.500 294.960 C 335.670 296.003,331.573 297.144,322.906 296.797 L 315.500 296.500 315.196 290.612 C 314.748 281.929,314.670 282.000,324.521 282.000 L 333.105 282.000 332.888 288.000 M468.887 287.750 C 468.630 293.498,468.629 293.500,465.065 294.108 L 461.500 294.716 465.309 294.858 C 467.564 294.942,468.866 295.408,468.500 296.000 C 468.160 296.550,464.084 297.000,459.441 297.000 C 450.234 297.000,447.457 295.113,456.250 294.832 C 460.951 294.681,461.082 294.622,457.500 294.265 C 449.839 293.501,451.364 292.000,459.800 292.000 C 464.974 292.000,468.000 291.604,468.000 290.927 C 468.000 290.221,465.088 289.964,459.498 290.177 L 450.995 290.500 450.998 286.250 L 451.000 282.000 460.073 282.000 L 469.145 282.000 468.887 287.750 M50.500 284.000 L 42.500 284.633 50.750 284.817 C 55.706 284.927,59.000 284.601,59.000 284.000 C 59.000 283.450,58.888 283.083,58.750 283.183 C 58.612 283.284,54.900 283.652,50.500 284.000 M451.999 284.250 C 452.000 284.663,455.488 284.933,459.750 284.850 C 467.638 284.698,466.704 284.300,457.249 283.786 C 454.362 283.629,451.999 283.837,451.999 284.250 M183.776 284.733 C 186.128 284.945,189.728 284.942,191.776 284.727 C 193.824 284.512,191.900 284.339,187.500 284.343 C 183.100 284.346,181.424 284.522,183.776 284.733 M320.776 284.733 C 323.128 284.945,326.728 284.942,328.776 284.727 C 330.824 284.512,328.900 284.339,324.500 284.343 C 320.100 284.346,318.424 284.522,320.776 284.733 M180.655 287.250 C 180.909 287.663,183.990 288.000,187.500 288.000 C 191.010 288.000,194.091 287.663,194.345 287.250 C 194.600 286.837,191.520 286.500,187.500 286.500 C 183.480 286.500,180.400 286.837,180.655 287.250 M317.000 287.250 C 317.000 287.663,320.123 288.000,323.941 288.000 C 327.759 288.000,331.091 287.663,331.345 287.250 C 331.600 286.837,328.477 286.500,324.405 286.500 C 320.332 286.500,317.000 286.837,317.000 287.250 M452.595 287.847 C 452.097 288.652,466.043 288.207,466.917 287.390 C 467.146 287.175,464.135 287.000,460.226 287.000 C 456.316 287.000,452.883 287.381,452.595 287.847 M317.000 291.000 C 317.000 291.578,320.167 292.000,324.500 292.000 C 328.833 292.000,332.000 291.578,332.000 291.000 C 332.000 290.422,328.833 290.000,324.500 290.000 C 320.167 290.000,317.000 290.422,317.000 291.000 M181.250 294.716 C 182.762 294.945,185.238 294.945,186.750 294.716 C 188.262 294.487,187.025 294.300,184.000 294.300 C 180.975 294.300,179.738 294.487,181.250 294.716 M57.843 298.619 C 60.721 299.194,60.921 299.511,60.718 303.158 L 60.500 307.080 51.250 306.913 C 46.163 306.821,42.006 306.465,42.014 306.123 C 42.021 305.780,42.269 304.600,42.565 303.500 C 43.058 301.663,43.791 301.529,51.551 301.853 C 57.254 302.091,60.000 301.847,60.000 301.103 C 60.000 300.386,56.764 299.965,50.750 299.900 C 44.579 299.834,42.332 299.534,44.000 299.000 C 47.144 297.993,53.799 297.810,57.843 298.619 M467.500 299.000 C 468.791 299.555,466.132 299.838,460.000 299.798 C 453.302 299.755,451.532 299.519,454.000 299.000 C 458.862 297.977,465.118 297.977,467.500 299.000 M196.828 302.371 C 197.009 303.950,196.887 306.312,196.559 307.621 C 195.996 309.863,195.528 310.000,188.422 310.000 C 183.650 310.000,181.109 309.633,181.500 309.000 C 181.840 308.450,185.091 308.000,188.726 308.000 C 197.787 308.000,196.250 307.165,186.725 306.912 C 180.037 306.735,179.000 306.467,179.000 304.913 C 179.000 302.388,179.612 302.187,188.282 301.864 C 192.527 301.706,196.000 301.240,196.000 300.827 C 196.000 300.415,192.063 299.918,187.250 299.723 L 178.500 299.369 187.500 299.434 L 196.500 299.500 196.828 302.371 M324.500 299.951 C 316.482 300.462,315.917 300.619,319.326 301.388 C 321.430 301.863,325.100 301.984,327.481 301.658 C 330.851 301.196,331.943 301.408,332.405 302.614 C 333.816 306.291,333.131 306.705,325.275 306.912 C 314.878 307.188,314.592 308.000,324.892 308.000 C 330.121 308.000,332.893 308.364,332.500 309.000 C 332.160 309.550,328.357 310.000,324.048 310.000 C 315.320 310.000,315.000 309.749,315.000 302.918 L 315.000 299.000 324.250 299.189 L 333.500 299.378 324.500 299.951 M468.807 305.828 L 469.115 310.000 459.807 309.910 C 451.913 309.833,451.024 309.669,453.952 308.829 C 455.850 308.284,459.788 307.987,462.703 308.169 C 465.790 308.362,468.002 308.083,468.002 307.500 C 468.002 306.898,464.618 306.570,459.501 306.676 C 451.009 306.851,449.857 306.347,451.793 303.301 C 452.420 302.315,463.588 301.058,467.500 301.534 C 468.050 301.601,468.638 303.533,468.807 305.828 M44.000 304.000 C 44.000 304.578,47.167 305.000,51.500 305.000 C 55.833 305.000,59.000 304.578,59.000 304.000 C 59.000 303.422,55.833 303.000,51.500 303.000 C 47.167 303.000,44.000 303.422,44.000 304.000 M180.595 304.153 C 180.882 304.619,184.316 305.000,188.226 305.000 C 192.135 305.000,195.087 304.754,194.787 304.454 C 193.872 303.538,180.033 303.245,180.595 304.153 M317.967 304.041 C 316.985 304.663,318.877 304.974,323.691 304.985 C 327.646 304.993,331.090 304.663,331.344 304.250 C 332.025 303.146,319.687 302.954,317.967 304.041 M453.000 304.000 C 453.000 304.584,456.017 304.959,460.250 304.900 C 465.405 304.829,466.778 304.569,465.000 304.000 C 461.356 302.833,453.000 302.833,453.000 304.000 M59.000 309.000 C 60.029 309.665,57.675 309.969,51.500 309.969 C 45.325 309.969,42.971 309.665,44.000 309.000 C 44.825 308.467,48.200 308.031,51.500 308.031 C 54.800 308.031,58.175 308.467,59.000 309.000 M61.349 312.750 C 61.606 313.163,58.595 313.377,54.658 313.227 C 41.795 312.736,40.310 312.339,50.691 312.168 C 56.296 312.076,61.092 312.337,61.349 312.750 M192.784 312.734 C 190.189 312.939,185.689 312.941,182.784 312.738 C 179.878 312.536,182.000 312.368,187.500 312.365 C 193.000 312.363,195.378 312.528,192.784 312.734 M329.784 312.734 C 327.189 312.939,322.689 312.941,319.784 312.738 C 316.878 312.536,319.000 312.368,324.500 312.365 C 330.000 312.363,332.378 312.528,329.784 312.734 M465.250 312.737 C 462.363 312.939,457.637 312.939,454.750 312.737 C 451.863 312.535,454.225 312.370,460.000 312.370 C 465.775 312.370,468.137 312.535,465.250 312.737 M57.287 315.736 C 54.419 315.937,49.469 315.939,46.287 315.740 C 43.104 315.541,45.450 315.376,51.500 315.374 C 57.550 315.372,60.154 315.535,57.287 315.736 M192.784 315.734 C 190.189 315.939,185.689 315.941,182.784 315.738 C 179.878 315.536,182.000 315.368,187.500 315.365 C 193.000 315.363,195.378 315.528,192.784 315.734 M329.784 315.734 C 327.189 315.939,322.689 315.941,319.784 315.738 C 316.878 315.536,319.000 315.368,324.500 315.365 C 330.000 315.363,332.378 315.528,329.784 315.734 M467.000 315.645 C 458.631 316.383,449.222 316.440,449.651 315.750 C 449.908 315.337,454.704 315.076,460.309 315.168 C 465.914 315.261,468.925 315.475,467.000 315.645 M61.002 319.250 C 61.004 320.167,58.543 320.473,51.752 320.398 L 42.500 320.295 51.000 320.898 C 58.712 321.444,59.528 321.699,59.806 323.650 C 60.081 325.576,59.560 325.843,54.806 326.219 C 49.110 326.669,43.413 324.758,44.622 322.803 C 45.027 322.147,44.856 321.971,44.205 322.373 C 43.259 322.958,41.000 320.273,41.000 318.566 C 41.000 318.255,45.500 318.000,51.000 318.000 C 58.332 318.000,61.001 318.333,61.002 319.250 M196.800 324.250 L 197.100 330.000 192.109 330.000 C 189.364 330.000,186.840 329.550,186.500 329.000 C 186.118 328.383,187.913 327.988,191.191 327.970 C 195.436 327.945,196.133 327.726,194.668 326.874 C 193.660 326.288,191.388 326.080,189.619 326.412 C 187.662 326.779,185.712 326.510,184.639 325.725 C 183.104 324.603,183.371 324.481,186.687 324.789 C 188.784 324.984,191.625 324.667,193.000 324.086 C 195.024 323.231,194.134 323.074,188.331 323.265 C 178.699 323.581,179.261 321.657,189.000 320.974 L 196.500 320.447 187.842 319.974 C 182.804 319.698,179.419 319.878,179.747 320.405 C 180.056 320.902,179.789 320.988,179.155 320.595 C 176.071 318.689,178.604 317.944,187.250 318.212 L 196.500 318.500 196.800 324.250 M333.000 319.000 C 333.000 319.575,329.283 320.085,324.250 320.201 L 315.500 320.402 323.453 320.747 C 331.977 321.116,334.833 322.292,332.890 324.633 C 331.262 326.594,320.933 326.446,318.441 324.426 C 317.374 323.560,317.175 323.143,318.000 323.500 C 318.825 323.857,318.626 323.440,317.559 322.574 C 316.491 321.708,315.518 320.325,315.397 319.500 C 315.215 318.262,316.736 318.000,324.088 318.000 C 329.363 318.000,333.000 318.408,333.000 319.000 M468.985 321.250 C 468.967 325.047,468.088 326.553,466.000 326.365 C 465.175 326.291,462.674 326.179,460.441 326.115 C 458.209 326.052,455.509 325.322,454.441 324.494 C 452.631 323.090,452.689 323.056,455.315 323.994 C 458.939 325.289,465.701 325.292,466.500 324.000 C 466.883 323.380,465.038 323.000,461.641 323.000 C 452.446 323.000,451.668 321.563,460.500 320.893 L 468.500 320.286 459.842 320.393 C 455.080 320.452,451.371 320.201,451.598 319.835 C 451.826 319.470,451.447 318.943,450.756 318.664 C 450.065 318.386,453.887 318.122,459.250 318.079 L 469.000 318.000 468.985 321.250 M48.000 324.019 C 49.741 325.166,57.878 325.006,58.617 323.810 C 58.893 323.365,56.279 323.007,52.809 323.015 C 48.303 323.026,46.929 323.313,48.000 324.019 M320.500 324.000 C 321.289 325.277,329.024 325.277,331.000 324.000 C 332.056 323.317,330.633 323.026,326.191 323.015 C 322.236 323.006,320.113 323.373,320.500 324.000 M176.500 325.000 C 176.907 325.659,165.991 326.000,144.500 326.000 C 123.009 326.000,112.093 325.659,112.500 325.000 C 112.891 324.368,124.657 324.000,144.500 324.000 C 164.343 324.000,176.109 324.368,176.500 325.000 M311.500 325.000 C 311.907 325.659,301.157 326.000,280.000 326.000 C 258.843 326.000,248.093 325.659,248.500 325.000 C 248.890 324.368,260.491 324.000,280.000 324.000 C 299.509 324.000,311.110 324.368,311.500 325.000 M60.000 329.000 C 60.000 329.550,57.777 330.000,55.059 330.000 C 52.341 330.000,49.840 329.550,49.500 329.000 C 49.116 328.379,50.990 328.000,54.441 328.000 C 57.498 328.000,60.000 328.450,60.000 329.000 M178.435 328.965 C 177.904 329.496,172.302 330.075,165.985 330.251 C 154.769 330.565,154.847 330.577,169.309 330.786 C 178.875 330.924,183.899 331.354,183.500 332.000 C 183.105 332.639,168.823 333.000,143.941 333.000 C 118.647 333.000,105.000 332.650,105.000 332.000 C 105.000 331.373,112.733 330.916,125.750 330.775 L 146.500 330.550 129.025 330.251 C 119.414 330.086,111.112 329.512,110.575 328.975 C 109.942 328.342,121.820 328.000,144.500 328.000 C 166.924 328.000,179.055 328.345,178.435 328.965 M314.000 329.000 C 314.000 329.647,302.000 330.000,280.000 330.000 C 258.000 330.000,246.000 329.647,246.000 329.000 C 246.000 328.353,258.000 328.000,280.000 328.000 C 302.000 328.000,314.000 328.353,314.000 329.000 M333.000 329.000 C 333.000 329.550,330.750 330.000,328.000 330.000 C 325.250 330.000,323.000 329.550,323.000 329.000 C 323.000 328.450,325.250 328.000,328.000 328.000 C 330.750 328.000,333.000 328.450,333.000 329.000 M469.000 329.000 C 469.000 329.550,466.777 330.000,464.059 330.000 C 461.341 330.000,458.840 329.550,458.500 329.000 C 458.116 328.379,459.990 328.000,463.441 328.000 C 466.498 328.000,469.000 328.450,469.000 329.000 M61.000 332.000 C 61.000 332.550,58.862 332.968,56.250 332.930 C 52.676 332.877,51.995 332.647,53.500 332.000 C 56.295 330.799,61.000 330.799,61.000 332.000 M196.500 332.000 C 196.879 332.614,195.453 332.954,192.809 332.882 C 188.791 332.771,188.702 332.712,191.500 332.000 C 195.813 330.902,195.822 330.902,196.500 332.000 M319.000 332.000 C 319.000 332.649,305.520 333.000,280.559 333.000 C 256.010 333.000,241.895 332.639,241.500 332.000 C 241.092 331.340,254.156 331.000,279.941 331.000 C 305.314 331.000,319.000 331.350,319.000 332.000 M333.000 332.000 C 334.073 332.694,333.078 332.954,329.500 332.914 C 325.794 332.874,325.018 332.637,326.500 332.000 C 329.202 330.839,331.203 330.839,333.000 332.000 M469.500 332.000 C 469.160 332.550,466.996 332.932,464.691 332.850 L 460.500 332.700 465.000 332.000 C 467.475 331.615,469.639 331.233,469.809 331.150 C 469.979 331.068,469.840 331.450,469.500 332.000 M315.500 335.314 C 318.800 335.479,302.938 335.701,280.250 335.807 C 257.563 335.913,239.000 335.663,238.999 335.250 C 238.999 334.563,301.549 334.615,315.500 335.314 M61.000 338.191 C 61.000 341.184,60.912 341.262,59.589 339.452 C 58.812 338.391,58.386 337.185,58.641 336.772 C 58.895 336.360,58.406 336.291,57.552 336.618 C 56.698 336.946,56.000 336.716,56.000 336.107 C 56.000 335.498,57.125 335.000,58.500 335.000 C 60.644 335.000,61.000 335.454,61.000 338.191 M165.817 335.749 C 154.442 335.909,135.542 335.909,123.817 335.749 C 112.093 335.589,121.400 335.458,144.500 335.458 C 167.600 335.457,177.193 335.588,165.817 335.749 M185.500 339.031 C 181.508 340.005,113.015 340.187,106.000 339.241 C 102.477 338.767,111.645 338.320,131.500 338.000 C 166.382 337.437,190.167 337.891,185.500 339.031 M324.431 338.889 C 325.130 340.019,244.772 340.152,240.000 339.029 C 237.972 338.551,254.879 338.162,280.191 338.102 C 304.721 338.045,324.123 338.390,324.431 338.889 M192.888 341.910 C 195.508 343.569,173.840 344.217,133.954 343.672 C 112.254 343.375,94.275 343.071,94.000 342.996 C 93.725 342.921,94.400 342.473,95.500 342.000 C 98.147 340.863,191.099 340.776,192.888 341.910 M329.421 341.873 C 330.287 343.273,310.796 344.073,278.000 343.982 C 244.386 343.888,230.025 343.233,232.146 341.888 C 233.931 340.758,328.723 340.742,329.421 341.873 M231.000 374.381 C 231.000 375.409,225.691 388.684,223.818 392.338 C 220.616 398.584,220.451 394.994,223.560 386.744 C 227.068 377.439,228.812 374.000,230.026 374.000 C 230.562 374.000,231.000 374.171,231.000 374.381 M174.000 376.525 C 174.000 376.813,172.875 377.477,171.500 378.000 C 169.141 378.897,169.000 379.373,169.000 386.416 C 169.000 393.813,167.784 397.054,166.627 392.739 C 166.297 391.507,166.021 387.901,166.014 384.725 C 166.001 379.492,165.766 378.861,163.500 378.000 C 159.537 376.493,160.524 376.000,167.500 376.000 C 171.075 376.000,174.000 376.236,174.000 376.525 M192.423 378.250 C 192.677 379.488,193.206 382.300,193.599 384.500 L 194.314 388.500 195.407 382.512 C 196.204 378.146,196.974 376.433,198.250 376.188 C 199.812 375.889,200.000 376.822,200.000 384.868 C 200.000 389.826,199.550 394.160,199.000 394.500 C 198.375 394.886,197.956 392.567,197.883 388.309 L 197.766 381.500 196.296 387.750 C 195.488 391.188,194.474 394.000,194.042 394.000 C 193.611 394.000,192.874 391.637,192.405 388.750 L 191.551 383.500 191.224 389.316 C 190.817 396.538,188.648 396.614,188.180 389.422 C 187.718 382.327,188.831 376.000,190.542 376.000 C 191.323 376.000,192.170 377.012,192.423 378.250 M217.000 376.934 C 217.000 377.447,215.762 378.010,214.250 378.184 C 210.462 378.619,210.270 383.111,214.000 384.017 L 216.500 384.624 213.750 385.331 C 210.049 386.283,210.029 389.680,213.716 391.082 C 215.896 391.911,216.143 392.298,214.966 393.042 C 212.913 394.341,209.623 394.223,208.200 392.800 C 206.729 391.329,206.610 380.597,208.035 377.934 C 208.791 376.521,210.139 376.000,213.035 376.000 C 215.216 376.000,217.000 376.420,217.000 376.934 M246.000 376.934 C 246.000 377.447,244.762 378.010,243.250 378.184 C 239.659 378.597,238.896 382.339,242.058 384.031 L 244.237 385.197 241.869 386.384 C 240.566 387.037,239.454 388.455,239.398 389.535 C 239.157 394.174,238.946 395.000,238.000 395.000 C 236.889 395.000,236.575 377.758,237.667 376.667 C 238.691 375.642,246.000 375.876,246.000 376.934 M258.250 377.674 C 256.373 378.984,255.998 380.176,255.986 384.872 C 255.971 391.229,255.188 395.000,253.883 395.000 C 253.398 395.000,253.000 391.389,253.000 386.975 C 253.000 379.336,252.880 378.905,250.500 378.000 C 246.553 376.499,247.523 375.996,254.250 376.052 C 260.224 376.103,260.401 376.174,258.250 377.674 M269.123 379.074 C 269.496 380.408,269.881 383.075,269.979 385.000 C 270.146 388.275,270.212 388.339,270.997 386.000 C 271.459 384.625,272.118 381.813,272.463 379.750 C 272.821 377.611,273.662 376.000,274.420 376.000 C 277.207 376.000,278.161 392.791,275.500 395.000 C 274.192 396.085,273.991 395.364,273.930 389.372 C 273.856 382.158,272.209 382.883,272.070 390.191 C 271.975 395.215,270.251 395.930,269.452 391.278 C 267.918 382.342,267.082 381.364,267.293 388.753 C 267.421 393.232,267.118 395.878,266.500 395.672 C 265.433 395.317,264.545 379.628,265.457 377.250 C 266.242 375.205,268.332 376.245,269.123 379.074 M290.365 388.825 C 290.027 392.304,289.403 394.779,288.979 394.325 C 287.598 392.849,287.014 377.163,288.324 376.716 C 290.104 376.109,291.053 381.739,290.365 388.825 M305.800 377.200 C 307.040 378.440,307.465 388.624,306.393 391.418 C 306.040 392.337,304.618 393.000,303.000 393.000 C 300.103 393.000,298.975 391.484,299.033 387.668 L 299.067 385.500 300.944 387.750 C 301.976 388.988,303.086 390.000,303.410 390.000 C 304.517 390.000,304.004 385.168,302.857 384.786 C 302.012 384.504,302.033 383.806,302.938 382.117 C 304.435 379.318,303.332 377.826,301.558 380.252 C 299.919 382.493,299.000 382.475,299.000 380.200 C 299.000 377.970,300.876 376.000,303.000 376.000 C 303.880 376.000,305.140 376.540,305.800 377.200 M320.925 377.410 C 321.641 378.272,321.980 381.478,321.798 385.660 C 321.519 392.055,321.341 392.522,319.056 392.845 C 316.394 393.221,314.000 390.836,314.000 387.809 C 314.000 385.164,315.898 385.601,317.000 388.500 C 318.495 392.431,318.964 391.478,318.723 385.002 C 318.600 381.703,318.310 379.003,318.079 379.002 C 317.847 379.001,316.835 379.745,315.829 380.655 C 314.116 382.205,314.000 382.186,314.000 380.355 C 314.000 376.454,318.532 374.527,320.925 377.410 M337.000 378.895 C 337.000 382.764,333.171 395.000,331.960 395.000 C 330.654 395.000,330.737 393.957,332.647 386.355 C 334.445 379.197,333.977 378.047,329.250 378.015 C 328.012 378.007,327.000 377.550,327.000 377.000 C 327.000 376.450,329.250 376.000,332.000 376.000 C 336.848 376.000,337.000 376.088,337.000 378.895 M330.000 410.515 C 330.000 411.254,323.691 414.998,322.500 414.965 C 321.950 414.950,323.300 413.829,325.500 412.474 C 329.809 409.820,330.000 409.737,330.000 410.515 M257.199 418.900 C 257.613 421.723,257.563 421.760,255.312 420.285 C 252.522 418.457,252.278 416.000,254.887 416.000 C 256.204 416.000,256.901 416.875,257.199 418.900 M380.127 425.750 C 378.005 429.686,370.616 434.806,369.549 433.079 C 369.021 432.224,371.533 430.056,377.955 425.823 C 381.217 423.674,381.247 423.673,380.127 425.750 M161.979 430.513 C 162.875 429.959,166.000 437.090,166.000 439.687 C 166.000 442.041,164.766 440.487,162.806 435.667 C 161.874 433.375,161.087 432.278,161.056 433.230 C 161.004 434.844,153.347 439.680,152.378 438.711 C 152.142 438.475,153.869 436.181,156.215 433.613 C 158.562 431.046,160.637 429.410,160.826 429.978 C 161.016 430.547,161.535 430.788,161.979 430.513 M275.509 433.983 C 274.154 436.602,269.534 440.000,267.327 440.000 C 266.672 440.000,275.985 431.173,276.776 431.045 C 276.927 431.020,276.357 432.342,275.509 433.983 M364.280 436.040 C 363.851 436.426,362.226 437.043,360.669 437.410 L 357.838 438.079 360.611 434.443 C 363.322 430.889,363.403 430.858,364.223 433.073 C 364.684 434.319,364.710 435.655,364.280 436.040 M322.435 432.975 C 323.846 433.512,325.000 434.725,325.000 435.671 C 325.000 436.617,326.100 438.540,327.445 439.945 C 330.554 443.193,337.431 456.299,335.757 455.786 C 335.066 455.573,333.150 452.821,331.500 449.669 C 329.800 446.420,327.200 443.155,325.500 442.131 C 321.688 439.835,320.333 438.174,319.472 434.744 C 318.702 431.676,318.824 431.603,322.435 432.975 M234.500 436.974 C 228.934 439.486,225.234 440.504,226.500 439.175 C 228.367 437.214,233.490 435.012,236.000 435.090 C 238.165 435.158,237.964 435.411,234.500 436.974 M234.093 449.175 C 235.012 450.890,234.968 451.195,233.866 450.748 C 233.115 450.442,231.730 449.882,230.788 449.503 C 229.628 449.037,228.282 449.672,226.615 451.470 C 224.210 454.066,224.167 454.074,224.715 451.813 C 225.024 450.541,226.176 448.505,227.276 447.289 C 229.551 444.773,232.118 445.484,234.093 449.175 M419.492 459.101 C 422.042 460.300,424.829 462.606,425.981 464.469 C 428.893 469.180,428.471 469.831,424.750 466.367 C 422.962 464.703,419.499 461.915,417.053 460.171 C 411.938 456.524,413.009 456.054,419.492 459.101 M137.743 462.277 C 140.626 462.400,142.989 462.696,142.993 462.936 C 142.997 463.175,142.059 464.373,140.909 465.597 L 138.817 467.823 133.659 465.421 C 130.821 464.100,126.925 462.970,125.000 462.910 C 121.785 462.810,121.703 462.736,124.000 462.003 C 125.375 461.564,127.850 461.396,129.500 461.630 C 131.150 461.863,134.859 462.155,137.743 462.277 M358.786 468.805 C 360.763 471.782,359.873 471.571,356.924 468.363 C 355.591 466.912,355.136 465.925,355.914 466.168 C 356.692 466.411,357.985 467.597,358.786 468.805 M340.703 485.650 C 343.860 488.807,345.858 490.000,347.987 490.000 C 350.998 490.000,355.000 493.247,355.000 495.689 C 355.000 497.436,354.036 497.342,351.873 495.385 C 350.892 494.497,348.606 493.646,346.794 493.495 C 341.951 493.090,342.000 493.108,342.000 491.703 C 342.000 490.990,340.242 488.689,338.093 486.591 C 335.008 483.579,333.166 482.649,329.343 482.176 C 324.563 481.584,324.546 481.569,328.000 481.015 C 333.597 480.116,336.072 481.020,340.703 485.650 M172.094 487.306 C 170.788 488.612,170.606 487.165,171.720 484.332 C 172.415 482.565,172.454 482.566,172.814 484.356 C 173.020 485.377,172.695 486.705,172.094 487.306 M334.490 487.980 C 336.201 491.290,336.566 494.966,335.031 493.431 C 334.499 492.899,332.996 490.357,331.693 487.783 C 329.609 483.666,329.544 483.221,331.152 484.081 C 332.157 484.619,333.659 486.374,334.490 487.980 M134.360 495.540 C 137.175 497.512,136.087 497.379,129.629 494.962 C 126.633 493.841,123.617 492.244,122.927 491.412 C 121.971 490.260,122.934 490.397,126.974 491.990 C 129.889 493.139,133.213 494.736,134.360 495.540 M231.000 493.559 C 225.777 496.890,222.007 497.690,221.849 495.500 C 221.783 494.594,233.102 490.085,235.500 490.061 C 236.050 490.056,234.025 491.630,231.000 493.559 M361.000 496.550 C 361.000 497.952,361.687 500.427,362.526 502.050 C 364.582 506.027,363.464 505.809,360.989 501.750 C 358.883 498.297,358.335 494.000,360.000 494.000 C 360.550 494.000,361.000 495.147,361.000 496.550 M152.634 501.489 C 152.948 502.308,155.048 504.333,157.300 505.989 L 161.394 509.000 155.697 509.000 L 150.000 509.000 150.000 504.500 C 150.000 500.138,151.471 498.457,152.634 501.489 " stroke="none" fill="undefined" fill-rule="evenodd"/></svg>