<svg xmlns="http://www.w3.org/2000/svg" viewBox="0 0 258.17 226.77" fill="#fafbfe">
  <defs/>
  <g id="Layer_2" data-name="Layer 2">
    <g id="Layer_1-2" data-name="Layer 1">
      <path class="cls-1" d="M201.91 137.31c-8.7-7.95-2.6-25.24 14.22-27.54 5.63-.77 14.67 1 22.8 3.71-3.81-7.29-12.33-13.16-25-13.16-21.87 0-42.47 11.78-56.51 32.32a96.36 96.36 0 00-15.83 43 105.25 105.25 0 006.61 50.34 1.3 1.3 0 001.21.82h22.2a1.29 1.29 0 001.18-1.34 1.34 1.34 0 00-.09-.45 69.37 69.37 0 01-3.4-12.56 10.85 10.85 0 012.13-8.45 7.91 7.91 0 016.36-2.72c8.73 0 12.79 5.51 18.09 24.58a1.3 1.3 0 001.25.94H215a1.27 1.27 0 001.23-1.69c-7.06-39.28 3.4-55 12.62-68.93 4.14-6.22 8.12-12.23 10.4-19.82-13.12 4.81-30 7.64-37.34.95z"/>
      <path class="cls-1" d="M249.36 90.51a1.29 1.29 0 001.29-1.19c1.65-20.66-4.42-38.85-18-54.09C211.88 12 177.94.79 153.53 0a1.29 1.29 0 00-.69 2.39c.38.24.84.5 1.35.79 4.47 2.55 12.5 7.14 12.67 21.8-11.16-14.62-29-23.23-48.5-23.23a69.69 69.69 0 00-20.19 3 1.3 1.3 0 00-.92 1.33 1.29 1.29 0 001.1 1.19c17.17 2.6 30.56 11.73 33.31 22.23C120.11 21.86 103.49 17 88.32 17c-9.76 0-18.51 2-25.32 5.88a1.3 1.3 0 00.43 2.41c14.26 2.23 24.87 7 31.59 14h-.24C85.76 38.08 78 37 70.3 37c-15.2 0-27.5 4.37-41.15 14.62a1.29 1.29 0 001.13 2.28 42.39 42.39 0 0111.46-1.5c9 0 18.24 2.7 24.47 7l-.46.07c-20.3 3.3-37.83 6.16-53 21.4A1.3 1.3 0 0014 83.05a30.61 30.61 0 019.31-1.42c6.17 0 12.93 1.74 20.15 5.18C27.61 93 15 98.13 4.13 111.44a1.3 1.3 0 00-.13 1.49 1.32 1.32 0 001.37.59 69.78 69.78 0 0113.8-1.69c5.34 0 9.74 1 13.35 3.14C17.19 121.83 6.86 131 .15 143.65a1.29 1.29 0 001.78 1.73c5.85-3.32 11.21-4.93 16.39-4.93a26.4 26.4 0 0110.77 2.36c-10.76 6.26-21.29 20.35-25.66 34.65a1.29 1.29 0 00.44 1.37 1.32 1.32 0 001.45.13c7.82-4.31 16.69-9.19 24.89-9.19a18.67 18.67 0 014.67.57c-9.22 8.8-14.39 28-13.92 41.83a1.3 1.3 0 002.23.85c9.68-10.08 15.06-15.31 22.05-19.2 0 8.19 1.36 24.48 18.39 32.81a1.25 1.25 0 00.57.13 1.29 1.29 0 00.6-.14 1.3 1.3 0 00.68-1c6.59-45 26-85 57.59-118.88a1.28 1.28 0 00.17-1.54c-6.93-11.77-5.79-22.66 3.2-30.67a19.34 19.34 0 0112.92-4.72c6.45 0 13 2.87 18.38 8.09a1.29 1.29 0 001.7.08c7.48-6 17.7-9.37 28.05-9.37 9.15 0 17.78 2.7 24.29 7.59a1.29 1.29 0 001.68-.1c2.33-2.27 8.63-4.68 15.71-4.68 5.62 0 18.72 1.73 18.94 17.77a1.3 1.3 0 001.25 1.32z"/>
      <path class="cls-1" d="M149.4 83.35a11.29 11.29 0 00-9.26-4.77 12.57 12.57 0 00-7.79 2.77 12.12 12.12 0 00-2 17c.14.18.29.35.44.52a1.29 1.29 0 001.82.1l8.06-7.16 8.44-6.7a1.29 1.29 0 00.29-1.76zM191 93.36a8.47 8.47 0 10-8.47 8.47 8.48 8.48 0 008.47-8.47zM239 91.65a7.47 7.47 0 10-7.47 7.47 7.48 7.48 0 007.47-7.47zM251 115.33a7.18 7.18 0 107.18 7.18 7.19 7.19 0 00-7.18-7.18zM105.2 198.3a15.44 15.44 0 00-2.12.15c-14.25 1.89-18.77 14.55-21.31 26.76a1.28 1.28 0 00.26 1.08 1.31 1.31 0 001 .47h44.31a1.27 1.27 0 001.08-.58 1.29 1.29 0 00.11-1.22c-5.34-12.49-11.41-26.66-23.33-26.66z"/>
    </g>
  </g>
</svg>