<svg xmlns="http://www.w3.org/2000/svg" xmlns:xlink="http://www.w3.org/1999/xlink" width="" height="" viewBox="0 0 47 47">
 <defs>
  <path d="m23.065,0.18c-12.27,0 -22.613,9.598 -23.028,21.743c-0.02,0.638 -0.02,2.552 -0.02,2.552l6.59,0c0.582,8.614 7.723,15.421 16.454,15.421c9.11,0 16.496,-7.412 16.496,-16.555l3.956,0l0,0.003c0,11.334 -9.155,20.522 -20.448,20.522c-4.98,0 -9.54,-1.792 -13.085,-4.763c0.074,-0.25 0.116,-0.516 0.116,-0.79c0,-1.528 -1.234,-2.766 -2.755,-2.766c-1.522,0 -2.755,1.238 -2.755,2.765c0,1.527 1.233,2.765 2.755,2.765c0.263,0 0.516,-0.039 0.757,-0.108c4.03,3.451 9.254,5.538 14.967,5.538c12.746,0 23.08,-10.37 23.08,-23.163l0,-2.556l-6.783,0c-1.223,-7.932 -8.055,-14.004 -16.302,-14.004c-8.634,0 -15.715,6.659 -16.432,15.138l-3.956,0c0.728,-10.67 9.576,-19.1 20.393,-19.1c4.555,0 8.759,1.498 12.158,4.025c-0.087,0.269 -0.135,0.555 -0.135,0.853c0,1.527 1.233,2.765 2.755,2.765c1.521,0 2.755,-1.238 2.755,-2.765c0,-1.527 -1.234,-2.765 -2.755,-2.765c-0.231,0 -0.454,0.031 -0.669,0.085c-3.902,-3.03 -8.794,-4.84 -14.11,-4.84l0.001,0zm-13.871,23.16c0,-7.686 6.209,-13.917 13.867,-13.917c7.659,0 13.867,6.23 13.867,13.917c0,7.686 -6.208,13.916 -13.867,13.916c-7.658,0 -13.867,-6.23 -13.867,-13.916z" id="v00ocfy0vb"/>
  <linearGradient y2="0%" y1="100%" x2="50%" x1="50%" id="z4eyuqnvva">
   <stop stop-color="#EAA921" offset="0%"/>
   <stop stop-color="#EC6523" offset="100%"/>
  </linearGradient>
  <linearGradient y2="0%" y1="100%" x2="50%" x1="50%" id="4wsmtz1sxc">
   <stop stop-color="#E9A821" offset="0%"/>
   <stop stop-color="#EB6623" offset="100%"/>
  </linearGradient>
 </defs>
 <g>
  <g id="svg_1">
   <mask fill="#fff" id="phapp60n4d">
    <use id="svg_2" xlink:href="#v00ocfy0vb"/>
   </mask>
   <path id="svg_3" transform="translate(0, -0.091743) translate(0, 0.091743) translate(0, 0.091743) translate(0, 0.091743) translate(-0.091743) translate(0.091743) translate(0.091743) translate(0.091743) translate(0.091743) translate(0.091743) translate(18.8257, 0.109871) translate(-18.7156, -0.183486) translate(35, 12) translate(-35, -12)" mask="url(#phapp60n4d)" d="m23.065,0.18c-12.27,0 -22.613,9.598 -23.028,21.743c-0.02,0.638 -0.02,2.552 -0.02,2.552l6.59,0c0.582,8.614 7.723,15.421 16.454,15.421c9.11,0 16.496,-7.412 16.496,-16.555l3.956,0l0,0.003c0,11.334 -9.155,20.522 -20.448,20.522c-4.98,0 -9.54,-1.792 -13.085,-4.763c0.074,-0.25 0.116,-0.516 0.116,-0.79c0,-1.528 -1.234,-2.766 -2.755,-2.766c-1.522,0 -2.755,1.238 -2.755,2.765c0,1.527 1.233,2.765 2.755,2.765c0.263,0 0.516,-0.039 0.757,-0.108c4.03,3.451 9.254,5.538 14.967,5.538c12.746,0 23.08,-10.37 23.08,-23.163l0,-2.556l-6.783,0c-1.223,-7.932 -8.055,-14.004 -16.302,-14.004c-8.634,0 -15.715,6.659 -16.432,15.138l-3.956,0c0.728,-10.67 9.576,-19.1 20.393,-19.1c4.555,0 8.759,1.498 12.158,4.025c-0.087,0.269 -0.135,0.555 -0.135,0.853c0,1.527 1.233,2.765 2.755,2.765c1.521,0 2.755,-1.238 2.755,-2.765c0,-1.527 -1.234,-2.765 -2.755,-2.765c-0.231,0 -0.454,0.031 -0.669,0.085c-3.902,-3.03 -8.794,-4.84 -14.11,-4.84l0.001,0zm-13.871,23.16c0,-7.686 6.209,-13.917 13.867,-13.917c7.659,0 13.867,6.23 13.867,13.917c0,7.686 -6.208,13.916 -13.867,13.916c-7.658,0 -13.867,-6.23 -13.867,-13.916z" fill="url(#4wsmtz1sxc)"/>
  </g>
  <g id="svg_4">
   <path id="svg_5" transform="translate(35, 12) translate(31.3738, 16.9104)" d="m-48.27177,-9.31233l5.392,9.374l5.393,-9.374l-10.785,0z" fill="url(#z4eyuqnvva)"/>
   <path id="svg_6" transform="translate(35, 12) translate(31.3738, 16.9104)" d="m-43.16877,1.94967l-6.888,-11.973l-3.356,-1.922l10.243,17.805l0.001,-3.91zm-9.98,-14.413l3.416,1.956l13.682,0l3.416,-1.956l-20.514,0zm17.459,2.419l-6.9,11.993l-0.001,3.914l10.256,-17.829l-3.355,1.922z" fill="#FBAE17"/>
  </g>
 </g>
</svg>