<svg xmlns="http://www.w3.org/2000/svg" viewBox="0 0 1307 1782">
  <g>
  <g>
   <g>
    <g>
     <path fill="#ee2d37" d="m419.6,1700.6l-0.66,-3c-39.36,-176.85 -136.6,-286.7 -211.25,-347.7c-81,-66.24 -153.76,-90.91 -154.49,-91.15l-4.34,-1.45l-0.42,-4.56c-0.32,-3.51 -7,-91.69 61.76,-591.52c16,-116.21 54.63,-220.19 114.83,-309c48.18,-71.11 110.18,-132.7 184.27,-183.08a787.343,787.343 0 0 1 170.93,-87.37c45.21,-16.44 74.47,-22.2 75.69,-22.44l1.33,-0.25l1.33,0.25c1.23,0.24 30.48,6 75.69,22.44a786.9,786.9 0 0 1 170.93,87.36c74.1,50.38 136.09,112 184.27,183.08c60.21,88.86 98.84,192.84 114.83,309.05c68.76,499.83 62.08,588 61.76,591.52l-0.41,4.57l-4.35,1.44c-0.73,0.24 -73.44,24.91 -154.49,91.15c-74.64,61 -171.89,170.85 -211.25,347.7l-0.66,3l-137.33,81.18l47.32,-870.22l5.65,-0.83c0.29,0 29,-4.42 64.48,-18.75c32.46,-13.1 77.5,-37.47 107.69,-79.17c29.13,-40.24 39.75,-89.68 31.61,-147l-257.93,98.67l-30.9,316.64l-68.24,20.16l-68.25,-20.16l-30.89,-316.64l-257.93,-98.75c-8.14,57.4 2.49,106.86 31.67,147.11c58.1,80.17 171,97.68 172.11,97.85l5.65,0.83l47.32,870.22l-137.33,-81.18z"/>
     <g>
      <path fill="#ee2d37" d="m1197.36,662.22c-69.44,-504.79 -540.11,-596 -540.11,-596s-470.67,91.22 -540.11,596s-61.73,589.93 -61.73,589.93s293.21,97.31 370.37,444l123.45,73l-46.3,-851.45s-246.93,-36.54 -208.33,-261.56l270.06,103.39l30.86,316.25l61.73,18.22l61.75,-18.22l30.86,-316.25l270.04,-103.39c38.58,225 -208.33,261.51 -208.33,261.51l-46.3,851.45l123.46,-73c77.16,-346.66 370.36,-444 370.36,-444s7.72,-85.1 -61.73,-589.88z"/>
     </g>
     <ellipse fill="#ee2d37" ry="145.22" rx="100.75" cy="448.13" cx="934.34998"/>
     <ellipse fill="#ee2d37" ry="144.54" rx="100.28" cy="448.11999" cx="935.24997"/>
     <ellipse fill="#ee2d37" ry="143.87" rx="99.81" cy="448.10001" cx="936.19"/>
     <ellipse fill="#ee2d37" ry="143.19" rx="99.34" cy="448.07" cx="937.18003"/>
     <ellipse fill="#ee2d37" ry="142.51" rx="98.87" cy="448.02001" cx="938.21998"/>
     <ellipse fill="#ee2d37" ry="141.83" rx="98.4" cy="447.96" cx="939.30002"/>
     <ellipse fill="#ee2d37" ry="141.16" rx="97.93" cy="447.89001" cx="940.43"/>
     <ellipse fill="#ee2d37" ry="140.48" rx="97.46" cy="447.80001" cx="941.61002"/>
     <ellipse fill="#ee2d37" ry="139.8" rx="96.99" cy="447.69999" cx="942.83003"/>
     <ellipse fill="#ee2d37" ry="139.12" rx="96.52" cy="447.57999" cx="944.09001"/>
     <ellipse fill="#ee2d37" ry="138.44" rx="96.05" cy="447.45001" cx="945.39998"/>
     <ellipse fill="#ee2d37" ry="137.77" rx="95.58" cy="447.3" cx="946.74998"/>
     <ellipse fill="#ee2d37" ry="137.09" rx="95.1" cy="447.13999" cx="948.14999"/>
     <ellipse fill="#ee2d37" ry="136.41" rx="94.63" cy="446.95999" cx="949.58001"/>
     <ellipse fill="#ee2d37" ry="135.73" rx="94.16" cy="446.77001" cx="951.06002"/>
     <ellipse fill="#ee2d37" ry="135.06" rx="93.69" cy="446.57001" cx="952.57"/>
     <ellipse fill="#ee2d37" ry="134.38" rx="93.22" cy="446.35" cx="954.12997"/>
     <ellipse fill="#ee2d37" ry="133.7" rx="92.75" cy="446.11" cx="955.72998"/>
     <ellipse fill="#ee2d37" ry="133.02" rx="92.28" cy="445.86" cx="957.36002"/>
     <ellipse fill="#ee2d37" ry="132.34" rx="91.81" cy="445.59" cx="959.02997"/>
     <ellipse fill="#ee2d37" ry="131.67" rx="91.34" cy="445.31001" cx="960.74002"/>
     <ellipse fill="#ee2d37" ry="130.99" rx="90.87" cy="445.00999" cx="962.49"/>
     <ellipse fill="#ee2d37" ry="130.31" rx="90.4" cy="444.70001" cx="964.27"/>
     <ellipse fill="#ee2d37" ry="129.63" rx="89.93" cy="444.36999" cx="966.08997"/>
     <ellipse fill="#ee2d37" ry="128.96" rx="89.46" cy="444.02" cx="967.93998"/>
     <ellipse fill="#ee2d37" ry="128.28" rx="88.99" cy="443.66" cx="969.83003"/>
     <ellipse fill="#ee2d37" ry="127.6" rx="88.52" cy="443.27999" cx="971.74998"/>
     <ellipse fill="#ee2d37" ry="126.92" rx="88.05" cy="442.87999" cx="973.70002"/>
     <ellipse fill="#ee2d37" ry="126.24" rx="87.58" cy="442.47001" cx="975.68999"/>
     <ellipse fill="#ee2d37" ry="125.57" rx="87.11" cy="442.04" cx="977.70998"/>
     <ellipse fill="#ee2d37" ry="124.89" rx="86.64" cy="441.59001" cx="979.76"/>
     <ellipse fill="#ee2d37" ry="124.21" rx="86.17" cy="441.13001" cx="981.83998"/>
     <ellipse fill="#ee2d37" ry="123.53" rx="85.7" cy="440.65" cx="983.95"/>
     <ellipse fill="#ee2d37" ry="122.86" rx="85.23" cy="440.15001" cx="986.08999"/>
     <ellipse fill="#ee2d37" ry="122.18" rx="84.76" cy="439.63001" cx="988.24999"/>
     <ellipse fill="#ee2d37" ry="121.5" rx="84.29" cy="439.10001" cx="990.44997"/>
     <ellipse fill="#ee2d37" ry="120.82" rx="83.82" cy="438.55001" cx="992.66998"/>
     <ellipse fill="#ee2d37" ry="120.14" rx="83.35" cy="437.98" cx="994.92001"/>
     <ellipse fill="#ee2d37" ry="119.47" rx="82.88" cy="437.39999" cx="997.20001"/>
     <ellipse fill="#ee2d37" ry="118.79" rx="82.41" cy="436.79" cx="999.50003"/>
     <ellipse fill="#ee2d37" ry="118.11" rx="81.94" cy="436.17" cx="1001.83001"/>
     <ellipse fill="#ee2d37" ry="117.43" rx="81.47" cy="435.53001" cx="1004.18002"/>
     <ellipse fill="#ee2d37" ry="116.76" rx="81" cy="434.86999" cx="1006.56"/>
     <ellipse fill="#ee2d37" ry="116.08" rx="80.53" cy="434.18999" cx="1008.95999"/>
     <ellipse fill="#ee2d37" ry="115.4" rx="80.06" cy="433.49" cx="1011.38001"/>
     <ellipse fill="#ee2d37" ry="114.72" rx="79.59" cy="432.78" cx="1013.81998"/>
     <ellipse fill="#ee2d37" ry="114.04" rx="79.12" cy="432.04" cx="1016.27997"/>
     <ellipse fill="#ee2d37" ry="113.37" rx="78.65" cy="431.29001" cx="1018.77"/>
     <ellipse fill="#ee2d37" ry="112.69" rx="78.18" cy="430.51999" cx="1021.27998"/>
     <ellipse fill="#ee2d37" ry="112.01" rx="77.71" cy="429.71999" cx="1023.80003"/>
     <ellipse fill="#ee2d37" ry="111.33" rx="77.24" cy="428.90999" cx="1026.33998"/>
     <ellipse fill="#ee2d37" ry="110.65" rx="76.77" cy="428.07999" cx="1028.91001"/>
     <ellipse fill="#ee2d37" ry="109.98" rx="76.3" cy="427.23" cx="1031.47999"/>
     <ellipse fill="#ee2d37" ry="109.3" rx="75.83" cy="426.36" cx="1034.08"/>
     <ellipse fill="#ee2d37" ry="108.62" rx="75.36" cy="425.47001" cx="1036.69002"/>
     <ellipse fill="#ee2d37" ry="107.94" rx="74.89" cy="424.56" cx="1039.31999"/>
     <ellipse fill="#ee2d37" ry="107.27" rx="74.42" cy="423.62999" cx="1041.96999"/>
     <ellipse fill="#ee2d37" ry="106.59" rx="73.95" cy="422.66999" cx="1044.61998"/>
     <ellipse fill="#ee2d37" ry="105.91" rx="73.47" cy="421.70001" cx="1047.30002"/>
     <ellipse fill="#ee2d37" ry="105.23" rx="73" cy="420.71001" cx="1049.97998"/>
     <ellipse fill="#ee2d37" ry="104.55" rx="72.53" cy="419.69999" cx="1052.68002"/>
     <ellipse fill="#ee2d37" ry="103.88" rx="72.06" cy="418.66" cx="1055.39002"/>
     <ellipse fill="#ee2d37" ry="103.2" rx="71.59" cy="417.61" cx="1058.11002"/>
     <ellipse fill="#ee2d37" ry="102.52" rx="71.12" cy="416.53001" cx="1060.83997"/>
     <ellipse fill="#ee2d37" ry="101.84" rx="70.65" cy="415.43" cx="1063.59"/>
     <ellipse fill="#ee2d37" ry="101.17" rx="70.18" cy="414.31999" cx="1066.33997"/>
     <ellipse fill="#ee2d37" ry="100.49" rx="69.71" cy="413.16999" cx="1069.10001"/>
     <ellipse fill="#ee2d37" ry="99.81" rx="69.24" cy="412.01001" cx="1071.87"/>
     <ellipse fill="#ee2d37" ry="99.13" rx="68.77" cy="410.83001" cx="1074.65"/>
     <ellipse fill="#ee2d37" ry="98.45" rx="68.3" cy="409.62001" cx="1077.43"/>
     <ellipse fill="#ee2d37" ry="97.78" rx="67.83" cy="408.4" cx="1080.22001"/>
     <ellipse fill="#ee2d37" ry="97.1" rx="67.36" cy="407.14999" cx="1083.01997"/>
     <ellipse fill="#ee2d37" ry="96.42" rx="66.89" cy="405.87001" cx="1085.81999"/>
     <ellipse fill="#ee2d37" ry="95.74" rx="66.42" cy="404.58" cx="1088.63002"/>
     <ellipse fill="#ee2d37" ry="95.07" rx="65.95" cy="403.26" cx="1091.43999"/>
     <ellipse fill="#ee2d37" ry="94.39" rx="65.48" cy="401.92" cx="1094.25002"/>
     <ellipse fill="#ee2d37" ry="93.71" rx="65.01" cy="400.56001" cx="1097.07006"/>
     <ellipse fill="#ee2d37" ry="93.03" rx="64.54" cy="399.17999" cx="1099.88998"/>
     <ellipse fill="#ee2d37" ry="92.35" rx="64.07" cy="397.77001" cx="1102.71001"/>
     <ellipse fill="#ee2d37" ry="91.68" rx="63.6" cy="396.34" cx="1105.53005"/>
     <ellipse fill="#ee2d37" ry="91" rx="63.13" cy="394.88" cx="1108.34997"/>
     <ellipse fill="#ee2d37" ry="90.32" rx="62.66" cy="393.41" cx="1111.17001"/>
     <ellipse fill="#ee2d37" ry="89.64" rx="62.19" cy="391.90001" cx="1113.99005"/>
     <ellipse fill="#ee2d37" ry="88.97" rx="61.72" cy="390.38" cx="1116.80997"/>
     <ellipse fill="#ee2d37" ry="88.29" rx="61.25" cy="388.83001" cx="1119.63"/>
     <ellipse fill="#ee2d37" ry="87.61" rx="60.78" cy="387.25999" cx="1122.44003"/>
     <ellipse fill="#ee2d37" ry="86.93" rx="60.31" cy="385.66001" cx="1125.25995"/>
     <ellipse fill="#ee2d37" ry="86.25" rx="59.84" cy="384.04001" cx="1128.05997"/>
     <ellipse fill="#ee2d37" ry="85.58" rx="59.37" cy="382.40001" cx="1130.87"/>
     <ellipse fill="#ee2d37" ry="84.9" rx="58.9" cy="380.72999" cx="1133.66001"/>
     <ellipse fill="#ee2d37" ry="84.22" rx="58.43" cy="379.03" cx="1136.45002"/>
     <ellipse fill="#ee2d37" ry="83.54" rx="57.96" cy="377.30999" cx="1139.24003"/>
     <ellipse fill="#ee2d37" ry="82.87" rx="57.49" cy="375.57001" cx="1142.02003"/>
     <ellipse fill="#ee2d37" ry="82.19" rx="57.02" cy="373.79999" cx="1144.79002"/>
     <ellipse fill="#ee2d37" ry="81.51" rx="56.55" cy="372.01" cx="1147.55"/>
     <ellipse fill="#ee2d37" ry="80.83" rx="56.08" cy="370.18999" cx="1150.29997"/>
     <ellipse fill="#ee2d37" ry="80.15" rx="55.61" cy="368.35001" cx="1153.04994"/>
     <ellipse fill="#ee2d37" ry="79.48" rx="55.14" cy="366.48" cx="1155.78001"/>
     <ellipse fill="#ee2d37" ry="78.8" rx="54.67" cy="364.58" cx="1158.49996"/>
     <ellipse fill="#ee2d37" ry="78.12" rx="54.2" cy="362.66001" cx="1161.21001"/>
     <ellipse fill="#ee2d37" ry="77.44" rx="53.73" cy="360.72" cx="1163.91005"/>
     <ellipse fill="#ee2d37" ry="76.76" rx="53.26" cy="358.74999" cx="1166.59997"/>
     <ellipse fill="#ee2d37" ry="76.09" rx="52.79" cy="356.75" cx="1169.26998"/>
     <ellipse fill="#ee2d37" ry="75.41" rx="52.31" cy="354.72" cx="1171.93"/>
     <ellipse fill="#ee2d37" ry="74.73" rx="51.84" cy="352.67" cx="1174.56998"/>
     <ellipse fill="#ee2d37" ry="74.05" rx="51.37" cy="350.59999" cx="1177.19996"/>
     <ellipse fill="#ee2d37" ry="73.38" rx="50.9" cy="348.48999" cx="1179.82004"/>
     <ellipse fill="#ee2d37" ry="72.7" rx="50.43" cy="346.36" cx="1182.41999"/>
     <ellipse fill="#ee2d37" ry="72.02" rx="49.96" cy="344.21" cx="1185.00004"/>
     <ellipse fill="#ee2d37" ry="71.34" rx="49.49" cy="342.01999" cx="1187.55995"/>
     <ellipse fill="#ee2d37" ry="70.66" rx="49.02" cy="339.80999" cx="1190.10997"/>
     <ellipse fill="#ee2d37" ry="69.99" rx="48.55" cy="337.56999" cx="1192.62996"/>
     <ellipse fill="#ee2d37" ry="69.31" rx="48.08" cy="335.31" cx="1195.14006"/>
     <ellipse fill="#ee2d37" ry="68.63" rx="47.61" cy="333.01" cx="1197.63002"/>
     <ellipse fill="#ee2d37" ry="67.95" rx="47.14" cy="330.68999" cx="1200.08995"/>
     <ellipse fill="#ee2d37" ry="67.28" rx="46.67" cy="328.35001" cx="1202.54"/>
     <ellipse fill="#ee2d37" ry="66.6" rx="46.2" cy="325.97" cx="1204.96001"/>
     <ellipse fill="#ee2d37" ry="65.92" rx="45.73" cy="323.56999" cx="1207.36"/>
     <ellipse fill="#ee2d37" ry="65.24" rx="45.26" cy="321.13" cx="1209.73998"/>
     <ellipse fill="#ee2d37" ry="64.56" rx="44.79" cy="318.67" cx="1212.09005"/>
     <ellipse fill="#ee2d37" ry="63.89" rx="44.32" cy="316.19" cx="1214.41998"/>
     <ellipse fill="#ee2d37" ry="63.21" rx="43.85" cy="313.67001" cx="1216.72"/>
     <ellipse fill="#ee2d37" ry="62.53" rx="43.38" cy="311.12" cx="1219"/>
     <ellipse fill="#ee2d37" ry="61.85" rx="42.91" cy="308.55" cx="1221.25998"/>
     <ellipse fill="#ee2d37" ry="61.18" rx="42.44" cy="305.95" cx="1223.48004"/>
     <ellipse fill="#ee2d37" ry="60.5" rx="41.97" cy="303.32001" cx="1225.67996"/>
     <ellipse fill="#ee2d37" ry="59.82" rx="41.5" cy="300.65" cx="1227.84998"/>
     <ellipse fill="#ee2d37" ry="59.14" rx="41.03" cy="297.96001" cx="1229.98996"/>
     <ellipse fill="#ee2d37" ry="58.46" rx="40.56" cy="295.24999" cx="1232.10004"/>
     <ellipse fill="#ee2d37" ry="57.79" rx="40.09" cy="292.50001" cx="1234.18998"/>
     <ellipse fill="#ee2d37" ry="57.11" rx="39.62" cy="289.72" cx="1236.24"/>
     <ellipse fill="#ee2d37" ry="56.43" rx="39.15" cy="286.91" cx="1238.25999"/>
     <ellipse fill="#ee2d37" ry="55.75" rx="38.68" cy="284.07001" cx="1240.24995"/>
     <ellipse fill="#ee2d37" ry="55.08" rx="38.21" cy="281.2" cx="1242.21"/>
     <ellipse fill="#ee2d37" ry="54.4" rx="37.74" cy="278.31" cx="1244.13001"/>
     <ellipse fill="#ee2d37" ry="53.72" rx="37.27" cy="275.38" cx="1246.02"/>
     <ellipse fill="#ee2d37" ry="53.04" rx="36.8" cy="272.42" cx="1247.86995"/>
     <ellipse fill="#ee2d37" ry="52.36" rx="36.33" cy="269.43001" cx="1249.7"/>
     <ellipse fill="#ee2d37" ry="51.69" rx="35.86" cy="266.41" cx="1251.48"/>
     <ellipse fill="#ee2d37" ry="51.01" rx="35.39" cy="263.36001" cx="1253.22997"/>
     <ellipse fill="#ee2d37" ry="50.33" rx="34.92" cy="260.28" cx="1254.94002"/>
     <ellipse fill="#ee2d37" ry="49.65" rx="34.45" cy="257.17" cx="1256.62004"/>
     <ellipse fill="#ee2d37" ry="48.98" rx="33.98" cy="254.01999" cx="1258.26003"/>
     <ellipse fill="#ee2d37" ry="48.3" rx="33.51" cy="250.85" cx="1259.85998"/>
     <ellipse fill="#ee2d37" ry="47.62" rx="33.04" cy="247.64" cx="1261.42"/>
     <ellipse fill="#ee2d37" ry="46.94" rx="32.57" cy="244.41" cx="1262.94"/>
     <ellipse fill="#ee2d37" ry="46.26" rx="32.1" cy="241.14" cx="1264.41995"/>
     <ellipse fill="#ee2d37" ry="45.59" rx="31.63" cy="237.84" cx="1265.84997"/>
     <ellipse fill="#ee2d37" ry="44.91" rx="31.15" cy="234.5" cx="1267.24998"/>
     <ellipse fill="#ee2d37" ry="44.23" rx="30.68" cy="231.14" cx="1268.61005"/>
     <ellipse fill="#ee2d37" ry="43.55" rx="30.21" cy="227.74" cx="1269.91996"/>
     <ellipse fill="#ee2d37" ry="42.87" rx="29.74" cy="224.32" cx="1271.18995"/>
     <ellipse fill="#ee2d37" ry="42.2" rx="29.27" cy="220.84999" cx="1272.41001"/>
     <ellipse fill="#ee2d37" ry="41.52" rx="28.8" cy="217.36" cx="1273.59004"/>
     <ellipse fill="#ee2d37" ry="40.84" rx="28.33" cy="213.83001" cx="1274.72001"/>
     <ellipse fill="#ee2d37" ry="40.16" rx="27.86" cy="210.28" cx="1275.80995"/>
     <ellipse fill="#ee2d37" ry="39.49" rx="27.39" cy="206.68" cx="1276.84996"/>
     <ellipse fill="#ee2d37" ry="38.81" rx="26.92" cy="203.06" cx="1277.85005"/>
     <ellipse fill="#ee2d37" ry="38.13" rx="26.45" cy="199.4" cx="1278.79998"/>
     <ellipse fill="#ee2d37" ry="37.45" rx="25.98" cy="195.70999" cx="1279.68996"/>
     <ellipse fill="#ee2d37" ry="36.77" rx="25.51" cy="191.98001" cx="1280.54003"/>
     <ellipse fill="#ee2d37" ry="36.1" rx="25.04" cy="188.23" cx="1281.34005"/>
     <ellipse fill="#ee2d37" ry="35.42" rx="24.57" cy="184.44" cx="1282.09002"/>
     <path fill="#ee2d37" d="m1306.89,180.61c0,19.19 -10.79,34.74 -24.1,34.74s-24.1,-15.55 -24.1,-34.74s10.79,-34.74 24.1,-34.74s24.1,15.55 24.1,34.74z"/>
     <path fill="#ee2d37" d="m1307.07,176.75c0,18.81 -10.58,34.06 -23.63,34.06s-23.63,-15.25 -23.63,-34.06s10.58,-34.06 23.63,-34.06s23.63,15.25 23.63,34.06z"/>
     <path fill="#ee2d37" d="m1307.19,172.86c0,18.44 -10.37,33.38 -23.16,33.38s-23.16,-14.94 -23.16,-33.38s10.37,-33.39 23.16,-33.39s23.16,14.95 23.16,33.39z"/>
     <path fill="#ee2d37" d="m1307.27,168.93c0,18.06 -10.16,32.71 -22.69,32.71s-22.69,-14.65 -22.69,-32.71s10.15,-32.71 22.69,-32.71s22.69,14.65 22.69,32.71z"/>
     <path fill="#ee2d37" d="m1307.29,165c0,17.69 -10,32 -22.23,32s-22.22,-14.34 -22.22,-32s10,-32 22.22,-32s22.23,14.28 22.23,32z"/>
     <path fill="#ee2d37" d="m1307.25,161c0,17.32 -9.74,31.35 -21.75,31.35s-21.75,-14 -21.75,-31.35s9.74,-31.35 21.75,-31.35s21.75,14.01 21.75,31.35z"/>
     <path fill="#ee2d37" d="m1307.16,156.94c0,16.94 -9.53,30.68 -21.28,30.68s-21.28,-13.74 -21.28,-30.68s9.53,-30.67 21.28,-30.67s21.28,13.73 21.28,30.67z"/>
     <path fill="#ee2d37" d="m1307,152.88c0,16.56 -9.32,30 -20.81,30s-20.81,-13.43 -20.81,-30s9.31,-30 20.81,-30s20.81,13.43 20.81,30z"/>
     <path fill="#ee2d37" d="m1306.81,148.78c0,16.19 -9.1,29.32 -20.34,29.32s-20.34,-13.13 -20.34,-29.32s9.11,-29.32 20.34,-29.32s20.34,13.12 20.34,29.32z"/>
     <path fill="#ee2d37" d="m1306.56,144.64c0,15.82 -8.9,28.64 -19.87,28.64s-19.87,-12.82 -19.87,-28.64s8.89,-28.64 19.87,-28.64s19.87,12.82 19.87,28.64z"/>
     <path fill="#ee2d37" d="m1306.24,140.47c0,15.45 -8.68,28 -19.4,28s-19.4,-12.51 -19.4,-28s8.69,-28 19.4,-28s19.4,12.53 19.4,28z"/>
     <path fill="#ee2d37" d="m1305.87,136.27c0,15.07 -8.47,27.28 -18.93,27.28s-18.94,-12.21 -18.94,-27.28s8.48,-27.29 18.93,-27.29s18.94,12.22 18.94,27.29z"/>
     <path fill="#ee2d37" d="m1305.44,132c0,14.69 -8.26,26.6 -18.46,26.6s-18.46,-11.91 -18.46,-26.6s8.27,-26.61 18.46,-26.61s18.46,11.94 18.46,26.61z"/>
     <path fill="#ee2d37" d="m1305,127.75c0,14.32 -8,25.93 -18,25.93s-18,-11.61 -18,-25.93s8.06,-25.93 18,-25.93s18,11.61 18,25.93z"/>
     <path fill="#ee2d37" d="m1304.4,123.44c0,13.95 -7.84,25.25 -17.52,25.25s-17.52,-11.3 -17.52,-25.25s7.85,-25.25 17.52,-25.25s17.52,11.3 17.52,25.25z"/>
     <path fill="#ee2d37" d="m1303.79,119.09c0,13.57 -7.63,24.58 -17,24.58s-17,-11 -17,-24.58s7.63,-24.57 17,-24.57s17,11 17,24.57z"/>
     <path fill="#ee2d37" d="m1303.12,114.71c0,13.2 -7.42,23.9 -16.57,23.9s-16.58,-10.7 -16.58,-23.9s7.42,-23.9 16.58,-23.9s16.57,10.7 16.57,23.9z"/>
     <path fill="#ee2d37" d="m1302.39,110.29c0,12.82 -7.21,23.22 -16.11,23.22s-16.1,-10.4 -16.1,-23.22s7.21,-23.22 16.1,-23.22s16.11,10.4 16.11,23.22z"/>
     <path fill="#ee2d37" d="m1301.6,105.84c0,12.45 -7,22.54 -15.64,22.54s-15.64,-10.09 -15.64,-22.54s7,-22.54 15.64,-22.54s15.64,10.09 15.64,22.54z"/>
     <path fill="#ee2d37" d="m1300.74,101.35c0,12.07 -6.79,21.86 -15.16,21.86s-15.17,-9.79 -15.17,-21.86s6.79,-21.87 15.17,-21.87s15.16,9.79 15.16,21.87z"/>
     <path fill="#ee2d37" d="m1299.82,96.82c0,11.7 -6.58,21.18 -14.69,21.18s-14.7,-9.48 -14.7,-21.18s6.58,-21.19 14.7,-21.19s14.69,9.49 14.69,21.19z"/>
     <path fill="#ee2d37" d="m1298.84,92.26c0,11.32 -6.37,20.5 -14.23,20.5s-14.22,-9.18 -14.22,-20.5s6.37,-20.51 14.22,-20.51s14.23,9.18 14.23,20.51z"/>
     <path fill="#ee2d37" d="m1297.79,87.66c0,11 -6.15,19.83 -13.75,19.83s-13.76,-8.88 -13.76,-19.83s6.16,-19.83 13.76,-19.83s13.75,8.87 13.75,19.83z"/>
     <path fill="#ee2d37" d="m1296.68,83c0,10.58 -6,19.15 -13.28,19.15s-13.29,-8.55 -13.29,-19.15s6,-19.15 13.29,-19.15s13.28,8.59 13.28,19.15z"/>
     <path fill="#ee2d37" d="m1295.5,78.35c0,10.2 -5.73,18.47 -12.81,18.47s-12.82,-8.27 -12.82,-18.47s5.74,-18.48 12.82,-18.48s12.81,8.27 12.81,18.48z"/>
     <path fill="#ee2d37" d="m1294.26,73.64c0,9.82 -5.53,17.79 -12.35,17.79s-12.34,-8 -12.34,-17.79s5.53,-17.8 12.34,-17.8s12.35,7.97 12.35,17.8z"/>
     <path fill="#ee2d37" d="m1293,68.89c0,9.45 -5.32,17.12 -11.88,17.12s-11.87,-7.67 -11.87,-17.12s5.31,-17.12 11.87,-17.12s11.88,7.66 11.88,17.12z"/>
     <path fill="#ee2d37" d="m1291.57,64.1c0,9.08 -5.11,16.44 -11.41,16.44s-11.4,-7.36 -11.4,-16.44s5.11,-16.44 11.4,-16.44s11.41,7.34 11.41,16.44z"/>
     <path fill="#ee2d37" d="m1290.12,59.28c0,8.71 -4.89,15.76 -10.93,15.76s-10.94,-7.05 -10.94,-15.76s4.9,-15.76 10.94,-15.76s10.93,7.06 10.93,15.76z"/>
     <path fill="#ee2d37" d="m1288.61,54.42c0,8.33 -4.69,15.09 -10.47,15.09s-10.46,-6.76 -10.46,-15.09s4.68,-15.08 10.46,-15.08s10.47,6.75 10.47,15.08z"/>
     <path fill="#ee2d37" d="m1287,49.53c0,7.95 -4.47,14.4 -10,14.4s-10,-6.45 -10,-14.4s4.48,-14.41 10,-14.41s10,6.45 10,14.41z"/>
     <path fill="#ee2d37" d="m1285.37,44.59c0,7.58 -4.27,13.73 -9.53,13.73s-9.52,-6.15 -9.52,-13.73s4.26,-13.73 9.52,-13.73s9.53,6.14 9.53,13.73z"/>
     <path fill="#ee2d37" d="m1283.64,39.62c0,7.21 -4.05,13.05 -9.05,13.05s-9.06,-5.84 -9.06,-13.05s4.06,-13 9.06,-13s9.05,5.79 9.05,13z"/>
     <path fill="#ee2d37" d="m1281.84,34.61c0,6.83 -3.84,12.37 -8.58,12.37s-8.58,-5.54 -8.58,-12.37s3.84,-12.37 8.58,-12.37s8.58,5.54 8.58,12.37z"/>
     <path fill="#ee2d37" d="m1280,29.56c0,6.46 -3.64,11.7 -8.12,11.7s-8.11,-5.24 -8.11,-11.7s3.63,-11.7 8.11,-11.7s8.12,5.24 8.12,11.7z"/>
     <path fill="#ee2d37" d="m1278,24.47c0,6.09 -3.42,11 -7.64,11s-7.64,-4.93 -7.64,-11s3.42,-11 7.64,-11s7.64,4.92 7.64,11z"/>
     <path fill="#ee2d37" d="m1276,19.35c0,5.71 -3.21,10.34 -7.17,10.34s-7.18,-4.63 -7.18,-10.34s3.23,-10.35 7.2,-10.35s7.15,4.64 7.15,10.35z"/>
     <path fill="#ee2d37" d="m1273.93,14.19c0,5.33 -3,9.66 -6.7,9.66s-6.7,-4.33 -6.7,-9.66s3,-9.67 6.7,-9.67s6.7,4.33 6.7,9.67z"/>
     <path fill="#ee2d37" d="m1271.77,9c0,5 -2.79,9 -6.23,9s-6.24,-4 -6.24,-9s2.79,-9 6.24,-9s6.23,4 6.23,9z"/>
     <ellipse fill="#ee2d37" ry="145.22" rx="100.75" cy="448.13" cx="372.92999"/>
     <ellipse fill="#ee2d37" ry="144.54" rx="100.28" cy="448.11999" cx="372.04001"/>
     <ellipse fill="#ee2d37" ry="143.87" rx="99.81" cy="448.10001" cx="371.10001"/>
     <ellipse fill="#ee2d37" ry="143.19" rx="99.34" cy="448.07" cx="370.10999"/>
     <ellipse fill="#ee2d37" ry="142.51" rx="98.87" cy="448.02001" cx="369.07001"/>
     <ellipse fill="#ee2d37" ry="141.83" rx="98.4" cy="447.96" cx="367.97999"/>
     <ellipse fill="#ee2d37" ry="141.16" rx="97.93" cy="447.89001" cx="366.85001"/>
     <ellipse fill="#ee2d37" ry="140.48" rx="97.46" cy="447.80001" cx="365.68"/>
     <ellipse fill="#ee2d37" ry="139.8" rx="96.99" cy="447.69999" cx="364.46"/>
     <ellipse fill="#ee2d37" ry="139.12" rx="96.52" cy="447.57999" cx="363.19001"/>
     <ellipse fill="#ee2d37" ry="138.44" rx="96.05" cy="447.45001" cx="361.87999"/>
     <ellipse fill="#ee2d37" ry="137.77" rx="95.58" cy="447.3" cx="360.53001"/>
     <ellipse fill="#ee2d37" ry="137.09" rx="95.1" cy="447.13999" cx="359.14001"/>
     <ellipse fill="#ee2d37" ry="136.41" rx="94.63" cy="446.95999" cx="357.70001"/>
     <ellipse fill="#ee2d37" ry="135.73" rx="94.16" cy="446.77001" cx="356.23001"/>
     <ellipse fill="#ee2d37" ry="135.06" rx="93.69" cy="446.57001" cx="354.70999"/>
     <ellipse fill="#ee2d37" ry="134.38" rx="93.22" cy="446.35" cx="353.16"/>
     <ellipse fill="#ee2d37" ry="133.7" rx="92.75" cy="446.11" cx="351.56"/>
     <ellipse fill="#ee2d37" ry="133.02" rx="92.28" cy="445.86" cx="349.92999"/>
     <ellipse fill="#ee2d37" ry="132.34" rx="91.81" cy="445.59" cx="348.25"/>
     <ellipse fill="#ee2d37" ry="131.67" rx="91.34" cy="445.31001" cx="346.54"/>
     <ellipse fill="#ee2d37" ry="130.99" rx="90.87" cy="445.00999" cx="344.79999"/>
     <ellipse fill="#ee2d37" ry="130.31" rx="90.4" cy="444.70001" cx="343.01"/>
     <ellipse fill="#ee2d37" ry="129.63" rx="89.93" cy="444.36999" cx="341.2"/>
     <ellipse fill="#ee2d37" ry="128.96" rx="89.46" cy="444.02" cx="339.34"/>
     <ellipse fill="#ee2d37" ry="128.28" rx="88.99" cy="443.66" cx="337.46"/>
     <ellipse fill="#ee2d37" ry="127.6" rx="88.52" cy="443.27999" cx="335.54"/>
     <ellipse fill="#ee2d37" ry="126.92" rx="88.05" cy="442.87999" cx="333.58"/>
     <ellipse fill="#ee2d37" ry="126.24" rx="87.58" cy="442.47001" cx="331.6"/>
     <ellipse fill="#ee2d37" ry="125.57" rx="87.11" cy="442.04" cx="329.58"/>
     <ellipse fill="#ee2d37" ry="124.89" rx="86.64" cy="441.59001" cx="327.53"/>
     <ellipse fill="#ee2d37" ry="124.21" rx="86.17" cy="441.13001" cx="325.45"/>
     <ellipse fill="#ee2d37" ry="123.53" rx="85.7" cy="440.65" cx="323.34"/>
     <ellipse fill="#ee2d37" ry="122.86" rx="85.23" cy="440.15001" cx="321.2"/>
     <ellipse fill="#ee2d37" ry="122.18" rx="84.76" cy="439.63001" cx="319.03"/>
     <ellipse fill="#ee2d37" ry="121.5" rx="84.29" cy="439.10001" cx="316.82999"/>
     <ellipse fill="#ee2d37" ry="120.82" rx="83.82" cy="438.55001" cx="314.60999"/>
     <ellipse fill="#ee2d37" ry="120.14" rx="83.35" cy="437.98" cx="312.35999"/>
     <ellipse fill="#ee2d37" ry="119.47" rx="82.88" cy="437.39999" cx="310.08"/>
     <ellipse fill="#ee2d37" ry="118.79" rx="82.41" cy="436.79" cx="307.78"/>
     <ellipse fill="#ee2d37" ry="118.11" rx="81.94" cy="436.17" cx="305.44999"/>
     <ellipse fill="#ee2d37" ry="117.43" rx="81.47" cy="435.53001" cx="303.1"/>
     <ellipse fill="#ee2d37" ry="116.76" rx="81" cy="434.86999" cx="300.73"/>
     <ellipse fill="#ee2d37" ry="116.08" rx="80.53" cy="434.18999" cx="298.33"/>
     <ellipse fill="#ee2d37" ry="115.4" rx="80.06" cy="433.49" cx="295.91001"/>
     <ellipse fill="#ee2d37" ry="114.72" rx="79.59" cy="432.78" cx="293.46"/>
     <ellipse fill="#ee2d37" ry="114.04" rx="79.12" cy="432.04" cx="291"/>
     <ellipse fill="#ee2d37" ry="113.37" rx="78.65" cy="431.29001" cx="288.52"/>
     <ellipse fill="#ee2d37" ry="112.69" rx="78.18" cy="430.51999" cx="286.01"/>
     <ellipse fill="#ee2d37" ry="112.01" rx="77.71" cy="429.71999" cx="283.49"/>
     <ellipse fill="#ee2d37" ry="111.33" rx="77.24" cy="428.90999" cx="280.94"/>
     <ellipse fill="#ee2d37" ry="110.65" rx="76.77" cy="428.07999" cx="278.38"/>
     <ellipse fill="#ee2d37" ry="109.98" rx="76.3" cy="427.23" cx="275.8"/>
     <ellipse fill="#ee2d37" ry="109.3" rx="75.83" cy="426.36" cx="273.2"/>
     <ellipse fill="#ee2d37" ry="108.62" rx="75.36" cy="425.47001" cx="270.59"/>
     <ellipse fill="#ee2d37" ry="107.94" rx="74.89" cy="424.56" cx="267.96001"/>
     <ellipse fill="#ee2d37" ry="107.27" rx="74.42" cy="423.62999" cx="265.31999"/>
     <ellipse fill="#ee2d37" ry="106.59" rx="73.95" cy="422.66999" cx="262.66001"/>
     <ellipse fill="#ee2d37" ry="105.91" rx="73.47" cy="421.70001" cx="259.99"/>
     <ellipse fill="#ee2d37" ry="105.23" rx="73" cy="420.71001" cx="257.3"/>
     <ellipse fill="#ee2d37" ry="104.55" rx="72.53" cy="419.69999" cx="254.61"/>
     <ellipse fill="#ee2d37" ry="103.88" rx="72.06" cy="418.66" cx="251.9"/>
     <ellipse fill="#ee2d37" ry="103.2" rx="71.59" cy="417.61" cx="249.17"/>
     <ellipse fill="#ee2d37" ry="102.52" rx="71.12" cy="416.53001" cx="246.44001"/>
     <ellipse fill="#ee2d37" ry="101.84" rx="70.65" cy="415.43" cx="243.7"/>
     <ellipse fill="#ee2d37" ry="101.17" rx="70.18" cy="414.31999" cx="240.95"/>
     <ellipse fill="#ee2d37" ry="100.49" rx="69.71" cy="413.16999" cx="238.19"/>
     <ellipse fill="#ee2d37" ry="99.81" rx="69.24" cy="412.01001" cx="235.41999"/>
     <ellipse fill="#ee2d37" ry="99.13" rx="68.77" cy="410.83001" cx="232.64"/>
     <ellipse fill="#ee2d37" ry="98.45" rx="68.3" cy="409.62001" cx="229.86"/>
     <ellipse fill="#ee2d37" ry="97.78" rx="67.83" cy="408.4" cx="227.06"/>
     <ellipse fill="#ee2d37" ry="97.1" rx="67.36" cy="407.14999" cx="224.27"/>
     <ellipse fill="#ee2d37" ry="96.42" rx="66.89" cy="405.87001" cx="221.47"/>
     <ellipse fill="#ee2d37" ry="95.74" rx="66.42" cy="404.58" cx="218.66001"/>
     <ellipse fill="#ee2d37" ry="95.07" rx="65.95" cy="403.26" cx="215.84999"/>
     <ellipse fill="#ee2d37" ry="94.39" rx="65.48" cy="401.92" cx="213.03"/>
     <ellipse fill="#ee2d37" ry="93.71" rx="65.01" cy="400.56001" cx="210.22001"/>
     <ellipse fill="#ee2d37" ry="93.03" rx="64.54" cy="399.17999" cx="207.4"/>
     <ellipse fill="#ee2d37" ry="92.35" rx="64.07" cy="397.77001" cx="204.57999"/>
     <ellipse fill="#ee2d37" ry="91.68" rx="63.6" cy="396.34" cx="201.76"/>
     <ellipse fill="#ee2d37" ry="91" rx="63.13" cy="394.88" cx="198.93"/>
     <ellipse fill="#ee2d37" ry="90.32" rx="62.66" cy="393.41" cx="196.11"/>
     <ellipse fill="#ee2d37" ry="89.64" rx="62.19" cy="391.90001" cx="193.29001"/>
     <ellipse fill="#ee2d37" ry="88.97" rx="61.72" cy="390.38" cx="190.47"/>
     <ellipse fill="#ee2d37" ry="88.29" rx="61.25" cy="388.83001" cx="187.66"/>
     <ellipse fill="#ee2d37" ry="87.61" rx="60.78" cy="387.25999" cx="184.84"/>
     <ellipse fill="#ee2d37" ry="86.93" rx="60.31" cy="385.66001" cx="182.03"/>
     <ellipse fill="#ee2d37" ry="86.25" rx="59.84" cy="384.04001" cx="179.22"/>
     <ellipse fill="#ee2d37" ry="85.58" rx="59.37" cy="382.40001" cx="176.42"/>
     <ellipse fill="#ee2d37" ry="84.9" rx="58.9" cy="380.72999" cx="173.62"/>
     <ellipse fill="#ee2d37" ry="84.22" rx="58.43" cy="379.03" cx="170.83"/>
     <ellipse fill="#ee2d37" ry="83.54" rx="57.96" cy="377.30999" cx="168.05"/>
     <ellipse fill="#ee2d37" ry="82.87" rx="57.49" cy="375.57001" cx="165.27"/>
     <ellipse fill="#ee2d37" ry="82.19" rx="57.02" cy="373.79999" cx="162.5"/>
     <ellipse fill="#ee2d37" ry="81.51" rx="56.55" cy="372.01" cx="159.74"/>
     <ellipse fill="#ee2d37" ry="80.83" rx="56.08" cy="370.18999" cx="156.98"/>
     <ellipse fill="#ee2d37" ry="80.15" rx="55.61" cy="368.35001" cx="154.24"/>
     <ellipse fill="#ee2d37" ry="79.48" rx="55.14" cy="366.48" cx="151.51"/>
     <ellipse fill="#ee2d37" ry="78.8" rx="54.67" cy="364.58" cx="148.78"/>
     <ellipse fill="#ee2d37" ry="78.12" rx="54.2" cy="362.66001" cx="146.07"/>
     <ellipse fill="#ee2d37" ry="77.44" rx="53.73" cy="360.72" cx="143.37"/>
     <ellipse fill="#ee2d37" ry="76.76" rx="53.26" cy="358.74999" cx="140.69"/>
     <ellipse fill="#ee2d37" ry="76.09" rx="52.79" cy="356.75" cx="138.01"/>
     <ellipse fill="#ee2d37" ry="75.41" rx="52.31" cy="354.72" cx="135.36"/>
     <ellipse fill="#ee2d37" ry="74.73" rx="51.84" cy="352.67" cx="132.71"/>
     <ellipse fill="#ee2d37" ry="74.05" rx="51.37" cy="350.59999" cx="130.08"/>
     <ellipse fill="#ee2d37" ry="73.38" rx="50.9" cy="348.48999" cx="127.47"/>
     <ellipse fill="#ee2d37" ry="72.7" rx="50.43" cy="346.36" cx="124.87"/>
     <ellipse fill="#ee2d37" ry="72.02" rx="49.96" cy="344.21" cx="122.29"/>
     <ellipse fill="#ee2d37" ry="71.34" rx="49.49" cy="342.01999" cx="119.73"/>
     <ellipse fill="#ee2d37" ry="70.66" rx="49.02" cy="339.80999" cx="117.18"/>
     <ellipse fill="#ee2d37" ry="69.99" rx="48.55" cy="337.56999" cx="114.65"/>
     <ellipse fill="#ee2d37" ry="69.31" rx="48.08" cy="335.31" cx="112.15"/>
     <ellipse fill="#ee2d37" ry="68.63" rx="47.61" cy="333.01" cx="109.66"/>
     <ellipse fill="#ee2d37" ry="67.95" rx="47.14" cy="330.68999" cx="107.19"/>
     <ellipse fill="#ee2d37" ry="67.28" rx="46.67" cy="328.35001" cx="104.75"/>
     <ellipse fill="#ee2d37" ry="66.6" rx="46.2" cy="325.97" cx="102.33"/>
     <ellipse fill="#ee2d37" ry="65.92" rx="45.73" cy="323.56999" cx="99.93"/>
     <ellipse fill="#ee2d37" ry="65.24" rx="45.26" cy="321.13" cx="97.55"/>
     <ellipse fill="#ee2d37" ry="64.56" rx="44.79" cy="318.67" cx="95.19"/>
     <ellipse fill="#ee2d37" ry="63.89" rx="44.32" cy="316.19" cx="92.87"/>
     <ellipse fill="#ee2d37" ry="63.21" rx="43.85" cy="313.67001" cx="90.56"/>
     <ellipse fill="#ee2d37" ry="62.53" rx="43.38" cy="311.12" cx="88.28"/>
     <ellipse fill="#ee2d37" ry="61.85" rx="42.91" cy="308.55" cx="86.03"/>
     <ellipse fill="#ee2d37" ry="61.18" rx="42.44" cy="305.95" cx="83.8"/>
     <ellipse fill="#ee2d37" ry="60.5" rx="41.97" cy="303.32001" cx="81.61"/>
     <ellipse fill="#ee2d37" ry="59.82" rx="41.5" cy="300.65" cx="79.43"/>
     <ellipse fill="#ee2d37" ry="59.14" rx="41.03" cy="297.96001" cx="77.29"/>
     <ellipse fill="#ee2d37" ry="58.46" rx="40.56" cy="295.24999" cx="75.18"/>
     <ellipse fill="#ee2d37" ry="57.79" rx="40.09" cy="292.50001" cx="73.1"/>
     <ellipse fill="#ee2d37" ry="57.11" rx="39.62" cy="289.72" cx="71.05"/>
     <ellipse fill="#ee2d37" ry="56.43" rx="39.15" cy="286.91" cx="69.03"/>
     <ellipse fill="#ee2d37" ry="55.75" rx="38.68" cy="284.07001" cx="67.04"/>
     <ellipse fill="#ee2d37" ry="55.08" rx="38.21" cy="281.2" cx="65.08"/>
     <ellipse fill="#ee2d37" ry="54.4" rx="37.74" cy="278.31" cx="63.16"/>
     <ellipse fill="#ee2d37" ry="53.72" rx="37.27" cy="275.38" cx="61.27"/>
     <ellipse fill="#ee2d37" ry="53.04" rx="36.8" cy="272.42" cx="59.41"/>
     <ellipse fill="#ee2d37" ry="52.36" rx="36.33" cy="269.43001" cx="57.59"/>
     <ellipse fill="#ee2d37" ry="51.69" rx="35.86" cy="266.41" cx="55.8"/>
     <ellipse fill="#ee2d37" ry="51.01" rx="35.39" cy="263.36001" cx="54.05"/>
     <ellipse fill="#ee2d37" ry="50.33" rx="34.92" cy="260.28" cx="52.34"/>
     <ellipse fill="#ee2d37" ry="49.65" rx="34.45" cy="257.17" cx="50.67"/>
     <ellipse fill="#ee2d37" ry="48.98" rx="33.98" cy="254.01999" cx="49.03"/>
     <ellipse fill="#ee2d37" ry="48.3" rx="33.51" cy="250.85" cx="47.43"/>
     <ellipse fill="#ee2d37" ry="47.62" rx="33.04" cy="247.64" cx="45.87"/>
     <ellipse fill="#ee2d37" ry="46.94" rx="32.57" cy="244.41" cx="44.35"/>
     <ellipse fill="#ee2d37" ry="46.26" rx="32.1" cy="241.14" cx="42.87"/>
     <ellipse fill="#ee2d37" ry="45.59" rx="31.63" cy="237.84" cx="41.43"/>
     <ellipse fill="#ee2d37" ry="44.91" rx="31.15" cy="234.5" cx="40.03"/>
     <ellipse fill="#ee2d37" ry="44.23" rx="30.68" cy="231.14" cx="38.68"/>
     <ellipse fill="#ee2d37" ry="43.55" rx="30.21" cy="227.74" cx="37.37"/>
     <ellipse fill="#ee2d37" ry="42.87" rx="29.74" cy="224.32" cx="36.1"/>
     <ellipse fill="#ee2d37" ry="42.2" rx="29.27" cy="220.84999" cx="34.87"/>
     <ellipse fill="#ee2d37" ry="41.52" rx="28.8" cy="217.36" cx="33.7"/>
     <ellipse fill="#ee2d37" ry="40.84" rx="28.33" cy="213.83001" cx="32.56"/>
     <ellipse fill="#ee2d37" ry="40.16" rx="27.86" cy="210.28" cx="31.47"/>
     <ellipse fill="#ee2d37" ry="39.49" rx="27.39" cy="206.68" cx="30.43"/>
     <ellipse fill="#ee2d37" ry="38.81" rx="26.92" cy="203.06" cx="29.44"/>
     <ellipse fill="#ee2d37" ry="38.13" rx="26.45" cy="199.4" cx="28.49"/>
     <ellipse fill="#ee2d37" ry="37.45" rx="25.98" cy="195.70999" cx="27.59"/>
     <ellipse fill="#ee2d37" ry="36.77" rx="25.51" cy="191.98001" cx="26.74"/>
     <ellipse fill="#ee2d37" ry="36.1" rx="25.04" cy="188.23" cx="25.94"/>
     <ellipse fill="#ee2d37" ry="35.42" rx="24.57" cy="184.44" cx="25.19"/>
     <path fill="#ee2d37" d="m0.39,180.61c0,19.19 10.79,34.74 24.1,34.74s24.11,-15.55 24.11,-34.74s-10.8,-34.74 -24.11,-34.74s-24.1,15.55 -24.1,34.74z"/>
     <path fill="#ee2d37" d="m0.22,176.75c0,18.81 10.58,34.06 23.63,34.06s23.63,-15.25 23.63,-34.06s-10.58,-34.06 -23.63,-34.06s-23.63,15.25 -23.63,34.06z"/>
     <path fill="#ee2d37" d="m0.09,172.86c0,18.44 10.37,33.38 23.16,33.38s23.16,-14.94 23.16,-33.38s-10.41,-33.39 -23.16,-33.39s-23.16,14.95 -23.16,33.39z"/>
     <path fill="#ee2d37" d="m0,168.93c0,18.07 10.18,32.71 22.71,32.71s22.69,-14.64 22.69,-32.71s-10.16,-32.71 -22.69,-32.71s-22.71,14.65 -22.71,32.71z"/>
     <path fill="#ee2d37" d="m0,165c0,17.69 10,32 22.22,32s22.22,-14.34 22.22,-32s-9.95,-32 -22.22,-32s-22.22,14.28 -22.22,32z"/>
     <path fill="#ee2d37" d="m0,161c0,17.32 9.73,31.35 21.75,31.35s21.75,-14 21.75,-31.35s-9.74,-31.35 -21.75,-31.35s-21.75,14.01 -21.75,31.35z"/>
     <path fill="#ee2d37" d="m0.13,156.94c0,16.94 9.52,30.68 21.28,30.68s21.28,-13.74 21.28,-30.68s-9.53,-30.67 -21.28,-30.67s-21.28,13.73 -21.28,30.67z"/>
     <path fill="#ee2d37" d="m0.27,152.88c0,16.56 9.32,30 20.81,30s20.81,-13.43 20.81,-30s-9.32,-30 -20.81,-30s-20.81,13.43 -20.81,30z"/>
     <path fill="#ee2d37" d="m0.47,148.78c0,16.22 9.11,29.32 20.34,29.32s20.34,-13.1 20.34,-29.32s-9.15,-29.32 -20.34,-29.32s-20.34,13.12 -20.34,29.32z"/>
     <path fill="#ee2d37" d="m0.73,144.64c0,15.82 8.89,28.64 19.87,28.64s19.87,-12.82 19.87,-28.64s-8.9,-28.64 -19.87,-28.64s-19.87,12.82 -19.87,28.64z"/>
     <path fill="#ee2d37" d="m1,140.47c0,15.45 8.69,28 19.4,28s19.4,-12.51 19.4,-28s-8.68,-28 -19.4,-28s-19.4,12.53 -19.4,28z"/>
     <path fill="#ee2d37" d="m1.42,136.27c0,15.07 8.47,27.28 18.92,27.28s18.93,-12.21 18.93,-27.28s-8.47,-27.27 -18.93,-27.27s-18.92,12.2 -18.92,27.27z"/>
     <path fill="#ee2d37" d="m1.85,132c0,14.69 8.26,26.6 18.45,26.6s18.46,-11.88 18.46,-26.6s-8.26,-26.58 -18.46,-26.58s-18.45,11.91 -18.45,26.58z"/>
     <path fill="#ee2d37" d="m2.33,127.75c0,14.32 8.06,25.93 18,25.93s18,-11.61 18,-25.93s-8,-25.93 -18,-25.93s-18,11.61 -18,25.93z"/>
     <path fill="#ee2d37" d="m2.88,123.44c0,13.95 7.85,25.25 17.52,25.25s17.52,-11.3 17.52,-25.25s-7.84,-25.25 -17.52,-25.25s-17.52,11.3 -17.52,25.25z"/>
     <path fill="#ee2d37" d="m3.49,119.09c0,13.57 7.64,24.58 17,24.58s17.05,-11 17.05,-24.58s-7.54,-24.57 -17,-24.57s-17.05,11 -17.05,24.57z"/>
     <path fill="#ee2d37" d="m4.16,114.71c0,13.2 7.42,23.9 16.58,23.9s16.58,-10.7 16.58,-23.9s-7.42,-23.9 -16.58,-23.9s-16.58,10.7 -16.58,23.9z"/>
     <path fill="#ee2d37" d="m4.89,110.29c0,12.82 7.22,23.22 16.11,23.22s16.11,-10.4 16.11,-23.22s-7.21,-23.22 -16.11,-23.22s-16.11,10.4 -16.11,23.22z"/>
     <path fill="#ee2d37" d="m5.69,105.84c0,12.45 7,22.54 15.63,22.54s15.68,-10.09 15.68,-22.54s-7,-22.54 -15.68,-22.54s-15.63,10.09 -15.63,22.54z"/>
     <path fill="#ee2d37" d="m6.54,101.35c0,12.07 6.79,21.86 15.17,21.86s15.17,-9.79 15.17,-21.86s-6.79,-21.87 -15.17,-21.87s-15.17,9.79 -15.17,21.87z"/>
     <path fill="#ee2d37" d="m7.46,96.82c0,11.7 6.54,21.18 14.7,21.18s14.7,-9.48 14.7,-21.18s-6.58,-21.19 -14.7,-21.19s-14.7,9.49 -14.7,21.19z"/>
     <path fill="#ee2d37" d="m8.44,92.26c0,11.32 6.37,20.5 14.23,20.5s14.23,-9.18 14.23,-20.5s-6.37,-20.51 -14.23,-20.51s-14.23,9.18 -14.23,20.51z"/>
     <path fill="#ee2d37" d="m9.49,87.66c0,11 6.16,19.83 13.76,19.83s13.75,-8.88 13.75,-19.83s-6.15,-19.83 -13.75,-19.83s-13.76,8.87 -13.76,19.83z"/>
     <path fill="#ee2d37" d="m10.6,83c0,10.58 6,19.15 13.29,19.15s13.29,-8.55 13.29,-19.15s-5.95,-19.13 -13.29,-19.13s-13.29,8.57 -13.29,19.13z"/>
     <path fill="#ee2d37" d="m11.78,78.35c0,10.2 5.74,18.47 12.82,18.47s12.81,-8.27 12.81,-18.47s-5.73,-18.48 -12.81,-18.48s-12.82,8.27 -12.82,18.48z"/>
     <path fill="#ee2d37" d="m13,73.64c0,9.82 5.52,17.79 12.34,17.79s12.35,-8 12.35,-17.79s-5.53,-17.8 -12.35,-17.8s-12.34,7.97 -12.34,17.8z"/>
     <path fill="#ee2d37" d="m14.34,68.89c0,9.45 5.31,17.11 11.87,17.11s11.88,-7.67 11.88,-17.12s-5.32,-17.11 -11.88,-17.11s-11.87,7.66 -11.87,17.12z"/>
     <path fill="#ee2d37" d="m15.72,64.1c0,9.08 5.1,16.44 11.4,16.44s11.41,-7.36 11.41,-16.44s-5.11,-16.44 -11.41,-16.44s-11.4,7.34 -11.4,16.44z"/>
     <path fill="#ee2d37" d="m17.16,59.28c0,8.72 4.9,15.72 10.94,15.72s10.9,-7 10.9,-15.72s-4.86,-15.76 -10.9,-15.76s-10.94,7.06 -10.94,15.76z"/>
     <path fill="#ee2d37" d="m18.68,54.42c0,8.33 4.68,15.09 10.46,15.09s10.47,-6.76 10.47,-15.09s-4.69,-15.08 -10.47,-15.08s-10.46,6.75 -10.46,15.08z"/>
     <path fill="#ee2d37" d="m20.26,49.53c0,7.95 4.48,14.4 10,14.4s10,-6.45 10,-14.4s-4.47,-14.41 -10,-14.41s-10,6.45 -10,14.41z"/>
     <path fill="#ee2d37" d="m21.92,44.59c0,7.58 4.26,13.73 9.52,13.73s9.56,-6.15 9.56,-13.73s-4.3,-13.73 -9.56,-13.73s-9.52,6.14 -9.52,13.73z"/>
     <path fill="#ee2d37" d="m23.64,39.62c0,7.21 4.06,13.05 9.06,13.05s9,-5.84 9,-13.05s-4,-13 -9,-13s-9.06,5.79 -9.06,13z"/>
     <path fill="#ee2d37" d="m25.44,34.61c0,6.83 3.84,12.39 8.56,12.39s8.58,-5.54 8.58,-12.37s-3.81,-12.39 -8.58,-12.39s-8.56,5.54 -8.56,12.37z"/>
     <path fill="#ee2d37" d="m27.31,29.56c0,6.46 3.63,11.7 8.11,11.7s8.12,-5.24 8.12,-11.7s-3.63,-11.7 -8.12,-11.7s-8.11,5.24 -8.11,11.7z"/>
     <path fill="#ee2d37" d="m29.25,24.47c0,6.09 3.42,11 7.65,11s7.64,-4.93 7.64,-11s-3.42,-11 -7.64,-11s-7.65,4.92 -7.65,11z"/>
     <path fill="#ee2d37" d="m31.27,19.35c0,5.71 3.21,10.34 7.17,10.34s7.17,-4.63 7.17,-10.34s-3.21,-10.35 -7.17,-10.35s-7.17,4.64 -7.17,10.35z"/>
     <path fill="#ee2d37" d="m33.35,14.19c0,5.33 3,9.66 6.71,9.66s6.7,-4.33 6.7,-9.66s-3,-9.67 -6.7,-9.67s-6.71,4.33 -6.71,9.67z"/>
     <path fill="#ee2d37" d="m35.52,9c0,5 2.79,9 6.23,9s6.25,-4 6.25,-9s-2.79,-9 -6.23,-9s-6.25,4 -6.25,9z"/>
    </g>
   </g>
   <path fill="#dcdde1" d="m417.8542,817.97495c10.763,6.4 24.249,9.4 36.6,9.4a71.974,71.974 0 0 0 22.581,-3.476a66.734,66.734 0 0 0 23.068,-13.393c-41.466,-10.242 -72.7,-24.806 -93.754,-36.971a95.676,95.676 0 0 0 18.433,36.333l-6.928,8.107z"/>
   <path fill="#dcdde1" d="m889.44188,819.13401c-10.775,6.4 -24.261,9.4 -36.612,9.4a71.846,71.846 0 0 1 -22.57,-3.476a66.8,66.8 0 0 1 -23.079,-13.394c41.466,-10.242 72.7,-24.805 93.754,-36.971a95.676,95.676 0 0 1 -18.433,36.333l6.94,8.108z"/>
  </g>
 </g>
</svg>