<svg version="1.1" id="svg58" width="128.248" height="140.56" xmlns:xlink="http://www.w3.org/1999/xlink" xmlns="http://www.w3.org/2000/svg"><defs id="defs16"><linearGradient id="linear-gradient" x1="23.83" y1="134.99" x2="109.16" y2="16.91" gradientUnits="userSpaceOnUse"><stop offset="0" stop-color="#227ccc" id="stop4"/><stop offset="1" stop-color="#6fcfbb" id="stop6"/></linearGradient><linearGradient id="linear-gradient-2" x1="21.32" y1="133.17" x2="106.65" y2="15.1" xlink:href="#linear-gradient"/><linearGradient id="linear-gradient-5" x1="537.17" y1="82.04" x2="733.58" y2="84.79" xlink:href="#linear-gradient"/><linearGradient id="linear-gradient-6" x1="537.19" y1="80.64" x2="733.6" y2="83.39" xlink:href="#linear-gradient"/><linearGradient id="linear-gradient-7" x1="537.24" y1="76.68" x2="733.65" y2="79.43" xlink:href="#linear-gradient"/><linearGradient id="linear-gradient-8" x1="537.22" y1="78.09" x2="733.63" y2="80.84" xlink:href="#linear-gradient"/><linearGradient id="linear-gradient-9" x1="537.5" y1="58.43" x2="733.91" y2="61.18" xlink:href="#linear-gradient"/><linearGradient id="linear-gradient-10" x1="537.5" y1="58.48" x2="733.9" y2="61.23" xlink:href="#linear-gradient"/><linearGradient xlink:href="#linear-gradient" id="linearGradient671" gradientUnits="userSpaceOnUse" x1="23.83" y1="134.99" x2="109.16" y2="16.91"/><linearGradient xlink:href="#linear-gradient" id="linearGradient673" gradientUnits="userSpaceOnUse" x1="23.83" y1="134.99" x2="109.16" y2="16.91"/><linearGradient xlink:href="#linear-gradient" id="linearGradient675" gradientUnits="userSpaceOnUse" x1="23.83" y1="134.99" x2="109.16" y2="16.91"/><style id="style2">.cls-1{fill:#8cdeeb}.cls-2{fill:url(#linear-gradient)}</style></defs><g id="Layer_2" data-name="Layer 2" transform="translate(-.023)"><path class="cls-1" d="M64.14 97.52a17.75 17.75 0 1 1 16.8-12 2.73 2.73 0 0 1-5.17 0 3.3 3.3 0 1 0-3.46 4.32 2.72 2.72 0 0 1 1.17 5 17.72 17.72 0 0 1-9.34 2.68zm0-30.08a12.31 12.31 0 1 0 0 24.62 11.91 11.91 0 0 0 1.59-.1A8.76 8.76 0 0 1 76.4 78.65a12.32 12.32 0 0 0-12.26-11.21Z" id="path20"/><path class="cls-1" d="M64.07 140.56a21.58 21.58 0 0 1-3.92-.36 40.38 40.38 0 0 1-22.07-12.08 86.34 86.34 0 0 1-16.68 6.56c-3.48 1-7.53 1.71-11.22 0-4.18-1.99-6.1-6.33-7.18-9.42v-.1A49 49 0 0 1 .1 108.6a111.93 111.93 0 0 1 3.54-32.38 75.62 75.62 0 0 1 11.9-25.83 53.25 53.25 0 0 1 23-18 16.6 16.6 0 0 0-3.77-4.82A15.2 15.2 0 1 1 26 0a15.24 15.24 0 0 1 14.56 10.94 34.31 34.31 0 0 1 8.79 7.4 31.89 31.89 0 0 1 5.8 10 79.57 79.57 0 0 1 8.85-.52 74.87 74.87 0 0 1 9.11.53 31.88 31.88 0 0 1 5.82-10 34.48 34.48 0 0 1 8.79-7.4 15.2 15.2 0 1 1 5.8 16.66 16.64 16.64 0 0 0-3.89 5.06 53.8 53.8 0 0 1 10.55 6c17.46 12.68 24.08 32.47 26.57 46.83a105.16 105.16 0 0 1 1.37 23.44c-.38 6.57-1.44 12.5-2.91 16.27a1 1 0 0 1 0 .1c-1.11 3.09-3.08 7.43-7.21 9.38-3.69 1.75-7.75 1-11.23 0a86.26 86.26 0 0 1-16.67-6.56A40.27 40.27 0 0 1 68 140.2a21.25 21.25 0 0 1-3.93.36ZM38.7 122a2.73 2.73 0 0 1 2.1 1 34.79 34.79 0 0 0 20.34 11.87 15.87 15.87 0 0 0 5.83 0A34.71 34.71 0 0 0 87.34 123a2.71 2.71 0 0 1 3.4-.65 81.65 81.65 0 0 0 17.45 7.11c2.51.7 5.36 1.27 7.43.29 1.77-.84 3.17-2.84 4.42-6.32v-.14C124.79 111.33 126.72 64.64 97 43a48.4 48.4 0 0 0-11.74-6.25 2.72 2.72 0 0 1-1.7-3.21A21 21 0 0 1 92 21.86a2.73 2.73 0 0 1 3.48.28 9.74 9.74 0 1 0-2.72-8.87 2.74 2.74 0 0 1-1.37 1.86 29.26 29.26 0 0 0-8.3 6.75A25.53 25.53 0 0 0 77.7 32a2.73 2.73 0 0 1-3.07 2A68.54 68.54 0 0 0 64 33.27a72.55 72.55 0 0 0-10.4.73 2.72 2.72 0 0 1-3-2 25.57 25.57 0 0 0-5.38-10.09 29 29 0 0 0-8.3-6.75 2.74 2.74 0 0 1-1.37-1.86 9.75 9.75 0 1 0-2.72 8.87 2.74 2.74 0 0 1 3.49-.28 21.17 21.17 0 0 1 8.36 11.41A2.73 2.73 0 0 1 43 36.58a47.91 47.91 0 0 0-23 17.06 70.21 70.21 0 0 0-11 24 108 108 0 0 0-3.36 30.72v.17a43.6 43.6 0 0 0 2.5 14.75v.1c1.25 3.48 2.66 5.48 4.42 6.32 2.08 1 4.93.41 7.44-.29a81.57 81.57 0 0 0 17.44-7.11 2.72 2.72 0 0 1 1.26-.3Z" id="path22"/><path class="cls-1" d="M64.14 109.45a29.7 29.7 0 1 1 29.7-29.7 29.73 29.73 0 0 1-29.7 29.7zm0-53.94a24.24 24.24 0 1 0 24.24 24.24 24.26 24.26 0 0 0-24.24-24.24Z" id="path24"/><path class="cls-1" d="M64.14 97.52a17.75 17.75 0 1 1 16.8-12 2.73 2.73 0 0 1-5.17 0 3.3 3.3 0 1 0-3.46 4.32 2.72 2.72 0 0 1 1.17 5 17.72 17.72 0 0 1-9.34 2.68zm0-30.08a12.31 12.31 0 1 0 0 24.62 11.91 11.91 0 0 0 1.59-.1A8.76 8.76 0 0 1 76.4 78.65a12.32 12.32 0 0 0-12.26-11.21Z" id="path26"/><path class="cls-1" d="M64.14 97.52a17.75 17.75 0 1 1 16.8-12 2.73 2.73 0 0 1-5.17 0 3.3 3.3 0 1 0-3.46 4.32 2.72 2.72 0 0 1 1.17 5 17.72 17.72 0 0 1-9.34 2.68zm0-30.08a12.31 12.31 0 1 0 0 24.62 11.91 11.91 0 0 0 1.59-.1A8.76 8.76 0 0 1 76.4 78.65a12.32 12.32 0 0 0-12.26-11.21Z" id="path28"/><path class="cls-2" d="M72 92.55a15 15 0 1 1 6.32-7.88A6 6 0 1 0 72 92.55Z" id="path30" style="fill:url(#linearGradient671)"/><path d="M98.58 40.83a50.82 50.82 0 0 0-12.41-6.6 18.41 18.41 0 0 1 7.4-10.14 12.46 12.46 0 1 0-3.49-11.36A31.93 31.93 0 0 0 81 20.11a28 28 0 0 0-6 11.26 71.24 71.24 0 0 0-11-.82 74.92 74.92 0 0 0-10.79.75 28.24 28.24 0 0 0-5.94-11.19 31.83 31.83 0 0 0-9.08-7.38 12.47 12.47 0 1 0-3.48 11.36A18.49 18.49 0 0 1 42 34C-1 49.1 2.82 108.51 2.82 108.51a46.56 46.56 0 0 0 2.66 15.69.76.76 0 0 1 0 .11c1.14 3.16 2.8 6.43 5.82 7.86 3.02 1.43 6.27.73 9.33-.12a84.51 84.51 0 0 0 18-7.35 37.53 37.53 0 0 0 21.94 12.81 18.84 18.84 0 0 0 6.82 0 37.5 37.5 0 0 0 22-12.82 84.51 84.51 0 0 0 18 7.35c3.06.85 6.46 1.49 9.33.12s4.68-4.7 5.82-7.86a.76.76 0 0 1 0-.11c5.31-13.19 6.69-61.09-23.96-83.36Zm-34.44 65.89a27 27 0 1 1 27-27 27 27 0 0 1-27 27z" id="path32" style="fill:url(#linear-gradient-2)"/><path class="cls-2" d="M72 92.55a15 15 0 1 1 6.32-7.88A6 6 0 1 0 72 92.55Z" id="path34" style="fill:url(#linearGradient673)"/><path class="cls-2" d="M79.18 79.75a15.11 15.11 0 0 1-.82 4.92A6 6 0 1 0 72 92.55a15 15 0 1 1 7.14-12.8Z" id="path36" style="fill:url(#linearGradient675)"/></g></svg>