<svg width="599" height="97" viewBox="0 0 599 97" fill="none" xmlns="http://www.w3.org/2000/svg">
<path d="M156.458 80.7812C150.856 80.7812 145.989 79.791 141.859 77.8106C137.785 75.8302 134.39 73.2556 131.674 70.087C129.014 66.8617 127.006 63.4101 125.648 59.7322C124.345 55.9977 123.695 52.4047 123.695 48.9531V47.0858C123.695 43.2947 124.374 39.532 125.732 35.7975C127.09 32.0064 129.128 28.5831 131.844 25.5276C134.616 22.4721 138.04 20.039 142.114 18.2283C146.188 16.3611 150.969 15.4275 156.458 15.4275C161.891 15.4275 166.644 16.3611 170.718 18.2283C174.792 20.039 178.187 22.4721 180.903 25.5276C183.675 28.5831 185.742 32.0064 187.1 35.7975C188.458 39.532 189.137 43.2947 189.137 47.0858V48.9531C189.137 52.4047 188.458 55.9977 187.1 59.7322C185.797 63.4101 183.789 66.8617 181.073 70.087C178.413 73.2556 175.018 75.8302 170.888 77.8106C166.814 79.791 162.003 80.7812 156.458 80.7812ZM156.458 69.5777C159.627 69.5777 162.456 69.0118 164.946 67.8802C167.493 66.7486 169.642 65.1925 171.397 63.2121C173.207 61.1751 174.565 58.8835 175.471 56.3372C176.433 53.7343 176.914 50.9901 176.914 48.1043C176.914 44.9922 176.433 42.1348 175.471 39.532C174.565 36.9291 173.207 34.6658 171.397 32.742C169.642 30.8181 167.493 29.3187 164.946 28.2436C162.4 27.1685 159.57 26.631 156.458 26.631C153.289 26.631 150.432 27.1685 147.886 28.2436C145.339 29.3187 143.16 30.8181 141.35 32.742C139.595 34.6658 138.237 36.9291 137.276 39.532C136.37 42.1348 135.918 44.9922 135.918 48.1043C135.918 50.9901 136.37 53.7343 137.276 56.3372C138.237 58.8835 139.595 61.1751 141.35 63.2121C143.16 65.1925 145.339 66.7486 147.886 67.8802C150.432 69.0118 153.289 69.5777 156.458 69.5777ZM208.169 60.1566V49.717H220.222C222.655 49.717 224.692 49.236 226.333 48.2741C228.03 47.3122 229.304 45.9825 230.152 44.285C231.058 42.5875 231.51 40.6353 231.51 38.4286C231.51 36.2218 231.058 34.2697 230.152 32.5722C229.304 30.8747 228.03 29.5733 226.333 28.668C224.692 27.7061 222.655 27.2251 220.222 27.2251H208.169V16.7855H219.203C224.409 16.7855 228.822 17.6342 232.444 19.3317C236.122 21.0292 238.923 23.4623 240.847 26.631C242.771 29.7431 243.733 33.4492 243.733 37.7496V39.1076C243.733 43.408 242.771 47.1425 240.847 50.3111C238.923 53.4232 236.122 55.8562 232.444 57.6103C228.822 59.3078 224.409 60.1566 219.203 60.1566H208.169ZM197.814 79.1686V16.7855H209.866V79.1686H197.814ZM266.058 79.1686V17.2098H282.525L298.058 54.2153H299.586L315.033 17.2098H331.754V79.1686H319.787V26.2915L321.314 26.4612L304.593 66.5222H292.286L275.48 26.4612L277.093 26.2915V79.1686H266.058ZM371.062 79.1686V65.5037H369.109V50.3111C369.109 47.6517 368.458 45.6712 367.157 44.3698C365.855 43.0685 363.847 42.4177 361.131 42.4177C359.716 42.4177 358.018 42.446 356.038 42.5026C354.057 42.5592 352.049 42.6441 350.012 42.7572C348.031 42.8138 346.248 42.8987 344.664 43.0119V32.9966C345.966 32.8835 347.436 32.7702 349.078 32.6571C350.719 32.544 352.388 32.4873 354.086 32.4873C355.839 32.4307 357.481 32.4025 359.009 32.4025C363.762 32.4025 367.694 33.0249 370.807 34.2697C373.975 35.5146 376.352 37.4667 377.937 40.1261C379.577 42.7855 380.398 46.2654 380.398 50.5657V79.1686H371.062ZM356.208 80.3568C352.869 80.3568 349.927 79.7627 347.381 78.5745C344.89 77.3862 342.938 75.6887 341.524 73.482C340.166 71.2752 339.487 68.6158 339.487 65.5037C339.487 62.1087 340.307 59.3361 341.948 57.186C343.646 55.0358 345.993 53.4232 348.993 52.3481C352.049 51.273 355.614 50.7355 359.688 50.7355H370.383V57.7801H359.518C356.802 57.7801 354.708 58.4591 353.237 59.8171C351.822 61.1185 351.115 62.816 351.115 64.9096C351.115 67.0032 351.822 68.7007 353.237 70.0021C354.708 71.3035 356.802 71.9542 359.518 71.9542C361.159 71.9542 362.659 71.6713 364.017 71.1055C365.431 70.4831 366.591 69.4646 367.497 68.05C368.458 66.5788 368.996 64.5984 369.109 62.1087L371.995 65.4188C371.712 68.6441 370.92 71.3601 369.619 73.5668C368.373 75.7736 366.619 77.4711 364.356 78.6594C362.149 79.791 359.433 80.3568 356.208 80.3568ZM392.272 79.1686V33.0815H404.07V79.1686H392.272ZM385.821 41.9085V33.0815H404.07V41.9085H385.821ZM396.6 27.5646C394.281 27.5646 392.554 26.9705 391.423 25.7822C390.347 24.5374 389.81 22.9813 389.81 21.1141C389.81 19.2468 390.347 17.7191 391.423 16.5308C392.554 15.3426 394.281 14.7485 396.6 14.7485C398.92 14.7485 400.618 15.3426 401.693 16.5308C402.769 17.7191 403.306 19.2468 403.306 21.1141C403.306 22.9813 402.769 24.5374 401.693 25.7822C400.618 26.9705 398.92 27.5646 396.6 27.5646ZM414.697 79.1686V33.0815H424.033V52.8573H423.184C423.184 48.161 423.806 44.2567 425.052 41.1446C426.296 37.976 428.135 35.5995 430.569 34.0151C433.058 32.4307 436.142 31.6386 439.821 31.6386H440.33C445.818 31.6386 449.977 33.421 452.807 36.9857C455.636 40.4939 457.051 45.7561 457.051 52.7725V79.1686H445.253V51.754C445.253 48.9248 444.432 46.6332 442.791 44.8791C441.207 43.125 439 42.248 436.171 42.248C433.285 42.248 430.936 43.1533 429.126 44.964C427.371 46.7181 426.495 49.0946 426.495 52.0935V79.1686H414.697ZM466.763 79.1686V33.0815H476.1V52.8573H475.251C475.251 48.161 475.875 44.2567 477.119 41.1446C478.364 37.976 480.203 35.5995 482.636 34.0151C485.126 32.4307 488.21 31.6386 491.888 31.6386H492.397C497.886 31.6386 502.045 33.421 504.874 36.9857C507.704 40.4939 509.118 45.7561 509.118 52.7725V79.1686H497.32V51.754C497.32 48.9248 496.5 46.6332 494.858 44.8791C493.275 43.125 491.068 42.248 488.238 42.248C485.352 42.248 483.004 43.1533 481.193 44.964C479.439 46.7181 478.562 49.0946 478.562 52.0935V79.1686H466.763ZM539.457 80.7812C535.496 80.7812 532.016 80.1022 529.017 78.7442C526.074 77.3862 523.613 75.5756 521.633 73.3122C519.708 70.9923 518.237 68.4177 517.219 65.5886C516.257 62.7595 515.776 59.8737 515.776 56.9313V55.3187C515.776 52.2632 516.257 49.3209 517.219 46.4917C518.237 43.606 519.708 41.0597 521.633 38.853C523.613 36.5896 526.046 34.8072 528.932 33.5058C531.818 32.1478 535.156 31.4688 538.948 31.4688C543.928 31.4688 548.087 32.5722 551.425 34.779C554.82 36.9291 557.366 39.7866 559.064 43.3513C560.762 46.8595 561.61 50.6506 561.61 54.7246V58.9683H520.784V51.754H554.226L550.576 55.3187C550.576 52.3763 550.152 49.8585 549.303 47.7648C548.454 45.6712 547.153 44.0586 545.399 42.927C543.701 41.7953 541.551 41.2295 538.948 41.2295C536.344 41.2295 534.138 41.8236 532.327 43.0119C530.517 44.2001 529.13 45.9258 528.168 48.1892C527.262 50.396 526.81 53.0553 526.81 56.1675C526.81 59.0532 527.262 61.6277 528.168 63.8911C529.074 66.0978 530.46 67.852 532.327 69.1533C534.195 70.3982 536.571 71.0206 539.457 71.0206C542.343 71.0206 544.692 70.4547 546.502 69.3231C548.312 68.1348 549.473 66.692 549.982 64.9945H560.846C560.167 68.1631 558.866 70.9357 556.942 73.3122C555.018 75.6887 552.556 77.5277 549.558 78.8291C546.615 80.1305 543.249 80.7812 539.457 80.7812ZM588.527 79.7627C584.283 79.7627 580.775 79.2252 578.002 78.1501C575.286 77.0185 573.248 75.1512 571.89 72.5483C570.532 69.889 569.853 66.3242 569.853 61.8541L569.938 20.0956H580.972L580.888 62.618C580.888 64.8813 581.482 66.6353 582.67 67.8802C583.915 69.0685 585.67 69.6626 587.932 69.6626H595.147V79.7627H588.527ZM562.554 41.7387V33.0815H595.147V41.7387H562.554Z" fill="black"/>
<path d="M0 48.5C0 21.7142 21.7142 0 48.5 0C75.2858 0 97 21.7142 97 48.5C97 75.2858 75.2858 97 48.5 97C21.7142 97 0 75.2858 0 48.5Z" fill="white"/>
<path d="M48.5 0C21.7142 0 0 21.7142 0 48.5C0 75.2858 21.7142 97 48.5 97C75.2858 97 97 75.2858 97 48.5C97 21.7142 75.2858 0 48.5 0ZM48.5 73.1941V93.4469C29.2691 93.4469 13.6795 77.8572 13.6795 58.6264C13.6795 39.3956 29.2691 23.8059 48.5 23.8059V3.55311C67.7309 3.55311 83.3205 19.1428 83.3205 38.3736C83.3205 57.6044 67.7309 73.1941 48.5 73.1941ZM65.1996 48.3447V48.6551C57.8387 52.3239 52.3238 57.8386 48.6553 65.1996H48.3449C44.6762 57.8386 39.1613 52.3239 31.8004 48.6551V48.3447C39.1613 44.6761 44.6762 39.1612 48.3449 31.8004H48.6553C52.3238 39.1612 57.8387 44.6761 65.1996 48.3447Z" fill="#FF0420"/>
</svg>
