<svg fill="none" xmlns="http://www.w3.org/2000/svg" viewBox="0 0 97 97">
  <circle r="48" cx="48" cy="48" fill="#fff"/>
  <path d="M48.5 0C21.7142 0 0 21.7142 0 48.5C0 75.2858 21.7142 97 48.5 97C75.2858 97 97 75.2858 97 48.5C97 21.7142 75.2858 0 48.5 0ZM48.5 73.1941V93.4469C29.2691 93.4469 13.6795 77.8572 13.6795 58.6264C13.6795 39.3956 29.2691 23.8059 48.5 23.8059V3.55311C67.7309 3.55311 83.3205 19.1428 83.3205 38.3736C83.3205 57.6044 67.7309 73.1941 48.5 73.1941ZM65.1996 48.3447V48.6551C57.8387 52.3239 52.3238 57.8386 48.6553 65.1996H48.3449C44.6762 57.8386 39.1613 52.3239 31.8004 48.6551V48.3447C39.1613 44.6761 44.6762 39.1612 48.3449 31.8004H48.6553C52.3238 39.1612 57.8387 44.6761 65.1996 48.3447Z" fill="#FF0420"/>
</svg>
