<svg width="72" height="72" xmlns="http://www.w3.org/2000/svg" fill="none">

 <g>
  <title>Layer 1</title>
  <path id="svg_1" fill="#3c7af7" d="m23.0581,44.19769l-8.574,8.575l-8.574,-8.575l-4.902,4.899l8.577,8.574l-8.578,8.578l4.903,4.898l8.574,-8.574l8.574,8.574l4.902,-4.898l-8.578,-8.578l8.578,-8.574l-4.902,-4.898l0,-0.001zm-8.574,-14.952c7.455,0 13.498,-6.043 13.498,-13.498c0,-7.455 -6.043,-13.498 -13.498,-13.498c-7.455,0 -13.498,6.043 -13.498,13.498c0,7.455 6.043,13.498 13.498,13.498zm21.294,-28.564l0,70.45a35.251,35.251 0 0 0 0,-70.465l0,0.015zm-46.782,85.436a7.712,7.712 0 0 1 3.709,0.936a9.793,9.793 0 0 1 3.03,2.571a12.626,12.626 0 0 1 2.034,3.8c0.502,1.501 0.75,3.074 0.734,4.656a14.498,14.498 0 0 1 -0.327,3.162c-0.217,0.98 -0.539,1.934 -0.958,2.846a11.633,11.633 0 0 1 -1.487,2.412a10.285,10.285 0 0 1 -1.928,1.873a8.43,8.43 0 0 1 -2.27,1.204a7.747,7.747 0 0 1 -6.209,-0.51a9.658,9.658 0 0 1 -3.007,-2.57a12.698,12.698 0 0 1 -2.027,-3.786a14.325,14.325 0 0 1 -0.734,-4.645a14.484,14.484 0 0 1 0.337,-3.177c0.212,-0.983 0.53,-1.941 0.948,-2.856c0.393,-0.863 0.886,-1.676 1.469,-2.424a9.972,9.972 0 0 1 1.913,-1.858a8.886,8.886 0 0 1 2.262,-1.197a7.514,7.514 0 0 1 2.511,-0.437zm0,3.984a4.508,4.508 0 0 0 -2.31,0.624a6.177,6.177 0 0 0 -1.85,1.704a8.54,8.54 0 0 0 -1.267,2.534a10.615,10.615 0 0 0 0,6.224a8.464,8.464 0 0 0 1.267,2.522a6.114,6.114 0 0 0 1.88,1.69c0.701,0.407 1.499,0.62 2.31,0.617a4.646,4.646 0 0 0 2.324,-0.617a6.047,6.047 0 0 0 1.895,-1.69a8.55,8.55 0 0 0 1.26,-2.519c0.315,-1.01 0.473,-2.062 0.466,-3.121a10.148,10.148 0 0 0 -0.467,-3.103a8.636,8.636 0 0 0 -1.27,-2.533a6.102,6.102 0 0 0 -1.895,-1.708a4.575,4.575 0 0 0 -2.313,-0.624l-0.03,0zm23.16,8.409l5.269,-5.177c0.194,-0.201 0.43,-0.358 0.69,-0.459a2.07,2.07 0 0 1 1.506,0c0.237,0.092 0.453,0.233 0.631,0.415c0.19,0.185 0.335,0.411 0.423,0.661c0.082,0.235 0.12,0.485 0.11,0.734a2.164,2.164 0 0 1 -0.173,0.735a2.377,2.377 0 0 1 -0.433,0.661l-5.233,5.177l5.196,5.126c0.181,0.192 0.325,0.416 0.422,0.661c0.098,0.239 0.152,0.495 0.158,0.753c0.005,0.26 -0.043,0.518 -0.14,0.76a1.776,1.776 0 0 1 -0.44,0.654a2.023,2.023 0 0 1 -1.413,0.587a1.916,1.916 0 0 1 -1.396,-0.587l-5.214,-5.141l-5.233,5.141c-0.177,0.19 -0.392,0.34 -0.631,0.44a1.948,1.948 0 0 1 -0.735,0.147a1.998,1.998 0 0 1 -1.395,-0.587a1.76,1.76 0 0 1 -0.577,-1.359c0.006,-0.252 0.058,-0.501 0.155,-0.734c0.098,-0.245 0.24,-0.47 0.422,-0.661l5.196,-5.141l-5.299,-5.247a1.94,1.94 0 0 1 -0.422,-0.643a1.837,1.837 0 0 1 -0.136,-0.734a2.033,2.033 0 0 1 0.595,-1.396a2.004,2.004 0 0 1 1.414,-0.587c0.252,0.001 0.501,0.05 0.734,0.147c0.25,0.097 0.475,0.248 0.661,0.44l5.288,5.214zm14.192,11.273a2.098,2.098 0 0 1 -1.406,-0.569a1.946,1.946 0 0 1 -0.577,-1.395l0,-19.572c-0.003,-0.269 0.05,-0.535 0.154,-0.782c0.102,-0.232 0.245,-0.443 0.423,-0.624c0.18,-0.18 0.397,-0.32 0.635,-0.412a2.04,2.04 0 0 1 0.77,-0.147l6.445,0a11.55,11.55 0 0 1 3.129,0.423c0.994,0.273 1.948,0.674 2.838,1.193a12.158,12.158 0 0 1 2.424,1.855a12.046,12.046 0 0 1 1.89,2.386c0.531,0.878 0.941,1.823 1.22,2.809c0.291,1.015 0.437,2.066 0.433,3.122a11.02,11.02 0 0 1 -0.954,4.553a12.044,12.044 0 0 1 -2.57,3.727a12.233,12.233 0 0 1 -3.801,2.515a11.67,11.67 0 0 1 -4.59,0.918l-6.463,0zm2.001,-19.516l0,15.532l4.535,0a7.405,7.405 0 0 0 3.055,-0.635a8.347,8.347 0 0 0 2.497,-1.689a7.816,7.816 0 0 0 1.69,-2.449c0.41,-0.925 0.62,-1.926 0.616,-2.938c0,-1.011 -0.21,-2.012 -0.617,-2.938a8.04,8.04 0 0 0 -1.689,-2.497a8.42,8.42 0 0 0 -2.497,-1.736a7.25,7.25 0 0 0 -3.055,-0.65l-4.535,0zm33.489,15.014l-10.502,0l-1.384,3.305a1.923,1.923 0 0 1 -0.735,0.888c-0.32,0.203 -0.693,0.308 -1.072,0.305a2.349,2.349 0 0 1 -0.863,-0.183a1.797,1.797 0 0 1 -1.04,-1.084a1.952,1.952 0 0 1 -0.091,-0.752c0.02,-0.273 0.085,-0.54 0.195,-0.79l8.38,-19.476a1.92,1.92 0 0 1 1.835,-1.212c0.378,-0.004 0.75,0.104 1.065,0.312c0.326,0.215 0.582,0.522 0.734,0.882l8.446,19.498c0.218,0.479 0.253,1.021 0.1,1.524a1.73,1.73 0 0 1 -1,1.101a1.956,1.956 0 0 1 -0.844,0.184a2.016,2.016 0 0 1 -1.083,-0.312a1.997,1.997 0 0 1 -0.753,-0.881l-1.388,-3.309zm-8.905,-3.984l7.252,0l-3.598,-8.648l-3.654,8.648zm27.54,-15.18c1.602,-0.01 3.189,0.309 4.664,0.936a11.968,11.968 0 0 1 6.371,6.36c0.628,1.472 0.947,3.057 0.936,4.656a11.567,11.567 0 0 1 -0.433,3.177a12.264,12.264 0 0 1 -1.201,2.846a11.622,11.622 0 0 1 -1.873,2.412a12.165,12.165 0 0 1 -2.423,1.873c-0.895,0.526 -1.856,0.931 -2.857,1.204a11.978,11.978 0 0 1 -3.184,0.422c-1.6,0.011 -3.185,-0.307 -4.656,-0.936a11.859,11.859 0 0 1 -3.782,-2.57a12.21,12.21 0 0 1 -2.534,-3.79a12.122,12.122 0 0 1 -0.503,-7.821a11.964,11.964 0 0 1 3.048,-5.28a11.676,11.676 0 0 1 2.405,-1.862c0.894,-0.52 1.851,-0.924 2.846,-1.205a11.655,11.655 0 0 1 3.176,-0.422zm0.019,3.984a7.678,7.678 0 0 0 -3.096,0.624a7.94,7.94 0 0 0 -2.515,1.708a8.052,8.052 0 0 0 -1.697,2.534a8.086,8.086 0 0 0 0,6.224a7.988,7.988 0 0 0 1.697,2.522a7.864,7.864 0 0 0 2.515,1.689a7.78,7.78 0 0 0 3.096,0.617a7.893,7.893 0 0 0 3.11,-0.617a7.795,7.795 0 0 0 2.533,-1.689a8.006,8.006 0 0 0 1.701,-2.522a8.09,8.09 0 0 0 0,-6.224a8.024,8.024 0 0 0 -1.701,-2.534a7.875,7.875 0 0 0 -2.533,-1.708a7.802,7.802 0 0 0 -3.11,-0.624z"/>
 </g>
</svg>