<svg width="44" height="60" xmlns="http://www.w3.org/2000/svg">

 <g>
  <title>Layer 1</title>
  <path id="svg_1" fill="rgb(14,86,14)" d="m12.543,15.71602l0.052,0c-5.126,-0.002 -9.74,-3.112 -11.666,-7.864c-0.613,1.501 -0.929,3.107 -0.929,4.729l0,34.651c0.155,6.846 5.747,12.315 12.592,12.315c6.845,0 12.436,-5.469 12.591,-12.315l0,-18.845c0,-6.984 -5.659,-12.645 -12.64,-12.645"/>
  <path id="svg_2" fill="rgb(72,193,72)" d="m24.816,0.14802c-0.842,-0.098 -1.688,-0.148 -2.535,-0.148l-9.673,0c-5.129,-0.009 -9.75,3.098 -11.679,7.852c1.926,4.752 6.54,7.862 11.666,7.864c6.971,0.029 12.603,5.697 12.588,12.671l0,15.484c10.99,-1.494 19.155,-10.929 19.062,-22.023c-0.093,-11.095 -8.416,-20.39 -19.429,-21.7m-20.811,24.549c-0.26,0.001 -0.509,-0.104 -0.69,-0.291c-0.821,-0.82 -1.281,-1.933 -1.281,-3.093c0,-1.16 0.46,-2.273 1.281,-3.094c0.383,-0.383 1.003,-0.383 1.386,0c0.383,0.383 0.383,1.004 0,1.387c-0.934,0.944 -0.934,2.464 0,3.407c0.281,0.282 0.365,0.706 0.213,1.074c-0.152,0.368 -0.511,0.609 -0.909,0.61m0,10.884c-0.259,0 -0.507,-0.102 -0.69,-0.284c-1.709,-1.711 -1.709,-4.483 0,-6.194c0.384,-0.383 1.007,-0.381 1.39,0.003c0.382,0.385 0.381,1.008 -0.004,1.391c-0.934,0.943 -0.934,2.463 0,3.406c0.186,0.184 0.291,0.435 0.291,0.697c0,0.262 -0.105,0.513 -0.291,0.697c-0.186,0.182 -0.436,0.283 -0.696,0.284m0,10.871c-0.26,0.001 -0.509,-0.104 -0.69,-0.291c-0.821,-0.82 -1.281,-1.933 -1.281,-3.093c0,-1.161 0.46,-2.273 1.281,-3.094c0.384,-0.383 1.007,-0.381 1.39,0.003c0.382,0.385 0.381,1.008 -0.004,1.391c-0.934,0.943 -0.934,2.463 0,3.406c0.277,0.283 0.358,0.704 0.206,1.069c-0.151,0.366 -0.507,0.605 -0.902,0.609m5.024,-16.316c-0.261,0.002 -0.512,-0.1 -0.697,-0.284c-1.702,-1.714 -1.702,-4.48 0,-6.194c0.387,-0.38 1.007,-0.38 1.393,0c0.186,0.184 0.291,0.435 0.291,0.697c0,0.262 -0.105,0.512 -0.291,0.697c-0.934,0.943 -0.934,2.463 0,3.406c0.283,0.281 0.368,0.705 0.216,1.073c-0.153,0.368 -0.514,0.607 -0.912,0.605m0,10.89c-0.261,0 -0.511,-0.102 -0.697,-0.284c-1.702,-1.714 -1.702,-4.48 0,-6.194c0.387,-0.38 1.007,-0.38 1.393,0c0.186,0.185 0.291,0.435 0.291,0.697c0,0.262 -0.105,0.513 -0.291,0.697c-0.953,0.93 -0.976,2.455 -0.052,3.413c0.186,0.184 0.291,0.435 0.291,0.697c0,0.261 -0.105,0.512 -0.291,0.696c-0.186,0.182 -0.436,0.284 -0.696,0.284"/>
 </g>
</svg>