<svg width="74" height="56" xmlns="http://www.w3.org/2000/svg" fill="none">
 <mask y="4" x="0" maskUnits="userSpaceOnUse" id="mask0_136_1595">
  <path id="svg_1" fill="white" d="m26.39508,56.0159l-17.35469,0l-6.61851,-6.6185l11.985,-36.00088l9.0799,11.94548l2.9083,30.6739z"/>
 </mask>

 <mask y="4" x="44" maskUnits="userSpaceOnUse" id="mask1_136_1595">
  <path id="svg_2" fill="white" d="m47.14068,56.0159l17.3579,0l6.6186,-6.6185l-11.9883,-36.00088l-9.0799,11.94548l-2.9083,30.6739z"/>
 </mask>
 <mask y="0" x="11" maskUnits="userSpaceOnUse" id="mask2_136_1595">
  <path id="svg_3" fill="white" d="m23.48618,25.342l-9.0799,-11.94552c0,0 6.7335,-4.38058 21.3475,-4.38058c14.614,0 23.3718,4.38058 23.3718,4.38058l-9.0799,11.94552l-26.5562,0l-0.0033,0z"/>
 </mask>
 <g>
  <title>Layer 1</title>
  <g id="svg_4" mask="url(#mask0_136_1595)">
   <path id="svg_5" fill="white" d="m29.38238,54.7244l-29.38238,0l0,1.2915l29.38238,0l0,-1.2915z"/>
   <path id="svg_6" fill="white" d="m29.38238,48.9109l-29.38238,0l0,1.2915l29.38238,0l0,-1.2915z"/>
   <path id="svg_7" fill="white" d="m29.38238,43.1009l-29.38238,0l0,1.2915l29.38238,0l0,-1.2915z"/>
   <path id="svg_8" fill="white" d="m29.38238,37.2876l-29.38238,0l0,1.2915l29.38238,0l0,-1.2915z"/>
   <path id="svg_9" fill="white" d="m29.38238,31.4773l-29.38238,0l0,1.2915l29.38238,0l0,-1.2915z"/>
   <path id="svg_10" fill="white" d="m29.38238,25.6641l-29.38238,0l0,1.2915l29.38238,0l0,-1.2915z"/>
   <path id="svg_11" fill="white" d="m29.38238,19.854l-29.38238,0l0,1.2915l29.38238,0l0,-1.2915z"/>
   <path id="svg_12" fill="white" d="m29.38238,14.04056l-29.38238,0l0,1.2915l29.38238,0l0,-1.2915z"/>
  </g>
  <g id="svg_13" mask="url(#mask1_136_1595)">
   <path id="svg_14" fill="white" d="m44.15278,56.0159l29.3824,0l0,-1.2915l-29.3824,0l0,1.2915z"/>
   <path id="svg_15" fill="white" d="m44.15278,50.2058l29.3824,0l0,-1.2915l-29.3824,0l0,1.2915z"/>
   <path id="svg_16" fill="white" d="m44.15278,44.3924l29.3824,0l0,-1.2915l-29.3824,0l0,1.2915z"/>
   <path id="svg_17" fill="white" d="m44.15278,38.5823l29.3824,0l0,-1.2915l-29.3824,0l0,1.2915z"/>
   <path id="svg_18" fill="white" d="m44.15278,32.7688l29.3824,0l0,-1.2915l-29.3824,0l0,1.2915z"/>
   <path id="svg_19" fill="white" d="m44.15278,26.9556l29.3824,0l0,-1.2915l-29.3824,0l0,1.2915z"/>
   <path id="svg_20" fill="white" d="m44.15278,21.1421l29.3824,0l0,-1.2915l-29.3824,0l0,1.2915z"/>
   <path id="svg_21" fill="white" d="m44.15278,15.33206l29.3824,0l0,-1.2915l-29.3824,0l0,1.2915z"/>
  </g>
  <g id="svg_22" mask="url(#mask2_136_1595)">
   <path id="svg_23" fill="white" d="m32.69948,31.8083l-15.0979,-25.20671l-1.108,0.66363l15.0979,25.20668l1.108,-0.6636z"/>
   <path id="svg_24" fill="white" d="m34.59268,30.6954l-9.9481,-27.64703l-1.2153,0.43727l9.9481,27.64706l1.2153,-0.4373z"/>
   <path id="svg_25" fill="white" d="m36.33448,29.1241l-3.9165,-29.12016l-1.28,0.17215l3.9165,29.12021l1.28,-0.1722z"/>
   <path id="svg_26" fill="white" d="m41.95678,32.4714l15.0979,-25.20672l-1.1079,-0.66362l-15.0979,25.20674l1.1079,0.6636z"/>
   <path id="svg_27" fill="white" d="m40.16908,31.1395l9.9481,-27.64704l-1.2152,-0.43726l-9.9481,27.6471l1.2152,0.4372z"/>
   <path id="svg_28" fill="white" d="m38.48978,29.2923l3.9165,-29.12015l-1.28,-0.17215l-3.9165,29.1202l1.28,0.1721z"/>
  </g>
 </g>
</svg>