<svg width="48" height="32" xmlns="http://www.w3.org/2000/svg" fill="none">
 <g>
  <title>Layer 1</title>
  <path fill-rule="evenodd" clip-rule="evenodd" d="m7.95136,3.98517l0.42525,-1.25452l0.97069,1.25452l-1.39594,0zm4.49099,4l-1.1606,-1.5l-4.17784,0l-0.50847,1.5l5.84691,0zm2.3805,4l-0.1018,-1.055l-0.3443,-0.445l-8.62875,0l-0.50847,1.5l9.58332,0zm0.3861,4l-0.1448,-1.5l-10.67206,0l-0.50847,1.5l11.32533,0zm0.3861,4l-0.1448,-1.5l-12.41407,0l-0.50847,1.5l13.06734,0zm0.3861,4l-0.1448,-1.5l-14.15609,0l-0.50846,1.5l14.80935,0zm0.386,4l-0.1448,-1.5l-15.898,0l-0.32435,0.9568l0.55292,0.5432l15.81423,0zm-13.26921,2.5001l1.52665,1.4997l12.12866,0l-0.1448,-1.4997l-13.51051,0z" fill="#EADABF" id="svg_1"/>
  <path fill-rule="evenodd" clip-rule="evenodd" d="m39.80195,3.98517l-0.4253,-1.25452l-0.9707,1.25452l1.396,0zm-4.491,4l1.1606,-1.5l4.1778,0l0.5085,1.5l-5.8469,0zm-2.3806,4l0.1019,-1.055l0.3443,-0.445l8.6287,0l0.5085,1.5l-9.5834,0zm-0.386,4l0.1447,-1.5l10.6721,0l0.5085,1.5l-11.3253,0zm-0.3861,4l0.1448,-1.5l12.414,0l0.5085,1.5l-13.0673,0zm-0.3861,4l0.1448,-1.5l14.1561,0l0.5084,1.5l-14.8093,0zm-0.386,4l0.1447,-1.5l15.8981,0l0.3243,0.9568l-0.5529,0.5432l-15.8142,0zm13.2692,2.5001l-1.5267,1.4997l-12.1286,0l0.1447,-1.4997l13.5106,0z" fill="#EADABF" id="svg_2"/>
  <path d="m10.94315,1.75088c0.4396,-0.15117 0.9317,-0.30599 1.4773,-0.45809l6.0356,9.89898l-1.7566,0l-5.7563,-9.44089z" fill="#EADABF" id="svg_3"/>
  <path d="m19.53865,11.19177l-3.8886,-10.61633c0.4807,-0.08226 0.9853,-0.15864 1.5141,-0.22732l3.9719,10.84365l-1.5974,0z" fill="#EADABF" id="svg_4"/>
  <path d="m21.83305,11.19177l-1.524,-11.132c0.4866,-0.02708 0.9885,-0.0473 1.5058,-0.05977l1.5322,11.19177l-1.514,0z" fill="#EADABF" id="svg_5"/>
  <path d="m24.06555,11.19177l1.5256,-11.14293c0.5127,0.02565 1.013,0.05856 1.5005,0.09779l-1.5121,11.04514l-1.514,0z" fill="#EADABF" id="svg_6"/>
  <path d="m27.83965,11.19177l-1.5974,0l3.9188,-10.69874c0.5226,0.07638 1.0252,0.15899 1.5072,0.24612l-3.8286,10.45262z" fill="#EADABF" id="svg_7"/>
  <path d="m30.61365,11.19177l-1.7566,0l5.952,-9.76195c0.5456,0.14265 1.0453,0.286 1.4976,0.42492l-5.693,9.33703z" fill="#EADABF" id="svg_8"/>
 </g>

</svg>