<svg width="40" height="40" xmlns="http://www.w3.org/2000/svg" fill="none">

 <g>
  <title>Layer 1</title>
  <circle id="svg_1" fill="white" r="20" cy="20" cx="20"/>
  <path id="svg_2" fill="#4B11F2" d="m29.1913,11.5366c0,0 1.1962,-2.97003 1.0415,-3.65067c-0.1443,-0.66001 -0.1546,-0.86626 -1.2375,-1.67065c-0.4331,0.19594 -1.2066,0.47439 -1.8356,0.35063c-0.9282,-0.17531 -1.4025,-0.495 -1.846,-0.88688c-0.4434,-0.39189 -0.6806,-0.96939 -0.7219,-1.30971c-0.0103,-0.0825 0.0825,-0.14438 0.1547,-0.09281c0.3816,0.27844 0.691,0.78376 1.7738,1.1447c0.6188,0.20625 1.1241,0.14438 1.4335,0.04125c-1.3716,-0.94876 -3.362,-2.24816 -4.5479,-2.64004c-1.516,-0.49501 -2.1966,0.47438 -2.1966,0.47438l-1.4232,2.24816c0,0 2.3926,0.35063 4.8367,1.72221c2.4338,1.36127 4.5685,4.26943 4.5685,4.26943z"/>
  <path id="svg_3" fill="#4B11F2" d="m33.0067,14.9101c-0.2991,0.0413 -0.7528,0.0413 -1.3613,-0.1134c-2.3822,-0.6703 -3.8466,-4.5994 -7.9716,-7.07447c-6.5898,-3.40317 -10.1271,-0.33001 -10.1271,-0.33001c-0.4537,0.30938 0.0103,0.50532 0.0103,0.50532l2.1657,1.09314l1.021,0.53626c0,0 -0.6497,0.83536 -1.9698,0.19594c-0.4331,-0.18562 -1.2994,-0.23719 -1.9697,0.36092c-0.7322,0.4022 -0.4125,1.5675 -0.9487,2.3101c-0.526,0.7425 -1.5779,0.6187 -1.6913,1.6912c-0.0928,1.0932 0.7734,1.2994 0.7941,2.1141c0.0206,0.8147 -0.2785,1.2788 -0.361,1.4954c-0.0309,0.0928 -0.0515,0.2062 -0.0515,0.3197c0.0103,0.1546 0.0825,0.3093 0.1856,0.4331c0.0825,0.0928 0.1547,0.1547 0.2372,0.2062c0.3506,0.2372 0.6497,0.5466 0.8456,0.9179c0.0309,0.0618 0.0619,0.1237 0.1031,0.1856c0.031,0.0516 0.0619,0.1134 0.1032,0.1856c0.2268,0.4022 0.3197,0.8766 0.2372,1.3407c-0.0207,0.1237 -0.0104,0.2681 0.0309,0.4022c0.0825,0.2475 0.2991,0.4331 0.5569,0.5053c0.3815,0.0928 0.7115,0.3197 0.9384,0.6394c0.0206,0.0206 0.031,0.0515 0.0516,0.0721c0.3094,0.4332 0.2475,1.1138 0.3712,1.6088c0.1238,0.495 0.5363,0.6497 1.1344,0.99c0.5982,0.3404 0.7219,0.8766 0.4744,1.1344c-0.2475,0.2578 -1.7119,-0.3712 -2.2997,0.33c-0.4331,0.4022 -0.2475,0.66 -0.4641,1.4232c-0.2165,0.7734 -0.8766,0.2062 -1.2272,0.7425c-0.3506,0.5362 -0.4022,1.1138 -0.2269,2.2585c0.1754,1.1447 1.2891,2.7225 1.2891,2.7225c0,0 -0.5981,-2.0832 0.7013,-3.8672c1.1034,-1.2994 1.9491,-1.4748 3.1969,-1.4954c1.2581,-0.0309 3.1144,1.1035 3.496,3.331c0.1959,1.4747 -0.6085,2.3307 -0.6703,2.4132c-0.1444,0.165 -1.3304,1.4747 -2.9082,0.5981c-0.4331,-0.2991 -0.8147,-0.6084 -1.0725,-1.2066c-0.1856,-0.5466 -0.2372,-1.2788 0.0722,-1.7738c0.2578,-0.4125 0.6703,-0.5362 0.7941,-0.5465c0.1856,-0.0207 0.5878,-0.0103 0.8456,0.1856c0.2578,0.1959 0.5362,0.4847 0.4847,0.9797c-0.0516,0.495 -0.5672,0.6394 -0.7632,0.5981c-0.165,-0.0309 -0.0515,-0.0103 -0.0103,0c-0.3197,-0.0206 -0.464,-0.2681 -0.5259,-0.4434c-0.0103,-0.0413 -0.0722,-0.0309 -0.0825,0.0103c-0.0928,0.6806 0.4228,1.1138 0.7322,1.186c0.3403,0.0721 0.8456,0.0618 1.2581,-0.361c0.361,-0.3609 0.5569,-0.6703 0.5569,-1.4644c0,-0.6497 -0.2681,-1.1034 -0.7116,-1.4953c-0.5775,-0.5363 -1.3406,-0.7425 -1.8666,-0.7013c-0.495,0.0413 -1.3612,0.2475 -1.9284,1.1447c-0.526,0.825 -0.7528,1.9594 -0.3094,3.2279l0.0206,0.0412c1.0107,2.3616 3.3723,2.9598 5.0017,2.9598c0.33,0 0.629,-0.0207 0.8765,-0.0619c0.0516,-0.0103 1.2169,-0.1856 2.3513,-0.8869c1.4025,-0.9281 2.2379,-2.2688 2.2379,-4.3416c0,-2.7535 -1.2066,-4.5891 -3.6816,-7.4561c-0.4744,-0.5878 -2.4029,-2.97 -2.7535,-3.4341c-1.7222,-2.2275 -3.6507,-4.8469 -2.6916,-6.8373c0.0309,-0.0618 0.0618,-0.1134 0.0928,-0.1753c1.4334,-2.6297 5.476,-1.98 4.5891,-1.815c-1.5366,0.2578 -2.4544,0.9384 -2.7328,1.2375c-0.2785,0.2991 -0.4332,0.5569 -0.6188,1.0416c-0.3197,0.7941 -0.0619,2.0213 0.6188,3.0938c2.9597,4.1972 7.3323,9.4257 7.8685,10.6839c0.691,1.5881 0.7941,2.8463 0.7838,3.6197c-0.0103,0.7735 -0.196,2.011 -0.196,2.011c0,0 1.021,-0.8147 1.5057,-1.8047c0.4847,-0.99 0.5672,-1.4644 0.4228,-1.8357c-0.1547,-0.3712 -0.5363,-0.3815 -0.6909,-0.99c-0.1547,-0.6084 0.2784,-1.1447 -0.1754,-2.1141c-0.1959,-0.4228 -1.2375,-1.0416 -1.7737,-1.7222c-0.5363,-0.6806 -1.516,-1.8975 -2.2482,-2.8772c-1.32,-1.7532 -1.7531,-2.3513 -2.5163,-3.3413c0.825,0.2475 1.8563,0.5878 4.2282,-0.5156c2.1966,1.124 3.7022,1.0622 4.2282,1.0312c0.5259,-0.0309 1.0209,-0.2681 1.4025,-0.5672c0.2475,-0.1959 0.4331,-0.5878 0.5466,-0.8456c0.0412,-0.0928 -0.0516,-0.1753 -0.1444,-0.1444c-1.846,0.7631 -3.5475,0.1444 -5.641,-1.0209l-0.3713,-0.2063l-0.3712,0.1959c-2.1966,1.1757 -4.5067,0.2579 -4.7129,0.1754c-0.0825,-0.0413 -0.7116,-0.3713 -0.99,-0.9282c-0.2785,-0.5569 -0.3403,-1.1447 -0.1341,-1.6397c0.165,-0.4022 0.5569,-0.6703 1.1963,-0.8044c0.5259,-0.0619 1.2066,0.1341 1.7531,0.3507c0.1238,0.0515 0.2372,-0.0722 0.1857,-0.1857c-0.0619,-0.165 -0.1032,-0.3403 -0.1032,-0.5259c0,-0.3094 0.1032,-0.5878 0.2682,-0.8147l0.7322,0.3403c-0.1238,0.1237 -0.196,0.3094 -0.1754,0.5156c0.031,0.2682 0.2579,0.495 0.526,0.526c0.3609,0.0515 0.66,-0.2166 0.6909,-0.5569l0.691,0.3197c-0.1238,0.5053 -0.5156,0.8972 -1.021,1.0209c-0.1031,0.0207 -0.1134,0.1547 -0.0103,0.1857c0.9385,0.4434 3.6816,1.7222 3.6816,1.7222c0,0 1.5882,0.8869 2.9804,0.7115c1.3406,-0.0721 1.9388,-1.1343 1.1447,-1.0312c-0.7941,0.1031 -2.671,-0.7116 -2.671,-0.7116l-1.2581,-0.5878l0.5259,-0.8147c0,0 1.7944,1.0209 3.3826,1.3716c1.0519,0.2269 1.7634,-0.3713 2.1244,-0.8044c0.1134,-0.1135 0.0103,-0.2991 -0.1444,-0.2785zm-14.6852,-3.5784c-0.6703,0.0825 -1.6913,0.3918 -2.2688,0.6703c-0.2166,0.1031 -0.4022,0.2062 -0.5569,0.299c-0.5053,0.33 -0.9591,0.8251 -1.32,1.5057c-1.4128,2.7432 1.1756,6.1051 3.2588,8.807c0.3506,0.4537 0.6703,0.8766 0.9591,1.2684c0.4434,0.6085 0.9281,1.2066 1.4025,1.7738c1.2169,1.4954 2.5575,3.0835 3.135,4.847c0.1547,0.6187 0.1754,1.1962 0.1032,1.6603c-0.2475,1.4438 -1.5057,1.9388 -1.5057,1.9388c0.1857,-0.5982 0.2888,-1.3716 0.1753,-2.2585l0,-0.0206c-0.3815,-2.0729 -2.0625,-3.9085 -2.0625,-3.9085c-0.4022,-0.5363 -0.8353,-1.0931 -1.1859,-1.5469c-3.5373,-4.5479 -3.8879,-5.0635 -4.7232,-6.5795l-0.0104,-0.0206c-0.0206,-0.0412 -0.0515,-0.0928 -0.0825,-0.1444c-0.4846,-0.8147 -1.784,-2.9906 -1.2168,-5.2697c0.134,-0.526 0.3712,-1.0004 0.7115,-1.4129c2.0729,-2.6916 6.0432,-1.7737 5.1873,-1.6087z"/>
 </g>
</svg>