<svg width="248" height="280" viewBox="0 0 248 280" fill="none" xmlns="http://www.w3.org/2000/svg">
<path d="M195.968 139.136C201.761 142.369 206.207 147.085 210.249 152.069C221.835 166.755 229.245 183.865 235.981 200.975C240.427 212.157 244.604 223.609 246.086 235.465C247.433 246.243 246.49 257.291 246.625 268.204C246.894 278.982 248.241 290.299 243.391 300.268C242.583 302.02 240.427 304.31 238.676 305.388C236.924 306.466 231.401 308.756 229.38 309.43C211.192 315.897 119.982 326.136 103.95 325.732C101.39 325.732 180.474 308.487 178.184 307.409C172.66 304.714 172.39 297.574 172.795 291.915C173.468 282.215 174.142 272.515 174.816 262.68C176.702 236.004 178.588 208.924 188.019 183.73C190.309 177.533 193.138 171.201 193.947 164.734C194.89 157.997 193.677 150.857 195.968 144.255" fill="url(#paint0_linear_5517_31593)"/>
<path d="M195.968 139.136C201.761 142.369 206.207 147.085 210.249 152.069C221.835 166.755 229.245 183.865 235.981 200.975C240.427 212.157 244.604 223.609 246.086 235.465C247.433 246.243 246.49 257.291 246.625 268.204C246.894 278.982 248.241 290.299 243.391 300.268C242.583 302.02 240.427 304.31 238.676 305.388C236.924 306.466 231.401 308.756 229.38 309.43C211.192 315.897 119.982 326.136 103.95 325.732C101.39 325.732 180.474 308.487 178.184 307.409C172.66 304.714 172.39 297.574 172.795 291.915C173.468 282.215 174.142 272.515 174.816 262.68C176.702 236.004 178.588 208.924 188.019 183.73C190.309 177.533 193.138 171.201 193.947 164.734C194.89 157.997 193.677 150.857 195.968 144.255" stroke="black" stroke-miterlimit="10" stroke-linecap="round" stroke-linejoin="round"/>
<path d="M-4.64518 198.549C-6.8008 214.042 -6.93555 229.805 -6.93555 245.433C-6.93555 254.191 -6.93556 263.217 -3.83686 271.301C-1.95069 276.151 0.878609 280.327 3.70786 284.504C8.558 291.779 13.5428 299.054 18.393 306.33C19.0666 307.273 19.875 307.946 20.6833 308.755C23.5126 311.449 29.8448 315.222 31.3267 315.895C63.9305 328.694 90.4715 327.886 124.153 323.979C157.565 320.072 200.543 319.129 207.01 301.21C218.596 275.612 221.964 245.838 217.653 217.68C213.207 189.522 217.384 162.981 200.139 141.425C189.765 128.356 177.37 117.039 162.954 110.033C149.482 103.701 134.662 101.411 120.111 100.333C102.597 99.1206 84.6783 99.7943 67.8375 105.722C52.4787 111.111 38.7367 120.542 26.0724 131.32C21.2222 135.497 15.5638 139.539 12.1956 145.332C8.01908 152.607 4.92035 161.095 2.22582 169.044C-0.872882 178.744 -3.1632 188.579 -4.64518 198.549Z" fill="url(#paint1_linear_5517_31593)"/>
<path d="M26.3433 118.927C37.5256 141.291 34.2921 163.387 31.0587 185.751C39.1423 177.668 46.6869 173.222 55.8483 167.833C57.465 166.889 58.947 166.351 59.8901 164.599C60.429 163.656 60.5637 158.806 60.8332 157.728C62.7193 147.893 95.7273 143.717 97.6134 133.747C98.5565 128.897 68.1084 117.714 65.9528 113.403C64.0666 109.496 60.1595 107.206 56.5219 105.454C51.6718 102.894 46.5522 100.604 41.1632 100.2C32.2712 99.3916 23.1098 104.107 17.9902 112.191C19.3375 111.921 20.5501 111.652 21.8973 111.247" fill="url(#paint2_linear_5517_31593)"/>
<path d="M151.777 177.53C163.498 180.763 174.68 186.017 184.785 192.889C186.536 180.494 188.557 168.234 190.847 155.973C192.329 147.755 193.946 138.729 190.443 131.184C185.054 119.463 167.27 114.478 156.896 120.271C147.87 125.391 148.947 138.324 150.295 147.62C151.777 157.725 152.855 167.425 151.777 177.53Z" fill="url(#paint3_linear_5517_31593)"/>
<path d="M73.4962 190.464C73.7657 196.931 76.4602 202.994 79.1547 208.922C88.3161 229.131 97.747 249.744 113.51 265.911C115.531 268.067 118.225 270.222 121.324 269.683C123.075 269.414 124.423 268.067 125.635 266.854C134.662 257.693 140.186 245.837 143.419 233.577C146.653 221.317 147.596 208.922 148.673 196.392C148.943 192.755 149.212 188.982 147.73 185.614C146.518 182.92 144.362 180.764 141.937 179.013C132.641 171.872 120.516 168.639 108.525 167.695C100.307 167.022 91.6842 167.561 84.0048 170.525C76.3254 173.489 69.5891 179.282 67.1641 186.692" stroke="black" stroke-width="0.9242" stroke-miterlimit="10" stroke-linecap="round" stroke-linejoin="round"/>
<path d="M73.4962 190.464C73.7657 196.931 76.4602 202.994 79.1547 208.922C88.3161 229.131 97.747 249.744 113.51 265.911C115.531 268.067 118.225 270.222 121.324 269.683C123.075 269.414 124.423 268.067 125.635 266.854C134.662 257.693 140.186 245.837 143.419 233.577C146.653 221.317 147.596 208.922 148.673 196.392C148.943 192.755 149.212 188.982 147.73 185.614C146.518 182.92 144.362 180.764 141.937 179.013C132.641 171.872 120.516 168.639 108.525 167.695C100.307 167.022 91.6842 167.561 84.0048 170.525C76.3254 173.489 69.5891 179.282 67.1641 186.692" fill="url(#paint4_linear_5517_31593)"/>
<path d="M104.082 176.724C113.109 207.172 118.363 238.428 119.845 269.819" stroke="black" stroke-width="0.968" stroke-miterlimit="10" stroke-linecap="round" stroke-linejoin="round"/>
<path d="M123.881 213.774C127.788 212.83 126.441 206.094 122.803 205.825C117.953 205.69 119.435 214.851 123.881 213.774Z" stroke="black" stroke-miterlimit="10" stroke-linecap="round" stroke-linejoin="round"/>
<path d="M123.344 234.924C123.613 235.733 124.017 236.406 124.556 237.08C124.961 237.484 125.499 237.888 126.038 238.158C126.847 238.427 127.79 238.562 128.329 237.888C131.427 234.385 121.188 227.649 123.344 234.924Z" stroke="black" stroke-miterlimit="10" stroke-linecap="round" stroke-linejoin="round"/>
<path d="M29.3032 129.301C36.4437 147.219 33.8839 167.159 30.7852 186.155C37.791 179.015 46.0093 172.817 55.3054 168.237C56.9221 167.428 58.5388 166.62 59.4819 165.273C60.0208 164.464 60.2902 163.387 60.425 162.443C62.3111 154.09 79.8255 145.333 81.7117 136.98C82.6548 132.804 67.7002 128.627 65.5445 124.99C63.6584 121.756 59.7513 119.87 56.1137 118.253C51.2636 116.098 46.144 114.211 40.755 113.807C31.863 113.134 22.7016 117.175 17.582 123.912C18.9293 123.642 20.1418 123.373 21.489 123.103" stroke="black" stroke-miterlimit="10" stroke-linecap="round" stroke-linejoin="round"/>
<path d="M151.777 177.53C163.498 180.763 174.68 186.017 184.785 192.889C186.536 180.494 188.557 168.234 190.847 155.973C192.329 147.755 193.946 138.729 190.443 131.184C185.054 119.463 167.27 114.478 156.896 120.271C147.87 125.391 148.947 138.324 150.295 147.62C151.777 157.725 152.855 167.425 151.777 177.53Z" stroke="black" stroke-miterlimit="10" stroke-linecap="round" stroke-linejoin="round"/>
<path d="M-4.64518 199.089C-6.8008 214.582 -6.93555 230.345 -6.93555 245.973C-6.93555 254.731 -6.93556 263.757 -3.83686 271.841C-1.95069 276.691 0.878609 280.867 3.70786 285.044C8.558 292.319 13.5428 299.594 18.393 306.87C19.0666 307.813 19.875 308.621 20.6833 309.295C39.4103 326.136 92.6271 328.291 123.884 323.98C157.296 319.399 200.543 318.995 207.144 301.75C218.731 276.152 222.099 246.378 217.788 218.22C213.342 190.062 217.518 163.521 200.273 141.965C189.899 128.896 177.505 117.579 163.089 110.573C149.616 104.241 134.797 101.951 120.246 100.873C102.732 99.6607 84.813 100.334 67.9722 106.262C52.6134 111.651 38.8713 121.082 26.2071 131.86C21.3569 136.037 15.6984 140.079 12.3303 145.872C8.15378 153.147 5.05512 161.635 2.3606 169.584C-0.872833 179.149 -3.1632 188.984 -4.64518 199.089Z" stroke="black" stroke-miterlimit="10" stroke-linecap="round" stroke-linejoin="round"/>
<path d="M149.618 203.941C152.717 204.884 156.355 205.018 158.78 202.593C160.801 200.572 161.205 197.339 161.474 194.24C162.417 182.384 161.744 170.394 159.723 158.673C159.453 157.056 159.049 155.439 158.376 153.957C157.298 151.936 155.546 150.32 153.795 149.242C146.654 144.796 137.358 145.739 130.218 150.32C125.368 153.553 121.461 158.403 118.901 163.927C115.802 170.394 116.88 173.492 121.056 178.881C128.736 188.851 137.493 200.572 149.618 203.941Z" fill="url(#paint5_linear_5517_31593)"/>
<path d="M100.842 165.267C95.7223 156.375 88.0429 149.235 79.151 145.058C72.1452 141.69 62.7144 140.881 57.7295 147.214C55.035 150.717 54.3613 155.432 53.9572 160.013C53.1488 169.848 53.2835 179.817 54.3613 189.787C55.1697 196.793 57.1905 205.011 63.2532 207.436C68.9117 209.727 74.9744 205.954 79.4204 201.643C87.504 193.964 93.7014 184.129 97.4737 173.216" fill="url(#paint6_linear_5517_31593)"/>
<path d="M149.618 203.941C152.717 204.884 156.355 205.018 158.78 202.593C160.801 200.572 161.205 197.339 161.474 194.24C162.417 182.384 161.744 170.394 159.723 158.673C159.453 157.056 159.049 155.439 158.376 153.957C157.298 151.936 155.546 150.32 153.795 149.242C146.654 144.796 137.358 145.739 130.218 150.32C125.368 153.553 121.461 158.403 118.901 163.927C115.802 170.394 116.88 173.492 121.056 178.881C128.736 188.851 137.493 200.572 149.618 203.941Z" stroke="black" stroke-miterlimit="10" stroke-linecap="round" stroke-linejoin="round"/>
<path d="M100.842 165.267C95.7223 156.375 88.0429 149.235 79.151 145.058C72.1452 141.69 62.7144 140.881 57.7295 147.214C55.035 150.717 54.3613 155.432 53.9572 160.013C53.1488 169.848 53.2835 179.817 54.3613 189.787C55.1697 196.793 57.1905 205.011 63.2532 207.436C68.9117 209.727 74.9744 205.954 79.4204 201.643C87.504 193.964 93.7014 184.129 97.4737 173.216" stroke="black" stroke-miterlimit="10" stroke-linecap="round" stroke-linejoin="round"/>
<path d="M93.3007 178.606C93.4354 179.55 93.4354 180.493 93.9743 181.436C94.5132 182.514 95.4562 183.187 96.534 183.726C102.866 187.094 110.276 185.747 117.282 184.4C118.494 184.13 119.976 183.726 120.515 182.514C120.785 181.975 120.785 181.436 120.92 180.762C121.458 174.834 121.189 168.771 120.381 162.978C120.111 161.227 119.707 159.341 118.629 158.128C117.821 157.185 116.608 156.511 115.53 156.107C110.276 153.952 99.498 150.179 94.9173 155.703C90.6061 160.688 92.8965 172.679 93.3007 178.606Z" fill="url(#paint7_linear_5517_31593)"/>
<path d="M93.3007 178.606C93.4354 179.55 93.4354 180.493 93.9743 181.436C94.5132 182.514 95.4562 183.187 96.534 183.726C102.866 187.094 110.276 185.747 117.282 184.4C118.494 184.13 119.976 183.726 120.515 182.514C120.785 181.975 120.785 181.436 120.92 180.762C121.458 174.834 121.189 168.771 120.381 162.978C120.111 161.227 119.707 159.341 118.629 158.128C117.821 157.185 116.608 156.511 115.53 156.107C110.276 153.952 99.498 150.179 94.9173 155.703C90.6061 160.688 92.8965 172.679 93.3007 178.606Z" stroke="black" stroke-miterlimit="10" stroke-linecap="round" stroke-linejoin="round"/>
<path d="M12.4709 127.411C4.92624 138.998 -2.61849 150.449 -10.1632 162.036C-21.8843 179.954 -33.6055 198.008 -40.6113 218.351C-44.9225 231.016 -47.2128 244.354 -49.5032 257.557C-50.3115 262.272 -51.1199 267.122 -50.9852 271.972C-50.7157 277.496 -49.099 282.75 -47.3476 288.005C-43.1711 299.726 -36.9737 311.851 -25.7914 317.106C-21.4801 319.127 -16.63 319.935 -11.9146 320.878C-7.73807 321.552 -3.29207 322.36 0.749714 321.013C3.98314 319.935 6.67762 317.51 9.37215 315.22C17.5904 307.944 25.9435 300.534 31.0631 290.834C32.8146 287.601 34.1618 284.098 35.3744 280.595C37.53 274.936 39.6856 269.278 41.7065 263.754C43.8621 258.096 45.7482 250.955 41.7065 246.374C36.8563 240.985 27.8297 243.815 21.2281 240.851C18.1294 239.503 15.8391 237.078 13.5487 234.653C7.75548 228.591 1.69275 221.989 -0.0586929 213.771C-1.40596 207.034 0.345486 200.029 3.30946 193.831C6.40817 187.634 10.7194 182.245 14.7612 176.721C19.7461 169.985 24.3268 162.844 27.2908 155.03C30.2548 147.216 31.3325 138.459 29.1769 130.375" fill="url(#paint8_linear_5517_31593)"/>
<path d="M12.4709 127.411C4.92624 138.998 -2.61849 150.449 -10.1632 162.036C-21.8843 179.954 -33.6055 198.008 -40.6113 218.351C-44.9225 231.016 -47.2128 244.354 -49.5032 257.557C-50.3115 262.272 -51.1199 267.122 -50.9852 271.972C-50.7157 277.496 -49.099 282.75 -47.3476 288.005C-43.1711 299.726 -36.9737 311.851 -25.7914 317.106C-21.4801 319.127 -16.63 319.935 -11.9146 320.878C-7.73807 321.552 -3.29207 322.36 0.749714 321.013C3.98314 319.935 6.67762 317.51 9.37215 315.22C17.5904 307.944 25.9435 300.534 31.0631 290.834C32.8146 287.601 34.1618 284.098 35.3744 280.595C37.53 274.936 39.6856 269.278 41.7065 263.754C43.8621 258.096 45.7482 250.955 41.7065 246.374C36.8563 240.985 27.8297 243.815 21.2281 240.851C18.1294 239.503 15.8391 237.078 13.5487 234.653C7.75548 228.591 1.69275 221.989 -0.058693 213.771C-1.40596 207.034 0.345486 200.029 3.30946 193.831C6.40817 187.634 10.7194 182.245 14.7612 176.721C19.7461 169.985 24.3268 162.844 27.2908 155.03C30.2548 147.216 31.3325 138.459 29.1769 130.375" stroke="black" stroke-miterlimit="10" stroke-linecap="round" stroke-linejoin="round"/>
<path d="M133.321 35.5286C133.051 26.2325 133.186 16.2628 138.979 8.98755C145.716 0.4998 158.919 -1.25164 168.485 3.86796C178.05 8.98755 183.709 19.7657 184.517 30.5438C185.325 42.1302 180.61 54.525 170.91 60.8572C161.209 67.1893 146.659 66.2462 139.249 57.2196" fill="url(#paint9_linear_5517_31593)"/>
<path d="M133.321 35.5286C133.051 26.2325 133.186 16.2628 138.979 8.98755C145.716 0.4998 158.919 -1.25164 168.485 3.86796C178.05 8.98755 183.709 19.7657 184.517 30.5438C185.325 42.1302 180.61 54.525 170.91 60.8572C161.209 67.1893 146.659 66.2462 139.249 57.2196" stroke="black" stroke-miterlimit="10" stroke-linecap="round" stroke-linejoin="round"/>
<path d="M20.687 92.6495C34.0249 116.227 53.695 136.436 77.8109 148.696C101.927 160.956 130.354 165.132 156.626 158.531C162.823 156.914 168.886 154.758 174.275 151.525C192.193 140.477 200.277 118.517 202.433 97.6344C202.567 95.7482 202.702 93.5926 201.624 91.9759C200.681 90.6286 199.199 89.955 197.717 89.4161C179.933 82.1409 160.802 74.0573 151.641 57.3513C151.102 56.2735 150.563 55.0609 150.698 53.8484C150.967 52.2317 152.315 51.0191 153.258 49.8066C155.683 46.4385 155.413 41.5883 153.527 37.816C151.641 34.0436 148.273 31.2144 144.905 28.6546C114.995 6.29004 74.9817 1.30517 38.0667 7.23312C28.097 8.84983 8.96582 12.4874 4.11568 23.1308C1.42115 28.924 3.44204 38.4896 4.11568 44.5523C5.05876 52.3664 6.94488 60.1805 9.36995 67.7252C12.4687 76.3477 16.241 84.7007 20.687 92.6495Z" fill="url(#paint10_linear_5517_31593)"/>
<path d="M201.62 91.8395C200.677 90.4922 199.195 89.8186 197.713 89.2797C184.106 83.7559 169.556 77.6932 159.451 67.454C156.487 64.4901 153.927 61.1219 151.772 57.3496C151.233 56.2718 150.694 55.0592 150.829 53.8467C151.098 52.23 152.445 51.0174 153.388 49.8049C155.814 46.4367 155.544 41.5866 153.658 37.8143C151.772 34.0419 148.404 31.2127 145.035 28.6529C140.994 25.5542 136.682 22.8596 132.236 20.4346C120.785 20.8387 109.468 22.186 98.6896 25.6889C84.0044 30.4043 70.397 39.5657 62.8524 53.0383C55.3077 66.5109 54.9035 84.2948 64.4691 96.4202C65.1427 97.3633 66.0858 98.3064 66.0858 99.5189C66.0858 100.866 65.1427 101.944 64.1996 103.022C59.08 109.084 57.1939 117.437 58.4064 125.252C59.3495 131.314 62.044 136.973 65.9511 141.688C69.8581 144.248 73.7652 146.538 77.9417 148.694C92.8963 156.373 109.468 160.819 126.174 161.493C136.413 161.897 146.787 160.954 156.757 158.394C162.954 156.778 169.017 154.622 174.406 151.388C192.324 140.341 200.408 118.381 202.564 97.498C202.564 95.6118 202.698 93.4562 201.62 91.8395Z" fill="url(#paint11_linear_5517_31593)"/>
<path d="M20.6889 92.6544C34.0268 116.232 53.6969 136.44 77.8129 148.701C101.929 160.961 130.356 165.137 156.628 158.536C162.825 156.919 168.888 154.763 174.277 151.53C192.195 140.482 200.279 118.522 202.435 97.6393C202.569 95.7531 202.704 93.5975 201.626 91.9808C200.683 90.6335 199.201 89.9599 197.719 89.421C179.935 82.1458 160.804 74.0622 151.643 57.3562C151.104 56.2783 150.565 55.0658 150.7 53.8533C150.969 52.2366 152.317 51.024 153.26 49.8115C155.685 46.4433 155.415 41.5932 153.529 37.8209C151.643 34.0485 148.275 31.2193 144.907 28.6595C114.997 6.29492 74.9836 1.31005 38.0687 7.238C28.0989 8.85472 8.96777 12.4923 4.11763 23.1357C1.4231 28.9289 3.444 38.4945 4.11763 44.5572C5.06071 52.3713 6.94683 60.1854 9.3719 67.7301C12.4706 76.3526 16.243 84.7056 20.6889 92.6544Z" stroke="black" stroke-miterlimit="10" stroke-linecap="round" stroke-linejoin="round"/>
<path d="M131.974 20.4404C120.522 20.8446 109.205 22.1919 98.4269 25.6948C83.7418 30.4102 70.1344 39.5716 62.5897 53.0442C55.045 66.5168 54.9103 84.3007 64.4759 96.426C65.1495 97.3691 66.0926 98.3122 66.0926 99.5248C66.0926 100.872 65.1495 101.95 64.2064 103.028C59.0868 109.09 57.2007 117.443 58.4132 125.257C59.3563 131.32 62.0508 136.979 65.9579 141.829" stroke="black" stroke-miterlimit="10" stroke-linecap="round" stroke-linejoin="round"/>
<path d="M77.4069 116.499C84.278 125.257 93.8436 131.993 104.487 135.092C112.975 137.651 121.867 138.056 130.624 138.19C137.495 138.325 144.366 138.325 151.102 137.517C167.404 135.63 183.032 129.029 195.697 118.52C198.391 116.23 201.086 113.805 203.107 110.841C206.609 105.586 207.687 98.9849 206.205 92.9222C204.858 87.5332 200.008 82.0094 194.484 83.3566C190.442 84.2997 188.152 88.4762 185.323 91.4402C181.55 95.6167 176.161 97.9071 170.907 99.928C154.201 106.125 136.013 108.55 118.229 107.203C111.223 106.664 105.161 105.452 98.9631 102.084C93.7088 99.2543 87.3767 96.1556 81.1793 97.2334C70.6707 99.1196 72.2873 109.898 77.4069 116.499Z" fill="#0375F5"/>
<path d="M127.119 89.5545C127.254 91.0365 129.14 91.4407 130.487 91.4407C139.379 91.0365 148.271 88.8809 156.489 85.2433C161.744 82.8182 146.385 80.1237 143.69 80.5278C137.762 81.2015 131.7 85.7822 127.119 89.5545Z" fill="#0375F5"/>
<path d="M127.119 89.5545C127.254 91.0365 129.14 91.4407 130.487 91.4407C139.379 91.0365 148.271 88.8809 156.489 85.2433C161.744 82.8182 146.385 80.1237 143.69 80.5278C137.762 81.2015 131.7 85.7822 127.119 89.5545Z" stroke="black" stroke-width="0.9377" stroke-miterlimit="10" stroke-linecap="round" stroke-linejoin="round"/>
<path d="M77.4069 116.499C84.278 125.257 93.8436 131.993 104.487 135.092C112.975 137.651 121.867 138.056 130.624 138.19C137.495 138.325 144.366 138.325 151.102 137.517C167.404 135.63 183.032 129.029 195.697 118.52C198.391 116.23 201.086 113.805 203.107 110.841C206.609 105.586 207.687 98.9849 206.205 92.9222C204.858 87.5332 200.008 82.0094 194.484 83.3566C190.442 84.2997 188.152 88.4762 185.323 91.4402C181.55 95.6167 176.161 97.9071 170.907 99.928C154.201 106.125 136.013 108.55 118.229 107.203C111.223 106.664 105.161 105.452 98.9631 102.084C93.7088 99.2543 87.3767 96.1556 81.1793 97.2334C70.6707 99.1196 72.2873 109.898 77.4069 116.499Z" stroke="black" stroke-miterlimit="10" stroke-linecap="round" stroke-linejoin="round"/>
<path d="M82.3945 107.203C92.2295 118.655 108.666 121.753 123.89 121.888C152.452 122.292 182.361 113.805 202.301 93.1914" stroke="black" stroke-miterlimit="10" stroke-linecap="round" stroke-linejoin="round"/>
<path d="M36.1816 86.8597C28.5022 74.7343 13.0087 68.1328 -1.1376 70.8273C-16.7658 73.7913 -29.6995 87.2639 -32.6635 102.892C-35.6275 118.52 -29.1607 135.361 -16.9006 145.735C-11.3768 150.316 -5.04461 153.684 1.6917 156.109C8.83219 158.669 16.6463 160.42 24.0562 158.938C29.0411 157.995 33.7565 155.57 37.933 152.471C47.0944 145.466 53.1571 134.149 53.1571 122.562" fill="url(#paint12_linear_5517_31593)"/>
<path d="M36.1816 86.8597C28.5022 74.7343 13.0087 68.1328 -1.1376 70.8273C-16.7658 73.7913 -29.6995 87.2639 -32.6635 102.892C-35.6275 118.52 -29.1607 135.361 -16.9006 145.735C-11.3768 150.316 -5.04462 153.684 1.6917 156.109C8.83219 158.669 16.6463 160.42 24.0562 158.938C29.0411 157.995 33.7565 155.57 37.933 152.471C47.0944 145.466 53.1571 134.149 53.1571 122.562" stroke="black" stroke-miterlimit="10" stroke-linecap="round" stroke-linejoin="round"/>
<path d="M128.332 25.2909C123.886 27.177 119.979 30.4105 117.958 34.7217C116.341 38.0898 115.802 41.7275 115.668 45.4998C115.398 53.0445 116.476 60.9933 120.922 67.1907C124.155 71.7714 129.005 75.1396 134.125 77.4299C138.975 79.5855 144.499 81.0675 149.753 79.5855C163.765 75.8132 164.169 59.2419 163.091 47.6554C162.148 38.494 160.801 31.2188 152.044 26.7728C144.634 23.27 136.011 21.9227 128.332 25.2909Z" fill="#FEFEFE"/>
<path d="M128.332 25.2909C123.886 27.177 119.979 30.4105 117.958 34.7217C116.341 38.0898 115.802 41.7275 115.668 45.4998C115.398 53.0445 116.476 60.9933 120.922 67.1907C124.155 71.7714 129.005 75.1396 134.125 77.4299C138.975 79.5855 144.499 81.0675 149.753 79.5855C163.765 75.8132 164.169 59.2419 163.091 47.6554C162.148 38.494 160.801 31.2188 152.044 26.7728C144.634 23.27 136.011 21.9227 128.332 25.2909Z" stroke="black" stroke-miterlimit="10" stroke-linecap="round" stroke-linejoin="round"/>
<path d="M151.638 26.9127C144.363 23.2751 135.875 21.9278 128.196 25.2959C123.75 27.1821 119.843 30.4155 117.822 34.7268C116.205 38.0949 115.666 41.7326 115.531 45.5049C115.397 48.1994 115.531 51.0287 115.801 53.7232C121.055 47.2563 128.735 42.8104 136.818 40.7895C145.036 38.9033 153.794 39.4422 161.877 41.7326C160.799 35.5351 158.509 30.4155 151.638 26.9127Z" fill="url(#paint13_linear_5517_31593)"/>
<path d="M151.638 26.9127C144.363 23.2751 135.875 21.9278 128.196 25.2959C123.75 27.1821 119.843 30.4155 117.822 34.7268C116.205 38.0949 115.666 41.7326 115.531 45.5049C115.397 48.1994 115.531 51.0287 115.801 53.7232C121.055 47.2563 128.735 42.8104 136.818 40.7895C145.036 38.9033 153.794 39.4422 161.877 41.7326C160.799 35.5351 158.509 30.4155 151.638 26.9127Z" stroke="black" stroke-miterlimit="10" stroke-linecap="round" stroke-linejoin="round"/>
<path d="M111.492 44.4231C100.983 37.6868 89.2623 30.6811 76.8675 32.2978C64.0685 34.0492 53.4251 46.1746 53.5599 59.1083C53.6946 68.2697 58.5447 77.0269 65.6852 82.8201C72.8257 88.6133 81.8523 91.5773 90.879 92.5204C96.9416 93.194 103.274 92.7899 108.932 90.3648C118.228 86.4577 123.752 77.1616 124.695 67.3266C125.099 63.5543 125.773 59.243 124.156 55.7401C121.866 50.7553 116.073 47.2524 111.492 44.4231Z" fill="#FEFEFE"/>
<path d="M111.492 44.4231C100.983 37.6868 89.2623 30.6811 76.8675 32.2978C64.0685 34.0492 53.4251 46.1746 53.5599 59.1083C53.6946 68.2697 58.5447 77.0269 65.6852 82.8201C72.8257 88.6133 81.8523 91.5773 90.879 92.5204C96.9416 93.194 103.274 92.7899 108.932 90.3648C118.228 86.4577 123.752 77.1616 124.695 67.3266C125.099 63.5543 125.773 59.243 124.156 55.7401C121.866 50.7553 116.073 47.2524 111.492 44.4231Z" stroke="black" stroke-miterlimit="10" stroke-linecap="round" stroke-linejoin="round"/>
<path d="M131.301 49.5382C129.954 51.5591 129.954 54.3883 131.436 56.2745C131.975 56.9481 132.513 57.487 133.187 57.8912C133.456 58.0259 133.861 58.2954 134.13 58.4301C135.747 59.1037 137.498 59.3732 139.115 58.6996C147.737 54.9272 136.825 40.781 131.301 49.5382Z" fill="black"/>
<path d="M105.839 49.6767C102.74 49.1378 99.5068 51.2934 98.0248 54.1227C96.8122 56.2783 96.4081 59.1076 97.3511 61.3979C98.8331 65.0355 103.683 66.9217 107.321 65.4397C115.27 62.0715 114.192 51.1587 105.839 49.6767Z" fill="black"/>
<path d="M102.608 51.5583C101.665 51.4235 100.587 52.0972 100.183 52.9055C99.7789 53.5792 99.6442 54.5222 99.9136 55.1959C100.453 56.4084 101.935 56.9473 103.147 56.5431C105.572 55.6001 105.303 51.9624 102.608 51.5583Z" fill="#FEFEFE"/>
<path d="M107.994 55.06C107.32 54.9253 106.647 55.4642 106.243 56.0031C105.973 56.542 105.838 57.0809 106.108 57.6198C106.377 58.4282 107.455 58.8323 108.398 58.5629C110.15 57.8893 109.88 55.4642 107.994 55.06Z" fill="#FEFEFE"/>
<path d="M101.93 59.6426C101.391 59.5079 100.853 59.9121 100.583 60.3163C100.448 60.7204 100.314 61.1246 100.448 61.5288C100.718 62.2024 101.526 62.4719 102.065 62.2024C103.547 61.7983 103.412 59.9121 101.93 59.6426Z" fill="#FEFEFE"/>
<path d="M135.207 48.1918C134.533 48.0571 133.995 48.4613 133.59 49.1349C133.321 49.5391 133.321 50.078 133.456 50.6169C133.725 51.4253 134.668 51.6947 135.477 51.4253C137.093 50.7516 136.824 48.4613 135.207 48.1918Z" fill="#FEFEFE"/>
<path d="M138.575 50.4786C138.171 50.3438 137.632 50.748 137.497 51.1522C137.362 51.4217 137.228 51.8258 137.362 52.23C137.632 52.7689 138.306 53.0384 138.844 52.7689C139.922 52.23 139.788 50.6133 138.575 50.4786Z" fill="#FEFEFE"/>
<path d="M134.804 53.3096C134.535 53.3096 134.131 53.4443 133.996 53.7137C133.861 53.9832 133.861 54.2527 133.861 54.5221C133.996 54.9263 134.535 55.061 134.939 54.9263C135.747 54.6568 135.613 53.4443 134.804 53.3096Z" fill="#FEFEFE"/>
<path d="M80.5071 50.7524C89.8032 45.7675 100.312 44.0161 110.821 44.0161C100.447 37.4145 88.9948 30.8129 77.0042 32.4296C64.2052 34.1811 53.5619 46.3064 53.6966 59.2401C53.6966 64.6292 55.4481 69.8835 58.2773 74.4642C60.4329 72.0391 62.3191 69.0752 63.6664 67.0543C68.1123 60.1832 73.2319 54.6594 80.5071 50.7524Z" fill="url(#paint14_linear_5517_31593)"/>
<path d="M80.5071 50.6176C89.8033 45.6327 100.312 43.8813 110.821 43.8813C100.447 37.2797 88.9948 30.6781 77.0042 32.2948C64.2052 34.0463 53.5619 46.1716 53.6966 59.1054C53.6966 64.4944 55.4481 69.7487 58.2773 74.3294C60.4329 71.9044 62.3191 68.9404 63.6664 66.9195C68.1123 60.0484 73.2319 54.5247 80.5071 50.6176Z" stroke="black" stroke-miterlimit="10" stroke-linecap="round" stroke-linejoin="round"/>
<path d="M36.1858 202.86C36.0511 205.15 35.9164 207.44 36.7248 209.596C37.5331 211.752 39.6887 213.503 41.979 213.099C43.7305 205.419 44.1347 197.605 44.5389 189.657C44.943 180.226 45.4819 170.795 45.8861 161.364C45.8861 160.421 46.0209 159.478 45.482 158.669C43.7305 155.571 39.0151 158.265 37.8025 160.421C36.1858 163.52 37.1289 168.774 37.1289 172.142C37.1289 182.516 36.7247 192.62 36.1858 202.86Z" fill="url(#paint15_linear_5517_31593)"/>
<path d="M36.1858 202.86C36.0511 205.15 35.9164 207.44 36.7248 209.596C37.5331 211.752 39.6887 213.503 41.979 213.099C43.7305 205.419 44.1347 197.605 44.5389 189.657C44.943 180.226 45.4819 170.795 45.8861 161.364C45.8861 160.421 46.0209 159.478 45.482 158.669C43.7305 155.571 39.0151 158.265 37.8025 160.421C36.1858 163.52 37.1289 168.774 37.1289 172.142C37.1289 182.516 36.7247 192.62 36.1858 202.86Z" stroke="black" stroke-width="1.2005" stroke-miterlimit="10" stroke-linecap="round" stroke-linejoin="round"/>
<path d="M-4.09807 236.407C-4.7717 236.407 39.8227 243.817 40.4964 243.817C41.8436 243.547 42.7867 245.299 43.0561 246.646C44.8076 254.191 42.5173 262.544 37.1282 268.202C31.8739 273.861 23.6556 276.69 15.9762 275.612C10.3177 274.804 5.1981 271.974 0.34796 268.876C-4.90636 265.373 -10.1607 261.331 -13.1247 255.673C-16.0886 250.014 -16.3581 242.604 -12.3163 237.754C-11.7774 237.08 -10.9691 236.407 -10.1608 236.407C-9.75658 236.811 -3.69389 236.003 -4.09807 236.407Z" fill="url(#paint16_linear_5517_31593)"/>
<path d="M-4.09807 236.403C-4.7717 236.403 39.8227 243.813 40.4964 243.813C41.8436 243.543 42.7867 245.295 43.0561 246.642C44.8076 254.186 42.5173 262.539 37.1282 268.198C31.8739 273.856 23.6556 276.686 15.9762 275.608C10.3177 274.8 5.19811 271.97 0.34796 268.872C-4.90636 265.369 -10.1607 261.327 -13.1247 255.668C-16.0886 250.01 -16.3581 242.6 -12.3163 237.75C-11.7774 237.076 -10.9691 236.403 -10.1608 236.403C-9.75657 236.807 -3.69389 236.133 -4.09807 236.403Z" stroke="black" stroke-miterlimit="10" stroke-linecap="round" stroke-linejoin="round"/>
<path d="M28.6397 267.394C34.2982 267.125 34.0288 258.772 28.6397 258.368C22.3076 257.964 22.3076 267.664 28.6397 267.394Z" stroke="black" stroke-miterlimit="10" stroke-linecap="round" stroke-linejoin="round"/>
<path d="M21.4971 157.86C26.8861 164.732 35.6433 169.177 44.4005 168.773C53.1577 168.369 61.6455 163.115 65.4179 155.166C68.1124 149.642 68.3818 143.31 68.2471 137.113C68.2471 135.092 68.1124 132.936 67.1693 131.185C65.6873 128.49 62.7233 127.278 59.7593 126.2C51.8105 123.505 43.5922 121.754 35.2391 121.08C27.425 120.541 15.8385 121.619 14.0871 131.05C12.7398 139.538 16.3775 151.394 21.4971 157.86Z" fill="url(#paint17_linear_5517_31593)"/>
<path d="M27.0237 143.445C37.8018 146.678 45.8853 144.927 55.9898 142.906C60.7052 141.963 65.6901 140.211 68.1152 134.822C68.1152 134.688 68.2499 134.553 68.2499 134.553C68.1151 133.34 67.8457 132.263 67.3068 131.319C65.8248 128.625 62.8608 127.412 59.8968 126.335C51.948 123.64 43.7297 121.889 35.3767 121.215C27.5626 120.676 15.9761 121.754 14.2247 131.185C13.9552 132.801 13.8205 134.553 13.9552 136.304C15.4372 139.134 24.868 142.771 27.0237 143.445Z" fill="url(#paint18_linear_5517_31593)"/>
<path d="M21.4971 157.86C26.8861 164.732 35.6433 169.177 44.4005 168.773C53.1577 168.369 61.6455 163.115 65.4179 155.166C68.1124 149.642 68.3818 143.31 68.2471 137.113C68.2471 135.092 68.1124 132.936 67.1693 131.185C65.6873 128.49 62.7233 127.278 59.7593 126.2C51.8105 123.505 43.5922 121.754 35.2391 121.08C27.425 120.541 15.8385 121.619 14.0871 131.05C12.7398 139.538 16.3775 151.394 21.4971 157.86Z" stroke="black" stroke-miterlimit="10" stroke-linecap="round" stroke-linejoin="round"/>
<path d="M27.0237 143.445C37.8018 146.678 45.8853 144.927 55.9898 142.906C60.7052 141.963 65.6901 140.211 68.1152 134.822C68.1152 134.688 68.2499 134.553 68.2499 134.553C68.1151 133.34 67.8457 132.263 67.3068 131.319C65.8248 128.625 62.8608 127.412 59.8968 126.335C51.948 123.64 43.7297 121.889 35.3767 121.215C27.5626 120.676 15.9761 121.754 14.2247 131.185C13.9552 132.801 13.8205 134.553 13.9552 136.304C15.4372 139.134 24.868 142.771 27.0237 143.445Z" stroke="black" stroke-miterlimit="10" stroke-linecap="round" stroke-linejoin="round"/>
<path d="M-3.0214 171.6C-1.26996 170.118 0.750918 169.04 2.77181 167.962C13.2805 162.304 21.7682 153.681 31.199 146.406C36.1839 142.499 43.4591 147.619 41.034 153.547V153.681C39.2826 157.858 35.7797 161.091 31.8727 163.516C27.9656 165.942 23.9238 167.962 20.2862 170.657C17.8612 172.408 15.4361 175.372 16.9181 178.067C17.457 179.145 18.5348 179.953 19.6126 180.222C21.9029 180.896 24.1933 180.222 26.3489 179.414C32.681 177.124 38.7437 174.295 44.6716 171.196C46.962 169.983 49.3871 168.636 51.9469 168.097C55.315 167.289 59.0874 167.828 61.3777 170.792C62.1861 171.869 62.5903 173.351 62.3208 174.699C61.7819 178.202 58.279 179.414 55.1803 180.357C48.1745 182.648 41.4382 185.746 35.2408 189.653C34.2977 190.192 33.7589 191.27 34.0283 192.348C34.4325 193.83 35.9144 193.83 37.2617 193.695C46.5578 192.483 54.9108 184.534 64.2069 186.42C65.4195 186.689 66.7667 187.363 66.632 188.576C66.632 188.98 66.3626 189.519 66.0931 189.788C65.5542 190.731 64.8806 191.674 63.9375 192.348C58.8179 197.063 52.0816 197.872 46.1537 200.566C44.8064 201.24 43.3244 202.318 43.5938 203.8C43.8633 204.877 45.0759 205.416 46.1537 205.686C51.408 206.764 56.797 204.473 62.0514 203.53C63.1292 203.395 64.2069 203.395 65.2847 203.8C69.0571 205.147 68.5182 208.784 66.632 210.805C65.4195 212.018 63.668 212.826 61.9166 213.365C55.4497 215.656 48.8482 217.272 42.1119 218.215C41.1688 218.35 40.091 218.485 39.4174 219.158C37.9354 220.371 38.3395 222.661 38.3395 224.547C38.4742 228.185 36.8575 231.688 34.2977 234.113C38.6089 235.73 40.4951 241.388 38.8784 245.699C37.2617 250.011 33.2199 253.109 28.774 254.322C18.9389 257.151 8.69977 252.571 0.0772867 247.047C-4.09923 244.352 -8.4105 240.984 -9.89249 236.269C-10.7008 233.709 -10.5661 230.88 -10.4313 228.185C-10.0272 217.272 -9.0841 206.225 -9.35355 195.177C-9.48828 187.632 -9.21881 177.259 -3.0214 171.6Z" fill="url(#paint19_linear_5517_31593)"/>
<path d="M-3.0214 171.739C-1.26996 170.257 0.750918 169.179 2.77181 168.101C13.2805 162.443 21.7682 153.82 31.199 146.545C36.1839 142.638 43.4591 147.757 41.034 153.685V153.82C39.2826 157.997 35.7797 161.23 31.8727 163.655C27.9656 166.08 23.9238 168.101 20.2862 170.796C17.8612 172.547 15.4361 175.511 16.9181 178.206C17.457 179.283 18.5348 180.092 19.6126 180.361C21.9029 181.035 24.1933 180.361 26.3489 179.553C32.681 177.262 38.7437 174.433 44.6716 171.335C46.962 170.122 49.3871 168.775 51.9469 168.236C55.315 167.427 59.0874 167.966 61.3777 170.93C62.1861 172.008 62.5903 173.49 62.3208 174.837C61.7819 178.34 58.279 179.553 55.1803 180.496C48.1745 182.786 41.4382 185.885 35.2408 189.792C34.2977 190.331 33.7589 191.409 34.0283 192.487C34.4325 193.969 35.9144 193.969 37.2617 193.834C46.5578 192.621 54.9108 184.672 64.2069 186.559C65.4195 186.828 66.7667 187.502 66.632 188.714C66.632 189.118 66.3626 189.657 66.0931 189.927C65.5542 190.87 64.8806 191.813 63.9375 192.487C58.8179 197.202 52.0816 198.01 46.1537 200.705C44.8064 201.378 43.3244 202.456 43.5938 203.938C43.8633 205.016 45.0759 205.555 46.1537 205.824C51.408 206.902 56.797 204.612 62.0514 203.669C63.1292 203.534 64.2069 203.534 65.2847 203.938C69.0571 205.286 68.5182 208.923 66.632 210.944C65.4195 212.157 63.668 212.965 61.9166 213.504C55.4497 215.794 48.8482 217.411 42.1119 218.354C41.1688 218.489 40.091 218.623 39.4174 219.297C37.9354 220.51 38.3395 222.8 38.3395 224.686C38.4742 228.324 36.8575 231.827 34.2977 234.252C38.6089 235.868 40.4951 241.527 38.8784 245.838C37.2617 250.149 33.2199 253.248 28.774 254.461C18.9389 257.29 8.69977 252.709 0.077287 247.185C-4.09923 244.491 -8.4105 241.123 -9.89249 236.407C-10.7008 233.847 -10.5661 231.018 -10.4313 228.324C-10.0272 217.411 -9.0841 206.363 -9.35355 195.316C-9.48828 187.771 -9.21881 177.262 -3.0214 171.739Z" stroke="black" stroke-miterlimit="10" stroke-linecap="round" stroke-linejoin="round"/>
<path d="M36.1811 86.0537C33.756 86.0537 31.4657 87.1315 29.4448 88.3441C26.7503 89.826 24.1905 91.7122 22.7085 94.5415C21.2265 97.236 21.3612 101.008 23.6516 103.029C24.4599 103.703 25.5378 104.242 26.6156 104.511C29.1754 105.32 31.8698 105.32 34.5644 105.32C35.9116 105.32 37.3937 105.32 38.7409 104.781C40.0882 104.242 41.166 103.164 41.4355 101.817" stroke="black" stroke-miterlimit="10" stroke-linecap="round" stroke-linejoin="round"/>
<defs>
<linearGradient id="paint0_linear_5517_31593" x1="261.952" y1="6.98424" x2="182.455" y2="283.37" gradientUnits="userSpaceOnUse">
<stop stop-color="#0277FA"/>
<stop offset="1" stop-color="#202729"/>
</linearGradient>
<linearGradient id="paint1_linear_5517_31593" x1="125.638" y1="-123.45" x2="103.415" y2="291.379" gradientUnits="userSpaceOnUse">
<stop stop-color="#0277FA"/>
<stop offset="1" stop-color="#202729"/>
</linearGradient>
<linearGradient id="paint2_linear_5517_31593" x1="20.5999" y1="359.018" x2="69.6202" y2="46.399" gradientUnits="userSpaceOnUse">
<stop stop-color="#0277FA"/>
<stop offset="1" stop-color="white"/>
</linearGradient>
<linearGradient id="paint3_linear_5517_31593" x1="129.883" y1="402.512" x2="179.135" y2="88.4119" gradientUnits="userSpaceOnUse">
<stop stop-color="#0277FA"/>
<stop offset="1" stop-color="white"/>
</linearGradient>
<linearGradient id="paint4_linear_5517_31593" x1="21.0341" y1="485.062" x2="108.882" y2="198.399" gradientUnits="userSpaceOnUse">
<stop stop-color="#0277FA"/>
<stop offset="1" stop-color="white"/>
</linearGradient>
<linearGradient id="paint5_linear_5517_31593" x1="144.014" y1="169.298" x2="110.707" y2="262.433" gradientUnits="userSpaceOnUse">
<stop stop-color="#0277FA"/>
<stop offset="1" stop-color="#202729"/>
</linearGradient>
<linearGradient id="paint6_linear_5517_31593" x1="82.9577" y1="145.013" x2="49.8144" y2="237.692" gradientUnits="userSpaceOnUse">
<stop stop-color="#0277FA"/>
<stop offset="1" stop-color="#202729"/>
</linearGradient>
<linearGradient id="paint7_linear_5517_31593" x1="111.851" y1="156.54" x2="78.9617" y2="248.51" gradientUnits="userSpaceOnUse">
<stop stop-color="#0277FA"/>
<stop offset="1" stop-color="#202729"/>
</linearGradient>
<linearGradient id="paint8_linear_5517_31593" x1="51.9948" y1="157.307" x2="-2.68505" y2="247.822" gradientUnits="userSpaceOnUse">
<stop stop-color="#0277FA"/>
<stop offset="1" stop-color="#202729"/>
</linearGradient>
<linearGradient id="paint9_linear_5517_31593" x1="138.576" y1="40.1177" x2="341.231" y2="-38.9676" gradientUnits="userSpaceOnUse">
<stop stop-color="#0277FA"/>
<stop offset="1" stop-color="white"/>
</linearGradient>
<linearGradient id="paint10_linear_5517_31593" x1="2.8091" y1="83.2983" x2="202.509" y2="83.2983" gradientUnits="userSpaceOnUse">
<stop stop-color="#0277FA"/>
<stop offset="1" stop-color="white"/>
</linearGradient>
<linearGradient id="paint11_linear_5517_31593" x1="-85.5837" y1="52.4291" x2="233.228" y2="110.507" gradientUnits="userSpaceOnUse">
<stop stop-color="#0277FA"/>
<stop offset="1" stop-color="white"/>
</linearGradient>
<linearGradient id="paint12_linear_5517_31593" x1="84.9002" y1="50.4214" x2="-147.001" y2="251.841" gradientUnits="userSpaceOnUse">
<stop stop-color="#0277FA"/>
<stop offset="1" stop-color="white"/>
</linearGradient>
<linearGradient id="paint13_linear_5517_31593" x1="115.487" y1="38.5789" x2="162.007" y2="38.5789" gradientUnits="userSpaceOnUse">
<stop stop-color="#0277FA"/>
<stop offset="1" stop-color="white"/>
</linearGradient>
<linearGradient id="paint14_linear_5517_31593" x1="53.6478" y1="53.3332" x2="110.834" y2="53.3332" gradientUnits="userSpaceOnUse">
<stop stop-color="#0277FA"/>
<stop offset="1" stop-color="white"/>
</linearGradient>
<linearGradient id="paint15_linear_5517_31593" x1="41.2851" y1="167.386" x2="36.3423" y2="257.592" gradientUnits="userSpaceOnUse">
<stop stop-color="#0277FA"/>
<stop offset="1" stop-color="white"/>
</linearGradient>
<linearGradient id="paint16_linear_5517_31593" x1="-1.83679" y1="311.031" x2="14.6393" y2="248.422" gradientUnits="userSpaceOnUse">
<stop stop-color="#0277FA"/>
<stop offset="1" stop-color="white"/>
</linearGradient>
<linearGradient id="paint17_linear_5517_31593" x1="36.4488" y1="152.749" x2="60.751" y2="83.9614" gradientUnits="userSpaceOnUse">
<stop stop-color="#0277FA"/>
<stop offset="1" stop-color="white"/>
</linearGradient>
<linearGradient id="paint18_linear_5517_31593" x1="13.999" y1="133.13" x2="68.2648" y2="133.13" gradientUnits="userSpaceOnUse">
<stop stop-color="#0277FA"/>
<stop offset="1" stop-color="white"/>
</linearGradient>
<linearGradient id="paint19_linear_5517_31593" x1="4.88835" y1="289.294" x2="82.12" y2="-1.09654" gradientUnits="userSpaceOnUse">
<stop stop-color="#0277FA"/>
<stop offset="1" stop-color="white"/>
</linearGradient>
</defs>
</svg>
