<svg xmlns="http://www.w3.org/2000/svg" fill="#fff" style="" aria-hidden="" viewBox="0 0 121 150">
 <metadata>Created by potrace 1.16, written by Peter Selinger 2001-2019</metadata>

 <g>
  <title>Layer 1</title>
  <path id="svg_2" d="m46.26043,2.30787c-1.11829,2.99641 -6.70975,17.35129 -7.52983,19.37214c-2.833,7.24714 -6.03877,15.33047 -9.39365,24.04096c-2.08748,5.36566 -4.17496,10.8707 -4.77138,12.19469c-3.13121,7.87429 -6.03877,15.40015 -9.24454,23.69254c-1.93837,5.15662 -4.54771,11.91595 -5.81512,14.98204c-4.84592,11.84626 -7.60438,19.16307 -7.60438,19.85992c0,0.41811 4.69683,0.69684 13.79227,0.69684l13.71771,0l14.31413,-40.62573c7.82804,-22.29885 14.61235,-41.1832 15.05965,-41.94973c0.89463,-1.53304 1.04373,-1.88147 1.19285,-3.62356c0.1491,-2.5783 1.56561,0.62715 6.03877,13.72773c2.53479,7.45618 5.74056,16.72414 7.08252,20.55676c4.62227,12.89152 16.69983,48.08191 17.22169,49.96338l0.44731,1.95115l14.16502,0l14.16502,0l-0.37277,-1.60273c-0.1491,-0.83621 -1.86383,-5.43534 -3.72763,-10.24354c-4.17496,-10.66163 -8.87177,-22.85633 -11.70479,-30.31251c-2.16204,-5.6444 -5.44235,-14.14584 -11.18292,-28.91884c-1.71471,-4.39008 -4.02585,-10.52228 -5.21869,-13.58837c-1.11829,-3.0661 -3.13121,-8.2227 -4.39862,-11.49785c-1.19285,-3.27515 -3.35487,-8.91955 -4.77138,-12.54311l-2.53479,-6.61997l-14.31413,-0.20905c-11.03381,-0.13937 -14.31413,0 -14.61235,0.69684l0.00004,-0.00003l-0.00001,0.00003z"/>
  <g id="svg_11">
   <path id="svg_3" d="m5.39704,120.34743c-1.65118,0.37614 -3.20167,1.50456 -3.90644,2.83094c-0.24163,0.41573 -0.34231,1.10862 -0.36245,2.21724c0,1.42537 0.06041,1.68273 0.56382,2.43501c0.82559,1.2076 1.99349,1.8411 5.01394,2.67256c3.98699,1.10862 4.79244,1.58374 4.79244,2.81114c0,1.32638 -1.24845,2.03907 -3.52386,2.05886c-1.87268,0 -3.28221,-1.00964 -3.62454,-2.61318l-0.14095,-0.55431l-1.91295,0l-1.93308,0l0.12082,1.06903c0.26177,2.53399 2.07404,4.23651 5.31598,4.98878c1.71159,0.39593 4.02726,0.25736 5.8798,-0.33655c2.29553,-0.75228 3.84603,-2.79134 3.84603,-5.02838c0,-1.1878 -0.56382,-2.55379 -1.34913,-3.30607c-1.06722,-0.98984 -2.03376,-1.42537 -5.01394,-2.19744c-1.42967,-0.37614 -2.87949,-0.81167 -3.24194,-1.00964c-1.30886,-0.65329 -1.34913,-1.70253 -0.12082,-2.63298c0.64436,-0.47512 0.90613,-0.55431 1.97336,-0.51471c1.67132,0.03959 2.45663,0.45532 2.9399,1.56395l0.40272,0.87106l1.89281,0c2.17472,0 2.13445,0.03959 1.59077,-1.76192c-0.46313,-1.56395 -1.8324,-2.83094 -3.6044,-3.36546c-1.44981,-0.43552 -4.12794,-0.53451 -5.59789,-0.19797l0,0.00001l0,0.00003z"/>
   <path id="svg_4" d="m57.81181,123.39614l0,1.8807l-1.10749,0l-1.08736,0l-0.08054,1.12842l-0.06041,1.14821l-0.04027,-1.24719l-0.04027,-1.2274l-0.90613,0c-1.22831,0 -2.11431,0.39593 -3.10099,1.36598l-0.82559,0.81167l0,-0.97004l0,-0.97004l-1.63104,-0.07919c-0.886,-0.03959 -1.67132,-0.0198 -1.71159,0.0198c-0.04027,0.03959 -0.08054,2.96952 -0.08054,6.49334l0,6.39436l1.69145,0l1.67132,0l0.12082,-1.64313c0.08054,-0.89086 0.14095,-2.35582 0.14095,-3.26647c0,-0.91065 0.10068,-2.03907 0.2215,-2.4944c0.40272,-1.56395 2.0539,-2.59338 3.76549,-2.33602c0.56382,0.07919 0.64436,0.0198 0.64436,-0.33655c0,-0.39593 0.08054,-0.43552 1.1679,-0.37614l1.14777,0.05939l0.04027,2.27663c0.12082,6.03802 0.16109,6.69131 0.58396,7.14664c0.6645,0.73248 1.5505,0.97004 3.70508,0.97004l2.01363,0l0,-1.38577l0,-1.38577l-0.94641,0c-1.61091,0 -1.57063,0.07919 -1.63104,-4.05834l-0.06041,-3.6624l1.30886,0l1.32899,0l0,-1.1878l0,-1.1878l-1.30886,0l-1.30886,0l0,-1.8807l0,-1.8807l-1.81227,0l-1.81227,0l0,1.8807l0,-0.00003l-0.00001,0z"/>
   <path id="svg_5" d="m22.39207,125.53419c-0.48327,0.25736 -0.94641,0.6137 -1.06722,0.79187c-0.30204,0.55431 -0.56382,0.37614 -0.56382,-0.35635l0,-0.69289l-1.61091,0l-1.61091,0l0,8.6116l0,8.6116l1.71159,0l1.71159,0l0.02014,-1.8411c0.02014,-0.98984 0.02014,-2.23704 0,-2.77155c-0.04027,-0.97004 0.14095,-1.14821 0.60409,-0.5939c0.80545,0.93045 3.44331,1.34618 5.23543,0.81167c1.00681,-0.27716 2.25526,-1.34618 2.87949,-2.39541c1.02695,-1.72232 1.18804,-5.28574 0.32218,-7.20603c-0.52355,-1.16801 -1.85254,-2.55379 -2.91976,-3.0487c-1.22831,-0.55431 -3.56413,-0.51471 -4.71189,0.07919l0.00001,0l-0.00001,0zm2.85935,2.55379c0.32218,0.11878 0.78532,0.5939 1.10749,1.12842c0.46313,0.79187 0.54368,1.10862 0.52355,2.51419c-0.04027,2.98931 -1.04709,4.03855 -3.64467,3.88017c-0.70477,-0.05939 -1.81227,-1.24719 -2.07404,-2.23704c-0.30204,-1.04923 -0.14095,-3.28627 0.26177,-4.05834c0.78532,-1.50456 2.03376,-1.90049 3.8259,-1.2274l0,0.00001l0,-0.00001z"/>
   <path id="svg_6" d="m35.70216,125.37581c-0.46313,0.15838 -1.10749,0.45532 -1.40954,0.69289c-0.80545,0.6335 -1.65118,1.95988 -1.65118,2.61318l0,0.55431l1.772,0l1.75186,0l0.30204,-0.65329c0.40272,-0.87106 1.08736,-1.16801 2.39621,-1.06903c1.24845,0.07919 1.8324,0.5741 1.8324,1.54415c0,0.81167 -0.58396,1.10862 -2.91976,1.46496c-4.57094,0.71268 -5.53748,1.46496 -5.53748,4.19691c0,1.40557 0.46313,2.33602 1.46995,2.98931c0.76518,0.49492 0.96654,0.53451 3.04058,0.53451c2.03376,0 2.31567,-0.03959 3.1614,-0.51471l0.94641,-0.51471l0.2215,0.45532c0.20136,0.45532 0.32218,0.47512 1.93308,0.47512l1.73172,0l-0.10068,-0.83147c-0.06041,-0.47512 -0.16109,-2.67256 -0.2215,-4.90961c-0.06041,-2.23704 -0.16109,-4.37509 -0.24163,-4.75123c-0.16109,-0.97004 -1.14777,-1.92028 -2.35594,-2.27663c-1.24845,-0.37614 -4.91326,-0.35635 -6.12143,0l-0.00001,0l0,0.00002zm4.69176,9.28469c-0.90613,1.8411 -4.53067,1.72232 -4.53067,-0.15838c0,-1.16801 0.56382,-1.50456 3.52386,-2.13805l1.20818,-0.25736l0.06041,0.93045c0.04027,0.5741 -0.06041,1.2076 -0.26177,1.62334l-0.00001,0z"/>
   <path id="svg_7" d="m68.74582,125.35602c-1.67132,0.53451 -3.08085,2.01927 -3.08085,3.28627l0,0.5939l1.71159,0l1.69145,0l0.32218,-0.67309c0.18122,-0.35635 0.54368,-0.75228 0.82559,-0.89086c0.60409,-0.25736 1.89281,-0.27716 2.55731,-0.03959c0.56382,0.21777 1.04709,1.2076 0.86586,1.76192c-0.14095,0.43552 -1.44981,1.02944 -2.23513,1.02944c-0.94641,0 -3.44331,0.6137 -4.45013,1.08883c-0.72491,0.35635 -1.14777,0.71268 -1.36926,1.14821c-1.08736,2.29643 -0.16109,4.88981 1.99349,5.48371c0.54368,0.15838 1.57063,0.21777 2.57745,0.15838c1.34913,-0.05939 1.87268,-0.19797 2.63786,-0.6137c0.54368,-0.29696 1.00681,-0.53451 1.02695,-0.53451c0.04027,0 0.12082,0.21777 0.18122,0.49492c0.12082,0.47512 0.18122,0.49492 1.95322,0.49492c1.81227,0 1.8324,0 1.69145,-0.45532c-0.08054,-0.23756 -0.18122,-2.07866 -0.2215,-4.09794c-0.14095,-6.79029 -0.16109,-6.88928 -1.8324,-7.85933c-0.90613,-0.51471 -1.12763,-0.55431 -3.48358,-0.5939c-1.69145,-0.03959 -2.79895,0.03959 -3.36276,0.21777l-0.00002,-0.00002l0.00001,-0.00001zm4.91326,7.85933c-0.16109,1.97967 -1.06722,2.83094 -2.91976,2.69236c-1.61091,-0.11878 -2.31567,-0.98984 -1.73172,-2.15785c0.38259,-0.71268 0.50341,-0.77207 2.69827,-1.26699c1.04709,-0.23756 1.95322,-0.43552 1.99349,-0.45532c0.02014,0 0.02014,0.51471 -0.04027,1.1878l-0.00001,0z"/>
   <path id="svg_8" d="m83.88831,125.33622c-1.73172,0.67309 -2.83922,1.66293 -3.56413,3.20708c-0.40272,0.85126 -0.46313,1.30658 -0.46313,3.26647c0,2.63298 0.32218,3.52382 1.75186,4.9294c2.11431,2.03907 6.38321,2.19744 8.90024,0.31675c0.76518,-0.5741 1.93308,-2.61318 1.93308,-3.40505c0,-0.43552 -0.06041,-0.45532 -1.71159,-0.45532l-1.69145,0l-0.40272,0.87106c-0.6645,1.50456 -2.0539,2.01927 -3.50372,1.32638c-1.20818,-0.5741 -1.61091,-1.34618 -1.71159,-3.28627c-0.12082,-2.35582 0.62423,-3.82078 2.17472,-4.2563c1.10749,-0.31675 2.17472,0.11878 2.79895,1.12842l0.52355,0.83147l1.75186,0.0198l1.772,0l-0.14095,-0.65329c-0.34231,-1.72232 -1.61091,-3.12789 -3.40303,-3.76139c-1.14777,-0.39593 -4.04739,-0.43552 -5.01394,-0.07919l-0.00001,0l0,-0.00002z"/>
   <path id="svg_9" d="m94.54041,125.25703c-0.18122,0.19797 -0.06041,9.18571 0.14095,10.11616c0.42286,1.92028 1.97336,3.00911 4.3293,3.00911c1.42967,0.0198 2.98017,-0.5741 3.64467,-1.36598l0.44299,-0.53451l0.14095,0.83147l0.14095,0.83147l1.57063,0l1.59077,0l0,-6.43396l0,-6.43396l-1.71159,0c-1.49009,0 -1.71159,0.03959 -1.71159,0.33655c-0.02014,1.78171 -0.24163,7.26541 -0.32218,7.89892c-0.20136,1.62334 -1.99349,2.55379 -3.58426,1.8411c-0.94641,-0.43552 -1.12763,-1.36598 -1.12763,-5.89944l0,-4.15733l-1.73172,-0.05939c-0.94641,-0.03959 -1.772,-0.0198 -1.81227,0.0198l0.00001,0l0.00002,-0.00001z"/>
   <path id="svg_10" d="m111.53544,125.4352c-1.79213,0.6335 -2.7184,2.09846 -2.53718,3.99895c0.18122,1.72232 1.02695,2.29643 4.73203,3.26647c2.41635,0.6335 3.28221,1.08883 3.28221,1.72232c-0.02014,1.95988 -3.96685,2.07866 -4.69176,0.15838c-0.2215,-0.5939 -0.24163,-0.5939 -1.89281,-0.5939l-1.67132,0l0,0.6335c0,1.10862 1.04709,2.43501 2.47677,3.16749c0.6645,0.33655 1.30886,0.43552 2.98017,0.51471c2.51704,0.09899 3.90644,-0.21777 5.07434,-1.16801c0.94641,-0.77207 1.34913,-1.70253 1.34913,-3.1081c0,-2.09846 -1.06722,-2.92992 -5.03407,-3.89997c-2.23513,-0.55431 -2.81908,-0.83147 -2.89963,-1.42537c-0.12082,-0.67309 0.26177,-1.02944 1.20818,-1.16801c1.28872,-0.17817 2.41635,0.17817 2.79895,0.91065c0.30204,0.5741 0.34231,0.5939 1.91295,0.5939l1.61091,0l0,-0.73248c0,-0.6137 -0.16109,-0.87106 -1.04709,-1.74212c-0.6645,-0.6137 -1.3894,-1.08883 -1.89281,-1.24719c-1.20818,-0.35635 -4.61121,-0.27716 -5.75898,0.11878l0.00001,0.00002l0,-0.00002z"/>
  </g>
 </g>
</svg>