<svg width="121" height="100" xmlns="http://www.w3.org/2000/svg" aria-hidden="true" color="#253449" focusable="false" class="MuiSvgIcon-root MuiSvgIcon-colorPrimary MuiSvgIcon-fontSizeSmall" preserveAspectRatio="xMidYMid meet">
 <metadata>Created by potrace 1.16, written by Peter Selinger 2001-2019</metadata>

 <g>
  <title>Layer 1</title>
  <path id="svg_2" d="m51.63151,1.16905c-0.63821,1.87844 -3.82927,10.87748 -4.29729,12.14434c-1.6168,4.54321 -3.44634,9.61063 -5.36098,15.07121c-1.19133,3.36372 -2.38266,6.81481 -2.72304,7.64482c-1.78699,4.93637 -3.44634,9.65431 -5.27588,14.85279c-1.10623,3.23267 -2.59539,7.47008 -3.3187,9.3922c-2.76558,7.42639 -4.33984,12.01328 -4.33984,12.45013c0,0.26211 2.68049,0.43685 7.87128,0.43685l7.82873,0l8.16911,-25.46816c4.46748,-13.97909 8.3393,-25.81764 8.59458,-26.29817c0.51057,-0.96106 0.59566,-1.17949 0.68076,-2.2716c0.08509,-1.61633 0.8935,0.39316 3.44634,8.60588c1.44661,4.67426 3.27615,10.48432 4.04201,12.88698c2.63794,8.08166 9.53063,30.14242 9.82846,31.32191l0.25528,1.22317l8.08401,0l8.08401,0l-0.21274,-1.00475c-0.08509,-0.52422 -1.06369,-3.4074 -2.12737,-6.42165c-2.38266,-6.68375 -5.06314,-14.32857 -6.67995,-19.00283c-1.23388,-3.53846 -3.10596,-8.86799 -6.38212,-18.12914c-0.97859,-2.75213 -2.29756,-6.59639 -2.97832,-8.51851c-0.63821,-1.92213 -1.78699,-5.15479 -2.5103,-7.20797c-0.68076,-2.05318 -1.91463,-5.59164 -2.72304,-7.86324l-1.44661,-4.15004l-8.16911,-0.13105c-6.29702,-0.08737 -8.16911,0 -8.3393,0.43685z"/>
  <g id="svg_11">
   <path id="svg_3" d="m4.4108,76.56746c-1.67692,0.39191 -3.25158,1.56766 -3.96734,2.94967c-0.2454,0.43317 -0.34765,1.15511 -0.3681,2.31023c0,1.48515 0.06135,1.7533 0.57261,2.53713c0.83846,1.25825 2.02457,1.91831 5.0921,2.78465c4.04914,1.15511 4.86715,1.65016 4.86715,2.92904c0,1.38201 -1.26791,2.12459 -3.57879,2.14521c-1.90187,0 -3.33338,-1.05198 -3.68104,-2.72277l-0.14315,-0.57756l-1.94277,0l-1.96322,0l0.1227,1.11386c0.26585,2.64026 2.10637,4.41419 5.39885,5.19801c1.73827,0.41254 4.09004,0.26815 5.97146,-0.35066c2.33132,-0.78383 3.90599,-2.90841 3.90599,-5.23927c0,-1.23762 -0.57261,-2.66089 -1.37016,-3.44472c-1.08386,-1.03135 -2.06547,-1.48515 -5.0921,-2.2896c-1.45196,-0.39191 -2.92438,-0.84571 -3.29248,-1.05198c-1.32926,-0.68069 -1.37016,-1.77393 -0.1227,-2.7434c0.65441,-0.49505 0.92026,-0.57756 2.00412,-0.5363c1.69737,0.04125 2.49493,0.47442 2.98573,1.62954l0.409,0.90759l1.92232,0c2.20862,0 2.16772,0.04125 1.61557,-1.83581c-0.47035,-1.62954 -1.86097,-2.94967 -3.66059,-3.5066c-1.47241,-0.45379 -4.19229,-0.55693 -5.68516,-0.20627z"/>
   <path id="svg_4" d="m57.64268,79.74403l0,1.95957l-1.12476,0l-1.10431,0l-0.0818,1.17574l-0.06135,1.19637l-0.0409,-1.2995l-0.0409,-1.27888l-0.92026,0c-1.24746,0 -2.14727,0.41254 -3.14933,1.42327l-0.83846,0.84571l0,-1.01072l0,-1.01072l-1.65647,-0.08251c-0.89981,-0.04125 -1.69737,-0.02063 -1.73827,0.02063c-0.0409,0.04125 -0.0818,3.09406 -0.0818,6.76567l0,6.66253l1.71782,0l1.69737,0l0.1227,-1.71204c0.0818,-0.92822 0.14315,-2.45462 0.14315,-3.40346c0,-0.94884 0.10225,-2.12459 0.22495,-2.59901c0.409,-1.62954 2.08592,-2.70214 3.82419,-2.43399c0.57261,0.08251 0.65441,0.02063 0.65441,-0.35066c0,-0.41254 0.0818,-0.45379 1.18611,-0.39191l1.16566,0.06188l0.0409,2.37211c0.1227,6.29125 0.1636,6.97194 0.59306,7.44636c0.67486,0.7632 1.57467,1.01072 3.76284,1.01072l2.04502,0l0,-1.44389l0,-1.44389l-0.96116,0c-1.63602,0 -1.59512,0.08251 -1.65647,-4.22854l-0.06135,-3.816l1.32926,0l1.34971,0l0,-1.23762l0,-1.23762l-1.32926,0l-1.32926,0l0,-1.95957l0,-1.95957l-1.84052,0l-1.84052,0l0,1.95957z"/>
   <path id="svg_5" d="m21.67077,81.97175c-0.4908,0.26815 -0.96116,0.63944 -1.08386,0.82508c-0.30675,0.57756 -0.57261,0.39191 -0.57261,-0.37129l0,-0.72195l-1.63602,0l-1.63602,0l0,8.97276l0,8.97276l1.73827,0l1.73827,0l0.02045,-1.91831c0.02045,-1.03135 0.02045,-2.33086 0,-2.88779c-0.0409,-1.01072 0.14315,-1.19637 0.61351,-0.61881c0.81801,0.96947 3.49699,1.40264 5.31705,0.84571c1.02251,-0.28878 2.29042,-1.40264 2.92438,-2.49587c1.04296,-1.79455 1.20656,-5.50742 0.3272,-7.50824c-0.53171,-1.217 -1.88142,-2.66089 -2.96528,-3.17656c-1.24746,-0.57756 -3.61969,-0.5363 -4.78535,0.08251zm2.90393,2.66089c0.3272,0.12376 0.79756,0.61881 1.12476,1.17574c0.47035,0.82508 0.55216,1.15511 0.53171,2.61963c-0.0409,3.11468 -1.06341,4.20792 -3.70149,4.0429c-0.71576,-0.06188 -1.84052,-1.2995 -2.10637,-2.33086c-0.30675,-1.09323 -0.14315,-3.42409 0.26585,-4.22854c0.79756,-1.56766 2.06547,-1.9802 3.88554,-1.27888z"/>
   <path id="svg_6" d="m35.18836,81.80673c-0.47035,0.16502 -1.12476,0.47442 -1.43151,0.72195c-0.81801,0.66007 -1.67692,2.04208 -1.67692,2.72277l0,0.57756l1.79962,0l1.77917,0l0.30675,-0.68069c0.409,-0.90759 1.10431,-1.217 2.43357,-1.11386c1.26791,0.08251 1.86097,0.59818 1.86097,1.60891c0,0.84571 -0.59306,1.15511 -2.96528,1.5264c-4.6422,0.74257 -5.62381,1.5264 -5.62381,4.37293c0,1.46452 0.47035,2.43399 1.49287,3.11468c0.77711,0.51568 0.98161,0.55693 3.08798,0.55693c2.06547,0 2.35177,-0.04125 3.21068,-0.5363l0.96116,-0.5363l0.22495,0.47442c0.2045,0.47442 0.3272,0.49505 1.96322,0.49505l1.75872,0l-0.10225,-0.86634c-0.06135,-0.49505 -0.1636,-2.78465 -0.22495,-5.11551c-0.06135,-2.33086 -0.1636,-4.55858 -0.2454,-4.95049c-0.1636,-1.01072 -1.16566,-2.00082 -2.39267,-2.37211c-1.26791,-0.39191 -4.98985,-0.37129 -6.21686,0zm4.7649,9.67408c-0.92026,1.91831 -4.6013,1.79455 -4.6013,-0.16502c0,-1.217 0.57261,-1.56766 3.57879,-2.22772l1.22701,-0.26815l0.06135,0.96947c0.0409,0.59818 -0.06135,1.25825 -0.26585,1.69142z"/>
   <path id="svg_7" d="m68.74715,81.78611c-1.69737,0.55693 -3.12888,2.10396 -3.12888,3.42409l0,0.61881l1.73827,0l1.71782,0l0.3272,-0.70132c0.18405,-0.37129 0.55216,-0.78383 0.83846,-0.92822c0.61351,-0.26815 1.92232,-0.28878 2.59718,-0.04125c0.57261,0.2269 1.06341,1.25825 0.87936,1.83581c-0.14315,0.45379 -1.47241,1.07261 -2.26997,1.07261c-0.96116,0 -3.49699,0.63944 -4.5195,1.13449c-0.73621,0.37129 -1.16566,0.74257 -1.39061,1.19637c-1.10431,2.39274 -0.1636,5.09488 2.02457,5.71369c0.55216,0.16502 1.59512,0.2269 2.61763,0.16502c1.37016,-0.06188 1.90187,-0.20627 2.67898,-0.63944c0.55216,-0.30941 1.02251,-0.55693 1.04296,-0.55693c0.0409,0 0.1227,0.2269 0.18405,0.51568c0.1227,0.49505 0.18405,0.51568 1.98367,0.51568c1.84052,0 1.86097,0 1.71782,-0.47442c-0.0818,-0.24752 -0.18405,-2.16584 -0.22495,-4.2698c-0.14315,-7.07507 -0.1636,-7.17821 -1.86097,-8.18894c-0.92026,-0.5363 -1.14521,-0.57756 -3.53789,-0.61881c-1.71782,-0.04125 -2.84258,0.04125 -3.41518,0.2269zm4.98985,8.18894c-0.1636,2.0627 -1.08386,2.94967 -2.96528,2.80528c-1.63602,-0.12376 -2.35177,-1.03135 -1.75872,-2.24835c0.38855,-0.74257 0.51126,-0.80445 2.74033,-1.32013c1.06341,-0.24752 1.98367,-0.45379 2.02457,-0.47442c0.02045,0 0.02045,0.5363 -0.0409,1.23762z"/>
   <path id="svg_8" d="m84.1257,81.76548c-1.75872,0.70132 -2.88348,1.73267 -3.61969,3.34158c-0.409,0.88696 -0.47035,1.36138 -0.47035,3.40346c0,2.7434 0.3272,3.67161 1.77917,5.13613c2.14727,2.12459 6.48272,2.2896 9.03899,0.33003c0.77711,-0.59818 1.96322,-2.72277 1.96322,-3.54785c0,-0.45379 -0.06135,-0.47442 -1.73827,-0.47442l-1.71782,0l-0.409,0.90759c-0.67486,1.56766 -2.08592,2.10396 -3.55834,1.38201c-1.22701,-0.59818 -1.63602,-1.40264 -1.73827,-3.42409c-0.1227,-2.45462 0.63396,-3.98102 2.20862,-4.43481c1.12476,-0.33003 2.20862,0.12376 2.84258,1.17574l0.53171,0.86634l1.77917,0.02063l1.79962,0l-0.14315,-0.68069c-0.34765,-1.79455 -1.63602,-3.25907 -3.45608,-3.91914c-1.16566,-0.41254 -4.11049,-0.45379 -5.0921,-0.08251z"/>
   <path id="svg_9" d="m94.94386,81.68297c-0.18405,0.20627 -0.06135,9.57095 0.14315,10.54042c0.42945,2.00082 2.00412,3.13531 4.39679,3.13531c1.45196,0.02063 3.02663,-0.59818 3.70149,-1.42327l0.4499,-0.55693l0.14315,0.86634l0.14315,0.86634l1.59512,0l1.61557,0l0,-6.70379l0,-6.70379l-1.73827,0c-1.51332,0 -1.73827,0.04125 -1.73827,0.35066c-0.02045,1.85643 -0.2454,7.57012 -0.3272,8.23019c-0.2045,1.69142 -2.02457,2.66089 -3.64014,1.91831c-0.96116,-0.45379 -1.14521,-1.42327 -1.14521,-6.14686l0,-4.33168l-1.75872,-0.06188c-0.96116,-0.04125 -1.79962,-0.02063 -1.84052,0.02063z"/>
   <path id="svg_10" d="m112.20383,81.86861c-1.82007,0.66007 -2.76078,2.18647 -2.57673,4.16666c0.18405,1.79455 1.04296,2.39274 4.8058,3.40346c2.45402,0.66007 3.33338,1.13449 3.33338,1.79455c-0.02045,2.04208 -4.02869,2.16584 -4.7649,0.16502c-0.22495,-0.61881 -0.2454,-0.61881 -1.92232,-0.61881l-1.69737,0l0,0.66007c0,1.15511 1.06341,2.53713 2.51538,3.30033c0.67486,0.35066 1.32926,0.45379 3.02663,0.5363c2.55628,0.10314 3.96734,-0.2269 5.15345,-1.217c0.96116,-0.80445 1.37016,-1.77393 1.37016,-3.23845c0,-2.18647 -1.08386,-3.0528 -5.11255,-4.06353c-2.26997,-0.57756 -2.86303,-0.86634 -2.94483,-1.48515c-0.1227,-0.70132 0.26585,-1.07261 1.22701,-1.217c1.30881,-0.18564 2.45402,0.18564 2.84258,0.94884c0.30675,0.59818 0.34765,0.61881 1.94277,0.61881l1.63602,0l0,-0.7632c0,-0.63944 -0.1636,-0.90759 -1.06341,-1.81518c-0.67486,-0.63944 -1.41106,-1.13449 -1.92232,-1.2995c-1.22701,-0.37129 -4.6831,-0.28878 -5.84876,0.12376z"/>
  </g>
 </g>
</svg>