<svg fill="none" xmlns="http://www.w3.org/2000/svg" viewBox="0 0 141 136" height="1410" width="1360"><path fill-rule="evenodd" d="M106.805 20.0462C115.401 16.8082 124.912 18.6881 131.625 24.9569H131.628C140.48 33.2167 142.597 47.0865 136.665 57.9367L92.9497 135.816H47.0622L3.34691 57.9367C-2.58517 47.0865 -0.464717 33.2167 8.38344 24.9569C15.0963 18.6918 24.6069 16.8082 33.2034 20.0462L39.5796 22.4479C62.2458 29.9712 45.7041 0 45.7041 0H94.3042C94.3042 0 77.7587 29.9712 100.429 22.4479L106.805 20.0462ZM27.7462 75.6754C18.6437 40.1206 39.8428 37.0615 42.0812 36.8396L28.759 31.8215C24.6735 30.2821 20.1551 31.1776 16.9614 34.1566C12.258 38.5455 11.17 45.9912 14.3673 51.8714L27.7462 75.6754ZM112.245 75.6997L125.637 51.8714H125.63C128.831 45.9949 127.739 38.5492 123.036 34.1566C119.846 31.1776 115.324 30.2821 111.238 31.8215L97.9159 36.8396C100.155 37.0616 121.363 40.122 112.245 75.6997ZM43.7319 91.7329C45.0271 106.165 56.4066 113.104 70.8391 113.104C84.0689 113.104 96.2811 106.443 96.2811 93.0281C96.2811 82.2037 88.1396 76.4677 75.5574 73.8773L67.9711 72.3045C61.0324 70.8242 57.8868 68.8814 57.8868 64.5331C57.8868 59.4448 63.2528 56.0217 69.9139 56.0217C77.0377 56.0217 81.8485 59.6298 82.7737 65.6433H95.1709C93.8756 53.0611 83.6063 45.8449 69.9139 45.8449C56.4991 45.8449 45.4897 53.8938 45.4897 65.5508C45.4897 75.1725 51.8733 81.0935 64.733 83.869L71.3942 85.3493C79.073 86.9221 83.6989 89.42 83.6989 94.3234C83.6989 99.7818 78.0554 103.02 70.8391 103.02C63.2528 103.02 57.2392 99.3192 56.129 91.7329H43.7319Z" fill="#00ADE6"/></svg>