<svg width="" height=""  viewBox="0 0 36 36" xmlns="http://www.w3.org/2000/svg">
 <g>
  <title>Layer 1</title>
  <rect width="" height="" fill="rgba(255, 255, 255, 0)" id="svg_1" y="0" x="0"/>
  <path fill="#AAB8C2" d="m18,0c-4.612,0 -8.483,3.126 -9.639,7.371l3.855,1.052a5.999,5.999 0 0 1 5.784,-4.423a6,6 0 0 1 6,6l0,10l4,0l0,-10c0,-5.522 -4.477,-10 -10,-10z" id="svg_2"/>
  <path fill="#FFAC33" d="m31,32a4,4 0 0 1 -4,4l-18,0a4,4 0 0 1 -4,-4l0,-12a4,4 0 0 1 4,-4l18,0a4,4 0 0 1 4,4l0,12z" id="svg_3"/>
  <g id="svg_4">
   <g id="svg_5">
    <circle id="svg_6" class="st0" cx="18" cy="26.4" r="8.12" fill="#FF433E"/>
    <g id="svg_7">
     <rect id="svg_8" x="14" y="21.7" class="st1" width="1.75" height="9.4" fill="#FFFFFF"/>
     <polygon id="svg_9" class="st1" points="20.5,31.07 16.65,26.4 20.5,21.69587516784668 22.67,21.7 18.9,26.4 22.67,31.1 " fill="#FFFFFF"/>
    </g>
   </g>
  </g>
 </g>

</svg>