<svg viewBox="0 0 225 225" fill="none" xmlns="http://www.w3.org/2000/svg">
<g filter="url(#filter0_i)"><g style="mix-blend-mode: screen;"><circle cx="112.437" cy="112.195" r="108.043" stroke="white" stroke-width="8"></circle></g><g style="mix-blend-mode: darken;" filter="url(#filter1_i)">
<path fill-rule="evenodd" clip-rule="evenodd" d="M216.718 112.194C216.718 169.788 169.812 216.476 111.951 216.476C54.0894 216.476 7.18359 169.788 7.18359 112.194C7.18359 54.6008 54.0894 7.91211 111.951 7.91211C169.812 7.91211 216.718 54.6008 216.718 112.194ZM107.112 16.6577C103.645 18.2271 101.019 22.9676 95.7688 32.4486L93.0858 37.2935C90.5541 41.865 89.2883 44.1508 87.4303 45.5933C85.7913 46.8658 83.8362 47.6719 81.7734 47.9257C79.4347 48.2134 76.9159 47.488 71.8782 46.0373L66.5392 44.4999C56.0913 41.4913 50.8673 39.9869 47.3008 41.3174C44.1923 42.4771 41.7397 44.9184 40.5747 48.0125C39.238 51.5624 40.7493 56.7622 43.7719 67.1618L45.3165 72.476C46.7739 77.4904 47.5026 79.9976 47.2136 82.3254C46.9586 84.3787 46.1488 86.3248 44.8704 87.9561C43.4212 89.8056 41.1248 91.0655 36.532 93.5854L31.6646 96.2561C22.1395 101.482 17.3769 104.095 15.8002 107.546C14.426 110.554 14.426 114.007 15.8002 117.015C17.3769 120.466 22.1395 123.079 31.6646 128.305L36.532 130.975C41.1248 133.495 43.4212 134.755 44.8704 136.605C46.1488 138.236 46.9586 140.182 47.2136 142.235C47.5026 144.563 46.7739 147.07 45.3165 152.085L43.7719 157.399C40.7493 167.799 39.238 172.998 40.5747 176.548C41.7397 179.642 44.1923 182.084 47.3008 183.243C50.8673 184.574 56.0913 183.07 66.5392 180.061L71.8782 178.524C76.9159 177.073 79.4347 176.347 81.7734 176.635C83.8362 176.889 85.7913 177.695 87.4303 178.968C89.2883 180.41 90.5541 182.696 93.0858 187.267L95.7688 192.112C101.019 201.593 103.645 206.334 107.112 207.903C110.133 209.271 113.602 209.271 116.624 207.903C120.091 206.334 122.716 201.593 127.967 192.112L130.65 187.267C133.181 182.696 134.447 180.41 136.305 178.968C137.944 177.695 139.899 176.889 141.962 176.635C144.301 176.347 146.82 177.073 151.857 178.524L157.196 180.061C167.644 183.07 172.868 184.574 176.435 183.243C179.543 182.084 181.996 179.642 183.161 176.548C184.497 172.998 182.986 167.799 179.964 157.399L178.419 152.085C176.961 147.07 176.233 144.563 176.522 142.235C176.777 140.182 177.587 138.236 178.865 136.605C180.314 134.755 182.611 133.495 187.203 130.975L192.071 128.305C201.596 123.079 206.358 120.466 207.935 117.015C209.309 114.007 209.309 110.554 207.935 107.546C206.358 104.095 201.596 101.482 192.071 96.2561L187.203 93.5854C182.611 91.0655 180.314 89.8056 178.865 87.9561C177.587 86.3248 176.777 84.3787 176.522 82.3254C176.233 79.9976 176.961 77.4904 178.419 72.476L179.963 67.1618C182.986 56.7622 184.497 51.5624 183.161 48.0125C181.996 44.9184 179.543 42.4771 176.435 41.3174C172.868 39.9869 167.644 41.4913 157.196 44.4999L151.857 46.0373C146.82 47.488 144.301 48.2134 141.962 47.9257C139.899 47.6719 137.944 46.8658 136.305 45.5933C134.447 44.1508 133.181 41.865 130.65 37.2935L127.967 32.4486C127.638 31.8561 127.32 31.2818 127.012 30.7259C122.385 22.3874 119.874 18.129 116.624 16.6577C113.602 15.2899 110.133 15.2899 107.112 16.6577Z" fill="url(#paint0_linear)"></path><path fill-rule="evenodd" clip-rule="evenodd" d="M112.113 27.9986C113.493 30.0273 115.17 33.0303 117.905 37.9693L120.739 43.0867C121.873 45.136 123.001 47.1738 124.101 48.8548C125.327 50.7312 126.919 52.8092 129.239 54.6107C132.517 57.1556 136.427 58.7677 140.553 59.2753C143.473 59.6346 146.075 59.2851 148.275 58.8219C150.246 58.4068 152.492 57.76 154.75 57.1094L160.389 55.4854C165.832 53.9181 169.15 52.9745 171.568 52.5114C171.72 52.4822 171.861 52.4565 171.993 52.4339C171.97 52.5646 171.944 52.7054 171.915 52.857C171.449 55.263 170.501 58.5662 168.927 63.9836L167.295 69.5969L167.295 69.5984L167.173 70.0195C166.561 72.1238 165.966 74.2025 165.575 76.0416C165.109 78.2319 164.758 80.8213 165.119 83.7282C165.629 87.8349 167.249 91.7269 169.806 94.9896C171.616 97.2992 173.703 98.883 175.588 100.104C177.277 101.198 179.324 102.321 181.383 103.451L186.524 106.271C191.486 108.994 194.503 110.662 196.542 112.036C196.67 112.123 196.788 112.204 196.897 112.28C196.873 112.297 196.849 112.314 196.824 112.332C196.781 112.362 196.736 112.392 196.69 112.424L196.651 112.451L196.65 112.451L196.618 112.473L196.579 112.5L196.542 112.525C194.503 113.899 191.486 115.567 186.524 118.29L181.383 121.111C179.324 122.24 177.277 123.363 175.588 124.457C173.703 125.678 171.616 127.262 169.806 129.571C167.249 132.834 165.629 136.726 165.119 140.833C164.758 143.74 165.109 146.329 165.575 148.519C165.992 150.481 166.642 152.716 167.295 154.964L168.927 160.577C170.501 165.995 171.449 169.298 171.915 171.704C171.944 171.855 171.97 171.996 171.993 172.127C171.861 172.104 171.72 172.079 171.568 172.049C169.15 171.586 165.832 170.643 160.389 169.075L154.75 167.452C152.492 166.801 150.246 166.154 148.275 165.739C146.075 165.276 143.473 164.926 140.553 165.286C136.427 165.793 132.517 167.405 129.239 169.95C126.919 171.752 125.327 173.83 124.101 175.706C123.001 177.387 121.873 179.425 120.739 181.474L117.905 186.592C115.17 191.531 113.493 194.534 112.113 196.562C112.026 196.69 111.944 196.808 111.868 196.916C111.829 196.862 111.79 196.805 111.749 196.746C111.708 196.687 111.666 196.626 111.622 196.562C110.242 194.534 108.566 191.531 105.831 186.592L102.997 181.474C101.862 179.425 100.734 177.387 99.6349 175.706C98.408 173.83 96.8168 171.752 94.4965 169.95C91.2186 167.405 87.3084 165.793 83.1827 165.286C80.2622 164.926 77.6608 165.276 75.4603 165.739C73.4893 166.154 71.2443 166.801 68.9866 167.451L68.9856 167.452L63.3462 169.075C57.9036 170.643 54.585 171.586 52.1679 172.049C52.0156 172.079 51.8741 172.104 51.7428 172.127C51.7655 171.996 51.7913 171.855 51.8206 171.704C52.2859 169.298 53.2339 165.995 54.8085 160.577L56.44 154.964C57.0936 152.716 57.7435 150.481 58.1605 148.519C58.6259 146.329 58.977 143.74 58.616 140.833C58.1061 136.726 56.4865 132.834 53.9297 129.571C52.1199 127.262 50.0322 125.678 48.147 124.457C46.4586 123.363 44.4111 122.24 42.3527 121.111L37.2109 118.29C32.249 115.567 29.232 113.899 27.1938 112.525C27.0655 112.438 26.9472 112.357 26.8383 112.28C26.9472 112.204 27.0655 112.123 27.1938 112.036C29.232 110.662 32.249 108.994 37.2109 106.271L42.3521 103.45C44.411 102.321 46.4583 101.198 48.147 100.104C50.0322 98.883 52.1199 97.2992 53.9297 94.9896C56.4865 91.7269 58.1061 87.8349 58.616 83.7282C58.977 80.8213 58.6259 78.2319 58.1605 76.0416C57.7435 74.0796 57.0937 71.8447 56.4401 69.5972L56.3531 69.2979L54.8085 63.9836C53.2339 58.5661 52.2859 55.263 51.8206 52.857C51.7913 52.7054 51.7655 52.5646 51.7428 52.4339C51.8741 52.4565 52.0156 52.4822 52.1679 52.5114C54.585 52.9745 57.9036 53.9181 63.3462 55.4854L68.6852 57.0229L68.9856 57.1094C71.2437 57.7599 73.4891 58.4068 75.4603 58.8219C77.6608 59.2851 80.2622 59.6346 83.1827 59.2753C87.3084 58.7677 91.2186 57.1556 94.4965 54.6107C96.8168 52.8092 98.408 50.7312 99.6349 48.8548C100.734 47.174 101.862 45.1364 102.996 43.0872L105.831 37.9693C108.566 33.0303 110.242 30.0273 111.622 27.9986C111.709 27.8708 111.791 27.7531 111.868 27.6447C111.944 27.7531 112.026 27.8708 112.113 27.9986ZM84.4098 64.7526C67.4779 74.4829 57.0474 92.4654 57.0474 111.926C57.0474 131.387 67.4779 149.369 84.4098 159.1C101.342 168.83 122.203 168.83 139.134 159.1C156.066 149.369 166.497 131.387 166.497 111.926C166.497 92.4654 156.066 74.4829 139.134 64.7526C122.203 55.0222 101.342 55.0222 84.4098 64.7526Z" fill="url(#paint1_linear)"></path></g><g><path fill-rule="evenodd" clip-rule="evenodd" d="M95.7688 32.4486C101.019 22.9676 103.645 18.2271 107.112 16.6577C110.133 15.2899 113.602 15.2899 116.624 16.6577C119.874 18.129 122.385 22.3874 127.012 30.7259C127.32 31.2818 127.638 31.8561 127.967 32.4486L130.65 37.2935C133.181 41.865 134.447 44.1508 136.305 45.5933C137.944 46.8658 139.899 47.6719 141.962 47.9257C144.301 48.2134 146.82 47.488 151.857 46.0373L157.196 44.4999C167.644 41.4913 172.868 39.9869 176.435 41.3174C179.543 42.4771 181.996 44.9184 183.161 48.0125C184.497 51.5624 182.986 56.7622 179.963 67.1618L178.419 72.476C176.961 77.4904 176.233 79.9976 176.522 82.3254C176.777 84.3788 177.587 86.3248 178.865 87.9561C180.314 89.8056 182.611 91.0655 187.203 93.5854L192.071 96.2561C201.596 101.482 206.358 104.095 207.935 107.546C209.309 110.554 209.309 114.007 207.935 117.015C206.358 120.466 201.596 123.079 192.071 128.305L187.203 130.975C182.611 133.495 180.314 134.755 178.865 136.605C177.587 138.236 176.777 140.182 176.522 142.235C176.233 144.563 176.961 147.07 178.419 152.085L179.964 157.399C182.986 167.799 184.497 172.998 183.161 176.548C181.996 179.642 179.543 182.084 176.435 183.243C172.868 184.574 167.644 183.07 157.196 180.061L151.857 178.524C146.82 177.073 144.301 176.347 141.962 176.635C139.899 176.889 137.944 177.695 136.305 178.968C134.447 180.41 133.181 182.696 130.65 187.267L127.967 192.112C122.716 201.593 120.091 206.334 116.624 207.903C113.602 209.271 110.133 209.271 107.112 207.903C103.645 206.334 101.019 201.593 95.7688 192.112L93.0858 187.267C90.5541 182.696 89.2883 180.41 87.4303 178.968C85.7913 177.695 83.8362 176.889 81.7734 176.635C79.4347 176.347 76.9159 177.073 71.8782 178.524L66.5392 180.061C56.0913 183.07 50.8673 184.574 47.3008 183.243C44.1923 182.084 41.7397 179.642 40.5747 176.548C39.238 172.998 40.7493 167.799 43.7719 157.399L45.3165 152.085C46.7739 147.07 47.5026 144.563 47.2136 142.235C46.9586 140.182 46.1488 138.236 44.8704 136.605C43.4211 134.755 41.1248 133.495 36.532 130.975L31.6646 128.305C22.1395 123.079 17.3769 120.466 15.8002 117.015C14.426 114.007 14.426 110.554 15.8002 107.546C17.3769 104.095 22.1395 101.482 31.6646 96.2561L36.532 93.5854C41.1248 91.0655 43.4211 89.8056 44.8704 87.9561C46.1488 86.3248 46.9586 84.3788 47.2136 82.3254C47.5026 79.9976 46.7739 77.4904 45.3165 72.476L43.7719 67.1618C40.7493 56.7622 39.238 51.5624 40.5747 48.0125C41.7397 44.9184 44.1923 42.4771 47.3008 41.3174C50.8673 39.9869 56.0913 41.4913 66.5392 44.4999L71.8782 46.0373C76.9159 47.488 79.4347 48.2134 81.7734 47.9257C83.8362 47.6719 85.7913 46.8658 87.4303 45.5933C89.2883 44.1508 90.5541 41.865 93.0858 37.2935L95.7688 32.4486ZM117.905 37.9693C115.17 33.0303 113.493 30.0273 112.113 27.9986C112.026 27.8708 111.944 27.7531 111.868 27.6447C111.791 27.7531 111.709 27.8708 111.622 27.9986C110.242 30.0273 108.566 33.0303 105.831 37.9693L102.996 43.0872C101.862 45.1364 100.734 47.174 99.6348 48.8548C98.408 50.7312 96.8168 52.8092 94.4965 54.6107C91.2185 57.1556 87.3084 58.7677 83.1827 59.2753C80.2622 59.6346 77.6608 59.2851 75.4603 58.8219C73.4891 58.4068 71.2437 57.7599 68.9856 57.1094L68.6852 57.0229L63.3462 55.4854C57.9036 53.9181 54.585 52.9745 52.1679 52.5114C52.0156 52.4822 51.8741 52.4565 51.7428 52.4339C51.7655 52.5646 51.7913 52.7054 51.8206 52.857C52.2859 55.263 53.2339 58.5661 54.8085 63.9836L56.3531 69.2979L56.4401 69.5972C57.0937 71.8447 57.7435 74.0796 58.1605 76.0416C58.6259 78.2319 58.977 80.8213 58.616 83.7282C58.1061 87.8349 56.4865 91.7269 53.9297 94.9896C52.1199 97.2992 50.0322 98.883 48.147 100.104C46.4583 101.198 44.411 102.321 42.3521 103.45L37.2109 106.271C32.249 108.994 29.232 110.662 27.1938 112.036C27.0655 112.123 26.9472 112.204 26.8383 112.28C26.9472 112.357 27.0655 112.438 27.1938 112.525C29.232 113.899 32.249 115.567 37.2109 118.29L42.3527 121.111C44.4111 122.24 46.4586 123.363 48.147 124.457C50.0322 125.678 52.1199 127.262 53.9297 129.571C56.4865 132.834 58.1061 136.726 58.616 140.833C58.977 143.74 58.6259 146.329 58.1605 148.519C57.7435 150.481 57.0936 152.716 56.44 154.964L54.8085 160.577C53.2339 165.995 52.2859 169.298 51.8206 171.704C51.7913 171.855 51.7655 171.996 51.7428 172.127C51.8741 172.104 52.0156 172.079 52.1679 172.049C54.585 171.586 57.9036 170.643 63.3462 169.075L68.9856 167.452L68.9866 167.451C71.2443 166.801 73.4893 166.154 75.4603 165.739C77.6608 165.276 80.2622 164.926 83.1827 165.286C87.3084 165.793 91.2185 167.405 94.4965 169.95C96.8168 171.752 98.408 173.83 99.6348 175.706C100.734 177.387 101.862 179.425 102.997 181.474L105.831 186.592C108.566 191.531 110.242 194.534 111.622 196.562C111.666 196.626 111.708 196.687 111.749 196.746C111.79 196.805 111.829 196.862 111.868 196.916C111.944 196.808 112.026 196.69 112.113 196.562C113.493 194.534 115.17 191.531 117.905 186.592L120.739 181.474C121.873 179.425 123.001 177.387 124.101 175.706C125.327 173.83 126.919 171.752 129.239 169.95C132.517 167.405 136.427 165.793 140.553 165.286C143.473 164.926 146.075 165.276 148.275 165.739C150.246 166.154 152.492 166.801 154.75 167.452L160.389 169.075C165.832 170.643 169.15 171.586 171.568 172.049C171.72 172.079 171.861 172.104 171.993 172.127C171.97 171.996 171.944 171.855 171.915 171.704C171.449 169.298 170.501 165.995 168.927 160.577L167.295 154.964C167.254 154.823 167.214 154.683 167.173 154.543C166.561 152.438 165.966 150.359 165.575 148.519C165.109 146.329 164.758 143.74 165.119 140.833C165.629 136.726 167.249 132.834 169.806 129.571C171.616 127.262 173.703 125.678 175.588 124.457C177.277 123.363 179.324 122.24 181.383 121.111L186.524 118.29C191.486 115.567 194.503 113.899 196.542 112.525L196.579 112.5L196.618 112.473L196.65 112.451L196.651 112.451L196.69 112.424C196.736 112.392 196.781 112.362 196.824 112.332L196.897 112.28C196.788 112.204 196.67 112.123 196.542 112.036C194.503 110.662 191.486 108.994 186.524 106.271L181.383 103.451C179.324 102.321 177.277 101.198 175.588 100.104C173.703 98.883 171.616 97.2992 169.806 94.9896C167.249 91.7269 165.629 87.8349 165.119 83.7282C164.758 80.8213 165.109 78.2319 165.575 76.0416C165.966 74.2025 166.561 72.1237 167.173 70.0195L167.295 69.5984L167.295 69.5969L168.927 63.9836C170.501 58.5662 171.449 55.263 171.915 52.857C171.944 52.7054 171.97 52.5646 171.993 52.4339C171.861 52.4565 171.72 52.4822 171.568 52.5114C169.15 52.9745 165.832 53.9181 160.389 55.4854L154.75 57.1095C152.492 57.76 150.246 58.4068 148.275 58.8219C146.075 59.2851 143.473 59.6346 140.553 59.2753C136.427 58.7677 132.517 57.1556 129.239 54.6107C126.919 52.8092 125.327 50.7312 124.101 48.8548C123.001 47.1738 121.873 45.136 120.739 43.0867L117.905 37.9693Z" fill="white">
</path></g></g><defs><filter id="filter0_i" x="0.394531" y="0.152344" width="228.076" height="228.076" filterUnits="userSpaceOnUse" color-interpolation-filters="sRGB"><feFlood flood-opacity="0" result="BackgroundImageFix"></feFlood><feBlend mode="normal" in="SourceGraphic" in2="BackgroundImageFix" result="shape"></feBlend><feColorMatrix in="SourceAlpha" type="matrix" values="0 0 0 0 0 0 0 0 0 0 0 0 0 0 0 0 0 0 127 0" result="hardAlpha"></feColorMatrix><feOffset dx="3.99027" dy="3.99027"></feOffset><feGaussianBlur stdDeviation="3.99027"></feGaussianBlur><feComposite in2="hardAlpha" operator="arithmetic" k2="-1" k3="1"></feComposite><feColorMatrix type="matrix" values="0 0 0 0 0.55 0 0 0 0 0.55 0 0 0 0 0.55 0 0 0 0.1 0"></feColorMatrix><feBlend mode="normal" in2="shape" result="effect1_innerShadow"></feBlend></filter><filter id="filter1_i" x="7.18359" y="7.91211" width="209.534" height="211.502" filterUnits="userSpaceOnUse" color-interpolation-filters="sRGB"><feFlood flood-opacity="0" result="BackgroundImageFix"></feFlood><feBlend mode="normal" in="SourceGraphic" in2="BackgroundImageFix" result="shape"></feBlend><feColorMatrix in="SourceAlpha" type="matrix" values="0 0 0 0 0 0 0 0 0 0 0 0 0 0 0 0 0 0 127 0" result="hardAlpha"></feColorMatrix><feOffset dy="2.93779"></feOffset><feGaussianBlur stdDeviation="3.65225"></feGaussianBlur><feComposite in2="hardAlpha" operator="arithmetic" k2="-1" k3="1"></feComposite><feColorMatrix type="matrix" values="0 0 0 0 0 0 0 0 0 0 0 0 0 0 0 0 0 0 0.6 0"></feColorMatrix><feBlend mode="normal" in2="shape" result="effect1_innerShadow"></feBlend></filter><filter id="filter2_i" x="7.18359" y="7.91211" width="213.525" height="212.554" filterUnits="userSpaceOnUse" color-interpolation-filters="sRGB"><feFlood flood-opacity="0" result="BackgroundImageFix"></feFlood><feBlend mode="normal" in="SourceGraphic" in2="BackgroundImageFix" result="shape"></feBlend><feColorMatrix in="SourceAlpha" type="matrix" values="0 0 0 0 0 0 0 0 0 0 0 0 0 0 0 0 0 0 127 0" result="hardAlpha"></feColorMatrix><feOffset dx="3.99027" dy="3.99027"></feOffset><feGaussianBlur stdDeviation="3.99027"></feGaussianBlur><feComposite in2="hardAlpha" operator="arithmetic" k2="-1" k3="1"></feComposite><feColorMatrix type="matrix" values="0 0 0 0 0.55 0 0 0 0 0.55 0 0 0 0 0.55 0 0 0 0.5 0"></feColorMatrix><feBlend mode="normal" in2="shape" result="effect1_innerShadow"></feBlend></filter><linearGradient id="paint0_linear" x1="111.951" y1="7.91211" x2="111.951" y2="216.476" gradientUnits="userSpaceOnUse"><stop></stop><stop offset="1" stop-color="#002626"></stop></linearGradient><linearGradient id="paint1_linear" x1="111.951" y1="7.91211" x2="111.951" y2="216.476" gradientUnits="userSpaceOnUse"><stop></stop><stop offset="1" stop-color="#002626"></stop></linearGradient></defs>
<g filter="url(#filter0_i)"><g style="mix-blend-mode: screen;"><circle cx="112.437" cy="112.195" r="108.043" stroke="white" stroke-width="8"></circle></g><g style="mix-blend-mode: darken;" filter="url(#filter1_i)"><path d="M126.952 104.307C128.495 103.937 130.184 103.739 131.912 103.739C133.639 103.739 135.328 103.937 136.871 104.307C138.419 104.678 139.728 105.2 140.75 105.791C141.994 106.511 143.682 106.775 144.854 105.943L146.24 104.961C148.178 103.586 148.63 100.86 146.72 99.4482C146.198 99.0626 145.649 98.7054 145.081 98.3765C143.232 97.3063 141.121 96.5033 138.888 95.9682C136.651 95.4319 134.284 95.1621 131.912 95.1621C129.54 95.1621 127.172 95.4319 124.935 95.9682C122.702 96.5033 120.591 97.3063 118.742 98.3765C116.901 99.4423 115.267 100.805 114.074 102.472C113.543 103.214 113.365 103.973 113.328 104.133L113.324 104.15C113.255 104.441 113.212 104.717 113.185 104.926C113.128 105.356 113.091 105.852 113.062 106.349C113.005 107.362 112.971 108.69 112.953 110.186C112.917 113.193 112.941 117.085 112.989 120.945C113.037 124.813 113.108 128.68 113.168 131.647C113.192 132.849 113.214 133.905 113.232 134.753L113.244 135.313C113.254 135.775 113.261 136.15 113.267 136.426L113.27 136.611L113.271 136.679L113.273 136.757C113.273 136.781 113.273 136.802 113.274 136.818L113.274 136.847L113.274 136.874L113.275 136.876L113.275 136.877L113.277 136.878H119.565C120.85 136.878 121.873 135.841 121.847 134.563L121.846 134.559C121.784 131.554 121.67 126.111 121.605 120.84C121.557 116.996 121.534 113.189 121.569 110.289C121.577 109.651 121.587 109.065 121.601 108.54C121.629 107.428 122.107 106.351 123.074 105.791C124.095 105.2 125.404 104.678 126.952 104.307Z" fill="url(#paint0_linear)"></path><path d="M86.1307 105.391C87.5981 105.043 89.2115 104.856 90.8668 104.856C92.5222 104.856 94.1357 105.043 95.603 105.391C97.6985 105.888 100.108 105.256 101.182 103.397L101.385 103.045C102.571 100.991 101.857 98.3412 99.5947 97.6058C98.9451 97.3946 98.2785 97.2084 97.5991 97.0473C95.4442 96.5365 93.159 96.2787 90.8668 96.2787C88.5747 96.2787 86.2895 96.5365 84.1346 97.0473C81.9835 97.5572 79.9615 98.3195 78.201 99.3269C77.7477 99.5863 77.3094 99.8633 76.8895 100.158C74.9447 101.523 75.3747 104.251 77.3053 105.636L79.0125 106.86C80.0002 107.568 81.4403 107.367 82.4957 106.763C83.4312 106.227 84.6567 105.74 86.1307 105.391Z" fill="url(#paint1_linear)"></path></g><g filter="url(#filter2_i)"><path fill-rule="evenodd" clip-rule="evenodd" d="M57.0469 111.926C57.0469 92.4657 67.4773 74.4832 84.4092 64.7528C101.341 55.0225 122.202 55.0225 139.134 64.7528C156.066 74.4832 166.496 92.4657 166.496 111.926C166.496 131.387 156.066 149.369 139.134 159.1C122.202 168.83 101.341 168.83 84.4092 159.1C67.4773 149.369 57.0469 131.387 57.0469 111.926ZM131.91 103.739C130.182 103.739 128.494 103.937 126.951 104.307C125.403 104.678 124.093 105.2 123.072 105.791C122.106 106.351 121.627 107.428 121.599 108.54C121.586 109.065 121.575 109.651 121.568 110.289C121.533 113.189 121.556 116.996 121.603 120.84C121.669 126.111 121.782 131.555 121.845 134.559L121.845 134.563C121.872 135.841 120.848 136.878 119.564 136.878H113.275L113.274 136.878L113.273 136.876L113.273 136.874L113.273 136.848L113.272 136.818L113.271 136.757L113.27 136.679L113.269 136.611L113.265 136.426C113.26 136.15 113.252 135.775 113.242 135.313L113.231 134.753C113.213 133.905 113.191 132.849 113.166 131.647C113.107 128.68 113.035 124.813 112.987 120.946C112.939 117.085 112.915 113.193 112.951 110.186C112.97 108.69 113.003 107.362 113.061 106.349C113.089 105.852 113.127 105.357 113.184 104.927C113.211 104.717 113.253 104.441 113.323 104.15L113.327 104.134C113.364 103.974 113.541 103.214 114.072 102.473C115.266 100.805 116.899 99.4425 118.741 98.3768C120.59 97.3066 122.701 96.5036 124.933 95.9684C127.17 95.4321 129.538 95.1624 131.91 95.1624C134.282 95.1624 136.65 95.4321 138.887 95.9684C141.119 96.5036 143.231 97.3066 145.08 98.3768C145.648 98.7057 146.196 99.0628 146.718 99.4485C148.629 100.86 148.177 103.587 146.239 104.961L144.853 105.944C143.68 106.775 141.993 106.512 140.748 105.791C139.727 105.2 138.417 104.678 136.869 104.307C135.327 103.937 133.638 103.739 131.91 103.739ZM90.8654 104.856C89.21 104.856 87.5966 105.043 86.1293 105.391C84.6552 105.741 83.4298 106.228 82.4943 106.763C81.4389 107.367 79.9987 107.569 79.011 106.86L77.3038 105.636C75.3732 104.251 74.9433 101.523 76.8881 100.158C77.308 99.8636 77.7463 99.5865 78.1996 99.3271C79.96 98.3197 81.9821 97.5574 84.1332 97.0476C86.2881 96.5368 88.5733 96.279 90.8654 96.279C93.1576 96.279 95.4427 96.5368 97.5976 97.0476C98.2771 97.2086 98.9437 97.3949 99.5932 97.6061C101.855 98.3415 102.57 100.992 101.384 103.045L101.181 103.397C100.107 105.256 97.6971 105.888 95.6015 105.391C94.1342 105.043 92.5208 104.856 90.8654 104.856Z" fill="white"></path></g></g><defs><filter id="filter0_i" x="0.394531" y="0.152344" width="228.076" height="228.076" filterUnits="userSpaceOnUse" color-interpolation-filters="sRGB"><feFlood flood-opacity="0" result="BackgroundImageFix"></feFlood><feBlend mode="normal" in="SourceGraphic" in2="BackgroundImageFix" result="shape"></feBlend><feColorMatrix in="SourceAlpha" type="matrix" values="0 0 0 0 0 0 0 0 0 0 0 0 0 0 0 0 0 0 127 0" result="hardAlpha"></feColorMatrix><feOffset dx="3.99027" dy="3.99027"></feOffset><feGaussianBlur stdDeviation="3.99027"></feGaussianBlur><feComposite in2="hardAlpha" operator="arithmetic" k2="-1" k3="1"></feComposite><feColorMatrix type="matrix" values="0 0 0 0 0.55 0 0 0 0 0.55 0 0 0 0 0.55 0 0 0 0.1 0"></feColorMatrix><feBlend mode="normal" in2="shape" result="effect1_innerShadow"></feBlend></filter><filter id="filter1_i" x="75.627" y="95.1621" width="72.3172" height="44.6532" filterUnits="userSpaceOnUse" color-interpolation-filters="sRGB"><feFlood flood-opacity="0" result="BackgroundImageFix"></feFlood><feBlend mode="normal" in="SourceGraphic" in2="BackgroundImageFix" result="shape"></feBlend><feColorMatrix in="SourceAlpha" type="matrix" values="0 0 0 0 0 0 0 0 0 0 0 0 0 0 0 0 0 0 127 0" result="hardAlpha"></feColorMatrix><feOffset dy="2.93779"></feOffset><feGaussianBlur stdDeviation="3.65225"></feGaussianBlur><feComposite in2="hardAlpha" operator="arithmetic" k2="-1" k3="1"></feComposite><feColorMatrix type="matrix" values="0 0 0 0 0 0 0 0 0 0 0 0 0 0 0 0 0 0 0.6 0"></feColorMatrix><feBlend mode="normal" in2="shape" result="effect1_innerShadow"></feBlend></filter><filter id="filter2_i" x="57.0469" y="57.4551" width="113.44" height="112.933" filterUnits="userSpaceOnUse" color-interpolation-filters="sRGB"><feFlood flood-opacity="0" result="BackgroundImageFix"></feFlood><feBlend mode="normal" in="SourceGraphic" in2="BackgroundImageFix" result="shape"></feBlend><feColorMatrix in="SourceAlpha" type="matrix" values="0 0 0 0 0 0 0 0 0 0 0 0 0 0 0 0 0 0 127 0" result="hardAlpha"></feColorMatrix><feOffset dx="3.99027" dy="3.99027"></feOffset><feGaussianBlur stdDeviation="3.99027"></feGaussianBlur><feComposite in2="hardAlpha" operator="arithmetic" k2="-1" k3="1"></feComposite><feColorMatrix type="matrix" values="0 0 0 0 0.55 0 0 0 0 0.55 0 0 0 0 0.55 0 0 0 0.5 0"></feColorMatrix><feBlend mode="normal" in2="shape" result="effect1_innerShadow"></feBlend></filter><linearGradient id="paint0_linear" x1="111.951" y1="7.91211" x2="111.951" y2="216.476" gradientUnits="userSpaceOnUse"><stop></stop><stop offset="1" stop-color="#002626"></stop></linearGradient><linearGradient id="paint1_linear" x1="111.951" y1="7.91211" x2="111.951" y2="216.476" gradientUnits="userSpaceOnUse"><stop></stop><stop offset="1" stop-color="#002626"></stop></linearGradient></defs></svg>