<svg xmlns="http://www.w3.org/2000/svg" width="246" height="246" preserveAspectRatio="xMidYMid meet" xmlns:v="https://vecta.io/nano"><defs><clipPath id="A"><path d="M0 0h1920v800H0z"/></clipPath><filter height="100%" width="100%" y="0%" x="0%" /><linearGradient y2="1.043" x2=".19" y1=".089" x1=".61" spreadMethod="pad" id="C"><stop stop-color="#ea6a13" offset="0%"/><stop stop-color="#ef791b" offset="30%"/><stop stop-color="#f58823" offset="60%"/></linearGradient><linearGradient y2=".785" x2=".836" y1=".302" x1=".414" spreadMethod="pad" id="D"><stop stop-color="#aa0b31" offset="0%"/><stop stop-color="#b71538" offset="30%"/><stop stop-color="#c3203f" offset="60%"/></linearGradient><linearGradient y2=".495" x2=".999" y1=".495" x1="-.001" spreadMethod="pad" id="E"><stop stop-color="#1b2149" offset="0%"/><stop stop-color="#1f2453" offset="30%"/><stop stop-color="#23285c" offset="60%"/></linearGradient><linearGradient y2=".329" x2="-.039" y1=".527" x1=".954" spreadMethod="pad" id="F"><stop stop-color="#1b2149" offset="0%"/><stop stop-color="#1f2453" offset="30%"/><stop stop-color="#23285c" offset="60%"/></linearGradient><linearGradient y2=".045" x2=".837" y1=".907" x1=".354" spreadMethod="pad" id="G"><stop stop-color="#ea6a13" offset="0%"/><stop stop-color="#ef791b" offset="30%"/><stop stop-color="#f58823" offset="60%"/></linearGradient><linearGradient y2=".281" x2=".336" y1=".786" x1=".648" spreadMethod="pad" id="H"><stop stop-color="#aa0b31" offset="0%"/><stop stop-color="#b71538" offset="30%"/><stop stop-color="#c3203f" offset="60%"/></linearGradient></defs><g clip-path="url(#A)"><g transform="translate(712.542 366.359)"><path d="M-653.698-280.223a200.38 200.38 0 0 1 62.24-36.271 201 201 0 0 0-24.19-6.661l-23.498-4.903-32.703-6.825-.075.066-1.991 1.835-2.223 2.144-.951.949c-16.708 16.914-28.088 38.298-32.91 61.84-3.294 16.084-3.389 32.333-.282 48.318l21.624-24.134 15.887-17.732c5.886-6.569 12.302-12.835 19.072-18.626z" fill="url(#C)"/></g><g transform="translate(694.798 440.965)"><path d="M-652.123-224.801l7.161 5.703.14.105.151.112 1.475 1.059.199.143.416.294 1.369.943.749.506 1.314.869.834.537 1.28.81.762.468.147.09.142.087 1.097.664.761.445.272.157.338.197.811.47 2.124 1.177.549.291.332.175 1.397.735.645.325.287.145 1.38.687.772.371.153.074 1.424.67.893.408 1.511.672.82.356 1.689.707.252.104.406.166 2.15.845.006.313.108.041c.001.001.103-.269.103-.269l3.958 1.427-10.297-30.973-7.2-21.657a201.77 201.77 0 0 1-7.068-27.696c-4.248-23.509-4.289-47.336-.126-70.844a200.52 200.52 0 0 0-17.732 17.458l-15.887 17.732-22.198 24.776a122.01 122.01 0 0 0 9.884 28.936l.068.139.086.178 1.092 2.152.132.258.198.383.995 1.846.184.338.28.513.622 1.09.195.338.21.367.531.919.573.95.185.304.145.239.62 1.016.978 1.537.155.242.411.637 1.229 1.836.11.164.212.311 1.529 2.174a122.56 122.56 0 0 0 17.559 19.546l.116.104 1.655 1.457.177.151z" fill="url(#D)"/></g><g transform="translate(783.917 480.396)"><path d="M-660.757-284.063c-23.192-8.107-44.462-20.227-63.246-36.034 1.659 8.773 3.923 17.496 6.734 25.951l7.2 21.656 10.57 31.794c12.469 4.1 25.43 6.179 38.528 6.179a122.02 122.02 0 0 0 38.381-6.178l.9-.297 2.259-.79.668-.243a123.5 123.5 0 0 0 6.243-2.494l.696-.302 2.833-1.284.503-.24.249-.12 2.33-1.143 1.078-.548 1.789-.947 1.735-.944 1.647-.937.411-.241.231-.135 2.886-1.739 1.261-.792c.994-.635 1.974-1.283 2.944-1.941l.389-.261.498-.334c1.188-.822 2.355-1.665 3.506-2.522l.902-.688.395-.303 2.205-1.726 1.456-1.185 2.088-1.774.45-.387.041-.035-31.913-6.888-24.865-5.367a202.25 202.25 0 0 1-23.982-6.761z" fill="url(#E)"/></g><g transform="translate(765.573 319.748)"><path d="M-642.568-270.434c22.844 8.06 43.821 20.023 62.371 35.568a200.97 200.97 0 0 0-6.275-24.344l-7.377-22.614-10.345-31.707c-12.505-4.126-25.504-6.217-38.645-6.217-13.031 0-25.904 2.065-38.261 6.138l-.89.293-2.394.834-.398.146a124.17 124.17 0 0 0-6.512 2.591l-.588.256-2.929 1.326-.411.196-.253.121-2.424 1.188-1.048.533-1.828.967-1.718.936-1.668.948-.403.236-.23.135-2.883 1.737-1.26.79c-.991.632-1.967 1.279-2.933 1.935l-.273.182-.329.222-.167.114-.253.174c-1.144.793-2.269 1.603-3.378 2.429l-.9.686-.4.307-2.202 1.723-1.457 1.186-2.074 1.762-.245.212-.255.22 31.861 6.65 23.498 4.903c8.709 1.817 17.414 4.252 25.876 7.238z" fill="url(#F)"/></g><g transform="translate(837.427 434.042)"><path d="M-591.703-307.531l.048-4.407v-.214l-.001-.296-.121-4.319-.025-.526-.296-4.412c0-.002-.024-.269-.024-.269l-1.185-9.347-.666-3.646-21.599 24.166-15.656 17.517c-6.077 6.799-12.701 13.26-19.689 19.205-18.271 15.543-38.931 27.585-61.431 35.806 7.328 2.495 14.824 4.575 22.305 6.19l24.864 5.367 32.748 7.069c19.377-17.374 32.949-41.063 38.23-66.736l.128-.607.234-1.144.061-.312.077-.399a121.93 121.93 0 0 0 .657-3.945l.034-.219.102-.682c.189-1.311.356-2.626.502-3.944l.075-.709.376-4.229.019-.297.015-.241a121.24 121.24 0 0 0 .212-4.267l.006-.153z" fill="url(#G)"/></g><g transform="translate(854.954 359.663)"><path d="M-631.049-306.715c-5.463-7.907-11.869-15.172-19.037-21.591l-.682-.61-2.651-2.274-.175-.147-.252-.21-1.409-1.142-.619-.493-1.351-1.052-.703-.534-1.335-.998-.522-.378-.205-.148-1.353-.971-.311-.214-.239-.165-2.599-1.756-.289-.19-.672-.44-.875-.554-.251-.158-1.098-.685-1.085-.657-1.187-.704-1.032-.597-1.311-.738-.164-.091-.774-.428-1.613-.86-.278-.147-.385-.203-2.34-1.18-.142-.069c-.003-.001-.133-.063-.133-.063l-2.101-1.001-.388-.178-.239-.108-1.791-.805-.637-.276-1.844-.779-.652-.268-1.967-.779-.19-.074-.274-.106a124.91 124.91 0 0 0-4.01-1.453l10.079 30.893 7.377 22.614c2.764 8.471 4.989 17.247 6.612 26.082a200.69 200.69 0 0 1 .188 71.775c6.495-5.617 12.661-11.68 18.345-18.039l15.657-17.517 22.17-24.805c-1.775-8.451-4.451-16.725-7.957-24.601l-1.129-2.461-.185-.386-.121-.25-.915-1.879-.414-.809-.168-.327-.154-.302-.577-1.115-.753-1.39-.108-.197-.209-.385-.336-.614-.39-.682-.23-.399-.164-.287-.733-1.269-.65-1.074-.201-.329-.217-.359-.481-.786-1.159-1.813-.171-.267-.244-.377-1.513-2.248.195-.226c-.015-.021-.026-.039-.041-.061l-.238.164z" fill="url(#H)"/></g></g></svg>