<svg xmlns="http://www.w3.org/2000/svg" width="" height="" viewBox="0 0 46 50">



<mask fill="white" id="path-26-inside-1">
  <path id="svg_1" d="m52.6477,49.3412l0,-0.2011l-0.201,0l-0.2011,0l0,-0.201l0,-0.2011l-0.201,0l-0.2011,0l0,-0.201l0,-0.2011l-0.201,0l-0.2011,0l0,-2.2115l0,-2.2116l0.2011,0l0.201,0l0,-1.8094l0,-1.8095l0.2011,0l0.201,0l0,-4.8251l0,-4.8252l-0.201,0l-0.2011,0l0,-0.8042l0,-0.8042l1.4074,0l1.4073,0l0,0.8042l0,0.8042l-0.201,0l-0.2011,0l0,4.8252l0,4.8251l0.2011,0l0.201,0l0,1.8095l0,1.8094l0.2011,0l0.201,0l0,2.2116l0,2.2115l-0.201,0l-0.2011,0l0,0.2011l0,0.201l-0.201,0l-0.2011,0l0,0.2011l0,0.201l-0.201,0l-0.2011,0l0,0.2011l0,0.201l-0.6031,0l-0.6032,0l0,-0.201zm0.8143,-0.387c0.015,-0.181 0.0251,-0.191 0.201,-0.2061c0.1759,-0.0151 0.186,-0.0251 0.2011,-0.2011c0.015,-0.1759 0.0251,-0.1859 0.201,-0.201c0.1759,-0.0151 0.186,-0.0251 0.2011,-0.2011c0.015,-0.1759 0.0251,-0.1859 0.206,-0.201l0.186,-0.0151l0,-1.8094l0,-1.8045l-0.201,0l-0.2011,0l0,-1.8094l0,-1.8095l-0.201,0l-0.2011,0l0,-4.6241l0,-4.6241l-0.6031,0l-0.6032,0l0,4.6241l0,4.6241l-0.201,0l-0.2011,0l0,1.8095l0,1.8094l-0.201,0l-0.2011,0l0,1.8095l0,1.8094l0.2011,0l0.201,0l0,0.2011l0,0.201l0.2011,0c0.201,0 0.201,0 0.201,0.1961c0,0.196 0.005,0.201 0.191,0.2161c0.1759,0.0151 0.186,0.0251 0.2011,0.2061c0.015,0.1809 0.0201,0.1859 0.2111,0.1859c0.191,0 0.196,-0.005 0.2111,-0.1859zm0.4021,-18.2956l0.015,-0.392l0.191,-0.0151l0.186,-0.0151l0,-0.4021l0,-0.397l-1.0052,0l-1.0053,0l0,0.397l0,0.4021l0.191,0.0151l0.186,0.0151l0.0151,0.392l0.015,0.3871l0.5982,0l0.5981,0l0.0151,-0.3871z"/>
 </mask><g id="svg_70">
   <path id="svg_2" fill="#E8D435" d="m27.2603,23.2765l0,-1.6591l4.3324,0l0,-1.6957l4.2984,0l0,-2.3301l4.3889,0l0,-1.3542l3.4727,0l0,-2.1593l-0.8257,0l0,-2.818l-2.613,0l0,-2.8181l-2.613,0l0,-2.80586l-2.613,0l0,-2.81807l-2.6017,0l0,-2.81807l-15.6553,0l0,2.81807l-2.613,0l0,2.81807l-2.613,0l0,2.80586l-2.6017,0l0,2.8181l-2.613,0l0,2.818l-2.613,0l0,16.884l2.613,0l0,2.8059l2.613,0l0,2.8181l2.6017,0l0,2.818l2.613,0l0,2.8059l2.613,0l0,2.8181l15.6553,0l0,-2.8181l2.6017,0l0,-2.8059l2.613,0l0,-2.818l2.613,0l0,-2.8181l2.613,0l0,-2.8059l-2.647,0l0,-0.9637l-6.0517,0l0,-1.8543l-4.3776,0l0,-1.9031l-4.1966,0l0,-0.915l-0.9954,0l-2.613,0l0,-2.0495l5.2146,0z"/>
   <path id="svg_3" fill="#6B223C" d="m23.2449,13.5903l-5.2146,0l0,5.624l5.2146,0l0,-5.624z"/>
   <path id="svg_4" fill="white" d="m19.8062,13.5903l-1.7759,0l0,1.9153l1.7759,0l0,-1.9153z"/>
   <rect id="svg_5" fill="white" height="2.37955" width="8.54391" y="13.9581" x="14.3145"/>
   <rect id="svg_6" fill="white" height="2.37955" width="8.54391" y="13.7775" x="31.5659"/>
   <rect id="svg_7" fill="white" height="2.37955" width="8.54391" y="15.5759" x="15.9512"/>
   <rect id="svg_8" fill="white" height="2.37955" width="8.54391" y="15.1519" x="33.418"/>
   <rect id="svg_9" fill="white" height="2.37955" width="8.54391" y="16.3376" x="16.6313"/>
   <path id="svg_10" fill="black" d="m16.3595,19.0082l-0.0173,-0.6729l-0.7321,-0.0157l-0.732,-0.0158l-0.0173,-0.6676l-0.0173,-0.6676l-0.7321,-0.0157l-0.7321,-0.0158l-0.0173,-0.6676l-0.0173,-0.6675l-0.6052,-0.0106c-0.3344,-0.0052 -0.6514,-0.0105 -0.7033,-0.0157c-0.0865,0 -0.1038,-0.0789 -0.1153,-0.6413l-0.0173,-0.6466l-4.4501,-0.0157l-4.4559,-0.0105l0,-0.6308l0,-0.6308l21.5013,0l21.5013,0l0,1.2878l0,1.2879l-0.6802,0c-0.4496,0 -0.7032,0.021 -0.7493,0.0631c-0.0462,0.042 -0.0692,0.268 -0.0692,0.6833l0,0.615l-0.7321,0.0158l-0.7379,0.0157l-0.0172,0.6729l-0.0173,0.6675l-5.1246,0l-5.1246,0l-0.0173,-0.6675l-0.0173,-0.6729l-0.7321,-0.0157l-0.7321,-0.0158l-0.0172,-0.6676l-0.0173,-0.6675l-1.493,-0.0158c-1.1587,-0.0105 -1.5045,0.0052 -1.5449,0.0526c-0.0231,0.0367 -0.0461,0.3469 -0.0461,0.6886l0,0.615l-0.6802,0c-0.4496,0 -0.7033,0.021 -0.7494,0.063c-0.0461,0.0421 -0.0692,0.2734 -0.0692,0.6834l0,0.6202l-0.6859,0c-0.4381,0 -0.7033,0.0211 -0.7321,0.0579c-0.0173,0.0315 -0.0346,0.3364 -0.0288,0.6833l0.0115,0.6255l-4.4098,0l-4.4098,0l-0.0173,-0.6675zm2.9975,-1.2616l0.0173,-0.6465l0.6572,0l0.6571,0l0.0173,0.6465l0.0173,0.6413l0.7955,0.0158l0.7955,0.0157l-0.0173,-0.7254l-0.0173,-0.7254l-0.7379,-0.0157l-0.7378,-0.0158l0.0115,-0.6255c0.0058,-0.6571 -0.0115,-0.7464 -0.1671,-0.7307c-0.0577,0.0053 -0.3632,0.0053 -0.686,0l-0.588,-0.0052l-0.0173,-0.6413l-0.0173,-0.6466l-0.807,0l-0.807,0l-0.0173,0.6413l-0.0173,0.6413l-0.5303,0.0158c-0.8589,0.0263 -0.784,0.0893 -0.8013,-0.6571l-0.0173,-0.6413l-0.7782,0l-0.7782,0l0,0.7097l0,0.7096l0.7321,0.0158l0.7321,0.0157l0.0173,0.6676l0.0173,0.6676l0.709,0.0157l0.7033,0.0158l0,0.6203c0,0.3416 0.0173,0.636 0.0403,0.657c0.0231,0.0158 0.392,0.0263 0.8186,0.0211l0.7839,-0.0158l0.0173,-0.6413zm16.3134,-0.7096c0.0461,-0.0421 0.0691,-0.2734 0.0691,-0.6834l0,-0.6202l0.663,0l0.6571,0l0.0173,0.6728l0.0173,0.6676l0.7782,0l0.7782,0l0.0173,-0.6308c0.023,-0.9357 0.0864,-0.8673 -0.7667,-0.8673l-0.7206,0l0,-0.6571l0,-0.6623l-0.7897,0.0158l-0.7955,0.0157l-0.0173,0.6466l-0.0173,0.6413l-0.6571,0l-0.6572,0l-0.0172,-0.6413l-0.0173,-0.6466l-0.7955,-0.0157l-0.7955,-0.0158l0.0173,0.7254l0.0173,0.7254l0.709,0.0158l0.7033,0.0157l0,0.615c0,0.4153 0.023,0.6413 0.0691,0.6834c0.098,0.0893 1.4354,0.0893 1.5334,0z"/>
   <path id="svg_11" fill="black" d="m0,14.9712l0,-0.6045l1.4123,0l1.4123,0l0,0.6045l0,0.6045l-1.4123,0l-1.4123,0l0,-0.6045z"/>
   <path id="svg_12" fill="black" d="m29.8431,32.5033l0,-0.3163l0.3162,0l0.3163,0l0,-0.6325l0,-0.6325l-0.3163,0l-0.3162,0l0,-0.3162l0,-0.3163l-0.3163,0l-0.3163,0l0,-0.3163l0,-0.3162l-0.3162,0l-0.3163,0l0,-0.3163l0,-0.3162l-0.3163,0l-0.3162,0l0,-0.3163l0,-0.3163l-0.3163,0l-0.3163,0l0,-0.3162l0,-0.3163l-0.3162,0l-0.3163,0l0,-0.3162l0,-0.3163l-0.3163,0l-0.3162,0l0,-0.3163l0,-0.3162l-0.3163,0l-0.3163,0l0,-0.3163l0,-0.3162l-0.3162,0l-0.3163,0l0,-0.3163l0,-0.3163l-0.3163,0l-0.3162,0l0,-0.3162l0,-0.3163l-0.3163,0l-0.3163,0l0,-0.3162l0,-0.3163l-0.3162,0l-0.3163,0l0,-0.3163l0,-0.3162l-0.6325,0l-0.6326,0l0,0.3162l0,0.3163l-0.3162,0l-0.3163,0l0,0.6325l0,0.6325l0.3163,0l0.3162,0l0,0.3163l0,0.3163l0.3163,0l0.3163,0l0,0.3162l0,0.3163l0.3162,0l0.3163,0l0,0.3162l0,0.3163l0.3163,0l0.3162,0l0,0.3163l0,0.3162l0.3163,0l0.3163,0l0,0.3163l0,0.3162l0.3162,0l0.3163,0l0,0.3163l0,0.3163l0.3163,0l0.3162,0l0,0.3162l0,0.3163l0.3163,0l0.3163,0l0,0.3162l0,0.3163l0.3162,0l0.3163,0l0,0.3163l0,0.3162l0.3163,0l0.3162,0l0,0.3163l0,0.3162l0.3163,0l0.3163,0l0,0.3163l0,0.3162l0.3162,0l0.3163,0l0,0.3163l0,0.3163l0.6325,0l0.6326,0l0,-0.3163zm-1.1702,-0.9488l0,-0.5376l0.5376,0l0.5377,0l0,0.5376l0,0.5377l-0.5377,0l-0.5376,0l0,-0.5377zm-1.36,-0.9487l0,-0.3163l-0.3162,0l-0.3163,0l0,-0.3163l0,-0.3162l-0.3163,0l-0.3162,0l0,-0.3163l0,-0.3162l-0.3163,0l-0.3163,0l0,-0.3163l0,-0.3163l-0.3162,0l-0.3163,0l0,-0.3162l0,-0.3163l-0.3163,0l-0.3162,0l0,-0.6325l0,-0.6325l0.6325,0l0.6325,0l0,0.3162l0,0.3163l0.3163,0l0.3163,0l0,0.3163l0,0.3162l0.3162,0l0.3163,0l0,0.3163l0,0.3162l0.3163,0l0.3162,0l0,0.3163l0,0.3163l0.3163,0l0.3163,0l0,0.3162l0,0.3163l0.3162,0l0.3163,0l0,0.6325l0,0.6325l-0.6325,0l-0.6326,0l0,-0.3162zm-4.3328,-4.5226l0,-0.3162l-0.3163,0l-0.3163,0l0,-0.3163l0,-0.3162l-0.3162,0l-0.3163,0l0,-0.5377l0,-0.5376l0.5377,0l0.5376,0l0,0.3162l0,0.3163l0.3163,0l0.3163,0l0,0.3163l0,0.3162l0.3162,0l0.3163,0l0,0.5377l0,0.5376l-0.5377,0l-0.5376,0l0,-0.3163z"/>
   <path id="svg_13" fill="black" d="m31.1082,29.6568l0,-0.6325l0.3163,0l0.3162,0l0,-0.6326l0,-0.6325l-0.3162,0l-0.3163,0l0,-0.6325l0,-0.6325l0.3163,0l0.3162,0l0,-0.6325l0,-0.6326l-0.3162,0l-0.3163,0l0,-0.6325l0,-0.6325l-0.3163,0l-0.3162,0l0,0.6325l0,0.6325l0.3162,0l0.3163,0l0,0.6326l0,0.6325l-0.3163,0l-0.3162,0l0,0.6325l0,0.6325l0.3162,0l0.3163,0l0,0.6325l0,0.6326l-0.3163,0l-0.3162,0l0,-0.3163l0,-0.3163l-0.3163,0l-0.3163,0l0,-0.3162l0,-0.3163l-0.3162,0l-0.3163,0l0,-0.6325l0,-0.6325l0.3163,0l0.3162,0l0,-0.6325l0,-0.6326l-0.3162,0l-0.3163,0l0,-0.6325l0,-0.6325l-0.3163,0l-0.3162,0l0,0.6325l0,0.6325l0.3162,0l0.3163,0l0,0.6326l0,0.6325l-0.3163,0l-0.3162,0l0,0.6325l0,0.6325l0.3162,0l0.3163,0l0,0.3163l0,0.3162l0.3163,0l0.3162,0l0,0.3163l0,0.3163l0.3163,0l0.3163,0l0,0.6325l0,0.6325l0.3162,0l0.3163,0l0,-0.6325z"/>
   <path id="svg_14" fill="#FEC408" d="m24.1504,25.8617l0,-0.6326l-0.3163,0l-0.3162,0l0,-0.3162l0,-0.3163l-0.3163,0l-0.3163,0l0,-0.3162l0,-0.3163l-0.6325,0l-0.6325,0l0,0.6325l0,0.6325l0.3162,0l0.3163,0l0,0.3163l0,0.3163l0.3163,0l0.3162,0l0,0.3162l0,0.3163l0.6326,0l0.6325,0l0,-0.6325z"/>
   <path id="svg_15" fill="#FE0C0B" d="m29.8428,31.8232l0,-0.3637l-0.2246,0c-0.2878,0 -0.3131,-0.0253 -0.3131,-0.3131l0,-0.2245l-0.3637,0l-0.3637,0l0,0.6325l0,0.6325l0.6325,0l0.6326,0l0,-0.3637z"/>
   <path id="svg_16" fill="#FB730C" d="m29.8396,31.2951l0.0032,-0.3732l-0.3732,0.0031c-0.2024,0.0032 -0.3447,0.0095 -0.3163,0.019c0.0475,0.0127 0.0569,0.0538 0.0569,0.2657c0,0.3289 0.0159,0.3447 0.3448,0.3447c0.2119,0 0.253,0.0095 0.2656,0.0569c0.0095,0.0285 0.0158,-0.1138 0.019,-0.3162z"/>
   <path id="svg_17" fill="#E91514" d="m29.8364,31.8643l-0.0063,-0.3257l-0.0095,0.2783l-0.0126,0.2751l-0.5661,0l-0.5693,0l0,-0.5692l0,-0.5661l0.2751,-0.0127l0.2784,-0.0095l-0.3258,-0.0063l-0.3226,-0.0063l0,0.6325l0,0.6325l0.6325,0l0.6326,0l-0.0064,-0.3226z"/>
   <path id="svg_24" stroke-width="0.00595" stroke="black" fill="#FF1616" d="m22.2955,48.4839l-0.198,0l0,-0.1981l0,-0.201l-0.003,0l0,-0.003l-0.2011,0l-0.198,0l0,-1.9573l0,-1.9572l0.198,0l0.2011,0l0,-0.003l0.003,0l0,-1.8094l0,-1.8065l0.198,0l0.2011,0l0,-0.003l0.003,0l0,-4.6241l0,-4.6212l0.7509,0l0.751,0l0,4.6212l0,4.6241l0.003,0l0,0.003l0.201,0l0.1981,0l0,1.8065l0,1.8094l0.003,0l0,0.003l0.201,0l0.1981,0l0,1.9522l0,1.9575l-0.1833,0.0149c-0.0452,0.0037 -0.0799,0.0072 -0.1068,0.0131c-0.0268,0.0058 -0.0462,0.0142 -0.0602,0.0279c-0.0141,0.0138 -0.0226,0.0326 -0.0286,0.0588c-0.0059,0.0262 -0.0094,0.06 -0.0132,0.1039c-0.0037,0.044 -0.0072,0.0775 -0.0129,0.1031c-0.0058,0.0257 -0.0138,0.0433 -0.0264,0.0559c-0.0126,0.0126 -0.0302,0.0206 -0.0559,0.0264c-0.0257,0.0058 -0.0591,0.0092 -0.1031,0.013c-0.0439,0.0037 -0.0778,0.0072 -0.1039,0.0131c-0.0262,0.0058 -0.045,0.0142 -0.0588,0.0279c-0.0137,0.0138 -0.0221,0.0326 -0.028,0.0588c-0.0058,0.0262 -0.0093,0.06 -0.0131,0.1039c-0.0037,0.044 -0.0072,0.0775 -0.0129,0.1031c-0.0058,0.0257 -0.0138,0.0433 -0.0264,0.0559c-0.0126,0.0126 -0.0302,0.0206 -0.0559,0.0264c-0.0257,0.0058 -0.0591,0.0092 -0.1031,0.013c-0.0439,0.0037 -0.0778,0.0072 -0.1039,0.0131c-0.0262,0.006 -0.045,0.0145 -0.0588,0.0286c-0.0138,0.0141 -0.0221,0.0334 -0.028,0.0603c-0.0058,0.0268 -0.0093,0.0616 -0.0131,0.1068l-0.0148,0.1832l-0.3441,0l-0.344,0l-0.0149,-0.1832c-0.0038,-0.0452 -0.0072,-0.08 -0.0131,-0.1068c-0.0059,-0.0269 -0.0142,-0.0462 -0.028,-0.0603c-0.0137,-0.0141 -0.0326,-0.0226 -0.0588,-0.0286c-0.0261,-0.0059 -0.0599,-0.0094 -0.1039,-0.0131l-0.0002,0.0029l0.0002,-0.0029c-0.0465,-0.0038 -0.0815,-0.0069 -0.1079,-0.0125c-0.0264,-0.0056 -0.0437,-0.0136 -0.0553,-0.0268c-0.0117,-0.0131 -0.018,-0.0318 -0.0214,-0.0599c-0.0033,-0.0281 -0.0036,-0.0649 -0.0036,-0.114l0,-0.0002c0,-0.0488 0,-0.0857 -0.0032,-0.1135c-0.0032,-0.0277 -0.0096,-0.047 -0.0229,-0.0599c-0.0133,-0.013 -0.033,-0.0192 -0.0614,-0.0223c-0.0285,-0.0031 -0.0663,-0.0031 -0.1164,-0.0031l-0.0002,0z"/>
   <path id="svg_25" stroke-width="0.00595" stroke="black" fill="#FF1616" d="m22.0977,29.8346l0,-0.5449l1.1531,0l1.153,0l0,0.5449l0,0.5501l-0.1832,0.0149l0,0l-0.191,0.0151l-0.0018,-0.0224l-0.0009,0.0252l-0.0151,0.3921l-0.015,0.3841l-0.746,0l-0.7461,0l-0.015,-0.3841l0,0l-0.015,-0.3921l0.0219,-0.0008l-0.0247,-0.002l-0.1859,-0.0151l0,0l-0.1883,-0.0149l0,-0.5501z"/>
   <path id="svg_26" mask="url(#path-26-inside-1)" stroke-width="0.01189" stroke="black" fill="black" d="m22.6477,49.3412l0,-0.2011l-0.201,0l-0.2011,0l0,-0.201l0,-0.2011l-0.201,0l-0.2011,0l0,-0.201l0,-0.2011l-0.201,0l-0.2011,0l0,-2.2115l0,-2.2116l0.2011,0l0.201,0l0,-1.8094l0,-1.8095l0.2011,0l0.201,0l0,-4.8251l0,-4.8252l-0.201,0l-0.2011,0l0,-0.8042l0,-0.8042l1.4074,0l1.4073,0l0,0.8042l0,0.8042l-0.201,0l-0.2011,0l0,4.8252l0,4.8251l0.2011,0l0.201,0l0,1.8095l0,1.8094l0.2011,0l0.201,0l0,2.2116l0,2.2115l-0.201,0l-0.2011,0l0,0.2011l0,0.201l-0.201,0l-0.2011,0l0,0.2011l0,0.201l-0.201,0l-0.2011,0l0,0.2011l0,0.201l-0.6031,0l-0.6032,0l0,-0.201zm0.8143,-0.387c0.015,-0.181 0.0251,-0.191 0.201,-0.2061c0.1759,-0.0151 0.186,-0.0251 0.2011,-0.2011c0.015,-0.1759 0.0251,-0.1859 0.201,-0.201c0.1759,-0.0151 0.186,-0.0251 0.2011,-0.2011c0.015,-0.1759 0.0251,-0.1859 0.206,-0.201l0.186,-0.0151l0,-1.8094l0,-1.8045l-0.201,0l-0.2011,0l0,-1.8094l0,-1.8095l-0.201,0l-0.2011,0l0,-4.6241l0,-4.6241l-0.6031,0l-0.6032,0l0,4.6241l0,4.6241l-0.201,0l-0.2011,0l0,1.8095l0,1.8094l-0.201,0l-0.2011,0l0,1.8095l0,1.8094l0.2011,0l0.201,0l0,0.2011l0,0.201l0.2011,0c0.201,0 0.201,0 0.201,0.1961c0,0.196 0.005,0.201 0.191,0.2161c0.1759,0.0151 0.186,0.0251 0.2011,0.2061c0.015,0.1809 0.0201,0.1859 0.2111,0.1859c0.191,0 0.196,-0.005 0.2111,-0.1859zm0.4021,-18.2956l0.015,-0.392l0.191,-0.0151l0.186,-0.0151l0,-0.4021l0,-0.397l-1.0052,0l-1.0053,0l0,0.397l0,0.4021l0.191,0.0151l0.186,0.0151l0.0151,0.392l0.015,0.3871l0.5982,0l0.5981,0l0.0151,-0.3871z"/>
   <rect id="svg_27" fill="#E1E2DF" height="0.4579" width="0.44006" y="31.6696" x="22.6421"/>
   <rect id="svg_28" fill="#E1E2DF" height="0.4579" width="0.44006" y="32.0859" x="23.0288"/>
   <rect id="svg_29" fill="#E1E2DF" height="0.4579" width="0.44006" y="32.5082" x="23.4214"/>
   <rect id="svg_30" fill="#E1E2DF" height="0.4579" width="0.44006" y="33.2633" x="22.6421"/>
   <rect id="svg_31" fill="#E1E2DF" height="0.4579" width="0.44006" y="33.6796" x="23.0288"/>
   <rect id="svg_32" fill="#E1E2DF" height="0.4579" width="0.44006" y="34.1019" x="23.4214"/>
   <rect id="svg_33" fill="#E1E2DF" height="0.4579" width="0.44006" y="34.8571" x="22.6421"/>
   <rect id="svg_34" fill="#E1E2DF" height="0.4579" width="0.44006" y="35.2733" x="23.0288"/>
   <rect id="svg_35" fill="#E1E2DF" height="0.4579" width="0.44006" y="35.6954" x="23.4214"/>
   <rect id="svg_36" fill="#E1E2DF" height="0.4579" width="0.44006" y="36.4507" x="22.6421"/>
   <rect id="svg_37" fill="#E1E2DF" height="0.4579" width="0.44006" y="36.8669" x="23.0288"/>
   <rect id="svg_38" fill="#E1E2DF" height="0.4579" width="0.44006" y="37.2892" x="23.4214"/>
   <rect id="svg_39" fill="#E1E2DF" height="0.4579" width="0.44006" y="38.0446" x="22.6421"/>
   <rect id="svg_40" fill="#E1E2DF" height="0.4579" width="0.44006" y="38.4609" x="23.0288"/>
   <rect id="svg_41" fill="#E1E2DF" height="0.4579" width="0.44006" y="38.8828" x="23.4214"/>
   <rect id="svg_42" fill="#E1E2DF" height="0.4579" width="0.44006" y="39.9594" x="22.6421"/>
   <rect id="svg_43" fill="#E1E2DF" height="0.4579" width="0.44006" y="40.3756" x="23.0288"/>
   <rect id="svg_44" fill="#E1E2DF" height="0.4579" width="0.44006" y="40.7977" x="23.4214"/>
   <rect id="svg_45" fill="#E1E2DF" height="0.4579" width="0.44006" y="41.1903" x="23.814"/>
   <rect id="svg_46" fill="#E1E2DF" height="0.4579" width="0.44006" y="41.4222" x="22.2617"/>
   <rect id="svg_47" fill="#E1E2DF" height="0.4579" width="0.44006" y="41.8387" x="22.6484"/>
   <rect id="svg_48" fill="#E1E2DF" height="0.4579" width="0.44006" y="42.2609" x="23.0405"/>
   <rect id="svg_49" fill="#E1E2DF" height="0.4579" width="0.44006" y="42.6532" x="23.4331"/>
   <rect id="svg_50" fill="#E1E2DF" height="0.4579" width="0.44006" y="43.1111" x="23.7959"/>
   <rect id="svg_51" fill="#E1E2DF" height="0.4579" width="0.44006" y="43.3431" x="22.2441"/>
   <rect id="svg_52" fill="#E1E2DF" height="0.4579" width="0.44006" y="43.7594" x="22.6304"/>
   <rect id="svg_53" fill="#E1E2DF" height="0.4579" width="0.44006" y="44.1815" x="23.0229"/>
   <rect id="svg_54" fill="#E1E2DF" height="0.4579" width="0.44006" y="44.574" x="23.4155"/>
   <rect id="svg_55" fill="#E1E2DF" height="0.4579" width="0.44006" y="45.032" x="23.7783"/>
   <path id="svg_56" fill="#E1E2DF" d="m24.165,45.4333l0.4401,0l0,0.4579l-0.4401,0l0,-0.4579z"/>
   <rect id="svg_57" fill="#E1E2DF" height="0.4579" width="0.44006" y="45.032" x="21.8516"/>
   <rect id="svg_58" fill="#E1E2DF" height="0.4579" width="0.44006" y="45.4484" x="22.2378"/>
   <rect id="svg_59" fill="#E1E2DF" height="0.4579" width="0.44006" y="45.8705" x="22.6304"/>
   <rect id="svg_60" fill="#E1E2DF" height="0.4579" width="0.44006" y="46.2631" x="23.0229"/>
   <rect id="svg_61" fill="#E1E2DF" height="0.4579" width="0.44006" y="46.7209" x="23.3857"/>
   <path id="svg_62" fill="#E1E2DF" d="m23.7725,47.1223l0.44,0l0,0.4579l-0.44,0l0,-0.4579z"/>
   <path id="svg_63" fill="#FF1616" d="m24.2124,47.5356l0.446,0l0,0.4758l-0.446,0l0,-0.4758z"/>
   <path id="svg_64" fill="#FF1616" d="m23.8555,47.931l0.44,0l0,0.4579l-0.44,0l0,-0.4579z"/>
   <path id="svg_65" fill="#FF1616" d="m22.1309,47.931l0.44,0l0,0.4579l-0.44,0l0,-0.4579z"/>
   <path id="svg_66" fill="#FF1616" d="m23.4629,48.2968l0.44,0l0,0.4579l-0.44,0l0,-0.4579z"/>
   <path id="svg_67" fill="#FF1616" d="m22.5293,48.2968l0.4401,0l0,0.4579l-0.4401,0l0,-0.4579z"/>
   <path id="svg_69" fill="#E1E2DF" d="m24.2124,47.5535l0.4401,0l0,0.4579l-0.4401,0l0,-0.4579z"/>
  </g></svg>