<svg viewBox="0 0 176 24" xmlns="http://www.w3.org/2000/svg" color="text" width=""><path d="M16.1756 18.5195C14.9614 18.5195 13.9086 17.8098 13.4145 16.7792L10.1981 10.0416L7.58564 4.5646H11.154C12.3133 4.5646 13.3661 5.23221 13.8666 6.27899L16.1885 11.1402L18.9011 5.4299L18.688 4.97942L18.4652 4.51275C17.167 1.79047 14.4285 0.0598755 11.4221 0.0598755H0L2.3477 4.97942L8.75787 18.4158C8.87413 18.7075 9.00976 18.9894 9.16154 19.2617C10.1013 20.9663 11.6352 22.2853 13.4856 22.9465C13.8666 22.8006 14.309 22.5997 14.7741 22.321C14.829 22.2886 14.8839 22.2562 14.9388 22.2205C14.9937 22.1849 15.0518 22.1492 15.1067 22.1103C15.21 22.0423 15.3166 21.9677 15.4199 21.89C15.5297 21.8089 15.6331 21.7279 15.7332 21.6469C16.9474 20.6552 17.6159 19.5177 17.9549 18.8209C18.2714 18.1566 18.5911 17.4922 18.9076 16.8278C18.407 17.8325 17.3704 18.5195 16.1756 18.5195Z" fill="url(#paint0_linear_new)"></path><path d="M32.3515 0.0485284L23.5194 18.5568L23.2449 19.1337C23.2223 19.1758 23.1965 19.2212 23.1739 19.2633C23.1577 19.2957 23.1383 19.3281 23.1222 19.3573C23.119 19.3605 23.119 19.367 23.1157 19.3702C23.077 19.435 23.0382 19.4999 22.9995 19.5647C22.993 19.5744 22.9898 19.5841 22.9833 19.5938C22.9446 19.6554 22.9058 19.7138 22.8671 19.7753C22.8542 19.798 22.838 19.8175 22.8251 19.8402C22.7863 19.8952 22.7508 19.9503 22.7121 20.0054C22.6636 20.0767 22.612 20.1448 22.5603 20.2128C22.4182 20.404 22.2567 20.6017 22.0727 20.8027C22.0145 20.8642 21.9564 20.9258 21.8983 20.9874C21.8369 21.049 21.7788 21.1073 21.7174 21.1656C21.6561 21.224 21.5947 21.2823 21.5301 21.3406C21.5269 21.3439 21.5205 21.3504 21.514 21.3536C21.4107 21.4444 21.3106 21.5319 21.204 21.6161C21.1555 21.655 21.1103 21.6907 21.0651 21.7263C21.0522 21.736 21.0425 21.7425 21.0296 21.7522C21.0135 21.7652 20.9973 21.7782 20.9812 21.7911C20.9424 21.817 20.9069 21.8462 20.8681 21.8754C20.8165 21.911 20.768 21.9467 20.7164 21.9791C20.6647 22.0147 20.613 22.0504 20.5581 22.0828C20.1932 22.3226 19.8251 22.5171 19.4699 22.6759C19.4053 22.705 19.3439 22.731 19.2793 22.7569C19.092 22.8347 18.9047 22.906 18.7271 22.9675C18.6916 22.9805 18.6561 22.9935 18.6205 23.0032C18.5689 23.0194 18.514 23.0388 18.4623 23.0518C18.4106 23.068 18.359 23.081 18.3073 23.0972C18.078 23.162 17.8617 23.2106 17.6614 23.2527C17.5839 23.2689 17.5097 23.2819 17.4354 23.2949C17.3934 23.3013 17.3547 23.3078 17.3127 23.3143C17.2126 23.3305 17.1157 23.3435 17.0253 23.3532C17.0188 23.3532 17.0124 23.3532 17.0027 23.3564C16.9381 23.3629 16.8767 23.3694 16.8218 23.3759C16.7928 23.3791 16.7669 23.3791 16.7379 23.3824C16.6959 23.3856 16.6571 23.3888 16.6151 23.3921C16.599 23.3921 16.5861 23.3953 16.5699 23.3953C16.5409 23.3986 16.5086 23.3986 16.4827 23.3986C16.402 23.4018 16.3374 23.4018 16.2922 23.405C16.1372 23.4083 15.9628 23.405 15.7723 23.3953C15.7594 23.3953 15.7465 23.3953 15.7303 23.3921C15.6593 23.3888 15.5915 23.3824 15.5236 23.3791C15.4203 23.3694 15.3105 23.3597 15.1975 23.3467C15.1587 23.3435 15.1167 23.337 15.0748 23.3305C14.9327 23.3111 14.7841 23.2851 14.6291 23.256C14.3902 23.2073 14.1383 23.149 13.8767 23.0712C13.8121 23.0518 13.7475 23.0323 13.6797 23.0097C13.6151 22.987 13.5441 22.9643 13.4795 22.9416H13.4827C13.8638 22.7958 14.3062 22.5948 14.7712 22.3161C14.8261 22.2837 14.881 22.2513 14.9359 22.2157C14.9908 22.18 15.0489 22.1444 15.1038 22.1055C15.2072 22.0374 15.3137 21.9629 15.4171 21.8851C15.5269 21.8041 15.6302 21.7231 15.7303 21.642C16.9445 20.6504 17.613 19.5128 17.9521 18.8161C18.2685 18.1517 18.5883 17.4873 18.9047 16.823C19.0953 16.4211 19.289 16.0225 19.4795 15.6206L22.1437 10.0399L24.7821 4.50788C26.0802 1.7856 28.8155 0.0517697 31.8219 0.0452881L32.3515 0.0485284Z" fill="url(#paint1_linear_new)"></path><path d="M43.709 0.0485284L34.8768 18.5568L34.6023 19.1337C34.5797 19.1758 34.5539 19.2212 34.5313 19.2633C34.5151 19.2957 34.4958 19.3281 34.4796 19.3573C34.4764 19.3605 34.4764 19.367 34.4732 19.3702C34.4344 19.435 34.3957 19.4999 34.3569 19.5647C34.3504 19.5744 34.3472 19.5841 34.3408 19.5938C34.302 19.6554 34.2633 19.7138 34.2245 19.7753C34.2116 19.798 34.1954 19.8175 34.1825 19.8402C34.1438 19.8952 34.1083 19.9503 34.0695 20.0054C34.0211 20.0767 33.9694 20.1448 33.9177 20.2128C33.7756 20.404 33.6142 20.6017 33.4301 20.8027C33.372 20.8642 33.3138 20.9258 33.2557 20.9874C33.1944 21.049 33.1362 21.1073 33.0749 21.1656C33.0135 21.224 32.9522 21.2823 32.8876 21.3406C32.8843 21.3439 32.8779 21.3504 32.8714 21.3536C32.7681 21.4444 32.668 21.5319 32.5614 21.6161C32.513 21.655 32.4678 21.6907 32.4226 21.7263C32.4096 21.736 32.3999 21.7425 32.387 21.7522C32.3709 21.7652 32.3547 21.7782 32.3386 21.7911C32.2998 21.817 32.2643 21.8462 32.2256 21.8754C32.1739 21.911 32.1255 21.9467 32.0738 21.9791C32.0221 22.0147 31.9705 22.0504 31.9156 22.0828C31.5506 22.3226 31.1825 22.5171 30.8273 22.6759C30.7627 22.705 30.7013 22.731 30.6367 22.7569C30.4494 22.8347 30.2621 22.906 30.0845 22.9675C30.049 22.9805 30.0135 22.9935 29.978 23.0032C29.9263 23.0194 29.8714 23.0388 29.8197 23.0518C29.7681 23.068 29.7164 23.081 29.6647 23.0972C29.4354 23.162 29.2191 23.2106 29.0189 23.2527C28.9414 23.2689 28.8671 23.2819 28.7928 23.2949C28.7508 23.3013 28.7121 23.3078 28.6701 23.3143C28.57 23.3305 28.4731 23.3435 28.3827 23.3532C28.3762 23.3532 28.3698 23.3532 28.3601 23.3564C28.2955 23.3629 28.2341 23.3694 28.1792 23.3759C28.1502 23.3791 28.1243 23.3791 28.0953 23.3824C28.0533 23.3856 28.0146 23.3888 27.9726 23.3921C27.9564 23.3921 27.9435 23.3953 27.9274 23.3953C27.8983 23.3986 27.866 23.3986 27.8402 23.3986C27.7594 23.4018 27.6948 23.4018 27.6496 23.405C27.4946 23.4083 27.3202 23.405 27.1297 23.3953C27.1168 23.3953 27.1039 23.3953 27.0877 23.3921C27.0167 23.3888 26.9489 23.3824 26.8811 23.3791C26.7777 23.3694 26.6679 23.3597 26.5549 23.3467C26.5162 23.3435 26.4742 23.337 26.4322 23.3305C26.2901 23.3111 26.1416 23.2851 25.9865 23.256C25.7476 23.2073 25.4957 23.149 25.2341 23.0712C25.1695 23.0518 25.1049 23.0323 25.0371 23.0097C24.9725 22.987 24.9015 22.9643 24.8369 22.9416H24.8401C25.2212 22.7958 25.6636 22.5948 26.1286 22.3161C26.1835 22.2837 26.2384 22.2513 26.2933 22.2157C26.3482 22.18 26.4064 22.1444 26.4613 22.1055C26.5646 22.0374 26.6712 21.9629 26.7745 21.8851C26.8843 21.8041 26.9876 21.7231 27.0877 21.642C28.302 20.6504 28.9704 19.5128 29.3095 18.8161C29.626 18.1517 29.9457 17.4873 30.2621 16.823C30.4527 16.4211 30.6464 16.0225 30.837 15.6206L33.5011 10.0399L36.1395 4.50788C37.4377 1.7856 40.1729 0.0517697 43.1794 0.0452881L43.709 0.0485284Z" fill="url(#paint2_linear_new)"></path><path d="M68.1246 7.31771L65.4443 14.6646L62.1762 5.64221H59.4248L56.089 14.6193L53.4926 7.33716C53.1309 6.32602 52.1686 5.64545 51.0997 5.64545H49.6885L54.4162 18.573L54.4614 18.6994H57.5615L60.7359 10.3252L63.8651 18.6994H66.9685L71.7705 5.64545H70.511C69.4486 5.64545 68.4895 6.3163 68.1246 7.31771Z" fill="#111651"></path><path d="M141.19 7.31771L138.51 14.6646L135.242 5.64221H132.49L129.154 14.6193L126.558 7.33716C126.196 6.32602 125.234 5.64545 124.165 5.64545H122.754L127.482 18.573L127.527 18.6994H130.63L133.805 10.3252L136.934 18.6994H140.037L144.836 5.64545H143.576C142.517 5.64545 141.558 6.3163 141.19 7.31771Z" fill="#111651"></path><path d="M74.3455 5.64551H73.3896V18.6962H76.7288V8.03398C76.7288 6.71822 75.6599 5.64551 74.3455 5.64551Z" fill="#111651"></path><path d="M75.0712 0C73.8828 0 72.9883 0.849092 72.9883 1.97365C72.9883 3.09822 73.8828 3.94731 75.0712 3.94731C76.2596 3.94731 77.1541 3.06905 77.1541 1.90236C77.1541 0.816685 76.2596 0 75.0712 0Z" fill="#111651"></path><path d="M86.232 5.50293C84.5011 5.50293 83.0221 6.04414 82.0242 7.03907C81.8273 6.24183 81.1071 5.64552 80.2546 5.64552H78.8789V18.6963H82.218V12.098C82.218 9.79376 83.4322 8.47151 85.5474 8.47151C87.3849 8.47151 88.3569 9.56042 88.3569 11.6216V18.6963H91.696V11.2456C91.696 7.64834 89.6551 5.50293 86.232 5.50293Z" fill="#111651"></path><path d="M104.535 7.07797C103.515 6.04415 102.061 5.49969 100.301 5.49969C96.4908 5.49969 93.7266 8.1442 93.7266 11.7901C93.7266 15.4619 96.4908 18.1259 100.301 18.1259C101.932 18.1259 103.318 17.6398 104.338 16.7129V16.9138C104.338 19.4384 103.159 20.563 100.511 20.563C99.62 20.563 98.6997 20.4074 97.8536 20.1093C96.5393 19.6491 95.0732 20.1806 94.366 21.3699L94.282 21.5125L94.4112 21.6195C95.8159 22.7764 98.1604 23.4667 100.679 23.4667C105.323 23.4667 107.68 21.1496 107.68 16.5833V5.64553H106.353C105.475 5.64553 104.735 6.2548 104.535 7.07797ZM104.39 11.7901C104.39 13.8124 102.895 15.2254 100.754 15.2254C98.5996 15.2254 97.0947 13.8124 97.0947 11.7901C97.0947 9.79377 98.5996 8.40022 100.754 8.40022C102.895 8.40346 104.39 9.79701 104.39 11.7901Z" fill="#111651"></path><path d="M116.591 10.8827C115.092 10.6364 113.8 10.4225 113.8 9.51505C113.8 8.74374 114.718 8.28679 116.255 8.28679C117.11 8.28679 117.879 8.40994 118.602 8.66272C119.416 8.94791 120.33 8.56225 120.73 7.76501L121.26 6.71499L121.108 6.62101C119.988 5.94044 118.092 5.50293 116.28 5.50293C112.79 5.50293 110.532 7.13306 110.532 9.65765C110.532 12.811 113.368 13.2517 115.648 13.6082C117.088 13.8318 118.331 14.0263 118.331 14.8527C118.331 15.1508 118.331 16.0582 115.877 16.0582C114.882 16.0582 113.797 15.8476 112.819 15.4619C111.982 15.1314 111.014 15.4911 110.616 16.2819L110.1 17.3092L110.235 17.4064C111.462 18.2782 113.655 18.8648 115.69 18.8648C119.281 18.8648 121.602 17.2541 121.602 14.7587C121.602 11.7091 118.822 11.2489 116.591 10.8827Z" fill="#111651"></path><path d="M155.483 6.95482C154.485 6.00202 153.145 5.49969 151.582 5.49969C147.71 5.49969 145.007 8.24142 145.007 12.1693C145.007 16.1101 147.71 18.8615 151.582 18.8615C153.212 18.8615 154.582 18.3463 155.573 17.3643V18.6963H158.77V5.64553H157.159C156.355 5.64553 155.673 6.20295 155.483 6.95482ZM155.479 12.1693C155.479 14.4216 154.046 15.9383 151.914 15.9383C149.828 15.9383 148.372 14.3892 148.372 12.1693C148.372 9.94932 149.828 8.40022 151.914 8.40022C154.046 8.40346 155.479 9.91692 155.479 12.1693Z" fill="#111651"></path><path d="M168.463 5.50293C166.8 5.50293 165.411 6.03766 164.417 7.05528C164.216 6.24832 163.49 5.64552 162.624 5.64552H161.274V23.3015H164.614V17.4421C165.602 18.3754 166.922 18.8648 168.463 18.8648C172.348 18.8648 175.06 16.1133 175.06 12.1725C175.06 8.24465 172.348 5.50293 168.463 5.50293ZM171.673 12.1693C171.673 14.3892 170.216 15.9383 168.13 15.9383C166.031 15.9383 164.565 14.3892 164.565 12.1693C164.565 9.94932 166.031 8.40021 168.13 8.40021C170.216 8.40345 171.673 9.95256 171.673 12.1693Z" fill="#111651"></path><defs><linearGradient id="paint0_linear_new" x1="0.00074274" y1="11.5066" x2="18.9106" y2="11.5066" gradientUnits="userSpaceOnUse"><stop stop-color="#4CACF7"></stop><stop offset="1" stop-color="#2C72DB"></stop></linearGradient><linearGradient id="paint1_linear_new" x1="22.9182" y1="23.4144" x2="22.9182" y2="0.0493714" gradientUnits="userSpaceOnUse"><stop stop-color="#4EACF7"></stop><stop offset="1" stop-color="#2669D7"></stop></linearGradient><linearGradient id="paint2_linear_new" x1="34.2753" y1="23.4144" x2="34.2753" y2="0.0493714" gradientUnits="userSpaceOnUse"><stop stop-color="#4EABF7"></stop><stop offset="1" stop-color="#276AD8"></stop></linearGradient></defs></svg>