<svg width="56" height="30" xmlns="http://www.w3.org/2000/svg" color="text" class="sc-bdnxRM ePFVAE mobile-icon">
 <defs>
  <linearGradient y2="0.50015" x2="1.00016" y1="0.50015" x1="0.00004" id="paint3_linear">
   <stop stop-color="#4CACF7"/>
   <stop stop-color="#2C72DB" offset="1"/>
  </linearGradient>
  <linearGradient y2="0.00017" x2="0.50014" y1="1.00035" x1="0.50014" id="paint4_linear">
   <stop stop-color="#4EACF7"/>
   <stop stop-color="#2669D7" offset="1"/>
  </linearGradient>
  <linearGradient y2="0.00017" x2="0.50012" y1="1.00035" x1="0.50012" id="paint5_linear">
   <stop stop-color="#4EABF7"/>
   <stop stop-color="#276AD8" offset="1"/>
  </linearGradient>
 </defs>
 <g>
  <title>Layer 1</title>
  <path id="svg_1" fill="url(#paint3_linear)" d="m20.5759,23.49888c-1.5446,0 -2.8837,-0.9028 -3.5122,-2.2138l-4.0913,-8.5705l-3.32322,-6.96685l4.53912,0c1.4747,0 2.8138,0.84922 3.4505,2.18076l2.9535,6.18359l3.4505,-7.26366l-0.2711,-0.57302l-0.2834,-0.59363c-1.6513,-3.46282 -5.1347,-5.66419 -8.9591,-5.66419l-14.5292,0l2.98636,6.25782l8.15394,17.09158c0.1479,0.371 0.3204,0.7296 0.5135,1.0759c1.1953,2.1684 3.1465,3.8462 5.5003,4.6872c0.4847,-0.1855 1.0475,-0.4411 1.639,-0.7956c0.0698,-0.0413 0.1397,-0.0825 0.2095,-0.1278c0.0698,-0.0454 0.1438,-0.0907 0.2136,-0.1402c0.1314,-0.0866 0.267,-0.1814 0.3985,-0.2803c0.1396,-0.1031 0.2711,-0.2061 0.3984,-0.3092c1.5445,-1.2615 2.3948,-2.7084 2.8262,-3.5947c0.4025,-0.8451 0.8092,-1.6902 1.2118,-2.5353c-0.6368,1.2779 -1.9554,2.1519 -3.4752,2.1519z"/>
  <path id="svg_2" fill="url(#paint4_linear)" d="m41.1514,0.00412l-11.2348,23.54306l-0.3492,0.7338c-0.0287,0.0536 -0.0616,0.1113 -0.0903,0.1649c-0.0206,0.0413 -0.0452,0.0825 -0.0658,0.1196c-0.0041,0.0041 -0.0041,0.0124 -0.0082,0.0165c-0.0493,0.0824 -0.0986,0.1649 -0.1479,0.2473c-0.0082,0.0124 -0.0123,0.0248 -0.0205,0.0371c-0.0493,0.0783 -0.0986,0.1526 -0.1479,0.2309c-0.0164,0.0288 -0.0369,0.0536 -0.0534,0.0824c-0.0493,0.0701 -0.0945,0.1402 -0.1437,0.2103c-0.0617,0.0907 -0.1274,0.1772 -0.1931,0.2638c-0.1808,0.2432 -0.3861,0.4947 -0.6203,0.7503c-0.0739,0.0783 -0.1479,0.1566 -0.2218,0.235c-0.0781,0.0783 -0.152,0.1525 -0.23,0.2267c-0.0781,0.0742 -0.1561,0.1484 -0.2383,0.2226c-0.0041,0.0041 -0.0123,0.0124 -0.0205,0.0165c-0.1315,0.1154 -0.2588,0.2267 -0.3944,0.3339c-0.0616,0.0495 -0.1191,0.0948 -0.1766,0.1402c-0.0164,0.0123 -0.0288,0.0206 -0.0452,0.0329c-0.0205,0.0165 -0.0411,0.033 -0.0616,0.0495c-0.0493,0.033 -0.0945,0.0701 -0.1438,0.1072c-0.0657,0.0454 -0.1273,0.0907 -0.1931,0.1319c-0.0657,0.0454 -0.1314,0.0907 -0.2012,0.1319c-0.4642,0.3051 -0.9325,0.5524 -1.3844,0.7544c-0.0821,0.0371 -0.1602,0.0701 -0.2423,0.1031c-0.2383,0.0989 -0.4765,0.1896 -0.7025,0.268c-0.0451,0.0164 -0.0903,0.0329 -0.1355,0.0453c-0.0657,0.0206 -0.1356,0.0454 -0.2013,0.0618c-0.0657,0.0207 -0.1314,0.0371 -0.1972,0.0578c-0.2916,0.0824 -0.5668,0.1442 -0.8215,0.1978c-0.0986,0.0206 -0.1931,0.0371 -0.2876,0.0536c-0.0534,0.0083 -0.1027,0.0165 -0.1561,0.0248c-0.1273,0.0206 -0.2505,0.0371 -0.3655,0.0494c-0.0083,0 -0.0165,0 -0.0288,0.0041c-0.0822,0.0083 -0.1602,0.0165 -0.23,0.0248c-0.037,0.0041 -0.0699,0.0041 -0.1068,0.0082c-0.0534,0.0041 -0.1027,0.0083 -0.1561,0.0124c-0.0206,0 -0.037,0.0041 -0.0575,0.0041c-0.037,0.0041 -0.0781,0.0041 -0.111,0.0041c-0.1027,0.0042 -0.1848,0.0042 -0.2423,0.0083c-0.1972,0.0041 -0.419,0 -0.6614,-0.0124c-0.0164,0 -0.0328,0 -0.0534,-0.0041c-0.0903,-0.0041 -0.1766,-0.0124 -0.2629,-0.0165c-0.1314,-0.0124 -0.2711,-0.0247 -0.4149,-0.0412c-0.0492,-0.0041 -0.1026,-0.0124 -0.156,-0.0206c-0.1808,-0.0248 -0.3697,-0.0577 -0.5669,-0.0949c-0.304,-0.0618 -0.6244,-0.136 -0.9571,-0.2349c-0.0822,-0.0248 -0.1643,-0.0495 -0.2506,-0.0784c-0.0822,-0.0288 -0.1725,-0.0577 -0.2547,-0.0865l0.0041,0c0.4847,-0.1855 1.0475,-0.4411 1.639,-0.7956c0.0699,-0.0413 0.1397,-0.0825 0.2095,-0.1278c0.0698,-0.0454 0.1438,-0.0907 0.2136,-0.1402c0.1315,-0.0866 0.267,-0.1814 0.3985,-0.2803c0.1396,-0.1031 0.2711,-0.2061 0.3984,-0.3092c1.5446,-1.2615 2.3949,-2.7084 2.8262,-3.5948c0.4025,-0.8451 0.8092,-1.6901 1.2118,-2.5352c0.2423,-0.5112 0.4888,-1.0183 0.7312,-1.5295l3.3889,-7.0988l3.356,-7.03692c1.6514,-3.46283 5.1306,-5.66832 8.955,-5.67656l0.6737,0.00412z"/>
  <path id="svg_3" fill="url(#paint5_linear)" d="m55.5987,0.00412l-11.2348,23.54306l-0.3492,0.7338c-0.0288,0.0536 -0.0616,0.1113 -0.0904,0.1649c-0.0205,0.0413 -0.0452,0.0825 -0.0657,0.1196c-0.0041,0.0041 -0.0041,0.0124 -0.0082,0.0165c-0.0493,0.0824 -0.0986,0.1649 -0.1479,0.2473c-0.0082,0.0124 -0.0123,0.0248 -0.0205,0.0371c-0.0493,0.0783 -0.0986,0.1526 -0.1479,0.2309c-0.0164,0.0288 -0.037,0.0536 -0.0534,0.0824c-0.0493,0.0701 -0.0945,0.1402 -0.1438,0.2103c-0.0616,0.0907 -0.1273,0.1772 -0.193,0.2638c-0.1808,0.2432 -0.3862,0.4947 -0.6203,0.7503c-0.074,0.0783 -0.1479,0.1566 -0.2218,0.235c-0.0781,0.0783 -0.152,0.1525 -0.2301,0.2267c-0.078,0.0742 -0.1561,0.1484 -0.2382,0.2226c-0.0041,0.0041 -0.0124,0.0124 -0.0206,0.0165c-0.1314,0.1154 -0.2588,0.2267 -0.3943,0.3339c-0.0616,0.0495 -0.1191,0.0948 -0.1767,0.1402c-0.0164,0.0123 -0.0287,0.0206 -0.0451,0.0329c-0.0206,0.0165 -0.0411,0.033 -0.0617,0.0495c-0.0492,0.033 -0.0944,0.0701 -0.1437,0.1072c-0.0658,0.0454 -0.1274,0.0907 -0.1931,0.1319c-0.0657,0.0454 -0.1314,0.0907 -0.2013,0.1319c-0.4641,0.3051 -0.9324,0.5524 -1.3843,0.7544c-0.0821,0.0371 -0.1602,0.0701 -0.2424,0.1031c-0.2382,0.0989 -0.4765,0.1896 -0.7024,0.268c-0.0452,0.0164 -0.0904,0.0329 -0.1355,0.0453c-0.0658,0.0206 -0.1356,0.0454 -0.2013,0.0618c-0.0657,0.0207 -0.1315,0.0371 -0.1972,0.0578c-0.2916,0.0824 -0.5669,0.1442 -0.8216,0.1978c-0.0985,0.0206 -0.193,0.0371 -0.2875,0.0536c-0.0534,0.0083 -0.1027,0.0165 -0.1561,0.0248c-0.1273,0.0206 -0.2506,0.0371 -0.3656,0.0494c-0.0082,0 -0.0164,0 -0.0287,0.0041c-0.0822,0.0083 -0.1602,0.0165 -0.2301,0.0248c-0.0369,0.0041 -0.0698,0.0041 -0.1068,0.0082c-0.0534,0.0041 -0.1027,0.0083 -0.1561,0.0124c-0.0205,0 -0.0369,0.0041 -0.0575,0.0041c-0.0369,0.0041 -0.078,0.0041 -0.1109,0.0041c-0.1027,0.0042 -0.1848,0.0042 -0.2423,0.0083c-0.1972,0.0041 -0.419,0 -0.6614,-0.0124c-0.0164,0 -0.0329,0 -0.0534,-0.0041c-0.0904,-0.0041 -0.1766,-0.0124 -0.2629,-0.0165c-0.1315,-0.0124 -0.2711,-0.0247 -0.4149,-0.0412c-0.0493,-0.0041 -0.1027,-0.0124 -0.1561,-0.0206c-0.1807,-0.0248 -0.3697,-0.0577 -0.5669,-0.0949c-0.3039,-0.0618 -0.6243,-0.136 -0.9571,-0.2349c-0.0821,-0.0248 -0.1643,-0.0495 -0.2505,-0.0784c-0.0822,-0.0288 -0.1726,-0.0577 -0.2547,-0.0865l0.0041,0c0.4847,-0.1855 1.0475,-0.4411 1.639,-0.7956c0.0698,-0.0413 0.1396,-0.0825 0.2095,-0.1278c0.0698,-0.0454 0.1438,-0.0907 0.2136,-0.1402c0.1314,-0.0866 0.267,-0.1814 0.3984,-0.2803c0.1397,-0.1031 0.2712,-0.2061 0.3985,-0.3092c1.5445,-1.2615 2.3948,-2.7084 2.8262,-3.5948c0.4025,-0.8451 0.8092,-1.6901 1.2117,-2.5352c0.2424,-0.5112 0.4889,-1.0183 0.7312,-1.5295l3.389,-7.0988l3.356,-7.03692c1.6513,-3.46283 5.1306,-5.66832 8.955,-5.67656l0.6737,0.00412z"/>
 </g>
</svg>