<svg fill="none" xmlns="http://www.w3.org/2000/svg" viewBox="0 0 170 162">





<g>
<path d="M142.845 56.6602L141.144 55.5684L141.025 53.5511C139.301 23.5201 114.38 0 84.2862 0C69.6346 0 55.7108 5.58532 45.0861 15.7196C34.4929 25.8222 28.2589 39.3979 27.5231 53.9308L27.4203 55.9323L25.7431 57.032C9.62005 67.6251 0 85.3937 0 104.578C0 135.923 25.4979 161.421 56.8421 161.421C65.9559 161.421 74.6819 159.3 82.7751 155.131L84.5868 154.198L86.3984 155.131C94.4995 159.308 103.226 161.421 112.331 161.421C143.676 161.421 169.174 135.923 169.174 104.578C169.174 85.1089 159.332 67.1979 142.837 56.6602H142.845ZM50.1967 42.3013C56.051 28.6149 69.4289 19.7701 84.2862 19.7701C99.1434 19.7701 112.513 28.607 118.368 42.2776L120.836 48.029L114.578 47.7838C113.74 47.7521 113.043 47.7284 112.339 47.7284C103.226 47.7284 94.4995 49.8486 86.4064 54.0178L84.5947 54.9513L82.783 54.0178C74.6819 49.8407 65.9559 47.7284 56.85 47.7284C55.9482 47.7284 55.0067 47.7521 54.0416 47.7996L47.7205 48.1081L50.2046 42.2934L50.1967 42.3013ZM61.7154 141.31C60.062 141.532 58.4165 141.642 56.8421 141.642C36.4074 141.642 19.7781 125.013 19.7781 104.578C19.7781 96.5248 22.3255 88.8588 27.1513 82.4112L30.925 77.3717L33.8284 82.9571C38.4406 91.8255 45.3392 99.3649 53.7805 104.76L55.4814 105.852L55.6001 107.87C56.1538 117.584 59.2392 127.054 64.5239 135.25L67.902 140.495L61.7154 141.31ZM93.9062 104.578C93.9062 109.61 92.9094 114.499 90.9316 119.111C90.1009 121.05 89.0804 122.948 87.9016 124.76L84.5868 129.847L81.272 124.76C80.0932 122.956 79.0806 121.058 78.2499 119.127C76.2721 114.515 75.2674 109.618 75.2674 104.578V104.404C75.299 98.0596 72.0238 92.3319 66.7232 89.468C62.1426 86.9918 58.2029 83.6532 54.9988 79.5236C53.4957 77.5853 52.1824 75.4968 51.0907 73.3212L48.4404 67.9969L54.3738 67.6093C55.2994 67.546 56.0826 67.5223 56.8263 67.5223C58.4006 67.5223 60.0462 67.633 61.6996 67.8545C66.7153 68.5191 71.4621 70.1725 75.8053 72.7753C78.4635 74.3655 81.4935 75.212 84.571 75.212C87.6484 75.212 90.6784 74.3734 93.3366 72.7753C97.6799 70.1725 102.434 68.5191 107.442 67.8545C109.096 67.633 110.741 67.5223 112.316 67.5223C112.893 67.5223 113.486 67.5381 114.119 67.5697L120.164 67.8625L117.474 73.2816C116.469 75.3069 115.282 77.2372 113.953 79.0173C110.812 83.2102 106.73 86.7703 102.158 89.294C96.9599 92.1657 93.7954 97.8143 93.8825 104.048C93.8825 104.23 93.8825 104.412 93.8825 104.586L93.9062 104.578ZM112.339 141.642C110.765 141.642 109.119 141.532 107.466 141.31L101.279 140.495L104.658 135.25C110.013 126.928 113.115 117.323 113.605 107.49L113.708 105.488L115.385 104.389C123.692 98.9377 130.464 91.3746 134.965 82.5378L137.79 76.9841L141.611 81.9049C146.706 88.4633 149.396 96.3112 149.396 104.594C149.396 125.029 132.766 141.658 112.331 141.658L112.339 141.642Z" fill="url(#paint0_linear_6382_44173)" style=""/>
</g><g clip-path="url(#clip1_6382_44173)">
<path d="M489.625 56.0665C483.906 56.0665 479.248 51.5196 479.248 45.9256V45.4539C479.248 39.8599 483.906 35.313 489.625 35.313C495.344 35.313 500.002 39.8599 500.002 45.4539V45.9256C500.002 51.5196 495.344 56.0665 489.625 56.0665ZM489.625 37.1997C484.967 37.1997 481.179 40.9023 481.179 45.4539V45.9256C481.179 50.4772 484.967 54.1798 489.625 54.1798C494.282 54.1798 498.071 50.4772 498.071 45.9256V45.4539C498.071 40.9023 494.282 37.1997 489.625 37.1997Z" fill="white" style="fill:white;fill-opacity:1;"/>
<path d="M490.831 41.1896V42.6801H486.898V45.0432H489.909V46.5101H486.898V50.4061H485.006V41.1896H490.831ZM493.134 42.2179C492.8 42.2179 492.521 42.1188 492.294 41.916C492.077 41.7037 491.97 41.4443 491.97 41.1377C491.97 40.8312 492.077 40.5765 492.294 40.3736C492.521 40.1614 492.8 40.0576 493.134 40.0576C493.467 40.0576 493.742 40.1614 493.959 40.3736C494.186 40.5765 494.297 40.8312 494.297 41.1377C494.297 41.4443 494.186 41.7037 493.959 41.916C493.742 42.1188 493.467 42.2179 493.134 42.2179ZM494.065 43.0905V50.4061H492.173V43.0905H494.065Z" fill="white" style="fill:white;fill-opacity:1;"/>
</g>
<defs>
<linearGradient id="paint0_linear_6382_44173" x1="49.0603" y1="3.68961" x2="130.568" y2="144.406" gradientUnits="userSpaceOnUse">
<stop stop-color="#7544FF" style="stop-color:#7544FF;stop-color:color(display-p3 0.4578 0.2673 1.0000);stop-opacity:1;"/>
<stop offset="0.968831" stop-color="#A491FF" style="stop-color:#A491FF;stop-color:color(display-p3 0.6424 0.5704 1.0000);stop-opacity:1;"/>
</linearGradient>
<clipPath id="clip0_6382_44173">
<rect width="169.174" height="161.421" fill="white" style="fill:white;fill-opacity:1;"/>
</clipPath>
<clipPath id="clip1_6382_44173">
<rect width="20.7535" height="20.7535" fill="white" style="fill:white;fill-opacity:1;" transform="translate(479.246 35.313)"/>
</clipPath>
</defs>
</svg>