<svg fill="none" xmlns="http://www.w3.org/2000/svg" width="" height="" viewBox="0 0 31 38">

<path d="M13.0798 24.1893L13.5732 38C4.59754 37.1913 -1.2351 30.0067 0.223059 18.6803C0.565371 16.0173 1.29445 13.4259 2.30805 11.0668C2.30805 11.0668 7.63833 19.3728 13.0798 24.1893Z" fill="#47dba7"/>
<path d="M24.6116 5.79894C21.5886 11.2678 18.4811 15.8743 15.3292 19.5381C12.1461 16.415 8.74524 12.0274 5.01538 6.23681C7.66496 2.56409 11.1014 0.133486 14.6801 0.00391373C17.7965 -0.107787 21.5219 2.17984 24.6116 5.79894C24.6116 5.79447 24.6116 5.79894 24.6116 5.79894Z" fill="#47dba7"/>
<path d="M18.4813 37.8255L17.9878 23.9657C21.3042 20.3108 24.5628 15.7356 27.7192 10.298C28.9507 12.541 29.9065 15.0162 30.4266 17.5943C32.685 28.7867 27.3725 36.3778 18.4813 37.8255Z" fill="#47dba7"/>
</svg>